<svg xmlns="http://www.w3.org/2000/svg" xmlns:xlink="http://www.w3.org/1999/xlink" width="646.143" height="366.057" viewBox="0 0 484.607 274.543"><path d="M-.001 269.564V4.981A4.981 4.981 0 0 1 4.98 0h474.65a4.981 4.981 0 0 1 4.982 4.981v264.583a4.981 4.981 0 0 1-4.981 4.982H4.98a4.981 4.981 0 0 1-4.982-4.982zM484.612 0" fill="#f7f7f7"/><symbol id="a"><path d="M.679.677H.02L0 .44h.042c.009.109.017.194.161.194h.081V.043H.133V0c.08.002.183.002.217.002.061 0 .137 0 .217-.002v.043H.416v.591h.08C.64.634.648.55.657.44h.042l-.02.237z"/></symbol><symbol id="b"><path d="M.173.225c0 .033.007.192.124.192A.057.057 0 0 1 .276.371C.276.33.309.313.334.313S.392.33.392.371C.392.422.34.45.292.45.213.45.179.381.165.339H.164V.45L0 .442V.399c.062 0 .069 0 .069-.039V.043H0V0c.023.002.098.002.126.002.029 0 .11 0 .134-.002v.043H.173v.182z"/></symbol><symbol id="c"><path d="M.426.305c0 .092-.073.154-.214.154C.156.459.038.454.038.37.038.328.07.31.097.31c.03 0 .059.021.059.059a.055.055 0 0 1-.024.048c.033.009.057.009.076.009.068 0 .109-.038.109-.12v-.04C.159.266 0 .222 0 .111 0 .02.116 0 .185 0c.077 0 .126.042.146.086 0-.037 0-.08.101-.08h.051c.021 0 .029 0 .029.022 0 .021-.009.021-.023.021C.426.05.426.066.426.089v.216M.317.145C.317.051.233.033.201.033c-.049 0-.09.033-.09.079 0 .091.108.122.206.127V.145z"/></symbol><symbol id="d"><path d="M.309.692V.649c.062 0 .069 0 .069-.039V.408a.202.202 0 0 1-.135.048C.101.456 0 .368 0 .228 0 .085.099 0 .232 0c.055 0 .102.019.141.052V0l.178.006v.043c-.062 0-.069 0-.069.039V.7L.309.692M.373.107C.331.046.28.033.244.033.12.033.12.16.12.226c0 .047 0 .097.022.135.031.056.09.062.113.062A.146.146 0 0 0 .373.361V.107z"/></symbol><symbol id="e"><path d="M.179.623a.072.072 0 0 1-.072.072.072.072 0 0 1-.072-.072c0-.038.031-.072.072-.072.039 0 .072.031.072.072M.003.442V.399c.059 0 .066 0 .066-.039V.043H0V0c.023.002.092.002.119.002.028 0 .092 0 .116-.002v.043H.173V.45L.003.442z"/></symbol><symbol id="f"><path d="M.19.407h.144V.45H.19v.191H.148C.147.542.099.443 0 .44V.407h.081V.129C.081.023.163 0 .235 0c.074 0 .118.056.118.13v.053H.311V.131C.311.065.281.036.25.036c-.06 0-.06.067-.06.09v.281z"/></symbol><symbol id="g"><path d="M.499.225C.499.36.407.459.25.459.087.459 0 .355 0 .225 0 .094.092 0 .249 0c.163 0 .25.099.25.225M.25.036C.12.036.12.153.12.235c0 .047 0 .097.019.133.022.04.067.058.11.058.057 0 .093-.027.11-.055.02-.036.02-.088.02-.136 0-.083 0-.199-.129-.199z"/></symbol><symbol id="h"><path d="M.489.306C.489.401.448.45.338.45A.176.176 0 0 1 .17.34H.169v.11L0 .442V.399c.062 0 .069 0 .069-.039V.043H0V0c.023.002.095.002.123.002.028 0 .101 0 .124-.002v.043H.178v.213c0 .108.08.161.144.161.037 0 .058-.024.058-.1V.043H.311V0c.023.002.095.002.123.002.028 0 .101 0 .124-.002v.043H.489v.263z"/></symbol><symbol id="i"><path d="M.173.694 0 .686V.643c.062 0 .069 0 .069-.039V.043H0V0c.023.002.094.002.121.002.027 0 .098 0 .121-.002v.043H.173v.651z"/></symbol><symbol id="j"><path d="M.419.677C.412.695.41.7.386.7.361.7.359.695.352.677L.104.067C.097.051.097.049.069.046.044.043.04.043.018.043H0V0c.026.002.086.002.115.002.027 0 .1 0 .123-.002v.043c-.022 0-.06 0-.088.011l.005.015.053.13h.268L.539.043H.445V0c.032.002.129.002.167.002.032 0 .134 0 .159-.002v.043H.676L.419.677M.342.53.458.242H.225L.342.53z"/></symbol><symbol id="k"><path d="M.421.227c.023 0 .029 0 .029.025 0 .03-.007.105-.053.152a.211.211 0 0 1-.156.055C.085.459 0 .357 0 .231 0 .091.103 0 .254 0 .405 0 .45.106.45.123.45.138.435.138.429.138.413.138.412.135.406.122.38.057.314.036.266.036.121.036.12.171.12.227h.301M.12.256c.002.041.003.08.024.116a.111.111 0 0 0 .097.054c.107 0 .116-.12.117-.17H.12z"/></symbol><use xlink:href="#a" transform="matrix(11.9552 0 0 -11.9552 47.84 23.012)" fill="#b30000"/><use xlink:href="#b" transform="matrix(11.9552 0 0 -11.9552 55.994 23.012)" fill="#b30000"/><use xlink:href="#c" transform="matrix(11.9552 0 0 -11.9552 61.481 23.084)" fill="#b30000"/><use xlink:href="#d" transform="matrix(11.9552 0 0 -11.9552 68.068 23.084)" fill="#b30000"/><use xlink:href="#e" transform="matrix(11.9552 0 0 -11.9552 75.612 23.012)" fill="#b30000"/><use xlink:href="#f" transform="matrix(11.9552 0 0 -11.9552 79.08 23.084)" fill="#b30000"/><use xlink:href="#e" transform="matrix(11.9552 0 0 -11.9552 84.59 23.012)" fill="#b30000"/><use xlink:href="#g" transform="matrix(11.9552 0 0 -11.9552 88.177 23.084)" fill="#b30000"/><use xlink:href="#h" transform="matrix(11.9552 0 0 -11.9552 95.04 23.012)" fill="#b30000"/><use xlink:href="#c" transform="matrix(11.9552 0 0 -11.9552 102.416 23.084)" fill="#b30000"/><use xlink:href="#i" transform="matrix(11.9552 0 0 -11.9552 109.075 23.012)" fill="#b30000"/><use xlink:href="#j" transform="matrix(11.9552 0 0 -11.9552 117.24 23.012)" fill="#b30000"/><use xlink:href="#f" transform="matrix(11.9552 0 0 -11.9552 126.816 23.084)" fill="#b30000"/><use xlink:href="#f" transform="matrix(11.9552 0 0 -11.9552 132.053 23.084)" fill="#b30000"/><use xlink:href="#k" transform="matrix(11.9552 0 0 -11.9552 137.409 23.084)" fill="#b30000"/><use xlink:href="#h" transform="matrix(11.9552 0 0 -11.9552 143.673 23.012)" fill="#b30000"/><use xlink:href="#f" transform="matrix(11.9552 0 0 -11.9552 150.523 23.084)" fill="#b30000"/><use xlink:href="#e" transform="matrix(11.9552 0 0 -11.9552 156.035 23.012)" fill="#b30000"/><use xlink:href="#g" transform="matrix(11.9552 0 0 -11.9552 159.621 23.084)" fill="#b30000"/><use xlink:href="#h" transform="matrix(11.9552 0 0 -11.9552 166.484 23.012)" fill="#b30000"/><symbol id="l"><path d="M.491.352C.626.388.659.46.659.514c0 .1-.105.184-.29.184H0V.655h.106v-.6H0V.012c.029.002.133.002.169.002.036 0 .141 0 .17-.002v.043H.233v.284h.119c.04 0 .072-.012.094-.038.03-.034.03-.056.03-.123s0-.108.051-.142A.308.308 0 0 1 .683 0c.102 0 .114.09.114.104 0 .017-.008.02-.021.02-.019 0-.02-.007-.021-.02C.75.054.719.033.691.033.627.033.62.1.612.192.606.245.599.319.491.352M.35.372H.233v.283h.119C.515.655.518.573.518.514.518.459.517.372.35.372z"/></symbol><symbol id="m"><path d="M.247.043H.178v.192A.195.195 0 0 1 .307.188c.137 0 .244.083.244.229 0 .138-.093.227-.228.227a.237.237 0 0 1-.15-.052v.052L0 .636V.593c.062 0 .069 0 .069-.039V.043H0V0c.023.002.095.002.123.002.028 0 .101 0 .124-.002v.043M.178.544c.037.048.09.064.129.064.065 0 .124-.059.124-.191C.431.272.359.221.295.221A.14.14 0 0 0 .178.29v.254z"/></symbol><symbol id="n"><path d="M.802.306C.802.398.763.45.651.45a.178.178 0 0 1-.164-.1C.471.435.403.45.339.45A.18.18 0 0 1 .17.34H.169v.11L0 .442V.399c.062 0 .069 0 .069-.039V.043H0V0c.023.002.095.002.123.002.028 0 .101 0 .124-.002v.043H.178v.213c0 .109.081.161.144.161.037 0 .059-.022.059-.1V.043H.312V0c.023.002.095.002.123.002.028 0 .101 0 .124-.002v.043H.49v.213c0 .109.081.161.144.161.037 0 .059-.022.059-.1V.043H.624V0c.023.002.095.002.123.002.028 0 .101 0 .124-.002v.043H.802v.263z"/></symbol><symbol id="o"><path d="M.409.406c.009.011.009.013.009.019 0 .019-.01.019-.029.019H.027L.016.272h.042c.006.095.028.139.139.139h.09L.009.04C0 .029 0 .027 0 .02 0 0 .009 0 .029 0h.375l.017.198H.379C.371.092.349.036.223.036H.132l.277.37z"/></symbol><use xlink:href="#l" transform="matrix(11.9552 0 0 -11.9552 294.263 21.993)" fill="#0000b3"/><use xlink:href="#k" transform="matrix(11.9552 0 0 -11.9552 304.21 21.922)" fill="#0000b3"/><use xlink:href="#m" transform="matrix(11.9552 0 0 -11.9552 310.39 24.17)" fill="#0000b3"/><use xlink:href="#c" transform="matrix(11.9552 0 0 -11.9552 317.85 21.922)" fill="#0000b3"/><use xlink:href="#b" transform="matrix(11.9552 0 0 -11.9552 324.402 21.85)" fill="#0000b3"/><use xlink:href="#c" transform="matrix(11.9552 0 0 -11.9552 329.89 21.922)" fill="#0000b3"/><use xlink:href="#n" transform="matrix(11.9552 0 0 -11.9552 336.525 21.85)" fill="#0000b3"/><use xlink:href="#k" transform="matrix(11.9552 0 0 -11.9552 347.607 21.922)" fill="#0000b3"/><use xlink:href="#f" transform="matrix(11.9552 0 0 -11.9552 353.62 21.922)" fill="#0000b3"/><use xlink:href="#k" transform="matrix(11.9552 0 0 -11.9552 358.977 21.922)" fill="#0000b3"/><use xlink:href="#b" transform="matrix(11.9552 0 0 -11.9552 365.158 21.85)" fill="#0000b3"/><use xlink:href="#e" transform="matrix(11.9552 0 0 -11.9552 370.765 21.85)" fill="#0000b3"/><use xlink:href="#o" transform="matrix(11.9552 0 0 -11.9552 374.351 21.85)" fill="#0000b3"/><use xlink:href="#k" transform="matrix(11.9552 0 0 -11.9552 380.329 21.922)" fill="#0000b3"/><use xlink:href="#d" transform="matrix(11.9552 0 0 -11.9552 386.546 21.922)" fill="#0000b3"/><use xlink:href="#j" transform="matrix(11.9552 0 0 -11.9552 398.513 21.85)" fill="#0000b3"/><use xlink:href="#f" transform="matrix(11.9552 0 0 -11.9552 408.089 21.922)" fill="#0000b3"/><use xlink:href="#f" transform="matrix(11.9552 0 0 -11.9552 413.325 21.922)" fill="#0000b3"/><use xlink:href="#k" transform="matrix(11.9552 0 0 -11.9552 418.681 21.922)" fill="#0000b3"/><use xlink:href="#h" transform="matrix(11.9552 0 0 -11.9552 424.946 21.85)" fill="#0000b3"/><use xlink:href="#f" transform="matrix(11.9552 0 0 -11.9552 431.796 21.922)" fill="#0000b3"/><use xlink:href="#e" transform="matrix(11.9552 0 0 -11.9552 437.307 21.85)" fill="#0000b3"/><use xlink:href="#g" transform="matrix(11.9552 0 0 -11.9552 440.894 21.922)" fill="#0000b3"/><use xlink:href="#h" transform="matrix(11.9552 0 0 -11.9552 447.756 21.85)" fill="#0000b3"/><path d="M135.725 46.773H85.009a2.989 2.989 0 0 0-2.989 2.989v22.25A2.989 2.989 0 0 0 85.01 75h50.716a2.989 2.989 0 0 0 2.989-2.989V49.762a2.989 2.989 0 0 0-2.989-2.989zM82.02 75" fill="#fff"/><path stroke-width=".797" stroke-miterlimit="10" fill="none" stroke="#000" d="M135.725 46.773H85.009a2.989 2.989 0 0 0-2.989 2.989v22.25A2.989 2.989 0 0 0 85.01 75h50.716a2.989 2.989 0 0 0 2.989-2.989V49.762a2.989 2.989 0 0 0-2.989-2.989zM82.02 75"/><symbol id="p"><path d="M.458.411.374.61.369.623c0 .006.017.025.059.029.01.001.02.002.02.019 0 .012-.012.012-.015.012L.307.68.195.683c-.006 0-.018 0-.018-.02C.177.652.187.652.2.652.26.652.266.642.275.62L.393.341.182.114.169.103A.202.202 0 0 0 .022.031C.009.03 0 .03 0 .011 0 .01 0 0 .013 0l.094.003L.219 0c.006 0 .018 0 .018.02 0 .01-.01.011-.012.011-.009.001-.04.003-.04.031 0 .016.015.032.027.045l.102.108.09.098.101-.239L.51.06C.51.052.491.035.452.031.441.03.432.029.432.012.432 0 .443 0 .447 0l.126.003L.684 0c.007 0 .019 0 .019.019 0 .012-.01.012-.018.012C.618.032.616.035.599.075.56.168.493.324.47.384c.068.07.173.189.205.217a.204.204 0 0 0 .127.051c.013.001.022.001.022.02 0 .001 0 .011-.013.011L.717.68.606.683C.6.683.587.683.587.663c0-.007.005-.01.012-.011.009-.001.04-.003.04-.031C.639.607.628.594.62.585L.458.411z"/></symbol><use xlink:href="#p" transform="matrix(9.9626 0 0 -9.9626 106.118 56.901)"/><symbol id="q"><path d="m.16.168.031.128a.33.33 0 0 0 .063.089.157.157 0 0 0 .106.043c.054 0 .054-.053.054-.07C.414.297.367.175.356.144.344.113.34.103.34.084.34.03.381 0 .426 0c.096 0 .135.143.135.154 0 .005-.003.012-.013.012C.537.166.536.161.532.148.507.063.465.025.429.025c-.007 0-.025 0-.025.032 0 .025.01.051.018.073.02.051.06.157.06.213 0 .089-.066.11-.119.11C.27.453.221.387.205.366a.094.094 0 0 1-.097.087C.066.453.045.422.031.395A.477.477 0 0 1 0 .299C0 .29.007.287.014.287c.011 0 .013.005.018.025.019.079.04.116.074.116.03 0 .03-.032.03-.047C.136.36.128.329.122.303L.101.222.061.058C.054.034.054.032.054.029.054.016.063 0 .085 0c.014 0 .029.009.036.021a.652.652 0 0 1 .016.058L.16.168z"/></symbol><use xlink:href="#q" transform="matrix(8.9664 0 0 -8.9664 99.828 70.948)"/><symbol id="r"><path d="M.482.452c.011.011.014.016.014.023 0 .013-.01.022-.021.022C.467.497.466.495.454.484L.248.279.033.493a.018.018 0 0 1-.011.004A.022.022 0 0 1 0 .475C0 .467.004.463.015.452L.218.249.015.046C.001.032 0 .027 0 .022 0 .01.01 0 .022 0c.001 0 .006 0 .011.003l.215.215L.457.01C.463.004.466 0 .475 0c.011 0 .021.009.021.022 0 .004-.002.01-.005.012C.489.038.312.215.278.248l.204.204z"/></symbol><use xlink:href="#r" transform="matrix(8.9664 0 0 -8.9664 108.529 70.831)"/><symbol id="s"><path d="M.482.671a.06.06 0 0 1 .004.02C.486.7.48.705.471.705.457.705.369.697.349.695.339.694.328.693.328.676c0-.013.011-.013.027-.013.047 0 .047-.007.047-.016C.402.64.393.605.388.584L.369.507A3.93 3.93 0 0 1 .34.391C.321.427.29.453.245.453.129.453 0 .315 0 .162 0 .052.07 0 .137 0c.065 0 .118.054.134.073C.282.018.332 0 .364 0 .393 0 .418.013.44.055a.416.416 0 0 1 .032.099c0 .005-.003.012-.013.012C.447.166.446.161.442.142.42.055.398.025.367.025.342.025.336.049.336.071c0 .013.005.041.006.044l.14.556M.275.132C.271.116.27.114.254.094.218.051.177.025.14.025.091.025.074.076.074.119a.68.68 0 0 0 .053.212c.032.06.078.097.118.097.067 0 .082-.081.082-.086L.324.327.275.132z"/></symbol><use xlink:href="#s" transform="matrix(8.9664 0 0 -8.9664 116.767 70.948)"/><path d="M58.392 95.64H7.676a2.989 2.989 0 0 0-2.99 2.989v22.482a2.989 2.989 0 0 0 2.99 2.989h50.716a2.989 2.989 0 0 0 2.989-2.99V98.63a2.989 2.989 0 0 0-2.99-2.99zM4.687 124.1" fill="#ffd9d9"/><path stroke-width=".797" stroke-miterlimit="10" fill="none" stroke="#000" d="M58.392 95.64H7.676a2.989 2.989 0 0 0-2.99 2.989v22.482a2.989 2.989 0 0 0 2.99 2.989h50.716a2.989 2.989 0 0 0 2.989-2.99V98.63a2.989 2.989 0 0 0-2.99-2.99zM4.687 124.1"/><symbol id="t"><path d="M.389.2a.49.49 0 0 1 .302.43c0 .161-.106.269-.255.269C.22.899 0 .672 0 .439 0 .273.112.172.256.172a.37.37 0 0 1 .098.015L.35.11C.35.078.35 0 .433 0 .552 0 .6.183.6.194c0 .007-.007.01-.011.01C.581.204.579.199.577.193.553.122.495.097.46.097.414.097.399.124.389.2M.2.208C.122.239.088.317.088.407c0 .069.026.211.102.319.073.102.167.148.24.148.1 0 .173-.078.173-.212 0-.1-.051-.334-.219-.428C.379.269.369.342.296.342A.107.107 0 0 1 .194.24C.194.22.2.209.2.208M.262.197c-.014 0-.046 0-.046.043 0 .04.038.08.08.08S.357.296.357.235C.357.22.356.219.346.215A.222.222 0 0 0 .262.197z"/></symbol><use xlink:href="#t" transform="matrix(9.9626 0 0 -9.9626 29.584 107.7)"/><use xlink:href="#q" transform="matrix(8.9664 0 0 -8.9664 20.209 119.814)"/><use xlink:href="#r" transform="matrix(8.9664 0 0 -8.9664 28.91 119.697)"/><use xlink:href="#s" transform="matrix(8.9664 0 0 -8.9664 37.149 119.814)"/><symbol id="u"><path d="m.241.674.003.015c0 .016-.02.015-.032.014L.1.694C.083.693.07.692.07.668.07.653.083.653.099.653.128.653.135.65.148.646c0-.012 0-.014-.004-.03L.004.057C0 .041 0 .036 0 .034 0 .009.02 0 .035 0a.05.05 0 0 1 .041.023C.083.036.123.202.13.234.197.229.269.213.269.154c0-.005 0-.01-.003-.021C.263.118.263.112.263.104.263.038.319 0 .376 0c.097 0 .132.146.132.154 0 .002-.001.014-.019.014C.475.168.473.162.468.145.458.109.43.033.379.033.341.033.341.076.341.087c0 .016 0 .017.005.037 0 .001.005.021.005.033 0 .077-.087.101-.164.108a.627.627 0 0 1 .085.066c.05.044.102.087.157.087.013 0 .025-.003.034-.013a.059.059 0 0 1-.05-.056C.413.317.439.31.453.31c.022 0 .058.016.058.066C.511.419.479.451.43.451.367.451.308.403.262.363a.427.427 0 0 0-.12-.085l.099.396z"/></symbol><use xlink:href="#u" transform="matrix(5.9776 0 0 -5.9776 42.09 120.838)"/><path d="M213.058 95.64h-50.716a2.989 2.989 0 0 0-2.989 2.989v22.482a2.989 2.989 0 0 0 2.99 2.989h50.715a2.989 2.989 0 0 0 2.99-2.99V98.63a2.989 2.989 0 0 0-2.99-2.99zm-53.704 28.46" fill="#ffd9d9"/><path stroke-width=".797" stroke-miterlimit="10" fill="none" stroke="#000" d="M213.058 95.64h-50.716a2.989 2.989 0 0 0-2.989 2.989v22.482a2.989 2.989 0 0 0 2.99 2.989h50.715a2.989 2.989 0 0 0 2.99-2.99V98.63a2.989 2.989 0 0 0-2.99-2.99zm-53.704 28.46"/><symbol id="v"><path d="M.471.404C.47.407.466.415.466.418l.029.023.175.135c.094.069.133.073.163.076.008.001.018.002.018.02C.851.676.848.683.84.683.818.683.793.68.769.68L.658.683c-.007 0-.019 0-.019-.02 0-.007.005-.01.012-.011C.673.65.682.645.682.631.682.613.652.59.646.585l-.39-.3.08.321C.345.642.347.652.42.652c.025 0 .034 0 .034.02C.454.681.446.683.44.683L.312.68.183.683c-.007 0-.02 0-.02-.019 0-.012.009-.012.029-.012A.59.59 0 0 0 .235.65C.251.648.257.645.257.634L.253.615.119.078C.109.039.107.031.028.031.011.031 0 .031 0 .012 0 0 .012 0 .015 0l.127.003.064-.001L.271 0c.007 0 .02 0 .02.02 0 .011-.009.011-.028.011-.037 0-.065 0-.065.018 0 .007.006.029.009.044l.04.157.149.116.116-.269C.524.07.524.068.524.062.524.032.481.031.472.031.461.031.45.031.45.011.45 0 .462 0 .464 0l.122.003L.684 0c.005 0 .018 0 .018.02 0 .011-.011.011-.02.011C.641.032.628.041.613.076L.471.404z"/></symbol><use xlink:href="#v" transform="matrix(9.9626 0 0 -9.9626 183.49 105.768)"/><use xlink:href="#q" transform="matrix(8.9664 0 0 -8.9664 174.874 119.814)"/><use xlink:href="#r" transform="matrix(8.9664 0 0 -8.9664 183.575 119.697)"/><use xlink:href="#s" transform="matrix(8.9664 0 0 -8.9664 191.813 119.814)"/><use xlink:href="#u" transform="matrix(5.9776 0 0 -5.9776 196.755 120.838)"/><path d="M138.56 121.152H82.174a2.989 2.989 0 0 0-2.988 2.99v23.822a2.989 2.989 0 0 0 2.988 2.988h56.386a2.989 2.989 0 0 0 2.988-2.988V124.14a2.989 2.989 0 0 0-2.988-2.989zm-59.374 29.8" fill="#ffbfbf"/><path stroke-width=".797" stroke-miterlimit="10" fill="none" stroke="#000" d="M138.56 121.152H82.174a2.989 2.989 0 0 0-2.988 2.99v23.822a2.989 2.989 0 0 0 2.988 2.988h56.386a2.989 2.989 0 0 0 2.988-2.988V124.14a2.989 2.989 0 0 0-2.988-2.989zm-59.374 29.8"/><use xlink:href="#t" transform="matrix(9.9626 0 0 -9.9626 99.192 134.786)"/><use xlink:href="#v" transform="matrix(9.9626 0 0 -9.9626 106.963 132.853)"/><symbol id="w"><path d="M.443.605C.45.634.452.637.474.639l.06.001C.595.64.621.64.646.632.691.618.693.589.693.553c0-.016 0-.029-.007-.081L.684.461c0-.01.007-.015.017-.015.015 0 .017.009.019.025l.027.191c0 .014-.012.014-.03.014H.102c-.025 0-.027 0-.034-.021L.005.478C.004.474 0 .465 0 .46 0 .456.002.446.017.446.03.446.032.451.038.47c.058.16.091.17.243.17h.042C.353.64.354.639.354.63c0-.001 0-.006-.004-.021L.218.083C.209.046.206.036.101.036c-.036 0-.045 0-.045-.022C.056.011.058 0 .073 0l.086.003.086.001.09-.001L.419 0c.008 0 .023 0 .023.022 0 .014-.01.014-.041.014L.343.038C.309.041.307.045.307.057c0 .007 0 .009.004.023l.132.525z"/></symbol><use xlink:href="#w" transform="matrix(6.9738 0 0 -6.9738 116.054 129.237)"/><use xlink:href="#q" transform="matrix(8.9664 0 0 -8.9664 99.436 146.899)"/><use xlink:href="#r" transform="matrix(8.9664 0 0 -8.9664 108.137 146.782)"/><use xlink:href="#q" transform="matrix(8.9664 0 0 -8.9664 116.258 146.899)"/><path stroke-width=".797" stroke-miterlimit="10" fill="none" stroke="#000" d="m87.455 75.399-27.87 17.644"/><path d="m57.07 94.634 4.35-.894-2.004-.59.324-2.064z"/><path stroke-width=".7969601500000001" stroke-miterlimit="10" fill="none" stroke="#000" d="m57.07 94.634 4.35-.894-2.004-.59.324-2.064z"/><path stroke-width=".797" stroke-miterlimit="10" fill="none" stroke="#000" d="m133.279 75.399 27.87 17.644"/><path d="m163.663 94.634-2.669-3.548.324 2.064-2.004.59z"/><path stroke-width=".7969601500000001" stroke-miterlimit="10" fill="none" stroke="#000" d="m163.663 94.634-2.669-3.548.324 2.064-2.004.59z"/><path stroke-width=".797" stroke-miterlimit="10" fill="none" stroke="#000" d="m61.779 119.604 13.115 4.442"/><path d="m77.712 125-3.43-2.82.8 1.93-1.808 1.046z"/><path stroke-width=".7969681200000001" stroke-miterlimit="10" fill="none" stroke="#000" d="m77.712 125-3.43-2.82.8 1.93-1.808 1.046z"/><path stroke-width=".797" stroke-miterlimit="10" fill="none" stroke="#000" d="m158.955 119.604-13.115 4.442"/><path d="m143.022 125 4.438.156-1.809-1.046.8-1.93z"/><path stroke-width=".7969681200000001" stroke-miterlimit="10" fill="none" stroke="#000" d="m143.022 125 4.438.156-1.809-1.046.8-1.93z"/><symbol id="x"><path d="M.648.699c0 .016 0 .026-.013.026C.628.725.627.724.618.711L.567.637a.268.268 0 0 1-.198.088A.367.367 0 0 1 0 .363C0 .161.167 0 .37 0c.168 0 .278.133.278.255 0 .01 0 .019-.016.019C.621.274.618.269.617.259A.233.233 0 0 0 .379.033c-.085 0-.275.052-.275.33 0 .269.18.329.275.329.094 0 .21-.067.236-.239C.616.445.617.438.631.438c.017 0 .017.007.017.026v.235z"/></symbol><symbol id="y"><path d="M.47.223a.235.235 0 0 1-.47 0A.23.23 0 0 1 .235 0C.364 0 .47.098.47.223M.235.031a.136.136 0 0 0-.118.061.263.263 0 0 0-.028.14c0 .038 0 .098.031.141a.14.14 0 0 0 .115.055.14.14 0 0 0 .118-.06.251.251 0 0 0 .028-.136C.381.186.379.131.351.089A.137.137 0 0 0 .235.031z"/></symbol><symbol id="z"><path d="M.74.303C.74.384.705.441.596.441A.173.173 0 0 1 .442.349C.424.421.367.441.302.441A.172.172 0 0 1 .146.345H.145v.096L0 .43V.397C.068.397.076.39.076.341V.078C.076.033.064.033 0 .033V0c.043.003.087.003.114.003.029 0 .071 0 .114-.003v.033c-.064 0-.076 0-.076.045v.181c0 .105.079.154.142.154C.359.413.37.362.37.307V.078C.37.033.358.033.294.033V0c.043.003.087.003.114.003.029 0 .071 0 .114-.003v.033c-.064 0-.076 0-.076.045v.181c0 .105.079.154.142.154.065 0 .076-.051.076-.106V.078C.664.033.652.033.588.033V0c.043.003.087.003.114.003.029 0 .071 0 .114-.003v.033C.752.033.74.033.74.078v.225z"/></symbol><symbol id="A"><path d="M.228.033c-.064 0-.076 0-.076.045v.165a.171.171 0 0 1 .13-.059c.127 0 .237.098.237.226a.224.224 0 0 1-.222.225.202.202 0 0 1-.148-.062v.062L0 .624V.591C.071.591.076.585.076.543V.078C.076.033.064.033 0 .033V0c.043.003.087.003.114.003.029 0 .071 0 .114-.003v.033M.152.527c.023.04.073.077.136.077C.365.604.43.519.43.41.43.295.358.212.277.212a.133.133 0 0 0-.113.065C.152.294.152.295.152.314v.213z"/></symbol><symbol id="B"><path d="M.149.694 0 .683V.65C.068.65.076.643.076.594V.078C.076.033.064.033 0 .033V0c.039.003.095.003.112.003.02 0 .074 0 .113-.003v.033c-.064 0-.076 0-.076.045v.616z"/></symbol><symbol id="C"><path d="M.383.238c.022 0 .028 0 .028.023 0 .089-.049.195-.19.195A.224.224 0 0 1 0 .229C0 .1.108 0 .234 0c.127 0 .177.107.177.13 0 .004-.003.014-.016.014C.384.144.382.137.38.131A.146.146 0 0 0 .119.098c-.03.046-.03.11-.03.14h.294M.09.264c.009.14.094.164.131.164.117 0 .121-.141.122-.164H.09z"/></symbol><symbol id="D"><path d="M.291.234c.028.035.057.069.087.102a.168.168 0 0 0 .131.062v.033C.47.428.468.428.423.428c-.005 0-.064 0-.095.003V.398C.347.396.351.384.351.371S.346.346.334.332L.271.258.192.352C.18.366.18.373.18.375c0 .007.006.022.031.023v.033C.171.428.115.428.104.428c-.018 0-.069 0-.099.003V.398C.073.398.074.397.126.336L.229.211.138.104A.177.177 0 0 0 0 .033V0c.037.003.044.003.086.003.002 0 .063 0 .095-.003v.033C.168.035.157.042.157.06c0 .018.012.032.015.037L.25.186.332.088c.02-.023.02-.025.02-.032C.352.048.345.034.321.033V0c.043.003.088.003.107.003.018 0 .069 0 .099-.003v.033C.465.033.455.038.429.069L.291.234z"/></symbol><symbol id="E"><path d="M.153.616a.056.056 0 0 1-.056.056.056.056 0 1 1 .056-.056M.003.43V.397C.067.397.076.391.076.342V.078C.076.033.064.033 0 .033V0c.039.003.095.003.11.003.013 0 .073 0 .108-.003v.033C.153.033.149.038.149.077v.364L.003.43z"/></symbol><symbol id="F"><path d="M.166.408h.149v.033H.166v.184H.135C.134.534.093.439 0 .436V.408h.09V.135C.09.018.18 0 .226 0c.067 0 .107.06.107.135v.056H.302V.137C.302.068.271.031.233.031.166.031.166.117.166.133v.275z"/></symbol><symbol id="G"><path d="M.422.534c.025.057.062.067.095.068v.033C.482.632.48.632.438.632c-.004 0-.057 0-.086.003V.602C.381.6.395.584.395.561A.062.062 0 0 0 .389.536L.282.294.166.556C.159.571.159.573.159.577c0 .024.031.025.053.025v.033C.167.632.124.632.102.632c-.021 0-.069 0-.101.003V.602C.053.602.067.6.084.562L.242.204C.197.098.167.028.097.028A.073.073 0 0 0 .056.04c.007.002.03.013.03.042C.086.11.065.125.043.125.023.125 0 .112 0 .081 0 .037.043 0 .097 0c.089 0 .137.107.141.117l.184.417z"/></symbol><symbol id="H"><path d="M.111.375a.055.055 0 0 1-.055.056A.055.055 0 0 1 0 .376C0 .342.027.32.055.32c.034 0 .056.027.056.055m0-.32a.055.055 0 0 1-.055.056A.055.055 0 0 1 0 .056C0 .022.027 0 .055 0c.034 0 .056.027.056.055z"/></symbol><use xlink:href="#x" transform="matrix(7.9701 0 0 -7.9701 70.757 164.536)" fill="#b30000"/><use xlink:href="#y" transform="matrix(7.9701 0 0 -7.9701 76.64 164.449)" fill="#b30000"/><use xlink:href="#z" transform="matrix(7.9701 0 0 -7.9701 80.959 164.369)" fill="#b30000"/><use xlink:href="#A" transform="matrix(7.9701 0 0 -7.9701 87.965 165.915)" fill="#b30000"/><use xlink:href="#B" transform="matrix(7.9701 0 0 -7.9701 92.723 164.369)" fill="#b30000"/><use xlink:href="#C" transform="matrix(7.9701 0 0 -7.9701 94.978 164.449)" fill="#b30000"/><use xlink:href="#D" transform="matrix(7.9701 0 0 -7.9701 98.637 164.369)" fill="#b30000"/><use xlink:href="#E" transform="matrix(7.9701 0 0 -7.9701 103.307 164.369)" fill="#b30000"/><use xlink:href="#F" transform="matrix(7.9701 0 0 -7.9701 105.483 164.449)" fill="#b30000"/><use xlink:href="#G" transform="matrix(7.9701 0 0 -7.9701 108.543 165.995)" fill="#b30000"/><use xlink:href="#H" transform="matrix(7.9701 0 0 -7.9701 113.58 164.369)" fill="#b30000"/><symbol id="I"><path d="M.73.451a.261.261 0 0 1-.274.274A.488.488 0 0 1 0 .271C0 .117.108 0 .276 0 .5 0 .73.215.73.451M.284.033C.182.033.099.106.099.249c0 .016 0 .183.115.325a.33.33 0 0 0 .235.12c.1 0 .188-.069.188-.208A.565.565 0 0 0 .513.153a.316.316 0 0 0-.229-.12z"/></symbol><use xlink:href="#I" transform="matrix(7.9701 0 0 -7.9701 119.386 164.536)" fill="#b30000"/><symbol id="J"><path d="M.23 0c.008 0 .02 0 .02.012C.25.016.249.017.236.03.099.159.065.345.065.5c0 .288.119.423.17.469C.249.982.25.983.25.988.25.993.246 1 .236 1 .22 1 .17.949.162.94A.633.633 0 0 1 0 .5C0 .276.094.096.23 0z"/></symbol><use xlink:href="#J" transform="matrix(7.9701 0 0 -7.9701 126.462 166.362)" fill="#b30000"/><symbol id="K"><path d="m.17.174.016.068C.2.296.2.297.223.33c.033.049.08.093.147.093.036 0 .057-.021.057-.068A.862.862 0 0 0 .366.137C.353.104.353.098.353.085.353.028.4 0 .443 0c.098 0 .139.14.139.153 0 .01-.008.013-.015.013C.555.166.553.159.55.149.526.067.484.028.446.028.43.028.422.038.422.061a.19.19 0 0 0 .018.07.815.815 0 0 1 .059.209c0 .075-.052.111-.124.111A.203.203 0 0 1 .213.364C.206.419.162.451.111.451.075.451.05.428.034.397A.395.395 0 0 1 0 .298C0 .289.007.285.015.285c.013 0 .014.004.021.03.012.049.03.108.072.108C.134.423.14.398.14.376.14.358.135.339.127.306A5.408 5.408 0 0 0 .106.225L.069.075a.447.447 0 0 1-.01-.044C.059.008.078 0 .091 0c.018 0 .033.012.04.024.003.006.011.04.016.061L.17.174z"/></symbol><use xlink:href="#K" transform="matrix(7.9701 0 0 -7.9701 129.173 164.449)" fill="#b30000"/><symbol id="L"><path d="M.466.187H.429C.427.173.417.107.402.096.395.09.314.09.3.09H.113l.128.104c.034.027.123.091.154.121.03.03.071.081.071.152 0 .125-.113.198-.247.198C.09.665 0 .58 0 .486 0 .435.043.429.054.429c.025 0 .054.018.054.054 0 .022-.013.054-.057.054.023.051.084.089.153.089A.154.154 0 0 0 .365.467C.365.396.318.323.248.259L.011.042C.001.032 0 .031 0 0h.435l.031.187z"/></symbol><use xlink:href="#L" transform="matrix(5.9776 0 0 -5.9776 134.502 161.556)" fill="#b30000"/><symbol id="M"><path d="M.495.674A.124.124 0 0 1 .499.69c0 .005-.004.014-.016.014L.425.699.369.695C.347.693.337.692.337.674.337.66.351.66.363.66.411.66.411.654.411.645A.63.63 0 0 0 .398.586L.349.391a.11.11 0 0 1-.099.06C.131.451 0 .312 0 .164 0 .06.067 0 .144 0c.064 0 .119.051.137.071C.299.002.367 0 .379 0c.046 0 .069.038.077.055.02.036.034.094.034.098C.49.159.486.166.474.166S.46.16.454.135C.44.08.421.028.382.028.359.028.35.047.35.075c0 .019.003.03.006.043l.139.556M.281.118C.231.049.179.028.147.028.101.028.078.07.078.122c0 .047.027.154.049.198.029.061.078.103.124.103C.316.423.335.35.335.338L.304.21C.291.163.291.161.281.118z"/></symbol><use xlink:href="#M" transform="matrix(7.9701 0 0 -7.9701 138.566 164.449)" fill="#b30000"/><use xlink:href="#u" transform="matrix(5.9776 0 0 -5.9776 143.124 165.835)" fill="#b30000"/><symbol id="N"><path d="M.249.5a.691.691 0 0 1-.078.327C.122.919.031 1 .013 1 .003 1 0 .993 0 .988 0 .984 0 .982.012.97.152.837.184.654.184.5.184.213.065.077.014.031.001.018 0 .017 0 .012 0 .007.003 0 .013 0c.016 0 .066.051.074.06C.221.2.249.38.249.5z"/></symbol><use xlink:href="#N" transform="matrix(7.9701 0 0 -7.9701 147.631 166.362)" fill="#b30000"/><path d="M399.602 47.935h-50.716a2.989 2.989 0 0 0-2.989 2.99v22.249a2.989 2.989 0 0 0 2.989 2.989h50.716a2.989 2.989 0 0 0 2.989-2.99V50.925a2.989 2.989 0 0 0-2.99-2.989zm-53.705 28.228" fill="#fff"/><path stroke-width=".797" stroke-miterlimit="10" fill="none" stroke="#000" d="M399.602 47.935h-50.716a2.989 2.989 0 0 0-2.989 2.99v22.249a2.989 2.989 0 0 0 2.989 2.989h50.716a2.989 2.989 0 0 0 2.989-2.99V50.925a2.989 2.989 0 0 0-2.99-2.989zm-53.705 28.228"/><use xlink:href="#p" transform="matrix(9.9626 0 0 -9.9626 369.992 58.064)"/><use xlink:href="#q" transform="matrix(8.9664 0 0 -8.9664 363.702 72.11)"/><use xlink:href="#r" transform="matrix(8.9664 0 0 -8.9664 372.403 71.993)"/><use xlink:href="#s" transform="matrix(8.9664 0 0 -8.9664 380.64 72.11)"/><path d="M322.269 96.802h-50.716a2.989 2.989 0 0 0-2.99 2.99v22.481a2.989 2.989 0 0 0 2.99 2.989h50.716a2.989 2.989 0 0 0 2.988-2.989V99.791a2.989 2.989 0 0 0-2.988-2.989zm-53.705 28.46" fill="#d9d9ff"/><path stroke-width=".797" stroke-miterlimit="10" fill="none" stroke="#000" d="M322.269 96.802h-50.716a2.989 2.989 0 0 0-2.99 2.99v22.481a2.989 2.989 0 0 0 2.99 2.989h50.716a2.989 2.989 0 0 0 2.988-2.989V99.791a2.989 2.989 0 0 0-2.988-2.989zm-53.705 28.46"/><use xlink:href="#t" transform="matrix(9.9626 0 0 -9.9626 293.458 108.863)"/><use xlink:href="#q" transform="matrix(8.9664 0 0 -8.9664 284.083 120.977)"/><use xlink:href="#r" transform="matrix(8.9664 0 0 -8.9664 292.784 120.86)"/><use xlink:href="#s" transform="matrix(8.9664 0 0 -8.9664 301.022 120.977)"/><use xlink:href="#u" transform="matrix(5.9776 0 0 -5.9776 305.964 122)"/><path d="M476.935 96.802H426.22a2.989 2.989 0 0 0-2.989 2.99v22.481a2.989 2.989 0 0 0 2.99 2.989h50.715a2.989 2.989 0 0 0 2.99-2.989V99.791a2.989 2.989 0 0 0-2.99-2.989zm-53.705 28.46" fill="#d9d9ff"/><path stroke-width=".797" stroke-miterlimit="10" fill="none" stroke="#000" d="M476.935 96.802H426.22a2.989 2.989 0 0 0-2.989 2.99v22.481a2.989 2.989 0 0 0 2.99 2.989h50.715a2.989 2.989 0 0 0 2.99-2.989V99.791a2.989 2.989 0 0 0-2.99-2.989zm-53.705 28.46"/><use xlink:href="#v" transform="matrix(9.9626 0 0 -9.9626 447.365 106.93)"/><use xlink:href="#q" transform="matrix(8.9664 0 0 -8.9664 438.748 120.977)"/><use xlink:href="#r" transform="matrix(8.9664 0 0 -8.9664 447.448 120.86)"/><use xlink:href="#s" transform="matrix(8.9664 0 0 -8.9664 455.687 120.977)"/><use xlink:href="#u" transform="matrix(5.9776 0 0 -5.9776 460.629 122)"/><path d="M402.437 122.315H346.05a2.989 2.989 0 0 0-2.988 2.988v22.914a2.989 2.989 0 0 0 2.988 2.989h56.386a2.989 2.989 0 0 0 2.988-2.989v-22.914a2.989 2.989 0 0 0-2.988-2.988zm-59.375 28.891" fill="#e6e6ff"/><path stroke-width=".797" stroke-miterlimit="10" fill="none" stroke="#000" d="M402.437 122.315H346.05a2.989 2.989 0 0 0-2.988 2.988v22.914a2.989 2.989 0 0 0 2.988 2.989h56.386a2.989 2.989 0 0 0 2.988-2.989v-22.914a2.989 2.989 0 0 0-2.988-2.988zm-59.375 28.891"/><symbol id="O"><path d="M.593.717a.01.01 0 0 1-.011.01C.577.727.576.726.564.712L.516.655C.49.702.438.727.373.727.246.727.126.612.126.491.126.41.179.364.23.349L.337.321C.374.312.429.297.429.215c0-.09-.082-.184-.18-.184-.064 0-.175.022-.175.146 0 .024.005.048.006.054l.002.007c0 .01-.007.011-.012.011S.063.248.06.245A5.405 5.405 0 0 1 0 .01C0 .004.005 0 .011 0c.005 0 .006.001.018.015l.049.057C.121.014.189 0 .247 0c.136 0 .254.133.254.257a.15.15 0 0 1-.049.117C.429.397.414.401.325.424L.258.442a.093.093 0 0 0-.061.091c0 .081.08.166.175.166.083 0 .144-.043.144-.155C.516.512.512.494.512.488c0-.001 0-.01.012-.01.01 0 .011.003.015.02l.054.219z"/></symbol><use xlink:href="#O" transform="matrix(9.9626 0 0 -9.9626 349.277 133.325)"/><symbol id="P"><path d="M.232.01c0 .003 0 .005-.017.022C.09.158.058.347.058.5c0 .174.038.348.161.473.013.012.013.014.013.017 0 .007-.004.01-.01.01-.01 0-.1-.068-.159-.195A.727.727 0 0 1 0 .5C0 .422.011.301.066.188A.432.432 0 0 1 .222 0c.006 0 .01.003.01.01z"/></symbol><symbol id="Q"><path d="M.144.442.004.431V.4C.069.4.078.394.078.345V.076C.078.031.067.031 0 .031V0l.11.003C.145.003.18.001.214 0v.031c-.066 0-.07.005-.07.044v.367m.004.174a.052.052 0 0 1-.053.053.054.054 0 0 1-.053-.053c0-.027.022-.053.053-.053.028 0 .053.021.053.053z"/></symbol><symbol id="R"><path d="M.078.344V.076C.078.031.067.031 0 .031V0l.113.003L.225 0v.031c-.067 0-.078 0-.078.045V.26c0 .104.071.16.135.16C.345.42.356.366.356.309V.076C.356.031.345.031.278.031V0l.113.003L.503 0v.031c-.067 0-.078 0-.078.045V.26c0 .104.071.16.135.16C.623.42.634.366.634.309V.076C.634.031.623.031.556.031V0l.113.003L.781 0v.031c-.052 0-.077 0-.078.03v.191c0 .086 0 .117-.031.153C.658.422.625.442.567.442A.158.158 0 0 1 .422.344C.408.431.334.442.289.442.216.442.169.399.141.337v.105L0 .431V.4C.07.4.078.393.078.344z"/></symbol><symbol id="S"><path d="M.144.57v.066L0 .625V.594c.071 0 .078-.006.078-.05V.076C.078.031.067.031 0 .031V0l.112.003L.225 0v.031c-.067 0-.078 0-.078.045V.253C.152.237.194.183.27.183c.119 0 .223.098.223.227 0 .127-.097.226-.209.226A.18.18 0 0 1 .144.57M.147.308v.223a.15.15 0 0 0 .129.08C.349.611.41.523.41.41.41.289.34.205.266.205c-.04 0-.078.02-.105.061C.147.287.147.288.147.308z"/></symbol><symbol id="T"><path d="M.144.694 0 .683V.652C.07.652.078.645.078.596v-.52C.078.031.067.031 0 .031V0l.111.003L.222 0v.031c-.067 0-.078 0-.078.045v.618z"/></symbol><symbol id="U"><path d="M.083.229c0 .163.082.205.135.205C.227.434.29.433.325.397.284.394.278.364.278.351c0-.026.018-.046.046-.046C.35.305.37.322.37.352.37.42.294.459.217.459.092.459 0 .351 0 .227 0 .099.099 0 .215 0c.134 0 .166.12.166.13 0 .01-.01.01-.013.01C.359.14.357.136.355.13.326.037.261.025.224.025.171.025.083.068.083.229z"/></symbol><symbol id="V"><path d="M.154.411h.143v.031H.154v.184H.129C.128.544.098.437 0 .433V.411h.085V.135C.085.012.178 0 .214 0c.071 0 .099.071.099.135v.057H.288V.137C.288.063.258.025.221.025.154.025.154.116.154.133v.278z"/></symbol><symbol id="W"><path d="M.232.5a.729.729 0 0 1-.066.312A.432.432 0 0 1 .01 1C.004 1 0 .996 0 .99 0 .987 0 .985.019.967.117.868.174.709.174.5.174.329.137.153.013.027 0 .015 0 .013 0 .01 0 .004.004 0 .01 0c.01 0 .1.068.159.195C.22.305.232.416.232.5z"/></symbol><use xlink:href="#P" transform="matrix(9.9626 0 0 -9.9626 359.75 135.597)"/><use xlink:href="#Q" transform="matrix(9.9626 0 0 -9.9626 362.968 133.106)"/><use xlink:href="#R" transform="matrix(9.9626 0 0 -9.9626 365.728 133.106)"/><use xlink:href="#S" transform="matrix(9.9626 0 0 -9.9626 373.987 135.039)"/><use xlink:href="#T" transform="matrix(9.9626 0 0 -9.9626 379.576 133.106)"/><use xlink:href="#Q" transform="matrix(9.9626 0 0 -9.9626 382.346 133.106)"/><use xlink:href="#U" transform="matrix(9.9626 0 0 -9.9626 385.125 133.216)"/><use xlink:href="#Q" transform="matrix(9.9626 0 0 -9.9626 389.538 133.106)"/><use xlink:href="#V" transform="matrix(9.9626 0 0 -9.9626 392.169 133.216)"/><use xlink:href="#W" transform="matrix(9.9626 0 0 -9.9626 396.423 135.597)"/><use xlink:href="#q" transform="matrix(8.9664 0 0 -8.9664 363.31 147.153)"/><use xlink:href="#r" transform="matrix(8.9664 0 0 -8.9664 372.01 147.036)"/><use xlink:href="#q" transform="matrix(8.9664 0 0 -8.9664 380.132 147.153)"/><path d="M406.47 174.68h-64.453a2.989 2.989 0 0 0-2.988 2.99v35.975a2.989 2.989 0 0 0 2.988 2.99h64.453a2.989 2.989 0 0 0 2.99-2.99V177.67a2.989 2.989 0 0 0-2.99-2.989zm-67.441 41.954" fill="#ccf"/><path stroke-width=".797" stroke-miterlimit="10" fill="none" stroke="#000" d="M406.47 174.68h-64.453a2.989 2.989 0 0 0-2.988 2.99v35.975a2.989 2.989 0 0 0 2.988 2.99h64.453a2.989 2.989 0 0 0 2.99-2.99V177.67a2.989 2.989 0 0 0-2.99-2.989zm-67.441 41.954"/><symbol id="X"><path d="M.103.078C.103.042.101.031.024.031H0V0h.577l.042.258H.594C.569.104.546.031.374.031H.241c-.047 0-.049.007-.049.04v.267h.09C.379.338.39.306.39.221h.025v.265H.39C.39.4.379.369.282.369h-.09v.24c0 .033.002.04.049.04H.37C.523.649.55.594.566.455h.025L.563.68H0V.649h.024C.101.649.103.638.103.602V.078z"/></symbol><symbol id="Y"><path d="M.194.378c-.087 0-.087.1-.087.123 0 .027.001.059.016.084.008.012.031.04.071.04.087 0 .087-.1.087-.123A.164.164 0 0 0 .265.418a.086.086 0 0 0-.071-.04M.078.339c0 .004 0 .027.017.047A.17.17 0 0 1 .194.355c.093 0 .162.069.162.146a.135.135 0 0 1-.041.097.131.131 0 0 0 .09.039l.01-.001C.404.632.399.621.399.609.399.592.412.58.428.58c.01 0 .029.007.029.03a.049.049 0 0 1-.051.049A.154.154 0 0 1 .3.612a.167.167 0 0 1-.106.036C.101.648.032.579.032.502.032.458.054.42.079.399A.138.138 0 0 1 .048.316c0-.031.013-.069.044-.089C.032.21 0 .167 0 .127 0 .055.099 0 .221 0c.118 0 .222.051.222.129a.128.128 0 0 1-.065.114C.325.271.267.271.206.271L.131.272C.099.276.078.307.078.339M.222.023c-.101 0-.17.051-.17.104 0 .046.038.083.082.086h.059c.086 0 .198 0 .198-.086C.391.073.32.023.222.023z"/></symbol><symbol id="Z"><path d="M.084.263c.006.149.09.174.124.174.103 0 .113-.135.113-.174H.084M.083.242h.279c.022 0 .025 0 .025.021 0 .099-.054.196-.179.196C.092.459 0 .356 0 .231 0 .097.105 0 .22 0a.17.17 0 0 1 .167.13c0 .01-.008.012-.013.012C.365.142.363.136.361.128.326.025.236.025.226.025c-.05 0-.09.03-.113.067-.03.048-.03.114-.03.15z"/></symbol><symbol id="aa"><path d="M.078.344V.076C.078.031.067.031 0 .031V0l.113.003L.225 0v.031c-.067 0-.078 0-.078.045V.26c0 .104.071.16.135.16C.345.42.356.366.356.309V.076C.356.031.345.031.278.031V0l.113.003L.503 0v.031c-.052 0-.077 0-.078.03v.191c0 .086 0 .117-.031.153C.38.422.347.442.289.442.216.442.169.399.141.337v.105L0 .431V.4C.07.4.078.393.078.344z"/></symbol><symbol id="ab"><path d="M.265 0v.058H0V0h.265z"/></symbol><symbol id="ac"><path d="M.346.066V0l.147.011v.031c-.07 0-.078.007-.078.056v.607L.271.694V.663c.07 0 .078-.007.078-.056V.391a.16.16 0 0 1-.126.062A.226.226 0 0 1 0 .226C0 .099.098 0 .212 0c.064 0 .109.034.134.066m0 .268V.129c0-.018 0-.02-.011-.037a.14.14 0 0 0-.118-.07C.172.022.136.048.112.086a.269.269 0 0 0-.029.139c0 .037.002.097.031.142a.137.137 0 0 0 .113.064.13.13 0 0 0 .108-.06C.346.354.346.352.346.334z"/></symbol><symbol id="ad"><path d="M.443.225c0 .128-.1.234-.221.234C.097.459 0 .35 0 .225 0 .096.104 0 .221 0c.121 0 .222.098.222.225m-.221-.2a.13.13 0 0 0-.114.067C.083.136.083.197.083.233c0 .039 0 .093.024.137a.134.134 0 0 0 .114.067.131.131 0 0 0 .113-.065C.36.329.36.271.36.233c0-.036 0-.09-.022-.134A.129.129 0 0 0 .222.025z"/></symbol><symbol id="ae"><path d="M.106.053a.053.053 0 0 1-.053.053A.053.053 0 0 1 0 .053C0 .024.024 0 .053 0c.029 0 .053.024.053.053z"/></symbol><use xlink:href="#X" transform="matrix(9.9626 0 0 -9.9626 342.675 184.918)"/><use xlink:href="#Q" transform="matrix(9.9626 0 0 -9.9626 349.46 184.918)"/><use xlink:href="#Y" transform="matrix(9.9626 0 0 -9.9626 352.18 186.97)"/><use xlink:href="#Z" transform="matrix(9.9626 0 0 -9.9626 357.16 185.028)"/><use xlink:href="#aa" transform="matrix(9.9626 0 0 -9.9626 361.624 184.918)"/><use xlink:href="#ab" transform="matrix(9.9626 0 0 -9.9626 366.954 183.055)"/><use xlink:href="#ac" transform="matrix(9.9626 0 0 -9.9626 370.5 185.028)"/><use xlink:href="#Z" transform="matrix(9.9626 0 0 -9.9626 375.98 185.028)"/><use xlink:href="#U" transform="matrix(9.9626 0 0 -9.9626 380.463 185.028)"/><use xlink:href="#ad" transform="matrix(9.9626 0 0 -9.9626 384.827 185.028)"/><use xlink:href="#R" transform="matrix(9.9626 0 0 -9.9626 389.848 184.918)"/><use xlink:href="#S" transform="matrix(9.9626 0 0 -9.9626 398.107 186.85)"/><use xlink:href="#ae" transform="matrix(9.9626 0 0 -9.9626 404.224 184.918)"/><symbol id="af"><path d="M.58.597c.01.042.029.074.107.077.006 0 .018.001.018.018C.705.7.699.705.691.705l-.1-.003L.54.703.488.705C.484.705.47.705.47.687.47.674.482.674.488.674.526.673.555.664.555.631L.552.611.462.253C.427.115.306.031.207.031.156.031.082.058.082.164c0 .026.004.052.01.078l.097.386c.009.038.012.046.09.046.016 0 .027 0 .027.018 0 .009-.007.013-.015.013L.228.703.164.702.1.703.035.705c-.006 0-.02 0-.02-.018 0-.013.01-.013.03-.013.004 0 .022 0 .038-.002C.102.67.107.667.107.657A.572.572 0 0 0 .092.594L.07.506.009.259A.217.217 0 0 1 0 .194C0 .078.087 0 .204 0c.13 0 .256.115.288.245L.58.597z"/></symbol><use xlink:href="#af" transform="matrix(8.9664 0 0 -8.9664 351.756 199.063)"/><symbol id="ag"><path d="M.108.377c0 .03-.024.054-.054.054A.054.054 0 0 1 0 .377C0 .348.024.323.054.323s.054.025.054.054m0-.323a.054.054 0 0 1-.054.054A.054.054 0 0 1 0 .054C0 .024.024 0 .054 0s.054.024.054.054z"/></symbol><symbol id="ah"><path d="M.142 0v.043H.043v.914h.099V1H0V0h.142z"/></symbol><use xlink:href="#ag" transform="matrix(8.9664 0 0 -8.9664 361.723 198.866)"/><use xlink:href="#ah" transform="matrix(8.9664 0 0 -8.9664 367.13 201.108)"/><use xlink:href="#q" transform="matrix(8.9664 0 0 -8.9664 368.873 198.965)"/><use xlink:href="#r" transform="matrix(8.9664 0 0 -8.9664 377.574 198.848)"/><use xlink:href="#s" transform="matrix(8.9664 0 0 -8.9664 385.813 198.965)"/><use xlink:href="#u" transform="matrix(5.9776 0 0 -5.9776 390.754 199.988)"/><symbol id="ai"><path d="M.142 0v1H0V.957h.099V.043H0V0h.142z"/></symbol><use xlink:href="#ai" transform="matrix(8.9664 0 0 -8.9664 394.98 201.108)"/><symbol id="aj"><path d="M.338.695C.332.714.326.716.315.716.299.716.297.712.292.695L.1.1C.09.07.07.031 0 .031V0l.093.003L.206 0v.031C.152.032.129.059.129.083c0 .005 0 .008.005.022l.15.466.158-.492C.447.065.447.063.447.061c0-.03-.059-.03-.085-.03V0c.035.003.106.003.144.003L.629 0v.031C.553.031.55.037.538.074l-.2.621z"/></symbol><symbol id="ak"><path d="M.106.378a.053.053 0 0 1-.053.053A.053.053 0 0 1 0 .378C0 .349.024.325.053.325c.029 0 .053.024.053.053m0-.325a.053.053 0 0 1-.053.053A.053.053 0 0 1 0 .053C0 .024.024 0 .053 0c.029 0 .053.024.053.053z"/></symbol><symbol id="al"><path d="M.137 0v.04H.04v.92h.097V1H0V0h.137z"/></symbol><use xlink:href="#aj" transform="matrix(9.9626 0 0 -9.9626 348.006 210.821)"/><use xlink:href="#ak" transform="matrix(9.9626 0 0 -9.9626 358.227 210.821)"/><use xlink:href="#al" transform="matrix(9.9626 0 0 -9.9626 364.085 213.312)"/><symbol id="am"><path d="M.476.694c0 .001 0 .011-.013.011C.448.705.353.696.336.694.328.693.322.688.322.675c0-.012.009-.012.024-.012.048 0 .05-.007.05-.017L.393.626.333.389C.315.426.286.453.241.453.124.453 0 .306 0 .16 0 .066.055 0 .133 0c.02 0 .07.004.13.075A.09.09 0 0 1 .354 0c.035 0 .058.023.074.055.017.036.03.097.03.099 0 .01-.009.01-.012.01C.436.164.435.16.432.146.415.081.397.022.356.022c-.027 0-.03.026-.03.046 0 .024.002.031.006.048l.144.578M.268.13C.263.112.263.11.248.093.204.038.163.022.135.022c-.05 0-.064.055-.064.094 0 .05.032.173.055.219.031.059.076.096.116.096.065 0 .079-.082.079-.088C.321.337.319.331.318.326L.268.13z"/></symbol><use xlink:href="#am" transform="matrix(9.9626 0 0 -9.9626 366.074 210.93)"/><symbol id="an"><path d="M.238.674A.124.124 0 0 1 .242.69c0 .005-.004.014-.016.014-.02 0-.103-.008-.128-.01C.09.693.076.692.076.671.076.657.09.657.102.657.15.657.15.65.15.642.15.635.148.629.146.62L.005.054 0 .032C0 .017.012 0 .034 0c.027 0 .04.02.046.042l.049.194C.2.229.257.206.257.154L.255.134C.251.119.251.114.251.103.251.032.309 0 .357 0c.097 0 .127.152.127.153 0 .013-.013.013-.016.013C.454.166.453.161.448.142.436.099.409.028.36.028.333.028.325.053.325.08c0 .017 0 .019.006.045a.14.14 0 0 1 .005.031c0 .089-.12.103-.162.106C.203.28.24.313.257.328c.051.048.101.095.157.095C.426.423.439.42.447.41A.058.058 0 0 1 .395.354c0-.022.017-.037.04-.037.027 0 .057.022.057.064 0 .033-.024.07-.077.07C.358.451.306.41.255.363A.4.4 0 0 0 .139.275l.099.399z"/></symbol><use xlink:href="#an" transform="matrix(6.9738 0 0 -6.9738 371.384 212.385)"/><symbol id="ao"><path d="m.242.269-.2.199C.03.48.028.482.02.482A.02.02 0 0 1 0 .462C0 .455.002.453.013.442l.2-.201-.2-.201C.002.029 0 .027 0 .02 0 .009.01 0 .02 0c.008 0 .01.002.022.014l.199.199.207-.207C.45.005.457 0 .463 0a.02.02 0 0 1 .02.02c0 .002 0 .006-.003.011l-.21.21.183.183.025.025c.001.002.005.006.005.013a.02.02 0 0 1-.02.02C.455.482.451.478.44.467L.242.269z"/></symbol><use xlink:href="#ao" transform="matrix(9.9626 0 0 -9.9626 379.44 210.731)"/><use xlink:href="#am" transform="matrix(9.9626 0 0 -9.9626 388.337 210.93)"/><use xlink:href="#an" transform="matrix(6.9738 0 0 -6.9738 393.647 212.385)"/><symbol id="ap"><path d="M.137 1H0V.96h.097V.04H0V0h.137v1z"/></symbol><use xlink:href="#ap" transform="matrix(9.9626 0 0 -9.9626 398.245 213.312)"/><path d="M401.157 240.109h-53.826a2.989 2.989 0 0 0-2.989 2.988v23.772a2.989 2.989 0 0 0 2.989 2.989h53.826a2.989 2.989 0 0 0 2.989-2.989v-23.772a2.989 2.989 0 0 0-2.989-2.988zm-56.815 29.749" fill="#bfbfff"/><path stroke-width=".797" stroke-miterlimit="10" fill="none" stroke="#000" d="M401.157 240.109h-53.826a2.989 2.989 0 0 0-2.989 2.988v23.772a2.989 2.989 0 0 0 2.989 2.989h53.826a2.989 2.989 0 0 0 2.989-2.989v-23.772a2.989 2.989 0 0 0-2.989-2.988zm-56.815 29.749"/><symbol id="aq"><path d="M.549.258H.524C.513.156.499.031.323.031H.241c-.047 0-.049.007-.049.04v.533c0 .034 0 .048.095.048H.32v.031C.284.68.193.68.152.68.113.68.035.68 0 .683V.652h.024C.101.652.103.641.103.605V.078C.103.042.101.031.024.031H0V0h.521l.028.258z"/></symbol><symbol id="ar"><path d="M.291.087C.295.047.322.005.369.005.39.005.451.019.451.1v.056H.426V.1C.426.042.401.036.39.036c-.033 0-.037.045-.037.05v.2c0 .042 0 .081-.036.118A.191.191 0 0 1 .18.459C.098.459.029.412.029.346c0-.03.02-.047.046-.047.028 0 .046.02.046.046C.121.357.116.39.07.391c.027.035.076.046.108.046.049 0 .106-.039.106-.128V.272C.233.269.163.266.1.236.025.202 0 .15 0 .106 0 .025.097 0 .16 0c.066 0 .112.04.131.087M.284.251v-.1C.284.056.212.022.167.022c-.049 0-.09.035-.09.085 0 .055.042.138.207.144z"/></symbol><symbol id="as"><path d="M.139.332v.11L0 .431V.4C.07.4.078.393.078.344V.076C.078.031.067.031 0 .031V0l.114.003c.04 0 .087 0 .127-.003v.031H.22C.146.031.144.042.144.078v.154c0 .099.042.188.118.188L.273.419A.043.043 0 0 1 .25.38C.25.352.271.337.293.337c.018 0 .043.012.043.044S.305.442.262.442C.189.442.153.375.139.332z"/></symbol><symbol id="at"><path d="M.397.344C.406.367.423.41.489.411v.031a.94.94 0 0 0-.162 0V.411C.364.41.375.387.375.368.375.359.373.355.369.344L.267.089.155.368C.149.381.149.383.149.385c0 .026.039.026.057.026v.031L.097.439C.07.439.03.44 0 .442V.411C.063.411.067.405.08.374L.224.019C.23.005.232 0 .245 0c.013 0 .017.009.021.019l.131.325z"/></symbol><use xlink:href="#aq" transform="matrix(9.9626 0 0 -9.9626 347.988 250.345)"/><use xlink:href="#Q" transform="matrix(9.9626 0 0 -9.9626 354.214 250.345)"/><use xlink:href="#aa" transform="matrix(9.9626 0 0 -9.9626 356.974 250.345)"/><use xlink:href="#Z" transform="matrix(9.9626 0 0 -9.9626 362.473 250.455)"/><use xlink:href="#ar" transform="matrix(9.9626 0 0 -9.9626 367.036 250.455)"/><use xlink:href="#as" transform="matrix(9.9626 0 0 -9.9626 371.878 250.345)"/><use xlink:href="#X" transform="matrix(9.9626 0 0 -9.9626 379.15 250.345)"/><use xlink:href="#at" transform="matrix(9.9626 0 0 -9.9626 385.796 250.455)"/><use xlink:href="#ar" transform="matrix(9.9626 0 0 -9.9626 390.737 250.455)"/><use xlink:href="#T" transform="matrix(9.9626 0 0 -9.9626 395.629 250.345)"/><use xlink:href="#ae" transform="matrix(9.9626 0 0 -9.9626 398.926 250.345)"/><symbol id="au"><path d="M.708.455c0 .158-.106.272-.263.272C.221.727 0 .497 0 .269 0 .105.113 0 .264 0c.223 0 .444.223.444.455M.271.03C.175.03.096.103.096.244c0 .052.017.2.1.314a.317.317 0 0 0 .242.141C.536.699.617.628.617.493a.606.606 0 0 0-.11-.324C.432.069.34.03.271.03z"/></symbol><use xlink:href="#au" transform="matrix(8.9664 0 0 -8.9664 360.017 264.49)"/><symbol id="av"><path d="M.24.011C.24.016.237.019.231.026.102.144.063.324.063.499c0 .155.03.343.171.477C.238.98.24.983.24.988.24.995.235.999.228.999A.435.435 0 0 1 .072.818.692.692 0 0 1 0 .5.72.72 0 0 1 .064.196.45.45 0 0 1 .228 0C.235 0 .24.004.24.011z"/></symbol><use xlink:href="#av" transform="matrix(8.9664 0 0 -8.9664 367.743 266.526)"/><use xlink:href="#q" transform="matrix(8.9664 0 0 -8.9664 370.681 264.392)"/><use xlink:href="#s" transform="matrix(8.9664 0 0 -8.9664 376.357 264.392)"/><use xlink:href="#u" transform="matrix(5.9776 0 0 -5.9776 381.299 265.416)"/><symbol id="aw"><path d="M.24.5a.714.714 0 0 1-.064.303.45.45 0 0 1-.164.196A.011.011 0 0 1 0 .988C0 .983.002.98.009.973.067.921.177.785.177.5.177.357.151.158.006.023.004.02 0 .016 0 .011 0 .008.002 0 .012 0c.012 0 .102.072.156.181A.693.693 0 0 1 .24.5z"/></symbol><use xlink:href="#aw" transform="matrix(8.9664 0 0 -8.9664 385.848 266.526)"/><path stroke-width=".797" stroke-miterlimit="10" fill="none" stroke="#000" d="m351.332 76.561-27.87 17.644"/><path d="m320.948 95.797 4.349-.895-2.004-.59.324-2.064z"/><path stroke-width=".7969601500000001" stroke-miterlimit="10" fill="none" stroke="#000" d="m320.948 95.797 4.349-.895-2.004-.59.324-2.064z"/><path stroke-width=".797" stroke-miterlimit="10" fill="none" stroke="#000" d="m397.156 76.561 27.87 17.644"/><path d="m427.54 95.797-2.669-3.549.324 2.064-2.004.59z"/><path stroke-width=".7969601500000001" stroke-miterlimit="10" fill="none" stroke="#000" d="m427.54 95.797-2.669-3.549.324 2.064-2.004.59z"/><path stroke-width=".797" stroke-dasharray="2.98883,2.98883" stroke-miterlimit="10" fill="none" stroke="#000" d="m325.656 120.597 13.108 4.363"/><path d="m341.587 125.9-3.445-2.802.811 1.925-1.803 1.055z"/><path stroke-width=".7969601500000001" stroke-miterlimit="10" fill="none" stroke="#000" d="m341.587 125.9-3.445-2.802.811 1.925-1.803 1.055z"/><path stroke-width=".797" stroke-dasharray="2.98883,2.98883" stroke-miterlimit="10" fill="none" stroke="#000" d="m422.832 120.597-13.108 4.363"/><path d="m406.9 125.9 4.437.178-1.802-1.055.81-1.925z"/><path stroke-width=".7969601500000001" stroke-miterlimit="10" fill="none" stroke="#000" d="m406.9 125.9 4.437.178-1.802-1.055.81-1.925z"/><path stroke-width=".797" stroke-miterlimit="10" fill="none" stroke="#000" d="M374.244 151.604v18.568"/><path d="m374.244 173.147 1.57-4.153-1.57 1.377-1.57-1.377z"/><path stroke-width=".797" stroke-miterlimit="10" fill="none" stroke="#000" d="m374.244 173.147 1.57-4.153-1.57 1.377-1.57-1.377zM374.244 217.033V235.6"/><path d="m374.244 238.575 1.57-4.153-1.57 1.377-1.57-1.377z"/><path stroke-width=".797" stroke-miterlimit="10" fill="none" stroke="#000" d="m374.244 238.575 1.57-4.153-1.57 1.377-1.57-1.377z"/><use xlink:href="#I" transform="matrix(7.9701 0 0 -7.9701 419.45 197.69)" fill="#0000b3"/><use xlink:href="#J" transform="matrix(7.9701 0 0 -7.9701 426.524 199.515)" fill="#0000b3"/><use xlink:href="#K" transform="matrix(7.9701 0 0 -7.9701 429.236 197.602)" fill="#0000b3"/><use xlink:href="#M" transform="matrix(7.9701 0 0 -7.9701 434.48 197.602)" fill="#0000b3"/><use xlink:href="#L" transform="matrix(5.9776 0 0 -5.9776 438.922 194.709)" fill="#0000b3"/><use xlink:href="#u" transform="matrix(5.9776 0 0 -5.9776 439.036 200.514)" fill="#0000b3"/><use xlink:href="#N" transform="matrix(7.9701 0 0 -7.9701 443.543 199.515)" fill="#0000b3"/><use xlink:href="#I" transform="matrix(7.9701 0 0 -7.9701 414.135 257.14)" fill="#0000b3"/><use xlink:href="#J" transform="matrix(7.9701 0 0 -7.9701 421.211 258.966)" fill="#0000b3"/><use xlink:href="#K" transform="matrix(7.9701 0 0 -7.9701 423.922 257.053)" fill="#0000b3"/><use xlink:href="#M" transform="matrix(7.9701 0 0 -7.9701 429.166 257.053)" fill="#0000b3"/><use xlink:href="#u" transform="matrix(5.9776 0 0 -5.9776 433.723 258.439)" fill="#0000b3"/><use xlink:href="#N" transform="matrix(7.9701 0 0 -7.9701 438.23 258.966)" fill="#0000b3"/><path stroke-width=".797" stroke-miterlimit="10" fill="none" stroke="#929292" d="M233.598 4.688v221.105"/></svg>