<svg xmlns="http://www.w3.org/2000/svg" xmlns:xlink="http://www.w3.org/1999/xlink" width="665.199" height="181.417" viewBox="0 0 498.899 136.063"><path d="M-.003 0v136.065h498.905V-.001zm498.905 136.065" fill="#fff"/><symbol id="a"><path d="M.189.375v.259c0 .023 0 .035.022.038A.49.49 0 0 0 .27.674C.36.674.472.67.472.525.472.456.448.375.3.375H.189M.4.362c.097.024.175.085.175.163 0 .096-.114.18-.261.18H0V.674h.024C.101.674.103.663.103.627V.1C.103.064.101.053.024.053H0V.022c.036.003.107.003.146.003.039 0 .11 0 .146-.003v.031H.268C.191.053.189.064.189.1v.253h.115c.016 0 .058 0 .093-.034C.435.283.435.252.435.185c0-.065 0-.105.041-.143A.195.195 0 0 1 .602 0C.68 0 .697.082.697.11c0 .006 0 .017-.013.017C.673.127.673.118.672.111.666.04.631.022.606.022.557.022.549.073.535.166l-.013.08C.504.31.455.343.4.362z"/></symbol><symbol id="b"><path d="M.443.225c0 .128-.1.234-.221.234C.097.459 0 .35 0 .225 0 .096.104 0 .221 0c.121 0 .222.098.222.225m-.221-.2a.13.13 0 0 0-.114.067C.083.136.083.197.083.233c0 .039 0 .093.024.137a.134.134 0 0 0 .114.067.131.131 0 0 0 .113-.065C.36.329.36.271.36.233c0-.036 0-.09-.022-.134A.129.129 0 0 0 .222.025z"/></symbol><symbol id="c"><path d="M.601.347C.619.397.65.41.685.411v.031a.89.89 0 0 0-.166 0V.411C.555.41.577.392.577.363c0-.006 0-.008-.005-.021L.481.086.382.365C.378.377.377.379.377.384c0 .027.039.027.059.027v.031L.332.439C.302.439.273.44.243.442V.411C.28.411.296.409.306.396.311.39.322.36.329.341L.243.099.148.366C.143.378.143.38.143.384c0 .027.039.027.059.027v.031L.093.439 0 .442V.411C.05.411.062.408.074.376L.2.022C.205.008.208 0 .221 0c.013 0 .015.006.02.02l.101.283.102-.284C.448.008.451 0 .464 0c.013 0 .016.009.02.019l.117.328z"/></symbol><symbol id="d"><path d="M.421.342c0 .08-.005.16-.04.234A.185.185 0 0 1 .037.569.535.535 0 0 1 0 .342C0 .267.004.177.045.101A.183.183 0 0 1 .21 0c.054 0 .13.021.174.116a.533.533 0 0 1 .037.226M.21.022C.171.022.112.047.094.143.083.203.083.295.083.354c0 .064 0 .13.008.184C.11.657.185.666.21.666.243.666.309.648.328.549c.01-.056.01-.132.01-.195 0-.075 0-.143-.011-.207C.312.052.255.022.21.022z"/></symbol><use xlink:href="#a" transform="matrix(9.9626 0 0 -9.9626 9.258 26.3)"/><use xlink:href="#b" transform="matrix(9.9626 0 0 -9.9626 16.52 26.19)"/><use xlink:href="#c" transform="matrix(9.9626 0 0 -9.9626 21.123 26.19)"/><use xlink:href="#d" transform="matrix(9.9626 0 0 -9.9626 31.853 26.3)"/><symbol id="e"><path d="M.205.64c0 .024 0 .026-.023.026C.12.602.032.602 0 .602V.571a.3.3 0 0 1 .131.026V.079C.131.043.128.031.038.031H.006V0c.035.003.122.003.162.003.04 0 .127 0 .162-.003v.031H.298c-.09 0-.093.011-.093.048V.64z"/></symbol><use xlink:href="#a" transform="matrix(9.9626 0 0 -9.9626 9.258 48.977)"/><use xlink:href="#b" transform="matrix(9.9626 0 0 -9.9626 16.52 48.868)"/><use xlink:href="#c" transform="matrix(9.9626 0 0 -9.9626 21.123 48.868)"/><use xlink:href="#e" transform="matrix(9.9626 0 0 -9.9626 32.351 48.758)"/><symbol id="f"><path d="M.077.077.183.18c.156.138.216.192.216.292 0 .114-.09.194-.212.194A.185.185 0 0 1 0 .485C0 .429.05.429.053.429c.017 0 .052.012.052.053a.05.05 0 0 1-.053.052L.039.533a.144.144 0 0 0 .135.102C.265.635.308.554.308.472c0-.08-.05-.159-.105-.221L.011.037C0 .026 0 .024 0 0h.371l.028.174H.374C.369.144.362.1.352.085.345.077.279.077.257.077h-.18z"/></symbol><use xlink:href="#a" transform="matrix(9.9626 0 0 -9.9626 9.258 71.654)"/><use xlink:href="#b" transform="matrix(9.9626 0 0 -9.9626 16.52 71.545)"/><use xlink:href="#c" transform="matrix(9.9626 0 0 -9.9626 21.123 71.545)"/><use xlink:href="#f" transform="matrix(9.9626 0 0 -9.9626 31.962 71.435)"/><symbol id="g"><path d="M.248.374c.082.027.14.097.14.176C.388.632.3.688.204.688.103.688.027.628.027.552.027.519.049.5.078.5.109.5.129.522.129.551c0 .05-.047.05-.062.05C.098.65.164.663.2.663.241.663.296.641.296.551A.25.25 0 0 0 .268.437C.238.389.204.386.179.385A.554.554 0 0 0 .14.382C.132.381.125.38.125.37c0-.011.007-.011.024-.011h.044C.275.359.312.291.312.193.312.057.243.028.199.028.156.028.081.045.046.104.081.099.112.121.112.159a.054.054 0 0 1-.056.056C.032.215 0 .201 0 .157 0 .066.093 0 .202 0c.122 0 .213.091.213.193 0 .082-.063.16-.167.181z"/></symbol><use xlink:href="#a" transform="matrix(9.9626 0 0 -9.9626 9.258 94.331)"/><use xlink:href="#b" transform="matrix(9.9626 0 0 -9.9626 16.52 94.222)"/><use xlink:href="#c" transform="matrix(9.9626 0 0 -9.9626 21.123 94.222)"/><use xlink:href="#g" transform="matrix(9.9626 0 0 -9.9626 31.883 94.331)"/><use xlink:href="#e" transform="matrix(9.9626 0 0 -9.9626 134.46 25.887)"/><use xlink:href="#e" transform="matrix(9.9626 0 0 -9.9626 111.783 48.564)"/><use xlink:href="#e" transform="matrix(9.9626 0 0 -9.9626 157.137 48.564)"/><use xlink:href="#e" transform="matrix(9.9626 0 0 -9.9626 89.105 71.241)"/><use xlink:href="#f" transform="matrix(9.9626 0 0 -9.9626 134.071 71.241)"/><use xlink:href="#e" transform="matrix(9.9626 0 0 -9.9626 179.814 71.241)"/><use xlink:href="#e" transform="matrix(9.9626 0 0 -9.9626 66.428 93.919)"/><use xlink:href="#g" transform="matrix(9.9626 0 0 -9.9626 111.314 94.138)"/><use xlink:href="#g" transform="matrix(9.9626 0 0 -9.9626 156.668 94.138)"/><use xlink:href="#e" transform="matrix(9.9626 0 0 -9.9626 202.492 93.919)"/><path stroke-width=".797" stroke-miterlimit="10" fill="none" stroke="red" d="m136.062 22.677 22.677 22.678 22.678 22.677L159.24 90.21"/><path stroke-width=".63799362" stroke-linecap="round" stroke-linejoin="round" fill="none" stroke="red" d="M161.804 90.576c-.641-.458-2.473-.275-2.84-.092.184-.366.367-2.198-.09-2.839"/><symbol id="h"><path d="M.144.442.004.431V.4C.069.4.078.394.078.345V.076C.078.031.067.031 0 .031V0l.11.003C.145.003.18.001.214 0v.031c-.066 0-.07.005-.07.044v.367m.004.174a.052.052 0 0 1-.053.053.054.054 0 0 1-.053-.053c0-.027.022-.053.053-.053.028 0 .053.021.053.053z"/></symbol><symbol id="i"><path d="M.194.378c-.087 0-.087.1-.087.123 0 .027.001.059.016.084.008.012.031.04.071.04.087 0 .087-.1.087-.123A.164.164 0 0 0 .265.418a.086.086 0 0 0-.071-.04M.078.339c0 .004 0 .027.017.047A.17.17 0 0 1 .194.355c.093 0 .162.069.162.146a.135.135 0 0 1-.041.097.131.131 0 0 0 .09.039l.01-.001C.404.632.399.621.399.609.399.592.412.58.428.58c.01 0 .029.007.029.03a.049.049 0 0 1-.051.049A.154.154 0 0 1 .3.612a.167.167 0 0 1-.106.036C.101.648.032.579.032.502.032.458.054.42.079.399A.138.138 0 0 1 .048.316c0-.031.013-.069.044-.089C.032.21 0 .167 0 .127 0 .055.099 0 .221 0c.118 0 .222.051.222.129a.128.128 0 0 1-.065.114C.325.271.267.271.206.271L.131.272C.099.276.078.307.078.339M.222.023c-.101 0-.17.051-.17.104 0 .046.038.083.082.086h.059c.086 0 .198 0 .198-.086C.391.073.32.023.222.023z"/></symbol><symbol id="j"><path d="M.078.076C.078.031.067.031 0 .031V0l.113.003L.225 0v.031c-.067 0-.078 0-.078.045V.26c0 .104.071.16.135.16C.345.42.356.366.356.309V.076C.356.031.345.031.278.031V0l.113.003L.503 0v.031c-.052 0-.077 0-.078.03v.191c0 .086 0 .117-.031.153C.38.422.347.442.289.442A.158.158 0 0 1 .144.344v.35L0 .683V.652C.07.652.078.645.078.596v-.52z"/></symbol><symbol id="k"><path d="M.154.411h.143v.031H.154v.184H.129C.128.544.098.437 0 .433V.411h.085V.135C.085.012.178 0 .214 0c.071 0 .099.071.099.135v.057H.288V.137C.288.063.258.025.221.025.154.025.154.116.154.133v.278z"/></symbol><symbol id="l"><path d="M.265 0v.058H0V0h.265z"/></symbol><symbol id="m"><path d="M.549.258H.524C.513.156.499.031.323.031H.241c-.047 0-.049.007-.049.04v.533c0 .034 0 .048.095.048H.32v.031C.284.68.193.68.152.68.113.68.035.68 0 .683V.652h.024C.101.652.103.641.103.605V.078C.103.042.101.031.024.031H0V0h.521l.028.258z"/></symbol><symbol id="n"><path d="M.084.263c.006.149.09.174.124.174.103 0 .113-.135.113-.174H.084M.083.242h.279c.022 0 .025 0 .025.021 0 .099-.054.196-.179.196C.092.459 0 .356 0 .231 0 .097.105 0 .22 0a.17.17 0 0 1 .167.13c0 .01-.008.012-.013.012C.365.142.363.136.361.128.326.025.236.025.226.025c-.05 0-.09.03-.113.067-.03.048-.03.114-.03.15z"/></symbol><symbol id="o"><path d="M.142.431v.116c0 .088.048.136.092.136.003 0 .018 0 .033-.007a.044.044 0 0 1-.03-.042C.237.611.253.591.28.591c.029 0 .044.02.044.044 0 .037-.037.07-.09.07A.155.155 0 0 1 .079.546V.431H0V.4h.079V.076C.079.031.068.031.001.031V0l.114.003c.04 0 .087 0 .127-.003v.031H.221C.147.031.145.042.145.078V.4h.114v.031H.142z"/></symbol><use xlink:href="#a" transform="matrix(9.9626 0 0 -9.9626 100.09 116.095)"/><use xlink:href="#h" transform="matrix(9.9626 0 0 -9.9626 107.402 115.876)"/><use xlink:href="#i" transform="matrix(9.9626 0 0 -9.9626 110.122 117.928)"/><use xlink:href="#j" transform="matrix(9.9626 0 0 -9.9626 115.143 115.876)"/><use xlink:href="#k" transform="matrix(9.9626 0 0 -9.9626 120.274 115.986)"/><use xlink:href="#l" transform="matrix(9.9626 0 0 -9.9626 124.07 114.013)"/><use xlink:href="#a" transform="matrix(9.9626 0 0 -9.9626 127.626 116.095)"/><use xlink:href="#h" transform="matrix(9.9626 0 0 -9.9626 134.939 115.876)"/><use xlink:href="#i" transform="matrix(9.9626 0 0 -9.9626 137.659 117.928)"/><use xlink:href="#j" transform="matrix(9.9626 0 0 -9.9626 142.68 115.876)"/><use xlink:href="#k" transform="matrix(9.9626 0 0 -9.9626 147.81 115.986)"/><use xlink:href="#l" transform="matrix(9.9626 0 0 -9.9626 151.606 114.013)"/><use xlink:href="#m" transform="matrix(9.9626 0 0 -9.9626 155.143 115.876)"/><use xlink:href="#n" transform="matrix(9.9626 0 0 -9.9626 161.32 115.986)"/><use xlink:href="#o" transform="matrix(9.9626 0 0 -9.9626 165.793 115.876)"/><use xlink:href="#k" transform="matrix(9.9626 0 0 -9.9626 168.702 115.986)"/><use xlink:href="#e" transform="matrix(9.9626 0 0 -9.9626 270.523 25.887)"/><use xlink:href="#e" transform="matrix(9.9626 0 0 -9.9626 247.846 48.564)"/><use xlink:href="#e" transform="matrix(9.9626 0 0 -9.9626 293.2 48.564)"/><use xlink:href="#e" transform="matrix(9.9626 0 0 -9.9626 225.169 71.241)"/><use xlink:href="#f" transform="matrix(9.9626 0 0 -9.9626 270.134 71.241)"/><use xlink:href="#e" transform="matrix(9.9626 0 0 -9.9626 315.878 71.241)"/><use xlink:href="#e" transform="matrix(9.9626 0 0 -9.9626 202.492 93.919)"/><use xlink:href="#g" transform="matrix(9.9626 0 0 -9.9626 247.377 94.138)"/><use xlink:href="#g" transform="matrix(9.9626 0 0 -9.9626 292.731 94.138)"/><use xlink:href="#e" transform="matrix(9.9626 0 0 -9.9626 338.555 93.919)"/><path stroke-width=".797" stroke-miterlimit="10" fill="none" stroke="#00f" d="m272.127 22.677 22.678 22.678-22.678 22.677 22.177 22.177"/><path stroke-width=".63799362" stroke-linecap="round" stroke-linejoin="round" fill="none" stroke="#00f" d="M294.67 87.645c-.457.641-.274 2.473-.09 2.84-.367-.184-2.199-.367-2.84.09"/><use xlink:href="#a" transform="matrix(9.9626 0 0 -9.9626 236.154 116.095)"/><use xlink:href="#h" transform="matrix(9.9626 0 0 -9.9626 243.466 115.876)"/><use xlink:href="#i" transform="matrix(9.9626 0 0 -9.9626 246.186 117.928)"/><use xlink:href="#j" transform="matrix(9.9626 0 0 -9.9626 251.207 115.876)"/><use xlink:href="#k" transform="matrix(9.9626 0 0 -9.9626 256.338 115.986)"/><use xlink:href="#l" transform="matrix(9.9626 0 0 -9.9626 260.134 114.013)"/><use xlink:href="#m" transform="matrix(9.9626 0 0 -9.9626 263.67 115.876)"/><use xlink:href="#n" transform="matrix(9.9626 0 0 -9.9626 269.847 115.986)"/><use xlink:href="#o" transform="matrix(9.9626 0 0 -9.9626 274.32 115.876)"/><use xlink:href="#k" transform="matrix(9.9626 0 0 -9.9626 277.23 115.986)"/><use xlink:href="#l" transform="matrix(9.9626 0 0 -9.9626 281.025 114.013)"/><use xlink:href="#a" transform="matrix(9.9626 0 0 -9.9626 284.582 116.095)"/><use xlink:href="#h" transform="matrix(9.9626 0 0 -9.9626 291.894 115.876)"/><use xlink:href="#i" transform="matrix(9.9626 0 0 -9.9626 294.614 117.928)"/><use xlink:href="#j" transform="matrix(9.9626 0 0 -9.9626 299.635 115.876)"/><use xlink:href="#k" transform="matrix(9.9626 0 0 -9.9626 304.766 115.986)"/><use xlink:href="#e" transform="matrix(9.9626 0 0 -9.9626 406.587 25.887)"/><use xlink:href="#e" transform="matrix(9.9626 0 0 -9.9626 383.909 48.564)"/><use xlink:href="#e" transform="matrix(9.9626 0 0 -9.9626 429.264 48.564)"/><use xlink:href="#e" transform="matrix(9.9626 0 0 -9.9626 361.232 71.241)"/><use xlink:href="#f" transform="matrix(9.9626 0 0 -9.9626 406.198 71.241)"/><use xlink:href="#e" transform="matrix(9.9626 0 0 -9.9626 451.94 71.241)"/><use xlink:href="#e" transform="matrix(9.9626 0 0 -9.9626 338.555 93.919)"/><use xlink:href="#g" transform="matrix(9.9626 0 0 -9.9626 383.44 94.138)"/><use xlink:href="#g" transform="matrix(9.9626 0 0 -9.9626 428.795 94.138)"/><use xlink:href="#e" transform="matrix(9.9626 0 0 -9.9626 474.618 93.919)"/><path stroke-width=".797" stroke-miterlimit="10" fill="none" stroke="#0f0" d="m408.192 22.677-22.677 22.678 22.677 22.677L430.37 90.21"/><path stroke-width=".63799362" stroke-linecap="round" stroke-linejoin="round" fill="none" stroke="#0f0" d="M430.736 87.645c-.458.641-.275 2.473-.092 2.84-.366-.184-2.198-.367-2.839.09"/><use xlink:href="#m" transform="matrix(9.9626 0 0 -9.9626 372.197 115.876)"/><use xlink:href="#n" transform="matrix(9.9626 0 0 -9.9626 378.374 115.986)"/><use xlink:href="#o" transform="matrix(9.9626 0 0 -9.9626 382.847 115.876)"/><use xlink:href="#k" transform="matrix(9.9626 0 0 -9.9626 385.756 115.986)"/><use xlink:href="#l" transform="matrix(9.9626 0 0 -9.9626 389.552 114.013)"/><use xlink:href="#a" transform="matrix(9.9626 0 0 -9.9626 393.108 116.095)"/><use xlink:href="#h" transform="matrix(9.9626 0 0 -9.9626 400.42 115.876)"/><use xlink:href="#i" transform="matrix(9.9626 0 0 -9.9626 403.14 117.928)"/><use xlink:href="#j" transform="matrix(9.9626 0 0 -9.9626 408.162 115.876)"/><use xlink:href="#k" transform="matrix(9.9626 0 0 -9.9626 413.293 115.986)"/><use xlink:href="#l" transform="matrix(9.9626 0 0 -9.9626 417.088 114.013)"/><use xlink:href="#a" transform="matrix(9.9626 0 0 -9.9626 420.645 116.095)"/><use xlink:href="#h" transform="matrix(9.9626 0 0 -9.9626 427.957 115.876)"/><use xlink:href="#i" transform="matrix(9.9626 0 0 -9.9626 430.677 117.928)"/><use xlink:href="#j" transform="matrix(9.9626 0 0 -9.9626 435.698 115.876)"/><use xlink:href="#k" transform="matrix(9.9626 0 0 -9.9626 440.83 115.986)"/></svg>