<?xml version="1.0" encoding="UTF-8" standalone="no"?>
<!DOCTYPE svg PUBLIC "-//W3C//DTD SVG 1.1//EN" "http://www.w3.org/Graphics/SVG/1.1/DTD/svg11.dtd">
<svg xmlns="http://www.w3.org/2000/svg" xmlns:xlink="http://www.w3.org/1999/xlink" version="1.1" width="796.8417pt" height="584.2472pt" viewBox="0 0 796.8417 584.2472" style="background-color:white">
<g enable-background="new">
<path transform="matrix(2.7777777,0,0,-2.7777777,150.38889,504.7222)" d="M -8.50493 -8.50493 C 51.02411 21.26009 127.56062 0 153.7762 18.34425 C 162.79259 24.65329 177.0661 35.34138 185.65749 42.21713 C 212.60106 63.7803 191.34095 131.81291 147.11255 140.67249 C 136.32277 142.83394 118.82863 146.33335 108.03769 148.48874 C 42.5202 161.5769 -34.01628 102.04825 -8.50493 -8.50493 " fill="#f0f0f0"/>
<path transform="matrix(2.7777777,0,0,-2.7777777,150.38889,504.7222)" stroke-width=".3985" stroke-linecap="butt" stroke-miterlimit="10" stroke-linejoin="miter" fill="none" stroke="#c0c0c0" d="M -8.50493 -8.50493 C 51.02411 21.26009 127.56062 0 153.7762 18.34425 C 162.79259 24.65329 177.0661 35.34138 185.65749 42.21713 C 212.60106 63.7803 191.34095 131.81291 147.11255 140.67249 C 136.32277 142.83394 118.82863 146.33335 108.03769 148.48874 C 42.5202 161.5769 -34.01628 102.04825 -8.50493 -8.50493 "/>
<path transform="matrix(2.7777777,0,0,-2.7777777,150.38889,504.7222)" d="M 127.56062 124.57759 L 123.50417 118.97632 L 116.59607 119.29645 L 118.4456 112.63316 L 113.88788 107.43245 L 120.25107 104.72353 L 121.47594 97.91772 L 127.56062 101.20308 L 133.64533 97.91751 L 134.8702 104.72368 L 141.23317 107.43245 L 136.6758 112.63301 L 138.52498 119.29666 L 131.61724 118.97632 Z " fill="#ff3333"/>
<symbol id="font_0_1">
<path d="M .25300003 .29900003 L .43700005 .29900003 C .58000007 .29900003 .69900009 .372 .69900009 .49 C .69900009 .6 .59800007 .68600007 .42700003 .68600007 L 0 .68600007 L 0 .637 L .108 .637 L .108 .049000004 L 0 .049000004 L 0 0 C .035000005 .003 .139 .003 .18 .003 C .22100002 .003 .32600004 .003 .36100004 0 L .36100004 .049000004 L .25300003 .049000004 L .25300003 .29900003 M .38900004 .637 C .54200008 .637 .54200008 .56100007 .54200008 .49 C .54200008 .42000003 .54200008 .34300003 .388 .34300003 L .24700001 .34300003 L .24700001 .637 L .38900004 .637 Z "/>
</symbol>
<use xlink:href="#font_0_1" transform="matrix(24.906666,0,0,-24.906666,495.70439,206.17777)" fill="#ffffff"/>
<path transform="matrix(2.7777777,0,0,-2.7777777,150.38889,504.7222)" d="M 60.13264 34.01628 C 60.13264 39.04683 56.05467 43.12482 51.02411 43.12482 C 45.99355 43.12482 41.91557 39.04683 41.91557 34.01628 C 41.91557 28.98572 45.99355 24.90773 51.02411 24.90773 C 56.05467 24.90773 60.13264 28.98572 60.13264 34.01628 Z M 51.02411 34.01628 " fill="#4d4dff"/>
<symbol id="font_0_2">
<path d="M .54600009 .21100001 C .69100007 .268 .75600007 .397 .75600007 .533 C .75600007 .74200007 .61500009 .892 .37800003 .892 C .14000002 .892 0 .74100008 0 .533 C 0 .33100004 .13900002 .18200001 .37800003 .18200001 C .39000006 .18200001 .42800004 .18200001 .47500003 .191 C .50500008 .08 .526 0 .62100008 0 C .72300007 0 .7630001 .114 .7630001 .187 C .7630001 .194 .7630001 .214 .74300006 .214 C .7260001 .214 .72400006 .198 .72300007 .193 C .71900007 .16 .665 .157 .6380001 .157 C .60700008 .157 .586 .16 .54600009 .21100001 M .278 .24800001 C .15900001 .306 .15100001 .44500003 .15100001 .53400006 C .15100001 .633 .164 .70900008 .21200003 .772 C .246 .81600007 .30700005 .84900006 .37800003 .84900006 C .44700004 .84900006 .51600006 .818 .55500009 .757 C .595 .69600006 .605 .62100008 .605 .53400006 C .605 .481 .605 .33100004 .507 .26500003 C .48600007 .29500003 .44600005 .351 .37800003 .351 C .32700003 .351 .27600003 .32 .27600003 .26700003 C .27600003 .256 .277 .25300003 .278 .24800001 M .46000005 .24000001 C .42000003 .22500001 .39000006 .22500001 .37800003 .22500001 C .32600004 .22500001 .31600005 .255 .31600005 .26700003 C .31600005 .29500003 .347 .31100003 .37800003 .31100003 C .40400005 .31100003 .43800003 .30200003 .46000005 .24000001 Z "/>
</symbol>
<use xlink:href="#font_0_2" transform="matrix(24.906666,0,0,-24.906666,282.6966,421.18748)" fill="#ffffff"/>
<path transform="matrix(2.7777777,0,0,-2.7777777,150.38889,504.7222)" stroke-width=".79701" stroke-linecap="butt" stroke-dasharray="2.98883,2.98883" stroke-miterlimit="10" stroke-linejoin="miter" fill="none" stroke="#b5b5b5" d="M 120.31981 103.30943 L 57.61273 40.60251 "/>
<symbol id="font_1_1">
<path d="M .110000018 .07700001 C .10200001 .044000005 .097 .036000004 .030000002 .036000004 C .012000002 .036000004 0 .036000004 0 .014 C 0 0 .012000002 0 .027999998 0 L .39400003 0 C .549 0 .67800006 .113000009 .67800006 .215 C .67800006 .296 .60300007 .34800003 .517 .35700003 C .632 .379 .73100009 .45400004 .73100009 .54300007 C .73100009 .62 .65500006 .683 .536 .683 L .192 .683 C .17400003 .683 .16100002 .683 .16100002 .661 C .16100002 .647 .17400003 .647 .19100002 .647 C .22500003 .647 .24700001 .647 .24700001 .63100007 C .24700001 .623 .245 .615 .243 .60800006 L .110000018 .07700001 M .26200003 .36900003 L .32200004 .61200007 C .33100004 .647 .337 .647 .37 .647 L .521 .647 C .61 .647 .64100006 .59000006 .64100006 .54300007 C .64100006 .45700003 .546 .36900003 .42200006 .36900003 L .26200003 .36900003 M .21000001 .036000004 C .201 .036000004 .19100002 .036000004 .18200001 .038000004 C .18200001 .048 .18200001 .05 .18600002 .065000008 L .25500003 .34100003 L .46100004 .34100003 C .541 .34100003 .58500006 .289 .58500006 .22200002 C .58500006 .119 .48000003 .036000004 .37 .036000004 L .21000001 .036000004 Z "/>
</symbol>
<symbol id="font_1_c">
<path d="M .17900002 .19600001 C .18400002 .21800001 .19000003 .23900002 .19500003 .261 C .201 .285 .21200001 .328 .256 .37800003 C .27600003 .40100003 .305 .423 .349 .423 C .36 .423 .39400003 .42200003 .417 .40600003 C .39600004 .396 .38700003 .37800003 .38700003 .361 C .38700003 .333 .409 .327 .42200006 .327 C .44100005 .327 .472 .34100003 .472 .382 C .472 .433 .41000004 .451 .351 .451 C .32400004 .451 .27 .449 .21300003 .38300003 C .19700003 .43800003 .14500001 .451 .117000009 .451 C .07399999 .451 .051999995 .423 .036999994 .398 C .015999996 .365 0 .304 0 .298 C 0 .285 .012999997 .285 .020999998 .285 C .038999998 .285 .04 .286 .047 .314 C .064 .38300003 .083 .423 .114 .423 C .14500001 .423 .14500001 .387 .14500001 .375 C .14500001 .356 .132 .305 .124000009 .27 L .09600001 .16200002 C .093 .14700002 .083 .109000008 .079 .094000007 C .07399999 .072000008 .065000008 .037 .065000008 .030000002 C .065000008 .008 .08100001 0 .09600001 0 C .11800001 0 .13100001 .016 .13499999 .024 C .13800001 .031000004 .14700002 .067 .15200001 .088 L .17900002 .19600001 Z "/>
</symbol>
<symbol id="font_1_5">
<path d="M .152 .23800002 C .19500001 .23800002 .39200003 .23800002 .39200003 .363 C .39200003 .417 .34100003 .451 .27100004 .451 C .159 .451 0 .361 0 .18500002 C 0 .08 .062000008 0 .17 0 C .329 0 .40600003 .094000007 .40600003 .107 C .40600003 .115 .39200003 .13100001 .38300003 .13100001 C .37800003 .13100001 .37500007 .128 .36800004 .120000008 C .30700005 .047000003 .22000002 .028 .17 .028 C .105000007 .028 .07700001 .083000008 .07700001 .14600002 C .07700001 .17700002 .083000008 .20800002 .09 .23800002 L .152 .23800002 M .098000008 .266 C .14300002 .421 .259 .423 .27100004 .423 C .31300003 .423 .34400005 .4 .34400005 .364 C .34400005 .266 .184 .266 .145 .266 L .098000008 .266 Z "/>
</symbol>
<symbol id="font_1_6">
<path d="M .468 .57500007 C .472 .59000006 .472 .592 .472 .596 C .472 .61800006 .45600004 .62600007 .44100005 .62600007 C .42000003 .62600007 .40300004 .611 .397 .591 C .37300004 .628 .338 .64500007 .299 .64500007 C .17700002 .64500007 .05200001 .50500008 .05200001 .365 C .05200001 .273 .11100001 .20400001 .195 .20400001 C .245 .20400001 .287 .231 .314 .254 C .31100003 .24100001 .28300003 .13300002 .28300003 .13100001 C .275 .11000001 .238 .027999998 .13500002 .027999998 C .121000017 .027999998 .086 .027999998 .062 .037 C .086 .051 .086 .07700001 .086 .07800001 C .086 .098000008 .072000008 .112 .050000006 .112 C .025000006 .112 0 .091000009 0 .058 C 0 .004999995 .064 0 .132 0 C .276 0 .344 .07700001 .36 .14000002 L .468 .57500007 M .337 .34500004 C .329 .314 .262 .23200001 .19800002 .23200001 C .15200001 .23200001 .12900001 .273 .12900001 .32500003 C .12900001 .367 .15400002 .47900004 .185 .532 C .22 .592 .266 .61700007 .299 .61700007 C .368 .61700007 .38000003 .531 .38000003 .522 L .377 .508 L .337 .34500004 Z "/>
</symbol>
<symbol id="font_1_9">
<path d="M .37500004 .098000008 C .36900003 .076 .35900004 .036000004 .35900004 .030000002 C .35900004 .008 .37500004 0 .39000003 0 C .42400003 0 .43100006 .030000002 .435 .045 C .439 .062000004 .45200003 .112 .458 .134 C .46100004 .14900002 .47100003 .187 .47400005 .202 C .477 .21200001 .49 .262 .49100007 .269 C .49300004 .275 .523 .34100003 .564 .379 C .59400007 .40600003 .629 .423 .669 .423 C .71500006 .423 .726 .388 .726 .35500003 C .726 .296 .679 .17500001 .66200008 .12900001 C .652 .104 .652 .097 .652 .084 C .652 .030000002 .69500008 0 .74100008 0 C .841 0 .88600006 .13700001 .88600006 .15300001 C .88600006 .16600001 .873 .16600001 .86500009 .16600001 C .84700009 .16600001 .846 .16300002 .841 .14500001 C .82400009 .083000008 .78800007 .028 .744 .028 C .73 .028 .71900007 .035 .71900007 .062000004 C .71900007 .084 .72800007 .106 .73600009 .12900001 C .75400009 .17600002 .79600009 .285 .79600009 .34 C .79600009 .418 .74200007 .451 .67300006 .451 C .596 .451 .54300007 .40800003 .50200006 .35500003 C .49300004 .43800003 .425 .451 .379 .451 C .29000003 .451 .23900002 .391 .21600002 .365 C .21000001 .428 .15600002 .451 .117000009 .451 C .07399999 .451 .051999995 .423 .036999994 .398 C .015999996 .365 0 .304 0 .298 C 0 .285 .012999997 .285 .020999998 .285 C .038999998 .285 .04 .286 .047 .314 C .064 .38300003 .083 .423 .114 .423 C .14500001 .423 .14500001 .387 .14500001 .375 C .14500001 .356 .132 .305 .124000009 .27 L .09600001 .16200002 C .093 .14700002 .083 .109000008 .079 .094000007 C .07399999 .072000008 .065000008 .037 .065000008 .030000002 C .065000008 .008 .08100001 0 .09600001 0 C .13 0 .137 .030000002 .141 .045 C .14500001 .062000004 .15799999 .112 .164 .134 C .17900002 .19600001 .194 .25800003 .19700003 .269 C .19700003 .27 .23000002 .34600003 .275 .384 C .289 .395 .323 .423 .37600003 .423 C .42300005 .423 .43300004 .386 .43300004 .354 C .43300004 .331 .426 .304 .42000003 .278 C .41400004 .257 .40100003 .20400001 .39600004 .18200001 L .37500004 .098000008 Z "/>
</symbol>
<symbol id="font_1_3">
<path d="M .41800005 .381 C .422 .396 .422 .398 .422 .402 C .422 .42400003 .40600003 .432 .39100004 .432 C .358 .432 .34800003 .398 .347 .395 C .32200004 .43600003 .28500004 .451 .24900002 .451 C .127 .451 0 .31 0 .16400002 C 0 .057000005 .068 0 .14200002 0 C .206 0 .259 .047000003 .279 .068 C .29200004 .020000002 .33900003 0 .375 0 C .40600003 0 .43200005 .015000001 .454 .051000004 C .47800005 .09 .49200005 .15 .49200005 .15300001 C .49200005 .16600001 .47900004 .16600001 .47100003 .16600001 C .453 .16600001 .45200003 .16400002 .44600005 .13900002 C .43200005 .087000008 .41500003 .028 .37800003 .028 C .35000003 .028 .34600003 .058000003 .34600003 .075 C .34600003 .092 .34600003 .094000007 .35200004 .117000009 L .41800005 .381 M .28500004 .14600002 C .277 .115 .255 .091 .23200003 .069000009 C .19100002 .033000005 .16 .028 .14500001 .028 C .09900001 .028 .076000008 .071 .076000008 .123 C .076000008 .165 .100999999 .275 .12900001 .329 C .16100002 .388 .20900002 .423 .24900002 .423 C .317 .423 .33 .336 .33 .326 C .33 .323 .32900004 .319 .32700003 .312 L .28500004 .14600002 Z "/>
</symbol>
<symbol id="font_1_a">
<path d="M .21600002 .366 C .20900002 .42700003 .157 .451 .117000009 .451 C .07399999 .451 .051999995 .423 .036999994 .398 C .015999996 .365 0 .304 0 .298 C 0 .285 .012999997 .285 .020999998 .285 C .038999998 .285 .04 .286 .047 .314 C .064 .38300003 .083 .423 .114 .423 C .14500001 .423 .14500001 .387 .14500001 .375 C .14500001 .356 .132 .305 .124000009 .27 L .09600001 .16200002 C .093 .14700002 .083 .109000008 .079 .094000007 C .07399999 .072000008 .065000008 .037 .065000008 .030000002 C .065000008 .008 .08100001 0 .09600001 0 C .13 0 .137 .030000002 .141 .045 C .14500001 .062000004 .15799999 .112 .164 .134 C .16700003 .14900002 .17700002 .187 .18 .202 C .18300003 .21200001 .19600001 .262 .19700003 .269 C .199 .275 .229 .34100003 .27 .379 C .3 .40600003 .335 .423 .37500004 .423 C .421 .423 .43200005 .388 .43200005 .35500003 C .43200005 .296 .38500003 .17500001 .36800004 .12900001 C .358 .104 .358 .097 .358 .084 C .358 .030000002 .40100003 0 .44700004 0 C .54700008 0 .592 .13700001 .592 .15300001 C .592 .16600001 .57900008 .16600001 .57100006 .16600001 C .55300006 .16600001 .55200007 .16300002 .54700008 .14500001 C .53000006 .083000008 .49400003 .028 .45000006 .028 C .43600006 .028 .425 .035 .425 .062000004 C .425 .084 .43400003 .106 .44200004 .12900001 C .46000005 .17600002 .50200006 .285 .50200006 .34 C .50200006 .418 .448 .451 .379 .451 C .3 .451 .24600002 .404 .21600002 .366 Z "/>
</symbol>
<symbol id="font_1_2">
<path d="M .254 .31 L .42900003 .31 C .58500006 .31 .727 .416 .727 .52900007 C .727 .61600008 .64500007 .683 .522 .683 L .19200002 .683 C .17400001 .683 .161 .683 .161 .661 C .161 .647 .17400001 .647 .191 .647 C .22500001 .647 .24700003 .647 .24700003 .63100007 C .24700003 .62700006 .24700003 .625 .24300002 .611 L .11100002 .080000009 C .10200001 .044000005 .097 .036000004 .032000007 .036000004 C .011000007 .036000004 0 .036000004 0 .014 C 0 .010000001 .002000004 0 .015000008 0 C .053000004 0 .09500001 .004 .134 .004 C .17300003 .004 .21700002 0 .255 0 C .26200003 0 .27600003 0 .27600003 .022000002 C .27600003 .036000004 .264 .036000004 .24700003 .036000004 C .22000002 .036000004 .19000001 .036000004 .19000001 .05 C .19000001 .054 .193 .066 .193 .067 L .254 .31 M .32500006 .61200007 C .334 .647 .34000004 .647 .37300004 .647 L .49 .647 C .623 .647 .633 .583 .633 .54800006 C .633 .503 .612 .425 .56700006 .38900004 C .52000007 .35200004 .46500004 .342 .41400004 .342 L .25800003 .342 L .32500006 .61200007 Z "/>
</symbol>
<symbol id="font_1_b">
<path d="M .44900007 .279 C .44900007 .37600003 .38100005 .451 .278 .451 C .135 .451 0 .312 0 .172 C 0 .07 .072 0 .17100002 0 C .314 0 .44900007 .14000002 .44900007 .279 M .172 .028 C .14400001 .028 .078999999 .042000005 .078999999 .13800001 C .078999999 .18200001 .09900001 .287 .147 .349 C .182 .396 .233 .423 .277 .423 C .31200005 .423 .37 .402 .37 .313 C .37 .279 .35500003 .18300002 .31200005 .115 C .28100003 .067 .22500001 .028 .172 .028 Z "/>
</symbol>
<symbol id="font_1_8">
<path d="M .42500005 .827 C .42500005 .852 .40600003 .86200007 .39000003 .86200007 C .36200003 .86200007 .34000004 .83500006 .34000004 .814 C .34000004 .79700008 .35200004 .77900007 .37600003 .77900007 C .40100003 .77900007 .42500005 .80200007 .42500005 .827 M .21800001 .15300001 C .204 .098000008 .156 .027999998 .094000007 .027999998 C .083000008 .027999998 .069000009 .031000004 .060000004 .034999998 C .079 .046000005 .086 .068 .086 .07800001 C .086 .098000008 .072000008 .112 .050000006 .112 C .023 .112 0 .08900001 0 .059 C 0 .024000004 .036000004 0 .094000007 0 C .178 0 .27 .062000008 .29200004 .15200001 L .38300003 .518 C .38700003 .53400006 .38800005 .54300007 .38800005 .55200007 C .38800005 .60400006 .34700004 .64500007 .28700004 .64500007 C .179 .64500007 .11500001 .508 .11500001 .491 C .11500001 .47900004 .12900001 .47900004 .136 .47900004 C .152 .47900004 .153 .481 .159 .495 C .2 .591 .252 .61700007 .284 .61700007 C .31100003 .61700007 .31700004 .595 .31700004 .569 C .31700004 .558 .31700004 .551 .31300003 .535 L .21800001 .15300001 Z "/>
</symbol>
<symbol id="font_1_4">
<path d="M .35500003 .387 C .32600004 .379 .31599999 .35500003 .31599999 .338 C .31599999 .322 .32700003 .305 .352 .305 C .36900003 .305 .402 .316 .402 .364 C .402 .42900003 .33200003 .451 .277 .451 C .13700001 .451 0 .314 0 .172 C 0 .078 .06299999 0 .17400001 0 C .33500005 0 .411 .094000007 .411 .107 C .411 .115 .397 .13100001 .388 .13100001 C .38300003 .13100001 .38000006 .128 .37300004 .120000008 C .31200005 .047000003 .22500001 .028 .175 .028 C .12500002 .028 .078999999 .057000005 .078999999 .13800001 C .078999999 .18500002 .100999999 .291 .147 .349 C .18699999 .4 .235 .423 .278 .423 C .29500003 .423 .338 .418 .35500003 .387 Z "/>
</symbol>
<symbol id="font_1_d">
<path d="M .19400002 .405 L .29300005 .405 C .311 .405 .323 .405 .323 .42700003 C .323 .441 .311 .441 .29500003 .441 L .20300003 .441 L .23900001 .58500006 C .24300002 .59900006 .24300002 .601 .24300002 .605 C .24300002 .623 .22900002 .635 .21100001 .635 C .177 .635 .16900002 .602 .16700001 .593 L .12900001 .441 L .030000002 .441 C .012000002 .441 0 .441 0 .419 C 0 .405 .012000002 .405 .028000005 .405 L .120000008 .405 L .051 .128 C .046000005 .108 .046000005 .101 .046000005 .094000007 C .046000005 .032 .09500001 0 .14700002 0 C .255 0 .319 .13800001 .319 .15400002 C .319 .16600001 .306 .16600001 .29900003 .16600001 C .283 .16600001 .282 .16400002 .27600003 .15 C .22900002 .044000005 .177 .028 .15 .028 C .11600001 .028 .11600001 .065000008 .11600001 .075 C .11600001 .092 .12100001 .113000009 .12200001 .116000007 L .19400002 .405 Z "/>
</symbol>
<symbol id="font_1_7">
<path d="M .26900003 .633 C .26900003 .65400007 .254 .66800007 .23400003 .66800007 C .206 .66800007 .18400002 .642 .18400002 .62 C .18400002 .602 .19600001 .58500006 .22000003 .58500006 C .245 .58500006 .26900003 .609 .26900003 .633 M .123 .257 C .116000007 .23800002 .098 .19200002 .08800001 .16400002 C .078 .13800001 .064 .102000009 .064 .084 C .064 .038000004 .1 0 .153 0 C .25300003 0 .298 .13700001 .298 .15300001 C .298 .16600001 .28500004 .16600001 .277 .16600001 C .259 .16600001 .25800003 .16300002 .25300003 .14500001 C .24000001 .097 .20700002 .028 .15600002 .028 C .132 .028 .132 .052000006 .132 .062000004 C .132 .086 .14900002 .12900001 .162 .16100002 C .17300001 .19200002 .22300002 .319 .22800002 .334 C .23400003 .351 .23400003 .354 .23400003 .367 C .23400003 .412 .199 .451 .144 .451 C .045999998 .451 0 .316 0 .298 C 0 .285 .012999997 .285 .020999998 .285 C .033 .285 .038999998 .285 .042000005 .298 C .074999999 .414 .123 .423 .141 .423 C .153 .423 .16600001 .42000003 .16600001 .389 C .16600001 .367 .15799999 .347 .15 .326 L .123 .257 Z "/>
</symbol>
<use xlink:href="#font_1_1" transform="matrix(9.784102,-9.784102,-9.784102,-9.784102,364.41294,369.73979)" fill="#a4a4a4"/>
<use xlink:href="#font_1_c" transform="matrix(9.784102,-9.784102,-9.784102,-9.784102,372.475,361.87339)" fill="#a4a4a4"/>
<use xlink:href="#font_1_5" transform="matrix(9.784102,-9.784102,-9.784102,-9.784102,377.24964,357.09877)" fill="#a4a4a4"/>
<use xlink:href="#font_1_6" transform="matrix(9.784102,-9.784102,-9.784102,-9.784102,383.35496,354.78968)" fill="#a4a4a4"/>
<use xlink:href="#font_1_9" transform="matrix(9.784102,-9.784102,-9.784102,-9.784102,386.87724,347.47117)" fill="#a4a4a4"/>
<use xlink:href="#font_1_3" transform="matrix(9.784102,-9.784102,-9.784102,-9.784102,396.63197,337.71644)" fill="#a4a4a4"/>
<use xlink:href="#font_1_a" transform="matrix(9.784102,-9.784102,-9.784102,-9.784102,402.13066,332.21775)" fill="#a4a4a4"/>
<use xlink:href="#font_1_2" transform="matrix(9.784102,-9.784102,-9.784102,-9.784102,412.76597,321.38676)" fill="#a4a4a4"/>
<use xlink:href="#font_1_c" transform="matrix(9.784102,-9.784102,-9.784102,-9.784102,420.5443,313.80409)" fill="#a4a4a4"/>
<use xlink:href="#font_1_b" transform="matrix(9.784102,-9.784102,-9.784102,-9.784102,425.27983,309.06858)" fill="#a4a4a4"/>
<use xlink:href="#font_1_8" transform="matrix(9.784102,-9.784102,-9.784102,-9.784102,431.54167,306.60298)" fill="#a4a4a4"/>
<use xlink:href="#font_1_5" transform="matrix(9.784102,-9.784102,-9.784102,-9.784102,434.8291,299.5193)" fill="#a4a4a4"/>
<use xlink:href="#font_1_4" transform="matrix(9.784102,-9.784102,-9.784102,-9.784102,439.53526,294.81315)" fill="#a4a4a4"/>
<use xlink:href="#font_1_d" transform="matrix(9.784102,-9.784102,-9.784102,-9.784102,444.53495,289.81346)" fill="#a4a4a4"/>
<use xlink:href="#font_1_7" transform="matrix(9.784102,-9.784102,-9.784102,-9.784102,448.35075,285.99766)" fill="#a4a4a4"/>
<use xlink:href="#font_1_b" transform="matrix(9.784102,-9.784102,-9.784102,-9.784102,452.3622,281.98619)" fill="#a4a4a4"/>
<use xlink:href="#font_1_a" transform="matrix(9.784102,-9.784102,-9.784102,-9.784102,457.85108,276.4973)" fill="#a4a4a4"/>
<path transform="matrix(2.7777777,0,0,-2.7777777,150.38889,504.7222)" stroke-width=".79701" stroke-linecap="butt" stroke-miterlimit="10" stroke-linejoin="miter" fill="none" stroke="#000099" d="M 58.87584 43.31158 C 71.12128 69.57224 86.2315 85.91039 113.09705 99.77086 "/>
<path transform="matrix(2.4842222,-1.2425277,-1.2425277,-2.4842222,457.31446,231.2121)" d="M 6.83525 0 L 1.28699 2.09366 L 3.11761 0 L 1.28699 -2.09366 Z " fill="#000099"/>
<path transform="matrix(2.4842222,-1.2425277,-1.2425277,-2.4842222,457.31446,231.2121)" stroke-width=".79701" stroke-linecap="butt" stroke-miterlimit="10" stroke-linejoin="miter" fill="none" stroke="#000099" d="M 6.83525 0 L 1.28699 2.09366 L 3.11761 0 L 1.28699 -2.09366 Z "/>
<symbol id="font_2_1">
<path d="M .11600001 .076000008 C .10700001 .040000004 .105000007 .031000002 .030000002 .031000002 C .011 .031000002 0 .031000002 0 .013 C 0 0 .010000002 0 .028000005 0 L .365 0 C .579 0 .778 .21200001 .778 .42800004 C .778 .565 .69200006 .683 .536 .683 L .193 .683 C .17500001 .683 .163 .683 .163 .665 C .163 .652 .172 .652 .193 .652 C .19700001 .652 .21500002 .652 .23100002 .65000006 C .24800001 .648 .255 .646 .255 .63500007 C .255 .63000008 .254 .62600007 .251 .615 L .11600001 .076000008 M .33600004 .61300006 C .34500004 .64900007 .347 .652 .389 .652 L .50200006 .652 C .606 .652 .689 .59400007 .689 .46500004 C .689 .407 .66400006 .24700001 .586 .148 C .54 .091000009 .45700003 .031000002 .347 .031000002 L .22700002 .031000002 C .21300002 .031000002 .21100001 .031000002 .207 .032 C .19700001 .033 .194 .034 .194 .041 C .194 .044000005 .194 .046000005 .19900002 .064 L .33600004 .61300006 Z "/>
</symbol>
<use xlink:href="#font_2_1" transform="matrix(17.611504,-17.611504,-17.611504,-17.611504,322.06196,317.9797)" fill="#0000b3"/>
<symbol id="font_3_1">
<path d="M .5220001 .402 C .521 .40300004 .51600006 .41300003 .51600006 .41400004 C .51600006 .41500003 .5170001 .416 .53300008 .42700003 C .63500007 .497 .77000007 .58900007 .8260001 .61600008 C .8600001 .632 .8880001 .64100006 .92100009 .643 C .93100008 .64400008 .94400009 .64500007 .94400009 .66800007 C .94400009 .675 .938 .68200007 .9300001 .68200007 C .90800008 .68200007 .88000008 .679 .85600009 .679 C .8410001 .679 .80700007 .679 .79200008 .68 C .7800001 .68100008 .7430001 .683 .73300006 .683 C .72700008 .683 .71000006 .683 .71000006 .65800008 C .71000006 .64400008 .72400006 .643 .72700008 .643 C .75000008 .642 .75000008 .63500007 .75000008 .63000008 C .75000008 .61700007 .72900006 .601 .7250001 .59800007 C .72200009 .596 .7210001 .595 .7200001 .59400007 C .71900007 .59300008 .71000006 .587 .7070001 .58500006 L .272 .291 L .35000003 .60200008 C .358 .63500007 .36 .643 .44000004 .643 C .45800004 .643 .47200004 .643 .47200004 .66800007 C .47200004 .67300006 .469 .683 .455 .683 C .43400005 .683 .41000004 .68 .388 .68 C .36600004 .68 .34300003 .679 .321 .679 C .298 .679 .275 .68 .252 .68 C .23000002 .68 .20500002 .683 .183 .683 C .17700002 .683 .16100002 .683 .16100002 .65800008 C .16100002 .643 .174 .643 .19300002 .643 C .211 .643 .236 .643 .257 .63600006 C .257 .62600007 .257 .62 .25300003 .60400006 L .122000019 .083000008 C .11300001 .047000003 .11100001 .040000004 .036000007 .040000004 C .013000004 .040000004 0 .040000004 0 .015000001 C 0 .007 .0060000049 0 .017000005 0 C .038000004 0 .062 .003 .084000017 .003 C .107 .003 .12900001 .004 .15100003 .004 C .174 .004 .197 .003 .22 .003 C .24200002 .003 .26700003 0 .28800003 0 C .29500003 0 .31100003 0 .31100003 .025 C .31100003 .040000004 .299 .040000004 .278 .040000004 C .27600003 .040000004 .25800003 .040000004 .24000001 .042000005 C .22 .044000005 .21400002 .044000005 .21400002 .055000005 C .21400002 .059000005 .22100002 .08400001 .224 .09900001 C .229 .116000007 .229 .11800001 .23500002 .142 C .24900002 .194 .24900002 .19600001 .26000003 .24400002 L .43400005 .36100004 L .59800007 .069000009 C .59800007 .056 .59800007 .041 .55300006 .040000004 C .54100009 .040000004 .526 .040000004 .526 .015000001 C .526 .007 .53200009 0 .54300007 0 C .572 0 .646 .004 .6750001 .004 C .69200006 .004 .70900008 .003 .7260001 .003 C .7430001 .003 .7620001 0 .77800008 0 C .78900006 0 .8000001 .006 .8000001 .025 C .8000001 .040000004 .78400006 .040000004 .7760001 .040000004 C .72400006 .041 .7160001 .055000005 .70400008 .07700001 L .5220001 .402 Z "/>
</symbol>
<symbol id="font_3_2">
<path d="M .35000003 .601 C .35800005 .634 .36 .643 .462 .643 C .48600007 .643 .49800004 .643 .49800004 .66800007 C .49800004 .671 .49600006 .683 .481 .683 C .45700003 .683 .43100006 .68 .407 .68 C .38 .68 .351 .679 .324 .679 C .301 .679 .278 .68 .255 .68 C .23200001 .68 .20600002 .683 .18300002 .683 C .177 .683 .161 .683 .161 .65800008 C .161 .643 .17400001 .643 .193 .643 C .21100001 .643 .23600002 .643 .25700004 .63600006 C .25700004 .62600007 .25700004 .62 .25300003 .60400006 L .12200001 .083000008 C .113000009 .047000003 .111 .040000004 .036 .040000004 C .012999997 .040000004 0 .040000004 0 .015000001 C 0 0 .012999997 0 .030999996 0 L .56100007 0 C .587 0 .58800008 .001 .595 .020000002 C .605 .045 .683 .245 .683 .25100003 C .683 .261 .6750001 .26700003 .66400006 .26700003 C .651 .26700003 .64800009 .26000003 .64300009 .24800001 C .59800007 .135 .54800006 .040000004 .36800004 .040000004 L .24500002 .040000004 C .226 .040000004 .22400002 .040000004 .212 .043 L .35000003 .601 Z "/>
</symbol>
<use xlink:href="#font_3_1" transform="matrix(11.741002,-11.741002,-11.741002,-11.741002,339.14945,304.80485)" fill="#0000b3"/>
<use xlink:href="#font_3_2" transform="matrix(11.741002,-11.741002,-11.741002,-11.741002,351.99409,291.9602)" fill="#0000b3"/>
<symbol id="font_4_1">
<path d="M .24000001 .011000007 C .24000001 .016000003 .23700002 .019000009 .231 .026000008 C .102000009 .14400001 .063 .324 .063 .499 C .063 .65400007 .093 .84200009 .234 .9760001 C .238 .98 .24000001 .98300006 .24000001 .98800006 C .24000001 .99500009 .23500002 .9990001 .22800002 .9990001 C .21599999 .9990001 .12600002 .92700007 .072000008 .818 C .023999997 .722 0 .619 0 .5 C 0 .42800004 .009000003 .314 .064 .19600001 C .123 .073 .21599999 0 .22800002 0 C .23500002 0 .24000001 .004000008 .24000001 .011000007 Z "/>
</symbol>
<use xlink:href="#font_4_1" transform="matrix(17.611504,-17.611504,-17.611504,-17.611504,366.12956,282.68269)" fill="#0000b3"/>
<symbol id="font_2_2">
<path d="M .264 .314 L .431 .314 C .593 .314 .725 .425 .725 .531 C .725 .61 .65400007 .683 .523 .683 L .193 .683 C .17500001 .683 .163 .683 .163 .665 C .163 .652 .172 .652 .193 .652 C .19700001 .652 .21500002 .652 .23100002 .65000006 C .24800001 .648 .255 .646 .255 .63500007 C .255 .63000008 .254 .62600007 .251 .615 L .11600001 .076000008 C .10700001 .040000004 .105000007 .031000002 .030000002 .031000002 C .011 .031000002 0 .031000002 0 .013 C 0 .002 .008000001 0 .015000001 0 C .034 0 .059 .001 .078 .002 C .10800001 .003 .11 .003 .142 .003 C .17400001 .003 .17600002 .003 .20600002 .002 C .22600003 .001 .25200004 0 .27100004 0 C .278 0 .291 0 .291 .018000002 C .291 .031000002 .28100003 .031000002 .26 .031000002 C .25600005 .031000002 .23800002 .031000002 .22200002 .033 C .2 .036000004 .19900002 .040000004 .19900002 .049000004 C .19900002 .052 .19900002 .054 .20400001 .072000008 L .264 .314 M .33600004 .61300006 C .34500004 .64900007 .347 .652 .389 .652 L .49 .652 C .568 .652 .63 .628 .63 .555 C .63 .53400006 .619 .44000004 .56700006 .39200003 C .545 .372 .499 .342 .41300006 .342 L .268 .342 L .33600004 .61300006 Z "/>
</symbol>
<use xlink:href="#font_2_2" transform="matrix(17.611504,-17.611504,-17.611504,-17.611504,367.79759,272.2441)" fill="#0000b3"/>
<symbol id="font_5_1">
<path d="M .043000014 .96400007 C .043000014 .97900006 .043000014 .9990001 .022 .9990001 C 0 .9990001 0 .9760001 0 .95900008 L 0 .040000008 C 0 .023000002 0 0 .022 0 C .043000014 0 .043000014 .019999996 .043000014 .034999998 L .043000014 .96400007 M .24700003 .95900008 C .24700003 .9760001 .24700003 .9990001 .22500001 .9990001 C .20400001 .9990001 .20400001 .97900006 .20400001 .96400007 L .20400001 .034999998 C .20400001 .019999996 .20400001 0 .22500001 0 C .24700003 0 .24700003 .023000002 .24700003 .040000008 L .24700003 .95900008 Z "/>
</symbol>
<use xlink:href="#font_5_1" transform="matrix(17.611504,-17.611504,-17.611504,-17.611504,387.802,261.01023)" fill="#0000b3"/>
<symbol id="font_2_3">
<path d="M .36200003 .153 C .36 .142 .36 .128 .36 .116000007 C .36 .068 .368 0 .447 0 C .56600007 0 .61700007 .179 .61700007 .194 C .61700007 .2 .61200007 .206 .60400006 .206 C .596 .206 .59400007 .199 .591 .192 C .568 .124000009 .51 .099 .473 .099 C .42700003 .099 .412 .128 .402 .199 C .62 .293 .708 .49 .708 .62700006 C .708 .785 .602 .89900007 .44500003 .89900007 C .22100003 .89900007 0 .669 0 .441 C 0 .277 .113000009 .172 .264 .172 C .305 .172 .34600003 .18100001 .363 .186 L .36200003 .153 M .20400001 .21200001 C .158 .23 .091000009 .282 .091000009 .411 C .091000009 .46400003 .10800001 .625 .216 .754 C .268 .81500008 .352 .87100008 .43800003 .87100008 C .537 .87100008 .61700007 .79800006 .61700007 .658 C .61700007 .558 .568 .33200003 .396 .236 C .387 .29000003 .368 .343 .304 .343 C .24800001 .343 .19900002 .292 .19900002 .24100001 C .19900002 .23300001 .20100002 .21900001 .20400001 .21200001 M .365 .22 C .351 .214 .312 .2 .271 .2 C .25800003 .2 .22400002 .2 .22400002 .24100001 C .22400002 .278 .261 .31800003 .305 .31800003 C .36400003 .31800003 .365 .264 .365 .22 Z "/>
</symbol>
<use xlink:href="#font_2_3" transform="matrix(17.611504,-17.611504,-17.611504,-17.611504,394.42247,252.45244)" fill="#0000b3"/>
<symbol id="font_4_2">
<path d="M .24000001 .5 C .24000001 .582 .22800002 .69200006 .17600002 .80300006 C .11700001 .92600008 .024 .9990001 .011999998 .9990001 C .0020000004 .9990001 0 .99100008 0 .98800006 C 0 .98300006 .0020000004 .98 .009 .97300007 C .067 .92100009 .17700002 .785 .17700002 .5 C .17700002 .35700003 .15100001 .158 .006000001 .023000002 C .0040000008 .019999996 0 .016000003 0 .011000007 C 0 .008000001 .0020000004 0 .011999998 0 C .024 0 .11400001 .07200001 .16800002 .18100001 C .21600002 .277 .24000001 .38000003 .24000001 .5 Z "/>
</symbol>
<use xlink:href="#font_4_2" transform="matrix(17.611504,-17.611504,-17.611504,-17.611504,409.80757,239.00461)" fill="#0000b3"/>
<symbol id="font_4_5">
<path d="M .647 .67700007 L .020000004 .67700007 L 0 .45200003 L .028000005 .45200003 C .042000005 .61700007 .062000008 .646 .21200001 .646 C .231 .646 .26000003 .646 .27 .64400008 C .28800003 .64000007 .289 .63000008 .289 .605 L .289 .080000009 C .289 .046000005 .289 .031000002 .18400002 .031000002 L .14500001 .031000002 L .14500001 0 C .18100001 .003 .291 .003 .33400003 .003 C .37700004 .003 .48700006 .003 .523 0 L .523 .031000002 L .48400004 .031000002 C .379 .031000002 .379 .046000005 .379 .080000009 L .379 .605 C .379 .63100007 .38000003 .64000007 .4 .64400008 C .41000004 .646 .43700005 .646 .455 .646 C .605 .646 .62500008 .61700007 .63900008 .45200003 L .66700008 .45200003 L .647 .67700007 Z "/>
</symbol>
<symbol id="font_4_c">
<path d="M .148 .22900002 C .148 .27 .15900001 .41700004 .273 .41700004 L .273 .416 C .27100004 .41500003 .25500003 .40300004 .25500003 .379 C .25500003 .35200004 .27600003 .335 .29900003 .335 C .32000003 .335 .34300003 .35000003 .34300003 .38000003 C .34300003 .41200004 .31300003 .44200004 .268 .44200004 C .208 .44200004 .16600001 .4 .143 .33800004 L .142 .33800004 L .142 .44200004 L 0 .43100003 L 0 .4 C .068 .4 .07700001 .393 .07700001 .344 L .07700001 .07700001 C .07700001 .031000002 .066 .031000002 0 .031000002 L 0 0 C .053000004 .002 .066 .003 .117 .003 C .157 .003 .18100001 .002 .24400002 0 L .24400002 .031000002 L .224 .031000002 C .15100001 .031000002 .148 .042000005 .148 .079 L .148 .22900002 Z "/>
</symbol>
<symbol id="font_4_d">
<path d="M .36100004 .17800002 C .36100004 .089 .31100003 .025000003 .23900002 .025000003 C .15600002 .025000003 .15100001 .068 .15100001 .12200001 L .15100001 .45300005 L 0 .44200004 L 0 .411 C .07700001 .411 .07700001 .40800003 .07700001 .31900005 L .07700001 .16900002 C .07700001 .104 .07700001 .062000004 .12300001 .027000003 C .15200001 .0070000009 .19300002 0 .23300001 0 C .28500004 0 .33400003 .023000002 .36300005 .083000008 L .36400003 .083000008 L .36400003 0 L .512 .011000001 L .512 .042000005 C .44400005 .042000005 .43500004 .049000004 .43500004 .098000008 L .43500004 .45300005 L .284 .44200004 L .284 .411 C .35200004 .411 .36100004 .404 .36100004 .35500003 L .36100004 .17800002 Z "/>
</symbol>
<symbol id="font_4_8">
<path d="M .371 .24000003 C .393 .24000003 .398 .24000003 .398 .261 C .398 .36400003 .342 .45900003 .21400002 .45900003 C .094000007 .45900003 0 .35500003 0 .23100002 C 0 .1 .105000007 0 .22700002 0 C .349 0 .398 .107 .398 .13000001 C .398 .13700001 .393 .143 .384 .143 C .374 .143 .371 .136 .37 .13200002 C .336 .030000002 .24700003 .028 .23200001 .028 C .18400002 .028 .143 .055000005 .120000008 .089 C .087000008 .13800001 .086 .19800002 .086 .24000003 L .371 .24000003 M .087000008 .26400004 C .096 .418 .186 .43400003 .21400002 .43400003 C .269 .43400003 .329 .39200003 .33 .26400004 L .087000008 .26400004 Z "/>
</symbol>
<use xlink:href="#font_4_5" transform="matrix(24.906666,0,0,-24.906666,545.5688,166.0167)" fill="#222222"/>
<use xlink:href="#font_4_c" transform="matrix(24.906666,0,0,-24.906666,561.7332,166.0167)" fill="#222222"/>
<use xlink:href="#font_4_d" transform="matrix(24.906666,0,0,-24.906666,571.8702,166.29067)" fill="#222222"/>
<use xlink:href="#font_4_8" transform="matrix(24.906666,0,0,-24.906666,585.9425,166.29067)" fill="#222222"/>
<symbol id="font_4_4">
<path d="M .67100009 .65000006 L .67200008 .64900007 L .67200008 .079 C .67200008 .042000005 .6700001 .031000002 .59300008 .031000002 L .57000008 .031000002 L .57000008 0 C .63000008 .003 .697 .003 .7120001 .003 C .71800008 .003 .79200008 .003 .8550001 0 L .8550001 .031000002 L .8320001 .031000002 C .75500008 .031000002 .7530001 .042000005 .7530001 .079 L .7530001 .60400006 C .7530001 .64100006 .75500008 .652 .8320001 .652 L .8550001 .652 L .8550001 .683 L .68700006 .683 C .66600009 .683 .65900006 .683 .65200009 .665 L .428 .098000008 L .20400001 .661 C .19600001 .68100008 .19500001 .683 .16800002 .683 L 0 .683 L 0 .652 L .022999999 .652 C .10000001 .652 .10200001 .64100006 .10200001 .60400006 L .10200001 .106000009 C .10200001 .079 .10200001 .031000002 0 .031000002 L 0 0 C .055000005 .002 .069000009 .003 .118000019 .003 C .16600001 .003 .18100001 .002 .23500003 0 L .23500003 .031000002 C .13300002 .031000002 .13300002 .079 .13300002 .106000009 L .13300002 .64100006 L .134 .642 L .38 .022000002 C .38500003 .009000001 .389 0 .40100003 0 C .412 0 .417 .009000001 .421 .018000002 L .67100009 .65000006 Z "/>
</symbol>
<symbol id="font_4_b">
<path d="M .455 .22400002 C .455 .35500003 .351 .45900003 .228 .45900003 C .10100001 .45900003 0 .35200004 0 .22400002 C 0 .09900001 .104 0 .22700002 0 C .354 0 .455 .101 .455 .22400002 M .228 .028 C .17800002 .028 .136 .053000004 .113000009 .092 C .087000008 .134 .086 .18700002 .086 .23300003 C .086 .27 .086 .32700003 .111 .36800004 C .141 .41900004 .19100002 .43400003 .22700002 .43400003 C .284 .43400003 .325 .40200005 .345 .36800004 C .368 .32600004 .36900003 .275 .36900003 .23300003 C .36900003 .19600001 .36900003 .13800001 .344 .094000007 C .316 .048 .27 .028 .228 .028 Z "/>
</symbol>
<symbol id="font_4_7">
<path d="M .35500003 .13100001 C .35500003 .113000009 .35500003 .11000001 .34 .089 C .30900003 .044 .263 .025000003 .22299999 .025000003 C .18 .025000003 .14000002 .049000004 .114 .091000009 C .08800001 .134 .086 .19300002 .086 .22500003 C .086 .272 .092 .32500003 .11800001 .365 C .14000002 .397 .181 .42800004 .234 .42800004 C .276 .42800004 .316 .40700004 .343 .36900003 C .35500003 .35300002 .35500003 .35200004 .35500003 .33300004 L .35500003 .13100001 M .358 .39400003 C .35300002 .40000005 .308 .45300005 .22999999 .45300005 C .107 .45300005 0 .35500003 0 .22600001 C 0 .101 .1 0 .21900001 0 C .292 0 .337 .043 .35500003 .064 L .35500003 0 L .50600007 .011000001 L .50600007 .042000005 C .43800003 .042000005 .42900003 .049000004 .42900003 .098000008 L .42900003 .705 L .28100003 .694 L .28100003 .663 C .349 .663 .358 .656 .358 .607 L .358 .39400003 Z "/>
</symbol>
<symbol id="font_4_9">
<path d="M .14800002 .694 L 0 .683 L 0 .652 C .068 .652 .07700001 .64500007 .07700001 .596 L .07700001 .07700001 C .07700001 .031000002 .066 .031000002 0 .031000002 L 0 0 C .047000003 .002 .066 .003 .112 .003 C .15900001 .003 .17600002 .002 .22500001 0 L .22500001 .031000002 C .15900001 .031000002 .14800002 .031000002 .14800002 .07700001 L .14800002 .694 Z "/>
</symbol>
<symbol id="font_4_3">
<path d="M .651 .20400003 C .6650001 .20400003 .6840001 .20400003 .6840001 .22500003 C .6840001 .24700001 .66200008 .24700001 .6470001 .24700001 L .037 .24700001 C .022 .24700001 0 .24700001 0 .22500003 C 0 .20400003 .020000004 .20400003 .033 .20400003 L .651 .20400003 M .6470001 0 C .66200008 0 .6840001 0 .6840001 .022 C .6840001 .042999999 .6650001 .042999999 .651 .042999999 L .033 .042999999 C .020000004 .042999999 0 .042999999 0 .022 C 0 0 .022 0 .037 0 L .6470001 0 Z "/>
</symbol>
<symbol id="font_4_6">
<path d="M .299 .083000008 C .304 .041 .333 .005000001 .37600003 .005000001 C .40100003 .005000001 .46400003 .020000002 .46400003 .1 L .46400003 .15600002 L .43600003 .15600002 L .43600003 .101 C .43600003 .09 .43600003 .040000004 .4 .040000004 C .364 .040000004 .364 .08800001 .364 .104 L .364 .279 C .364 .33600004 .364 .37000004 .319 .411 C .282 .44400005 .23400001 .45900003 .18400002 .45900003 C .10000001 .45900003 .030000005 .41700004 .030000005 .35300002 C .030000005 .32200004 .051000004 .305 .07700001 .305 C .104 .305 .12300001 .32500003 .12300001 .351 C .12300001 .39400003 .07900001 .39900003 .07800001 .39900003 C .105000007 .42500005 .15300001 .43400003 .18200001 .43400003 C .23300003 .43400003 .29 .39600004 .29 .30800004 L .29 .275 C .23600002 .27300004 .16100002 .268 .09400001 .23600002 C .022000004 .20100002 0 .14900002 0 .109000008 C 0 .027000003 .097 0 .16400002 0 C .24700003 0 .285 .055000005 .299 .083000008 M .29 .15200001 C .29 .055000005 .21500002 .025000003 .17100002 .025000003 C .12400001 .025000003 .08 .059 .08 .109000008 C .08 .17500001 .13700001 .24500002 .29 .25100003 L .29 .15200001 Z "/>
</symbol>
<symbol id="font_4_a">
<path d="M .15100001 .259 C .15100001 .365 .22600001 .41700004 .289 .41700004 C .34800003 .41700004 .36100004 .36800004 .36100004 .30800004 L .36100004 .07700001 C .36100004 .031000002 .35000003 .031000002 .284 .031000002 L .284 0 C .33100004 .002 .35000003 .003 .39800004 .003 C .44600005 .003 .45900003 .002 .512 0 L .512 .031000002 C .46100004 .031000002 .43600003 .031000002 .43500004 .062000004 L .43500004 .254 C .43500004 .337 .43500004 .36600004 .40700004 .40100003 C .38400004 .42900003 .34600003 .44200004 .29600004 .44200004 C .20300001 .44200004 .16000001 .37300004 .14600002 .34500004 L .14500001 .34500004 L .14500001 .44200004 L 0 .43100003 L 0 .4 C .068 .4 .07700001 .393 .07700001 .344 L .07700001 .07700001 C .07700001 .031000002 .066 .031000002 0 .031000002 L 0 0 C .047000003 .002 .066 .003 .11400001 .003 C .16200002 .003 .17500001 .002 .22800002 0 L .22800002 .031000002 C .16200002 .031000002 .15100001 .031000002 .15100001 .07700001 L .15100001 .259 Z "/>
</symbol>
<use xlink:href="#font_4_4" transform="matrix(24.906666,0,0,-24.906666,208.94319,468.6861)" fill="#222222"/>
<use xlink:href="#font_4_b" transform="matrix(24.906666,0,0,-24.906666,232.05658,468.96009)" fill="#222222"/>
<use xlink:href="#font_4_7" transform="matrix(24.906666,0,0,-24.906666,245.68054,468.96009)" fill="#222222"/>
<use xlink:href="#font_4_8" transform="matrix(24.906666,0,0,-24.906666,259.77769,468.96009)" fill="#222222"/>
<use xlink:href="#font_4_9" transform="matrix(24.906666,0,0,-24.906666,271.33439,468.6861)" fill="#222222"/>
<use xlink:href="#font_4_3" transform="matrix(24.906666,0,0,-24.906666,287.5237,465.52296)" fill="#222222"/>
<use xlink:href="#font_4_4" transform="matrix(24.906666,0,0,-24.906666,315.61845,468.6861)" fill="#222222"/>
<use xlink:href="#font_4_8" transform="matrix(24.906666,0,0,-24.906666,338.73185,468.96009)" fill="#222222"/>
<use xlink:href="#font_4_6" transform="matrix(24.906666,0,0,-24.906666,350.46287,468.96009)" fill="#222222"/>
<use xlink:href="#font_4_a" transform="matrix(24.906666,0,0,-24.906666,363.06565,468.6861)" fill="#222222"/>
</g>
</svg>
