<?xml version="1.0" encoding="UTF-8" standalone="no"?>
<!DOCTYPE svg PUBLIC "-//W3C//DTD SVG 1.1//EN" "http://www.w3.org/Graphics/SVG/1.1/DTD/svg11.dtd">
<svg xmlns="http://www.w3.org/2000/svg" xmlns:xlink="http://www.w3.org/1999/xlink" version="1.1" width="1254.5639pt" height="876.5055pt" viewBox="0 0 1254.5639 876.5055" style="background-color: white">
<g enable-background="new">
<path transform="matrix(2.7777777,0,0,-2.7777777,39.92222,836.58328)" stroke-width=".19925" stroke-linecap="butt" stroke-miterlimit="10" stroke-linejoin="miter" fill="none" stroke="#929292" d="M 109.93082 44.83855 L 109.93082 49.0905 M 188.45284 44.83855 L 188.45284 49.0905 "/>
<path transform="matrix(2.7777777,0,0,-2.7777777,39.92222,836.58328)" stroke-width=".3985" stroke-linecap="butt" stroke-miterlimit="10" stroke-linejoin="miter" fill="none" stroke="#000000" d="M 0 46.96452 L 264.98234 46.96452 "/>
<path transform="matrix(2.7777777,0,0,-2.7777777,775.98428,706.1262)" d="M 1.99252 0 L -1.19551 1.59401 L 0 0 L -1.19551 -1.59401 "/>
<path transform="matrix(2.7777777,0,0,-2.7777777,39.92222,836.58328)" stroke-width=".3985" stroke-linecap="butt" stroke-miterlimit="10" stroke-linejoin="miter" fill="none" stroke="#000000" d="M 62.81761 32.94527 L 62.81761 241.24172 "/>
<path transform="matrix(0,-2.7777777,-2.7777777,-0,214.41559,166.4674)" d="M 1.99252 0 L -1.19551 1.59401 L 0 0 L -1.19551 -1.59401 "/>
<symbol id="font_0_4">
<path d="M .45700003 .586 C .461 .6 .461 .602 .461 .609 C .461 .62700006 .447 .63600006 .432 .63600006 C .42200003 .63600006 .40600003 .63 .397 .615 C .395 .61 .387 .579 .38300003 .561 C .37600003 .535 .36900003 .508 .363 .48100005 L .318 .301 C .314 .286 .271 .21600002 .20500002 .21600002 C .15400002 .21600002 .143 .26000003 .143 .29700003 C .143 .34300003 .16000001 .40500004 .194 .49300004 C .21000001 .53400006 .21400002 .545 .21400002 .56500008 C .21400002 .61 .18200001 .6470001 .13200002 .6470001 C .037 .6470001 0 .50200006 0 .49300004 C 0 .48300005 .01 .48300005 .012 .48300005 C .022000002 .48300005 .023 .485 .028000003 .50100007 C .055000009 .595 .095000009 .625 .12900001 .625 C .13700001 .625 .15400002 .625 .15400002 .59300008 C .15400002 .568 .14400001 .54200008 .13700001 .523 C .097 .41700004 .079 .36 .079 .31300003 C .079 .224 .142 .194 .201 .194 C .24000003 .194 .274 .21100001 .30200003 .23900002 C .289 .187 .277 .13800001 .237 .08500001 C .21100001 .051 .17300001 .022 .127 .022 C .113000009 .022 .068 .025000006 .051000008 .06400001 C .067 .06400001 .080000009 .06400001 .094000007 .076000008 C .104 .08500001 .11400001 .098000008 .11400001 .117000009 C .11400001 .148 .087000008 .15200001 .07700001 .15200001 C .054000006 .15200001 .021 .136 .021 .087000008 C .021 .037 .065000008 0 .127 0 C .23 0 .333 .091000009 .361 .20400001 L .45700003 .586 Z "/>
</symbol>
<use xlink:href="#font_0_4" transform="matrix(27.673888,0,0,-27.673888,338.80534,739.39816)"/>
<symbol id="font_0_3">
<path d="M .305 .31300003 C .311 .33900003 .334 .43100003 .404 .43100003 C .409 .43100003 .433 .43100003 .454 .418 C .426 .41300003 .40600003 .388 .40600003 .36400003 C .40600003 .34800003 .417 .32900004 .444 .32900004 C .46600003 .32900004 .498 .34700004 .498 .38700003 C .498 .43900005 .439 .45300005 .405 .45300005 C .347 .45300005 .312 .40000005 .3 .37700004 C .275 .44300003 .221 .45300005 .19200002 .45300005 C .08800001 .45300005 .031000002 .32400004 .031000002 .29900003 C .031000002 .28900004 .041 .28900004 .043000007 .28900004 C .051000008 .28900004 .054000006 .291 .056 .3 C .09 .40600003 .156 .43100003 .19000001 .43100003 C .209 .43100003 .244 .42200003 .244 .36400003 C .244 .33300004 .22700002 .26600004 .19000001 .126 C .17400001 .064 .13900002 .022000002 .095000009 .022000002 C .08900001 .022000002 .06600001 .022000002 .045 .035 C .07000001 .040000004 .09200001 .061 .09200001 .089 C .09200001 .116000007 .07000001 .124000009 .055000009 .124000009 C .025 .124000009 0 .098000008 0 .06600001 C 0 .020000002 .050000006 0 .094000007 0 C .16000001 0 .19600001 .07000001 .19900002 .076000008 C .21100001 .039 .24700003 0 .307 0 C .41 0 .467 .12900001 .467 .15400002 C .467 .16400002 .458 .16400002 .455 .16400002 C .446 .16400002 .444 .16000001 .442 .15300001 C .409 .046 .341 .022000002 .30900003 .022000002 C .27 .022000002 .254 .054 .254 .08800001 C .254 .11000001 .26 .13200002 .271 .17600002 L .305 .31300003 Z "/>
</symbol>
<use xlink:href="#font_0_3" transform="matrix(27.673888,0,0,-27.673888,556.29147,734.02938)"/>
<path transform="matrix(2.7777777,0,0,-2.7777777,39.92222,836.58328)" stroke-width=".79701" stroke-linecap="butt" stroke-miterlimit="10" stroke-linejoin="miter" fill="none" stroke="#0000ff" d="M 15.70439 75.70403 L 17.76656 74.26756 L 19.82874 72.90361 L 21.89091 71.6122 L 23.9531 70.3933 L 26.01527 69.2469 L 28.07745 68.17305 L 30.13962 67.1717 L 32.2018 66.2429 L 34.26398 65.3866 L 36.32616 64.60281 L 38.38834 63.89156 L 40.45052 63.2528 L 42.5127 62.68658 L 44.57486 62.19289 L 46.63705 61.7717 L 48.6992 61.42302 L 50.76138 61.14688 L 52.82356 60.94327 L 54.88574 60.81216 L 56.94792 60.75357 L 59.0101 60.7675 L 61.07228 60.85396 L 63.13446 61.01292 L 65.19664 61.24442 L 67.2588 61.54843 L 69.32098 61.92496 L 71.38316 62.37401 L 73.44534 62.8956 L 75.50752 63.48967 L 77.5697 64.15628 L 79.63188 64.89542 L 81.69405 65.70706 L 83.75623 66.59125 L 85.8184 67.54791 L 87.88058 68.57713 L 89.94275 69.67885 L 92.00493 70.8531 L 94.06711 72.09987 L 96.12929 73.41916 L 98.19145 74.81096 L 100.25363 76.27528 L 102.31581 77.81212 L 104.37799 79.4215 L 106.44017 81.10336 L 108.50235 82.85777 L 110.56453 84.68472 L 112.6267 86.58415 L 114.68889 88.5561 L 116.75105 90.6006 L 118.81323 92.7176 L 120.87541 94.90712 L 122.93759 97.16919 L 124.99977 99.50372 L 127.06195 101.91078 L 129.12412 104.39041 L 131.18628 106.94254 L 133.24846 109.56714 L 135.31064 112.26436 L 137.37282 115.034 L 139.435 117.87617 L 141.49718 120.79086 L 143.55936 123.77817 L 145.62154 126.83789 L 147.6837 129.97014 L 149.74588 133.17499 L 151.80806 136.4523 L 153.87024 139.8021 L 155.93242 143.2245 L 157.9946 146.71935 L 160.05678 150.28673 L 162.11894 153.9267 L 164.18112 157.63906 L 166.2433 161.42401 L 168.30547 165.28162 L 170.36765 169.21147 L 172.42983 173.21398 L 174.492 177.28914 L 176.55419 181.43656 L 178.61637 185.65662 L 180.67853 189.94933 L 182.7407 194.31443 L 184.80289 198.75203 L 186.86507 203.26216 L 188.92725 207.84482 L 190.98943 212.49999 L 193.0516 217.2278 L 195.11377 222.028 L 197.17597 226.90073 L 199.23813 231.84598 L 201.30031 236.86374 L 203.36249 241.954 L 205.42467 247.1168 L 207.48685 252.35224 L 209.54901 257.66007 L 211.61119 263.0404 L 213.67336 268.4934 L 215.73554 274.01878 L 217.79772 279.61668 L 219.8599 285.28724 "/>
<symbol id="font_1_7">
<path d="M .45200003 .38000003 C .45200003 .45000003 .41500003 .45400004 .40600003 .45400004 C .381 .45400004 .355 .42700003 .355 .404 C .355 .38900004 .364 .381 .371 .37500004 C .398 .35000003 .407 .31800003 .407 .29200004 C .407 .24800003 .344 .025000003 .228 .025000003 C .15300001 .025000003 .15300001 .095000009 .15300001 .113000009 C .15300001 .15600002 .16700001 .20700002 .202 .298 C .21800001 .34000004 .22200002 .35000003 .22200002 .36900003 C .22200002 .418 .18500002 .45300005 .136 .45300005 C .040000008 .45300005 0 .31100003 0 .29900003 C 0 .29000003 .007000001 .28700004 .014 .28700004 C .025 .28700004 .026000003 .293 .030000003 .30600003 C .051000008 .37900005 .091000009 .42800004 .133 .42800004 C .15300001 .42800004 .157 .41500003 .157 .395 C .157 .37800003 .15300001 .36 .14400001 .33600004 C .10800001 .24000003 .08400001 .17600002 .08400001 .126 C .08400001 .032 .15500002 0 .22400002 0 C .39200003 0 .45200003 .316 .45200003 .38000003 Z "/>
</symbol>
<use xlink:href="#font_1_7" transform="matrix(24.906666,0,0,-24.906666,655.5334,67.54613)" fill="#0000ff"/>
<symbol id="font_2_4">
<path d="M .651 .20400003 C .6650001 .20400003 .6840001 .20400003 .6840001 .22500003 C .6840001 .24700001 .66200008 .24700001 .6470001 .24700001 L .037 .24700001 C .022 .24700001 0 .24700001 0 .22500003 C 0 .20400003 .020000004 .20400003 .033 .20400003 L .651 .20400003 M .6470001 0 C .66200008 0 .6840001 0 .6840001 .022 C .6840001 .042999999 .6650001 .042999999 .651 .042999999 L .033 .042999999 C .020000004 .042999999 0 .042999999 0 .022 C 0 0 .022 0 .037 0 L .6470001 0 Z "/>
</symbol>
<use xlink:href="#font_2_4" transform="matrix(24.906666,0,0,-24.906666,676.6669,64.10901)" fill="#0000ff"/>
<symbol id="font_1_1">
<path d="M .397 .8720001 C .398 .87600007 .4 .883 .4 .8870001 C .4 .8970001 .39200003 .89900007 .386 .89900007 C .375 .89900007 .375 .896 .37 .878 L .312 .648 C .13900002 .64100006 0 .50400009 0 .37600003 C 0 .284 .069000009 .20100002 .19800002 .19300002 C .19000001 .16200002 .18300002 .13000001 .17500001 .09900001 C .16100002 .044 .15300001 .015000001 .15300001 .011000007 C .15300001 .0069999995 .15500002 0 .16700001 0 C .17800002 0 .17900002 .003000006 .18500002 .026000008 L .22700002 .19300002 C .39900003 .20000002 .53900006 .337 .53900006 .46600003 C .53900006 .546 .481 .638 .34100003 .648 L .397 .8720001 M .20400001 .21800001 C .13200002 .22200002 .068 .26500003 .068 .356 C .068 .46700005 .15 .609 .306 .623 L .20400001 .21800001 M .334 .623 C .40600003 .61800006 .47000004 .579 .47000004 .485 C .47000004 .35700003 .374 .23000002 .23300003 .21800001 L .334 .623 Z "/>
</symbol>
<use xlink:href="#font_1_1" transform="matrix(24.906666,0,0,-24.906666,703.5148,72.37802)" fill="#0000ff"/>
<symbol id="font_2_1">
<path d="M .24000001 .011000007 C .24000001 .016000003 .23700002 .019000009 .231 .026000008 C .102000009 .14400001 .063 .324 .063 .499 C .063 .65400007 .093 .84200009 .234 .9760001 C .238 .98 .24000001 .98300006 .24000001 .98800006 C .24000001 .99500009 .23500002 .9990001 .22800002 .9990001 C .21599999 .9990001 .12600002 .92700007 .072000008 .818 C .023999997 .722 0 .619 0 .5 C 0 .42800004 .009000003 .314 .064 .19600001 C .123 .073 .21599999 0 .22800002 0 C .23500002 0 .24000001 .004000008 .24000001 .011000007 Z "/>
</symbol>
<use xlink:href="#font_2_1" transform="matrix(24.906666,0,0,-24.906666,720.021,73.473918)" fill="#0000ff"/>
<symbol id="font_1_6">
<path d="M .458 .337 C .46400003 .36300005 .47599999 .40900005 .47599999 .41300003 C .47599999 .42600004 .467 .44200004 .44500003 .44200004 C .431 .44200004 .416 .43300004 .409 .42100004 C .404 .411 .336 .14000002 .33 .107 C .30900003 .071 .269 .025000003 .21400002 .025000003 C .15200001 .025000003 .15200001 .08800001 .15200001 .107 C .15200001 .15200001 .165 .20100002 .20800002 .31300003 C .216 .33600004 .22200002 .35000003 .22200002 .36900003 C .22200002 .418 .18500002 .45300005 .136 .45300005 C .040000008 .45300005 0 .31100003 0 .29900003 C 0 .29000003 .007000001 .28700004 .014 .28700004 C .025 .28700004 .026000003 .293 .030000003 .30600003 C .051000008 .37800003 .09 .42800004 .133 .42800004 C .15400002 .42800004 .157 .41300003 .157 .395 C .157 .37800003 .15300001 .36 .14400001 .33600004 C .097 .21200001 .08400001 .17000002 .08400001 .12200001 C .08400001 .011000001 .17400001 0 .21100001 0 C .268 0 .30900003 .035 .333 .06600001 C .352 0 .418 0 .424 0 C .453 0 .47800002 .014 .49899999 .053000004 C .517 .086 .53200009 .15000002 .53200009 .15400002 C .53200009 .15900001 .52900007 .16600001 .51900008 .16600001 C .507 .16600001 .50600007 .16100002 .50200006 .14200002 C .48200003 .063 .461 .025000003 .42700003 .025000003 C .403 .025000003 .396 .046 .396 .071 C .396 .09 .401 .11000001 .41 .14500001 L .435 .24800003 L .458 .337 Z "/>
</symbol>
<use xlink:href="#font_1_6" transform="matrix(24.906666,0,0,-24.906666,728.18338,67.54613)" fill="#0000ff"/>
<symbol id="font_2_2">
<path d="M .24000001 .5 C .24000001 .582 .22800002 .69200006 .17600002 .80300006 C .11700001 .92600008 .024 .9990001 .011999998 .9990001 C .0020000004 .9990001 0 .99100008 0 .98800006 C 0 .98300006 .0020000004 .98 .009 .97300007 C .067 .92100009 .17700002 .785 .17700002 .5 C .17700002 .35700003 .15100001 .158 .006000001 .023000002 C .0040000008 .019999996 0 .016000003 0 .011000007 C 0 .008000001 .0020000004 0 .011999998 0 C .024 0 .11400001 .07200001 .16800002 .18100001 C .21600002 .277 .24000001 .38000003 .24000001 .5 Z "/>
</symbol>
<use xlink:href="#font_2_2" transform="matrix(24.906666,0,0,-24.906666,743.6362,73.473918)" fill="#0000ff"/>
<path transform="matrix(2.7777777,0,0,-2.7777777,39.92222,836.58328)" stroke-width=".3985" stroke-linecap="butt" stroke-dasharray="2.98883,2.98883" stroke-miterlimit="10" stroke-linejoin="miter" fill="none" stroke="#929292" d="M 15.70439 0 L 235.56606 196.2697 "/>
<path transform="matrix(2.7777777,0,0,-2.7777777,39.92222,836.58328)" d="M 111.42523 84.11586 C 111.42523 84.9412 110.75616 85.61028 109.93082 85.61028 C 109.10547 85.61028 108.4364 84.9412 108.4364 84.11586 C 108.4364 83.29051 109.10547 82.62144 109.93082 82.62144 C 110.75616 82.62144 111.42523 83.29051 111.42523 84.11586 Z M 109.93082 84.11586 "/>
<path transform="matrix(2.7777777,0,0,-2.7777777,39.92222,836.58328)" stroke-width=".3985" stroke-linecap="butt" stroke-miterlimit="10" stroke-linejoin="miter" fill="none" stroke="#000000" d="M 111.42523 84.11586 C 111.42523 84.9412 110.75616 85.61028 109.93082 85.61028 C 109.10547 85.61028 108.4364 84.9412 108.4364 84.11586 C 108.4364 83.29051 109.10547 82.62144 109.93082 82.62144 C 110.75616 82.62144 111.42523 83.29051 111.42523 84.11586 Z M 109.93082 84.11586 "/>
<use xlink:href="#font_2_1" transform="matrix(24.906666,0,0,-24.906666,239.05168,615.3573)"/>
<symbol id="font_1_9">
<path d="M .47300003 .59000006 C .474 .595 .47599999 .6010001 .47599999 .607 C .47599999 .62 .467 .63600006 .44500003 .63600006 C .432 .63600006 .414 .628 .40600003 .609 C .405 .605 .395 .564 .389 .54200008 L .33900003 .342 C .331 .31300003 .331 .31100003 .329 .30200003 C .328 .298 .286 .21900001 .21400002 .21900001 C .15200001 .21900001 .15200001 .282 .15200001 .301 C .15200001 .34600003 .165 .39500005 .20800002 .507 C .216 .53000006 .22200002 .544 .22200002 .563 C .22200002 .612 .18500002 .6470001 .136 .6470001 C .040000008 .6470001 0 .505 0 .49300004 C 0 .48400004 .007000001 .48100005 .014 .48100005 C .025 .48100005 .026000003 .48700003 .030000003 .5 C .051000008 .574 .091000009 .62200006 .133 .62200006 C .157 .62200006 .157 .60300007 .157 .589 C .157 .572 .15300001 .554 .14400001 .53000006 C .097 .40600003 .08400001 .36400003 .08400001 .316 C .08400001 .20500002 .17400001 .194 .21100001 .194 C .26 .194 .295 .22000002 .313 .238 C .3 .187 .289 .14200002 .25 .09200001 C .22000002 .052 .18 .025000006 .136 .025000006 C .10800001 .025000006 .075 .03500001 .061000006 .06300001 C .11400001 .06300001 .12100001 .10700001 .12100001 .117000009 C .12100001 .13900002 .105000007 .15300001 .083000008 .15300001 C .059000009 .15300001 .027 .134 .027 .08800001 C .027 .036 .07300001 0 .136 0 C .23800002 0 .347 .087000008 .37600003 .20400001 L .47300003 .59000006 Z "/>
</symbol>
<symbol id="font_1_2">
<path d="M .094000007 .209 C .094000007 .176 .094000007 .094 .019999996 .023000002 C .013999999 .01699999 .013999999 .016000003 .013999999 .0119999949 C .013999999 .004999995 .020999998 0 .026999996 0 C .037999996 0 .11900001 .078 .11900001 .19500001 C .11900001 .257 .096999999 .301 .053999999 .301 C .019999996 .301 0 .275 0 .24700001 C 0 .21900001 .019999996 .193 .053999999 .193 C .069 .193 .084 .198 .094000007 .209 Z "/>
</symbol>
<use xlink:href="#font_1_9" transform="matrix(24.906666,0,0,-24.906666,247.21395,614.2614)"/>
<use xlink:href="#font_1_2" transform="matrix(24.906666,0,0,-24.906666,262.18287,613.9625)"/>
<use xlink:href="#font_1_1" transform="matrix(24.906666,0,0,-24.906666,272.61878,614.2614)"/>
<use xlink:href="#font_2_1" transform="matrix(24.906666,0,0,-24.906666,289.12113,615.3573)"/>
<use xlink:href="#font_1_9" transform="matrix(24.906666,0,0,-24.906666,297.2834,614.2614)"/>
<use xlink:href="#font_2_2" transform="matrix(24.906666,0,0,-24.906666,311.50569,615.3573)"/>
<use xlink:href="#font_2_2" transform="matrix(24.906666,0,0,-24.906666,321.46836,615.3573)"/>
<path transform="matrix(2.7777777,0,0,-2.7777777,39.92222,836.58328)" d="M 189.94725 206.7861 C 189.94725 207.61145 189.27819 208.28052 188.45284 208.28052 C 187.62749 208.28052 186.95842 207.61145 186.95842 206.7861 C 186.95842 205.96076 187.62749 205.29169 188.45284 205.29169 C 189.27819 205.29169 189.94725 205.96076 189.94725 206.7861 Z M 188.45284 206.7861 "/>
<path transform="matrix(2.7777777,0,0,-2.7777777,39.92222,836.58328)" stroke-width=".3985" stroke-linecap="butt" stroke-miterlimit="10" stroke-linejoin="miter" fill="none" stroke="#000000" d="M 189.94725 206.7861 C 189.94725 207.61145 189.27819 208.28052 188.45284 208.28052 C 187.62749 208.28052 186.95842 207.61145 186.95842 206.7861 C 186.95842 205.96076 187.62749 205.29169 188.45284 205.29169 C 189.27819 205.29169 189.94725 205.96076 189.94725 206.7861 Z M 188.45284 206.7861 "/>
<use xlink:href="#font_2_1" transform="matrix(24.906666,0,0,-24.906666,581.2238,274.61283)"/>
<symbol id="font_1_8">
<path d="M .462 .41500003 C .425 .40800003 .41400004 .37600003 .41400004 .36100004 C .41400004 .34200005 .42800004 .32500003 .453 .32500003 C .48100005 .32500003 .508 .34900005 .508 .38400004 C .508 .43000005 .45800004 .45300005 .411 .45300005 C .351 .45300005 .316 .40000005 .30400003 .37900005 C .28500004 .42800004 .24100003 .45300005 .193 .45300005 C .086 .45300005 .028 .32500003 .028 .29900003 C .028 .29000003 .035000005 .28700004 .042000005 .28700004 C .051 .28700004 .054000006 .29200004 .056 .298 C .087000008 .397 .15300001 .42800004 .19100002 .42800004 C .22 .42800004 .24600002 .40900005 .24600002 .36200003 C .24600002 .32600004 .20300001 .16600001 .19000001 .11800001 C .18200001 .087000008 .15200001 .025000003 .097 .025000003 C .07700001 .025000003 .056 .032 .046000005 .038000004 C .07300001 .043 .093 .06600001 .093 .092 C .093 .117000009 .074 .128 .055 .128 C .026 .128 0 .10300001 0 .069000009 C 0 .020000002 .054000006 0 .096 0 C .15400002 0 .18800001 .048 .20300001 .075 C .22800002 .009000001 .287 0 .314 0 C .42200003 0 .479 .13000001 .479 .15400002 C .479 .15900001 .47600005 .16600001 .46600003 .16600001 C .455 .16600001 .45400004 .16200002 .44900004 .14700002 C .42700003 .075 .36900003 .025000003 .317 .025000003 C .28800003 .025000003 .261 .043 .261 .091000009 C .261 .113000009 .275 .16800002 .284 .20600002 C .28800003 .22400002 .31500004 .33200003 .317 .33900003 C .32900004 .37500004 .35900004 .42800004 .41000004 .42800004 C .42800004 .42800004 .44700004 .42500005 .462 .41500003 Z "/>
</symbol>
<use xlink:href="#font_1_8" transform="matrix(24.906666,0,0,-24.906666,589.411,268.68507)"/>
<use xlink:href="#font_1_2" transform="matrix(24.906666,0,0,-24.906666,605.3762,273.21806)"/>
<use xlink:href="#font_1_1" transform="matrix(24.906666,0,0,-24.906666,615.81216,273.51695)"/>
<use xlink:href="#font_2_1" transform="matrix(24.906666,0,0,-24.906666,632.30166,274.61283)"/>
<use xlink:href="#font_1_8" transform="matrix(24.906666,0,0,-24.906666,640.4888,268.68507)"/>
<use xlink:href="#font_2_2" transform="matrix(24.906666,0,0,-24.906666,655.6945,274.61283)"/>
<use xlink:href="#font_2_2" transform="matrix(24.906666,0,0,-24.906666,665.6572,274.61283)"/>
<path transform="matrix(2.7777777,0,0,-2.7777777,39.92222,836.58328)" d="M 189.94725 154.21302 C 189.94725 155.03836 189.27819 155.70743 188.45284 155.70743 C 187.62749 155.70743 186.95842 155.03836 186.95842 154.21302 C 186.95842 153.38767 187.62749 152.7186 188.45284 152.7186 C 189.27819 152.7186 189.94725 153.38767 189.94725 154.21302 Z M 188.45284 154.21302 " fill="#929292"/>
<path transform="matrix(2.7777777,0,0,-2.7777777,39.92222,836.58328)" stroke-width=".3985" stroke-linecap="butt" stroke-miterlimit="10" stroke-linejoin="miter" fill="none" stroke="#929292" d="M 189.94725 154.21302 C 189.94725 155.03836 189.27819 155.70743 188.45284 155.70743 C 187.62749 155.70743 186.95842 155.03836 186.95842 154.21302 C 186.95842 153.38767 187.62749 152.7186 188.45284 152.7186 C 189.27819 152.7186 189.94725 153.38767 189.94725 154.21302 Z M 188.45284 154.21302 "/>
<path transform="matrix(2.7777777,0,0,-2.7777777,39.92222,836.58328)" stroke-width=".79701" stroke-linecap="butt" stroke-miterlimit="10" stroke-linejoin="miter" fill="none" stroke="#ff0000" d="M 188.45284 160.38994 L 188.45284 200.60918 "/>
<path transform="matrix(0,2.7777777,2.7777777,0,563.4023,391.05567)" d="M 4.53381 0 C 3.97704 .13808 1.52963 .92049 0 1.77196 L 0 -1.77196 C 1.52963 -.92049 3.97704 -.13808 4.53381 0 Z " fill="#ff0000"/>
<path transform="matrix(0,2.7777777,2.7777777,0,563.4023,391.05567)" stroke-width=".79701" stroke-linecap="butt" stroke-miterlimit="10" stroke-linejoin="miter" fill="none" stroke="#ff0000" d="M 4.53381 0 C 3.97704 .13808 1.52963 .92049 0 1.77196 L 0 -1.77196 C 1.52963 -.92049 3.97704 -.13808 4.53381 0 Z "/>
<path transform="matrix(0,-2.7777777,-2.7777777,0,563.4023,279.33558)" d="M 4.53381 0 C 3.97704 .13808 1.52963 .92049 0 1.77196 L 0 -1.77196 C 1.52963 -.92049 3.97704 -.13808 4.53381 0 Z " fill="#ff0000"/>
<path transform="matrix(0,-2.7777777,-2.7777777,0,563.4023,279.33558)" stroke-width=".79701" stroke-linecap="butt" stroke-miterlimit="10" stroke-linejoin="miter" fill="none" stroke="#ff0000" d="M 4.53381 0 C 3.97704 .13808 1.52963 .92049 0 1.77196 L 0 -1.77196 C 1.52963 -.92049 3.97704 -.13808 4.53381 0 Z "/>
<path transform="matrix(2.7777777,0,0,-2.7777777,39.92222,836.58328)" stroke-width=".3985" stroke-linecap="butt" stroke-dasharray="2.98883,2.98883" stroke-miterlimit="10" stroke-linejoin="miter" fill="none" stroke="#ff0000" d="M 188.45284 206.7861 L 188.45284 46.96452 "/>
<path transform="matrix(2.7777777,0,0,-2.7777777,39.92222,836.58328)" stroke-width=".79701" stroke-linecap="butt" stroke-miterlimit="10" stroke-linejoin="miter" fill="none" stroke="#009900" d="M 109.93082 84.11586 L 98.26312 95.78355 "/>
<path transform="matrix(-1.9641665,-1.9641665,-1.9641665,1.9641665,312.87535,570.5179)" d="M 4.53381 0 C 3.97704 .13808 1.52963 .92049 0 1.77196 L 0 -1.77196 C 1.52963 -.92049 3.97704 -.13808 4.53381 0 Z " fill="#009900"/>
<path transform="matrix(-1.9641665,-1.9641665,-1.9641665,1.9641665,312.87535,570.5179)" stroke-width=".79701" stroke-linecap="butt" stroke-miterlimit="10" stroke-linejoin="miter" fill="none" stroke="#009900" d="M 4.53381 0 C 3.97704 .13808 1.52963 .92049 0 1.77196 L 0 -1.77196 C 1.52963 -.92049 3.97704 -.13808 4.53381 0 Z "/>
<path transform="matrix(2.7777777,0,0,-2.7777777,39.92222,836.58328)" stroke-width=".79701" stroke-linecap="butt" stroke-miterlimit="10" stroke-linejoin="miter" fill="none" stroke="#ff8000" d="M 193.06046 202.67285 L 213.29097 184.61325 "/>
<path transform="matrix(-2.0720556,-1.8497499,-1.8497499,2.0720556,576.20126,273.60313)" d="M 4.53381 0 C 3.97704 .13808 1.52963 .92049 0 1.77196 L 0 -1.77196 C 1.52963 -.92049 3.97704 -.13808 4.53381 0 Z " fill="#ff8000"/>
<path transform="matrix(-2.0720556,-1.8497499,-1.8497499,2.0720556,576.20126,273.60313)" stroke-width=".79701" stroke-linecap="butt" stroke-miterlimit="10" stroke-linejoin="miter" fill="none" stroke="#ff8000" d="M 4.53381 0 C 3.97704 .13808 1.52963 .92049 0 1.77196 L 0 -1.77196 C 1.52963 -.92049 3.97704 -.13808 4.53381 0 Z "/>
<path transform="matrix(2.0720556,1.8497499,1.8497499,-2.0720556,632.3971,323.76869)" d="M 4.53381 0 C 3.97704 .13808 1.52963 .92049 0 1.77196 L 0 -1.77196 C 1.52963 -.92049 3.97704 -.13808 4.53381 0 Z " fill="#ff8000"/>
<path transform="matrix(2.0720556,1.8497499,1.8497499,-2.0720556,632.3971,323.76869)" stroke-width=".79701" stroke-linecap="butt" stroke-miterlimit="10" stroke-linejoin="miter" fill="none" stroke="#ff8000" d="M 4.53381 0 C 3.97704 .13808 1.52963 .92049 0 1.77196 L 0 -1.77196 C 1.52963 -.92049 3.97704 -.13808 4.53381 0 Z "/>
<path transform="matrix(2.7777777,0,0,-2.7777777,39.92222,836.58328)" stroke-width=".3985" stroke-linecap="butt" stroke-miterlimit="10" stroke-linejoin="miter" fill="none" stroke="#929292" d="M 215.6691 182.49027 L 213.35527 180.59864 L 215.58477 178.60834 "/>
<symbol id="font_0_1">
<path d="M .321 .067 C .33200003 .026 .367 0 .41 0 C .44500003 0 .468 .023000002 .484 .055000005 C .50100007 .091000009 .51400008 .15200001 .51400008 .15400002 C .51400008 .16400002 .50500008 .16400002 .50200006 .16400002 C .492 .16400002 .49100004 .16000001 .488 .14600002 C .474 .09 .455 .022000002 .41300003 .022000002 C .39200003 .022000002 .382 .035 .382 .068 C .382 .09 .394 .13700001 .402 .17200002 L .43 .28000004 C .433 .29500003 .44300003 .33300004 .447 .34800003 C .45200003 .37100003 .462 .40900005 .462 .41500003 C .462 .43300004 .448 .44200004 .433 .44200004 C .428 .44200004 .402 .441 .394 .40700004 C .375 .33400003 .331 .15900001 .319 .106000009 C .318 .102000009 .278 .022000002 .20500002 .022000002 C .15300001 .022000002 .143 .067 .143 .104 C .143 .16000001 .171 .23900002 .19700001 .30800004 C .209 .33800004 .21400002 .35200004 .21400002 .37100003 C .21400002 .41600005 .18200001 .45300005 .13200002 .45300005 C .037 .45300005 0 .30800004 0 .29900003 C 0 .28900004 .01 .28900004 .012 .28900004 C .022000002 .28900004 .023 .291 .028000003 .307 C .053000004 .39400003 .091000009 .43100003 .12900001 .43100003 C .13800001 .43100003 .15400002 .43000005 .15400002 .39800004 C .15400002 .374 .143 .34500004 .13700001 .33 C .10000001 .23100002 .079 .16900002 .079 .120000008 C .079 .025000003 .148 0 .202 0 C .268 0 .304 .045 .321 .067 Z "/>
</symbol>
<use xlink:href="#font_0_1" transform="matrix(27.673888,0,0,-27.673888,756.6942,728.1238)"/>
<symbol id="font_0_2">
<path d="M .439 .38300003 C .439 .43700005 .41300003 .45300005 .395 .45300005 C .37 .45300005 .34600003 .42700003 .34600003 .40500004 C .34600003 .39200003 .351 .38600005 .36200003 .37500004 C .38300003 .35500003 .396 .32900004 .396 .293 C .396 .25100003 .335 .022000002 .21800001 .022000002 C .16700001 .022000002 .14400001 .057000005 .14400001 .109000008 C .14400001 .16500002 .171 .23800002 .202 .321 C .209 .33800004 .21400002 .35200004 .21400002 .37100003 C .21400002 .41600005 .18200001 .45300005 .13200002 .45300005 C .038000004 .45300005 0 .30800004 0 .29900003 C 0 .28900004 .01 .28900004 .012 .28900004 C .022000002 .28900004 .023 .291 .028000003 .307 C .057000005 .40800003 .10000001 .43100003 .12900001 .43100003 C .13700001 .43100003 .15400002 .43100003 .15400002 .39900003 C .15400002 .374 .14400001 .34700004 .13700001 .32900004 C .09300001 .21300002 .080000009 .16700001 .080000009 .124000009 C .080000009 .016 .16800002 0 .21400002 0 C .382 0 .439 .33100004 .439 .38300003 Z "/>
</symbol>
<use xlink:href="#font_0_2" transform="matrix(27.673888,0,0,-27.673888,191.0331,182.93772)"/>
<path transform="matrix(2.7777777,0,0,-2.7777777,39.92222,745.06936)" stroke-width=".3985" stroke-linecap="butt" stroke-miterlimit="10" stroke-linejoin="miter" fill="none" stroke="#000000" d="M 264.33927 159.0074 L 422.9037 159.0074 L 422.9037 207.25485 L 264.33927 207.25485 Z "/>
<path transform="matrix(2.7777777,0,0,-2.7777777,779.72506,187.35546)" stroke-width=".996" stroke-linecap="butt" stroke-miterlimit="10" stroke-linejoin="miter" fill="none" stroke="#0000ff" d="M 0 0 L 11.338 0 "/>
<symbol id="font_3_8">
<path d="M .48700006 .373 C .48700006 .451 .44000004 .45200003 .43700005 .45200003 C .41100005 .45200003 .38300003 .425 .38300003 .39900003 C .38300003 .382 .39300005 .374 .40000005 .368 C .41700004 .354 .43700005 .328 .43700005 .28800003 C .43700005 .24300002 .37100003 .028 .25200004 .028 C .171 .028 .171 .1 .171 .117000009 C .171 .16300002 .18900001 .21900001 .226 .312 C .23400001 .333 .24 .34800003 .24 .365 C .24 .417 .19600001 .451 .145 .451 C .045000007 .451 0 .314 0 .298 C 0 .285 .014000002 .285 .017 .285 C .031 .285 .032 .29 .035 .301 C .059000005 .38300003 .102 .423 .142 .423 C .15900001 .423 .16700001 .412 .16700001 .388 C .16700001 .365 .15900001 .344 .149 .321 C .106000009 .21000001 .095 .16700001 .095 .13100001 C .095 .032 .17300001 0 .249 0 C .41700004 0 .48700006 .291 .48700006 .373 Z "/>
</symbol>
<use xlink:href="#font_3_8" transform="matrix(19.371666,0,0,-19.371666,817.666,192.39366)"/>
<symbol id="font_4_4">
<path d="M .698 .22000003 C .71300008 .22000003 .73600009 .22000003 .73600009 .24500004 C .73600009 .26900003 .7120001 .26900003 .69900009 .26900003 L .037000009 .26900003 C .024000004 .26900003 0 .26900003 0 .24500004 C 0 .22000003 .023000002 .22000003 .038000004 .22000003 L .698 .22000003 M .69900009 0 C .7120001 0 .73600009 0 .73600009 .023999997 C .73600009 .049000004 .71300008 .049000004 .698 .049000004 L .038000004 .049000004 C .023000002 .049000004 0 .049000004 0 .023999997 C 0 0 .024000004 0 .037000009 0 L .69900009 0 Z "/>
</symbol>
<use xlink:href="#font_4_4" transform="matrix(19.371666,0,0,-19.371666,836.1754,189.95284)"/>
<symbol id="font_3_1">
<path d="M .42200003 .88500007 C .42200003 .898 .41000004 .898 .40500004 .898 C .39000003 .898 .38900004 .893 .38500003 .87600007 L .32800005 .647 C .15100003 .63900008 0 .512 0 .37800003 C 0 .26500003 .10300001 .19700001 .21400002 .193 C .20600003 .162 .19900003 .13000001 .19100002 .09900001 C .17900002 .052 .17000002 .015000001 .17000002 .012000009 C .17000002 0 .18300003 0 .18600002 0 C .20100004 0 .20200002 .003000006 .20700002 .024000004 L .24900002 .19200002 C .42000003 .19900002 .577 .32500003 .577 .46100004 C .577 .56600007 .485 .64100006 .36300005 .646 L .42200003 .88500007 M .22100002 .22100002 C .14400003 .22500001 .07300001 .26700003 .07300001 .361 C .07300001 .46100004 .14900002 .60200008 .32000003 .61800006 L .22100002 .22100002 M .35500003 .61800006 C .43200005 .615 .504 .573 .504 .47800005 C .504 .36900003 .41800005 .23500002 .256 .22100002 L .35500003 .61800006 Z "/>
</symbol>
<use xlink:href="#font_3_1" transform="matrix(19.371666,0,0,-19.371666,859.46438,196.15177)"/>
<symbol id="font_4_1">
<path d="M .24000001 .9990001 C .050000006 .86500009 0 .653 0 .5 C 0 .35900004 .042000005 .14000002 .24000001 0 C .248 0 .26000003 0 .26000003 .0119999949 C .26000003 .018000007 .257 .019999996 .25 .026999996 C .117000009 .14700002 .06800001 .31700004 .06800001 .499 C .06800001 .76900008 .171 .901 .25300003 .975 C .257 .97900006 .26000003 .98200008 .26000003 .98700007 C .26000003 .9990001 .248 .9990001 .24000001 .9990001 Z "/>
</symbol>
<use xlink:href="#font_4_1" transform="matrix(19.371666,0,0,-19.371666,873.6416,197.0235)"/>
<symbol id="font_3_7">
<path d="M .37600003 .172 C .37100003 .15200001 .36200003 .114 .36 .113000009 C .34100003 .082 .30100004 .028 .23900001 .028 C .17 .028 .17 .093 .17 .111 C .17 .17000002 .198 .24100001 .226 .314 C .23400001 .334 .24 .349 .24 .365 C .24 .417 .19600001 .451 .145 .451 C .045000007 .451 0 .314 0 .298 C 0 .285 .014000002 .285 .017 .285 C .031 .285 .032 .29 .035 .301 C .059000005 .38300003 .103 .423 .142 .423 C .15900001 .423 .16700001 .412 .16700001 .388 C .16700001 .365 .15900001 .344 .149 .321 C .095 .18300002 .095 .15400002 .095 .127 C .095 .11 .095 .064 .132 .032 C .161 .008 .2 0 .235 0 C .29800005 0 .33200003 .034 .36500005 .066 C .38700003 .0020000004 .45400007 0 .46600003 0 C .50000008 0 .526 .020000002 .545 .053000004 C .56700006 .092 .58100005 .15 .58100005 .15300001 C .58100005 .16600001 .56700006 .16600001 .564 .16600001 C .55 .16600001 .549 .16200002 .54200008 .135 C .53000006 .088 .51100006 .028 .46900005 .028 C .44300003 .028 .43600003 .051000004 .43600003 .077 C .43600003 .094000007 .44400005 .13000001 .45100004 .15600002 C .458 .18300002 .46800006 .22400002 .47300006 .24600002 L .49600006 .335 C .50200006 .36 .513 .404 .513 .409 C .513 .42900003 .49700005 .441 .48000003 .441 C .44300003 .441 .43600003 .412 .42800004 .38 L .37600003 .172 Z "/>
</symbol>
<use xlink:href="#font_3_7" transform="matrix(19.371666,0,0,-19.371666,880.9716,192.39366)"/>
<symbol id="font_4_2">
<path d="M .019000002 .9990001 C .012000002 .9990001 0 .9990001 0 .98700007 C 0 .98200008 .0029999987 .97900006 .009000003 .97200009 C .095000009 .89300009 .19100002 .758 .19100002 .5 C .19100002 .291 .12600002 .13300002 .018 .034999998 C .001000002 .018000007 0 .017000005 0 .0119999949 C 0 .0069999995 .0029999987 0 .013000004 0 C .024999999 0 .12000001 .066 .18599999 .19100002 C .23000002 .27400003 .259 .38200004 .259 .499 C .259 .64000007 .21700001 .859 .019000002 .9990001 Z "/>
</symbol>
<symbol id="font_4_7">
<path d="M .6750001 .216 C .6750001 .26000003 .68500009 .26000003 .75200006 .26000003 L .75200006 .29600004 C .74500009 .29600004 .67200008 .29200004 .623 .29200004 C .57000008 .29200004 .49400003 .29200004 .44200004 .29600004 L .44200004 .26000003 L .48000003 .26000003 C .58000007 .26000003 .58000007 .24700001 .58000007 .214 L .58000007 .15 C .58000007 .128 .58000007 .08900001 .52300009 .061000006 C .47400005 .036000004 .41800005 .036000004 .40500004 .036000004 C .29200004 .036000004 .107 .101 .107 .36200003 C .107 .628 .29700003 .68700006 .39600004 .68700006 C .49300004 .68700006 .61300006 .62200006 .63900008 .44900004 C .64100006 .43700005 .65000006 .43700005 .65700009 .43700005 C .6750001 .43700005 .6750001 .44300003 .6750001 .46300004 L .6750001 .697 C .6750001 .714 .6750001 .723 .661 .723 C .65700009 .723 .65200009 .723 .64400008 .711 L .591 .635 C .54200008 .685 .47100003 .723 .38300003 .723 C .17500001 .723 0 .56200006 0 .36200003 C 0 .164 .17000002 0 .38600005 0 C .44100005 0 .55200007 .010000001 .59900006 .080000009 C .61600008 .054000006 .65300008 .020000002 .66300007 .020000002 C .6750001 .020000002 .6750001 .031000004 .6750001 .046000005 L .6750001 .216 Z "/>
</symbol>
<symbol id="font_4_c">
<path d="M .40100003 .23800002 C .42200003 .23800002 .42900003 .23800002 .42900003 .26 C .42900003 .34800003 .38000003 .456 .231 .456 C .10000001 .456 0 .352 0 .22900002 C 0 .102000009 .111 0 .24400002 0 C .379 0 .42900003 .108 .42900003 .13000001 C .42900003 .134 .42700003 .14400001 .41200004 .14400001 C .39900003 .14400001 .397 .13800001 .39400003 .128 C .363 .047000003 .287 .032 .25100003 .032 C .20400001 .032 .15900001 .053000004 .12900001 .091 C .09200001 .13800001 .091000009 .19900002 .091000009 .23800002 L .40100003 .23800002 M .09200001 .264 C .103 .405 .193 .428 .231 .428 C .354 .428 .358 .289 .35900004 .264 L .09200001 .264 Z "/>
</symbol>
<symbol id="font_4_11">
<path d="M .46100006 .303 C .46100006 .39000003 .41800005 .441 .31100003 .441 C .22900002 .441 .176 .39600004 .148 .344 L .147 .344 L .147 .441 L 0 .43 L 0 .39400003 C .067 .39400003 .075 .38700003 .075 .33800004 L .075 .079 C .075 .036000004 .065 .036000004 0 .036000004 L 0 0 C .0020000004 0 .072 .004 .11400001 .004 C .15100001 .004 .22000002 .001 .22900002 0 L .22900002 .036000004 C .164 .036000004 .154 .036000004 .154 .079 L .154 .259 C .154 .36400003 .237 .41300003 .30300004 .41300003 C .37300004 .41300003 .38200004 .358 .38200004 .307 L .38200004 .079 C .38200004 .036000004 .37200005 .036000004 .30700005 .036000004 L .30700005 0 C .30900003 0 .37900005 .004 .42100004 .004 C .45800004 .004 .527 .001 .536 0 L .536 .036000004 C .47100006 .036000004 .46100006 .036000004 .46100006 .079 L .46100006 .303 Z "/>
</symbol>
<symbol id="font_4_13">
<path d="M .15 .22800002 C .15 .312 .18900001 .41300003 .284 .41300003 C .275 .40600003 .26700003 .393 .26700003 .377 C .26700003 .344 .293 .33100004 .31200005 .33100004 C .33600004 .33100004 .358 .347 .358 .377 C .358 .411 .32600004 .441 .279 .441 C .22900003 .441 .174 .41000004 .144 .33400003 L .143 .33400003 L .143 .441 L 0 .43 L 0 .39400003 C .067 .39400003 .075 .38700003 .075 .33800004 L .075 .079 C .075 .036000004 .065000008 .036000004 0 .036000004 L 0 0 C .004999999 0 .07300001 .004 .114 .004 C .157 .004 .201 .002 .24400002 0 L .24400002 .036000004 L .224 .036000004 C .15 .036000004 .15 .047000003 .15 .081 L .15 .22800002 Z "/>
</symbol>
<symbol id="font_4_a">
<path d="M .391 .278 C .391 .331 .391 .36900003 .345 .40600003 C .30400003 .44 .256 .456 .197 .456 C .102 .456 .035 .42000003 .035 .359 C .035 .327 .057 .31 .083000008 .31 C .11 .31 .13 .33 .13 .357 C .13 .374 .121999997 .395 .095 .403 C .131 .428 .18900001 .428 .195 .428 C .25100003 .428 .312 .391 .312 .307 L .312 .276 C .257 .274 .191 .271 .118 .24400002 C .028 .21100001 0 .15600002 0 .111 C 0 .025000003 .104 0 .175 0 C .255 0 .30200003 .045 .323 .084 C .32700003 .043 .354 .0050000005 .4 .0050000005 C .402 .0050000005 .499 .0050000005 .499 .1 L .499 .15500002 L .46500004 .15500002 L .46500004 .101 C .46500004 .091 .46500004 .043 .428 .043 C .391 .043 .391 .09 .391 .103 L .391 .278 M .312 .15100001 C .312 .055000005 .22800002 .028 .183 .028 C .132 .028 .08400001 .062000004 .08400001 .111 C .08400001 .16600001 .132 .24300002 .312 .25 L .312 .15100001 Z "/>
</symbol>
<symbol id="font_4_14">
<path d="M .172 .405 L .328 .405 L .328 .441 L .172 .441 L .172 .625 L .13800001 .625 C .13700001 .535 .096 .43600003 0 .433 L 0 .405 L .09300001 .405 L .09300001 .135 C .09300001 .023000002 .17700002 0 .23300003 0 C .3 0 .34600003 .057000005 .34600003 .136 L .34600003 .19100002 L .312 .19100002 L .312 .13700001 C .312 .069000009 .28 .032 .24100001 .032 C .172 .032 .172 .116000007 .172 .134 L .172 .405 Z "/>
</symbol>
<symbol id="font_4_12">
<path d="M .49000005 .22300002 C .49000005 .34800003 .38300003 .456 .245 .456 C .10700001 .456 0 .34800003 0 .22300002 C 0 .099 .11 0 .245 0 C .38000003 0 .49000005 .099 .49000005 .22300002 M .245 .032 C .208 .032 .154 .044000005 .12100001 .093 C .094 .134 .091000009 .18600002 .091000009 .23200003 C .091000009 .275 .09200001 .334 .127 .377 C .15200001 .40600003 .194 .428 .245 .428 C .30400003 .428 .34600003 .4 .368 .36900003 C .39600004 .33 .39900003 .28 .39900003 .23200003 C .39900003 .18400002 .39600004 .13100001 .367 .09 C .34 .052000006 .294 .032 .245 .032 Z "/>
</symbol>
<use xlink:href="#font_4_2" transform="matrix(19.371666,0,0,-19.371666,894.5226,197.0235)"/>
<use xlink:href="#font_4_1" transform="matrix(19.371666,0,0,-19.371666,911.47286,197.0235)"/>
<use xlink:href="#font_4_7" transform="matrix(19.371666,0,0,-19.371666,919.2409,192.58739)"/>
<use xlink:href="#font_4_c" transform="matrix(19.371666,0,0,-19.371666,935.7649,192.39366)"/>
<use xlink:href="#font_4_11" transform="matrix(19.371666,0,0,-19.371666,945.8963,192.19995)"/>
<use xlink:href="#font_4_c" transform="matrix(19.371666,0,0,-19.371666,957.8293,192.39366)"/>
<use xlink:href="#font_4_13" transform="matrix(19.371666,0,0,-19.371666,967.86386,192.19995)"/>
<use xlink:href="#font_4_a" transform="matrix(19.371666,0,0,-19.371666,976.6198,192.39366)"/>
<use xlink:href="#font_4_14" transform="matrix(19.371666,0,0,-19.371666,987.15798,192.39366)"/>
<use xlink:href="#font_4_12" transform="matrix(19.371666,0,0,-19.371666,995.9915,192.39366)"/>
<use xlink:href="#font_4_13" transform="matrix(19.371666,0,0,-19.371666,1007.22708,192.19995)"/>
<use xlink:href="#font_4_2" transform="matrix(19.371666,0,0,-19.371666,1016.29299,197.0235)"/>
<path transform="matrix(2.7777777,0,0,-2.7777777,779.72506,210.38602)" stroke-width=".398" stroke-linecap="butt" stroke-miterlimit="10" stroke-linejoin="miter" fill="none" stroke="#929292" d="M 0 0 L 11.338 0 "/>
<symbol id="font_4_9">
<path d="M .6970001 .67600008 L .021000006 .67600008 L 0 .446 L .034 .446 C .048 .619 .077 .64000007 .231 .64000007 C .25100003 .64000007 .28 .64000007 .29000003 .63900008 C .312 .63500007 .312 .624 .312 .601 L .312 .082 C .312 .049000004 .312 .036000004 .208 .036000004 L .16600001 .036000004 L .16600001 0 C .215 .004 .308 .004 .36 .004 C .412 .004 .50400009 .004 .55300006 0 L .55300006 .036000004 L .51100006 .036000004 C .407 .036000004 .407 .049000004 .407 .082 L .407 .601 C .407 .624 .407 .63500007 .42900003 .63900008 C .439 .64000007 .46800003 .64000007 .488 .64000007 C .544 .64000007 .5870001 .64000007 .62200006 .62 C .66700008 .59300008 .6740001 .52900007 .6750001 .52400007 L .6840001 .446 L .71800008 .446 L .6970001 .67600008 Z "/>
</symbol>
<symbol id="font_4_d">
<path d="M .105000007 .38300003 C .120000008 .374 .156 .352 .21400002 .352 C .317 .352 .39200003 .421 .39200003 .499 C .39200003 .538 .374 .569 .35000003 .595 C .395 .62700006 .43400003 .628 .451 .628 C .44700004 .6240001 .44200004 .62 .44200004 .60400006 C .44200004 .584 .45700003 .572 .474 .572 C .488 .572 .50600007 .582 .50600007 .605 C .50600007 .628 .48700003 .656 .44700004 .656 C .432 .656 .37800003 .653 .331 .61 C .301 .632 .259 .646 .215 .646 C .112 .646 .037000006 .577 .037000006 .499 C .037000006 .46000005 .057 .42400003 .08500001 .398 C .07700001 .38900004 .055000005 .356 .055000005 .31700004 C .055000005 .30400003 .058000003 .25700004 .097 .22800002 C .052000006 .21300002 0 .18 0 .128 C 0 .055000009 .11 0 .245 0 C .372 0 .49000005 .050000013 .49000005 .13000001 C .49000005 .16000001 .47800002 .21400002 .423 .24400002 C .36400003 .275 .305 .275 .208 .275 C .186 .275 .15 .275 .142 .27600003 C .11 .28300003 .09200001 .31300003 .09200001 .342 C .09200001 .367 .09900001 .375 .105000007 .38300003 M .215 .38200004 C .117 .38200004 .117 .47800002 .117 .499 C .117 .515 .117 .55500009 .13700001 .58100005 C .15100001 .59800007 .178 .61600008 .21400002 .61600008 C .312 .61600008 .312 .52000007 .312 .499 C .312 .48300005 .312 .44300003 .29200004 .41700004 C .278 .40000005 .25100003 .38200004 .215 .38200004 M .215 .20800002 C .30400003 .20800002 .42900003 .20800002 .42900003 .12900001 C .42900003 .076000008 .35000003 .030000002 .245 .030000002 C .14 .030000002 .061 .07700001 .061 .12900001 C .061 .164 .092999998 .20700002 .157 .20800002 L .215 .20800002 Z "/>
</symbol>
<use xlink:href="#font_4_9" transform="matrix(19.371666,0,0,-19.371666,817.68539,215.81378)"/>
<use xlink:href="#font_4_a" transform="matrix(19.371666,0,0,-19.371666,831.846,216.00749)"/>
<use xlink:href="#font_4_11" transform="matrix(19.371666,0,0,-19.371666,842.8685,215.81378)"/>
<use xlink:href="#font_4_d" transform="matrix(19.371666,0,0,-19.371666,854.8015,219.78498)"/>
<use xlink:href="#font_4_c" transform="matrix(19.371666,0,0,-19.371666,865.8433,216.00749)"/>
<use xlink:href="#font_4_11" transform="matrix(19.371666,0,0,-19.371666,875.97476,215.81378)"/>
<use xlink:href="#font_4_14" transform="matrix(19.371666,0,0,-19.371666,887.11349,216.00749)"/>
<use xlink:href="#font_4_a" transform="matrix(19.371666,0,0,-19.371666,903.715,216.00749)"/>
<use xlink:href="#font_4_14" transform="matrix(19.371666,0,0,-19.371666,914.2532,216.00749)"/>
<symbol id="font_3_a">
<path d="M .50900009 .58100005 C .513 .595 .513 .597 .513 .60300007 C .513 .623 .49700005 .63500007 .48000003 .63500007 C .46900005 .63500007 .45000003 .63000008 .43900005 .611 C .43600003 .605 .42800004 .573 .42300005 .55300006 L .40200005 .47000004 C .39600004 .44600005 .36500005 .32000003 .36200003 .30900003 C .36100004 .30900003 .31700004 .22200002 .23900001 .22200002 C .171 .22200002 .171 .287 .171 .305 C .171 .35900004 .194 .42200003 .22400002 .499 C .23600002 .531 .24100001 .54300007 .24100001 .56 C .24100001 .60800006 .2 .64500007 .146 .64500007 C .045000007 .64500007 0 .509 0 .49200005 C 0 .47900004 .014000002 .47900004 .017 .47900004 C .031 .47900004 .032 .48400004 .035 .495 C .060000007 .578 .103 .61700007 .143 .61700007 C .16000001 .61700007 .168 .606 .168 .582 C .168 .559 .15900001 .537 .154 .52400007 C .106000009 .402 .096 .365 .096 .321 C .096 .30400003 .096 .25700004 .135 .22500001 C .16600001 .19900002 .20800002 .194 .235 .194 C .27500005 .194 .31100003 .209 .34400005 .23900001 C .33100004 .18400002 .32000003 .142 .27800004 .09200001 C .25100003 .061000006 .21100001 .027999998 .158 .027999998 C .15100001 .027999998 .104 .027999998 .083000008 .061000006 C .13700001 .067 .13700001 .11500001 .13700001 .116000007 C .13700001 .148 .107999999 .15400002 .098000008 .15400002 C .073 .15400002 .040000004 .134 .040000004 .08800001 C .040000004 .037 .088 0 .15900001 0 C .26000003 0 .38300003 .07800001 .41400004 .20300001 L .50900009 .58100005 Z "/>
</symbol>
<use xlink:href="#font_3_a" transform="matrix(19.371666,0,0,-19.371666,930.6688,219.7656)"/>
<path transform="matrix(2.7777777,0,0,-2.7777777,779.72506,235.19435)" stroke-width=".996" stroke-linecap="butt" stroke-miterlimit="10" stroke-linejoin="miter" fill="none" stroke="#ff0000" d="M 0 0 L 11.338 0 "/>
<symbol id="font_3_4">
<path d="M .11800001 .078 C .11000001 .044000005 .108 .036000004 .030000002 .036000004 C .012000002 .036000004 0 .036000004 0 .014 C 0 0 .012000002 0 .030000002 0 L .38700003 0 C .609 0 .8220001 .20400001 .8220001 .42200003 C .8220001 .568 .7210001 .683 .558 .683 L .194 .683 C .174 .683 .162 .683 .162 .661 C .162 .647 .17300001 .647 .195 .647 C .211 .647 .215 .647 .23300001 .64500007 C .253 .643 .255 .64100006 .255 .63100007 C .255 .629 .255 .624 .25100003 .609 L .11800001 .078 M .342 .61300006 C .35000003 .64400008 .351 .647 .393 .647 L .521 .647 C .6330001 .647 .72700008 .591 .72700008 .455 C .72700008 .432 .71700009 .259 .61700007 .14500001 C .57800009 .1 .492 .036000004 .36900003 .036000004 L .23300001 .036000004 C .20199999 .036000004 .201 .037 .201 .046000005 C .201 .047000003 .201 .052 .20500002 .067 L .342 .61300006 Z "/>
</symbol>
<use xlink:href="#font_3_4" transform="matrix(19.371666,0,0,-19.371666,818.1309,239.64435)"/>
<symbol id="font_5_1">
<path d="M .458 .87 C .46100004 .8820001 .46100004 .88400009 .46100004 .885 C .46100004 .89900007 .44700004 .89900007 .44 .89900007 C .42299999 .89900007 .422 .896 .417 .87600007 L .36400003 .66700008 C .36400003 .665 .36 .653 .36 .65200009 C .35800005 .651 .357 .65000006 .348 .64900007 C .15500002 .637 0 .51 0 .384 C 0 .28000004 .102 .19800002 .246 .19200002 C .22500001 .10900001 .202 .02000001 .202 .015000001 C .202 0 .216 0 .223 0 C .24100001 0 .242 .004000008 .246 .022 C .265 .094000007 .273 .127 .288 .19100002 C .496 .20100002 .649 .333 .649 .45800004 C .649 .5500001 .56200006 .64100006 .403 .64900007 L .458 .87 M .254 .22600001 C .17400001 .22900002 .082 .26700003 .082 .37 C .082 .47900004 .179 .602 .351 .615 L .254 .22600001 M .394 .615 C .464 .612 .566 .582 .566 .47100003 C .566 .35900004 .46899999 .23900002 .297 .22600001 L .394 .615 Z "/>
</symbol>
<use xlink:href="#font_5_1" transform="matrix(13.836944,0,0,-13.836944,836.4274,245.41703)"/>
<use xlink:href="#font_4_1" transform="matrix(19.371666,0,0,-19.371666,850.10836,244.4679)"/>
<symbol id="font_3_9">
<path d="M .201 .116000007 C .19100002 .082 .15800002 .028 .107 .028 C .10400001 .028 .07400001 .028 .053000004 .042000005 C .094000007 .055000005 .09700001 .091 .09700001 .097 C .09700001 .119 .080000009 .134 .057000005 .134 C .029000007 .134 0 .11 0 .073 C 0 .023000002 .056 0 .10500001 0 C .15100003 0 .192 .029000003 .21700001 .071 C .241 .018000002 .296 0 .336 0 C .451 0 .512 .125 .512 .15300001 C .512 .16600001 .49900005 .16600001 .49600003 .16600001 C .48200003 .16600001 .48100005 .16100002 .47700004 .14900002 C .456 .08 .39600004 .028 .34 .028 C .3 .028 .279 .055000005 .279 .093 C .279 .119 .303 .21000001 .331 .321 C .351 .398 .39600004 .423 .42900003 .423 C .43100003 .423 .46200005 .423 .483 .409 C .451 .4 .439 .372 .439 .354 C .439 .33200003 .456 .317 .479 .317 C .50200006 .317 .535 .336 .535 .37800003 C .535 .43400003 .47100006 .451 .43100003 .451 C .381 .451 .34100003 .418 .319 .38 C .301 .421 .255 .451 .199 .451 C .087000008 .451 .023000002 .328 .023000002 .298 C .023000002 .285 .037 .285 .040000008 .285 C .053000004 .285 .054000006 .289 .059000009 .30200003 C .084 .38 .14700002 .423 .19600001 .423 C .229 .423 .256 .405 .256 .357 C .256 .337 .24400002 .287 .23500002 .25300003 L .201 .116000007 Z "/>
</symbol>
<symbol id="font_3_2">
<path d="M .09900001 .209 C .09900001 .154 .089 .089999999 .020999998 .025999994 C .017000005 .022 .013999999 .018999994 .013999999 .013999999 C .013999999 .0069999995 .022 0 .027999998 0 C .04200001 0 .127 .08 .127 .199 C .127 .261 .103 .308 .05700001 .308 C .024000004 .308 0 .282 0 .25100003 C 0 .21900001 .023000002 .193 .058 .193 C .082 .193 .098000008 .209 .09900001 .209 Z "/>
</symbol>
<use xlink:href="#font_3_9" transform="matrix(19.371666,0,0,-19.371666,857.45767,239.83806)"/>
<use xlink:href="#font_3_2" transform="matrix(19.371666,0,0,-19.371666,871.2503,243.38309)"/>
<use xlink:href="#font_3_a" transform="matrix(19.371666,0,0,-19.371666,880.3356,243.59616)"/>
<symbol id="font_4_5">
<path d="M 0 .683 L 0 .647 L .024000004 .647 C .10100001 .647 .103 .637 .103 .60200008 L .103 .081 C .103 .047000003 .10100001 .036000004 .024000004 .036000004 L 0 .036000004 L 0 0 L .42400003 0 C .565 0 .66800007 .08800001 .66800007 .18300002 C .66800007 .27 .58000007 .344 .458 .35700003 C .55600008 .37500004 .638 .43600003 .638 .513 C .638 .60300007 .53300008 .683 .39400003 .683 L 0 .683 M .19100002 .36900003 L .19100002 .60800006 C .19100002 .63900008 .192 .647 .23900002 .647 L .38700003 .647 C .486 .647 .53800007 .57600006 .53800007 .513 C .53800007 .44200004 .47100003 .36900003 .356 .36900003 L .19100002 .36900003 M .23900002 .036000004 C .192 .036000004 .19100002 .044000005 .19100002 .075 L .19100002 .34100003 L .404 .34100003 C .51000007 .34100003 .565 .25500003 .565 .185 C .565 .11100001 .499 .036000004 .38900004 .036000004 L .23900002 .036000004 Z "/>
</symbol>
<symbol id="font_4_10">
<path d="M .768 .303 C .768 .39000003 .725 .441 .61800006 .441 C .53900006 .441 .48500005 .39800004 .45800004 .34800003 C .43800003 .41900004 .38400004 .441 .31100003 .441 C .22900002 .441 .176 .39600004 .148 .344 L .147 .344 L .147 .441 L 0 .43 L 0 .39400003 C .067 .39400003 .075 .38700003 .075 .33800004 L .075 .079 C .075 .036000004 .065 .036000004 0 .036000004 L 0 0 C .0020000004 0 .072 .004 .11400001 .004 C .15100001 .004 .22000002 .001 .22900002 0 L .22900002 .036000004 C .164 .036000004 .154 .036000004 .154 .079 L .154 .259 C .154 .36400003 .237 .41300003 .30300004 .41300003 C .37300004 .41300003 .38200004 .358 .38200004 .307 L .38200004 .079 C .38200004 .036000004 .37200005 .036000004 .30700005 .036000004 L .30700005 0 C .30900003 0 .37900005 .004 .42100004 .004 C .45800004 .004 .527 .001 .536 0 L .536 .036000004 C .47100006 .036000004 .46100006 .036000004 .46100006 .079 L .46100006 .259 C .46100006 .36400003 .544 .41300003 .61 .41300003 C .68 .41300003 .689 .358 .689 .307 L .689 .079 C .689 .036000004 .679 .036000004 .614 .036000004 L .614 0 C .616 0 .686 .004 .72800007 .004 C .76500007 .004 .83400008 .001 .843 0 L .843 .036000004 C .778 .036000004 .768 .036000004 .768 .079 L .768 .303 Z "/>
</symbol>
<symbol id="font_4_6">
<path d="M 0 .683 L 0 .647 L .024 .647 C .10100001 .647 .103000018 .637 .103000018 .60200008 L .103000018 .081 C .103000018 .047000003 .10100001 .036000004 .024 .036000004 L 0 .036000004 L 0 0 L .39400003 0 C .578 0 .731 .148 .731 .33600004 C .731 .526 .58 .683 .39400003 .683 L 0 .683 M .24200002 .036000004 C .19500003 .036000004 .194 .044000005 .194 .075 L .194 .60800006 C .194 .63900008 .19500003 .647 .24200002 .647 L .36600004 .647 C .451 .647 .525 .61200007 .571 .55300006 C .612 .499 .628 .423 .628 .33600004 C .628 .22000002 .599 .16000001 .564 .11800001 C .519 .067 .447 .036000004 .367 .036000004 L .24200002 .036000004 Z "/>
</symbol>
<symbol id="font_4_e">
<path d="M .155 .61700007 C .155 .646 .13100001 .674 .09700001 .674 C .067 .674 .04 .65000006 .04 .61700007 C .04 .58100005 .069 .559 .09700001 .559 C .12900001 .559 .155 .58400008 .155 .61700007 M .0030000024 .43 L .0030000024 .39400003 C .06600001 .39400003 .07500001 .388 .07500001 .33900003 L .07500001 .079 C .07500001 .036000004 .065000008 .036000004 0 .036000004 L 0 0 C .0020000004 0 .072000008 .004 .11200001 .004 C .14700002 .004 .183 .003 .21800003 0 L .21800003 .036000004 C .16 .036000004 .15 .036000004 .15 .078 L .15 .441 L .0030000024 .43 Z "/>
</symbol>
<symbol id="font_4_15">
<path d="M .44300006 .343 C .47100006 .404 .521 .405 .537 .405 L .537 .441 C .512 .439 .48600004 .437 .46100004 .437 C .43400005 .437 .39700005 .43800003 .37000004 .441 L .37000004 .405 C .41200004 .403 .41200004 .37 .41200004 .367 C .41200004 .36200003 .41100005 .352 .40400005 .338 L .29100005 .091 L .16700001 .363 C .16700001 .364 .161 .375 .161 .382 C .161 .405 .19500001 .405 .21200001 .405 L .21200001 .441 C .21000001 .441 .139 .437 .098000008 .437 C .068 .437 .029000001 .43800003 0 .441 L 0 .405 C .055 .405 .067 .403 .082 .36900003 L .24000003 .021000002 C .24500002 .009000001 .25100003 0 .26800005 0 C .28700004 0 .29100005 .009000001 .29600004 .020000002 L .44300006 .343 Z "/>
</symbol>
<symbol id="font_4_b">
<path d="M .34300003 .409 C .32500003 .40100003 .31500004 .38500003 .31500004 .365 C .31500004 .338 .33400003 .31800003 .36200003 .31800003 C .38900004 .31800003 .41000004 .335 .41000004 .367 C .41000004 .456 .271 .456 .243 .456 C .09300001 .456 0 .34100003 0 .22600001 C 0 .1 .10700001 0 .238 0 C .38700003 0 .42200003 .118 .42200003 .13000001 C .42200003 .142 .409 .142 .40500004 .142 C .39200003 .142 .391 .13900002 .386 .125 C .36400003 .063 .31100003 .032 .25 .032 C .18100001 .032 .091000009 .083000008 .091000009 .22700002 C .091000009 .354 .15300001 .42400003 .24600002 .42400003 C .259 .42400003 .307 .42400003 .34300003 .409 Z "/>
</symbol>
<use xlink:href="#font_4_2" transform="matrix(19.371666,0,0,-19.371666,892.72268,244.4679)"/>
<use xlink:href="#font_4_1" transform="matrix(19.371666,0,0,-19.371666,909.67288,244.4679)"/>
<use xlink:href="#font_4_5" transform="matrix(19.371666,0,0,-19.371666,917.24728,239.64435)"/>
<use xlink:href="#font_4_13" transform="matrix(19.371666,0,0,-19.371666,932.5121,239.64435)"/>
<use xlink:href="#font_4_c" transform="matrix(19.371666,0,0,-19.371666,940.9581,239.83806)"/>
<use xlink:href="#font_4_d" transform="matrix(19.371666,0,0,-19.371666,950.79898,243.61554)"/>
<use xlink:href="#font_4_10" transform="matrix(19.371666,0,0,-19.371666,962.1314,239.64435)"/>
<use xlink:href="#font_4_a" transform="matrix(19.371666,0,0,-19.371666,980.34078,239.83806)"/>
<use xlink:href="#font_4_11" transform="matrix(19.371666,0,0,-19.371666,991.3632,239.64435)"/>
<use xlink:href="#font_4_6" transform="matrix(19.371666,0,0,-19.371666,1011.1223,239.64435)"/>
<use xlink:href="#font_4_e" transform="matrix(19.371666,0,0,-19.371666,1027.7433,239.64435)"/>
<use xlink:href="#font_4_15" transform="matrix(19.371666,0,0,-19.371666,1033.5159,239.83806)"/>
<use xlink:href="#font_4_c" transform="matrix(19.371666,0,0,-19.371666,1044.6935,239.83806)"/>
<use xlink:href="#font_4_13" transform="matrix(19.371666,0,0,-19.371666,1054.728,239.64435)"/>
<use xlink:href="#font_4_d" transform="matrix(19.371666,0,0,-19.371666,1063.1741,243.61554)"/>
<use xlink:href="#font_4_c" transform="matrix(19.371666,0,0,-19.371666,1074.216,239.83806)"/>
<use xlink:href="#font_4_11" transform="matrix(19.371666,0,0,-19.371666,1084.3473,239.64435)"/>
<use xlink:href="#font_4_b" transform="matrix(19.371666,0,0,-19.371666,1096.4159,239.83806)"/>
<use xlink:href="#font_4_c" transform="matrix(19.371666,0,0,-19.371666,1106.1211,239.83806)"/>
<use xlink:href="#font_4_2" transform="matrix(19.371666,0,0,-19.371666,1116.5818,244.4679)"/>
<path transform="matrix(2.7777777,0,0,-2.7777777,779.72506,260.49159)" stroke-width=".996" stroke-linecap="butt" stroke-miterlimit="10" stroke-linejoin="miter" fill="none" stroke="#ff8000" d="M 0 0 L 11.338 0 "/>
<symbol id="font_3_5">
<path d="M .44300003 .605 C .45000003 .634 .45200003 .637 .474 .63900008 C .479 .64000007 .51400008 .64000007 .53400006 .64000007 C .595 .64000007 .62100008 .64000007 .646 .632 C .69100007 .61800006 .6930001 .58900007 .6930001 .55300006 C .6930001 .537 .6930001 .52400007 .68600007 .47200004 L .6840001 .46100004 C .6840001 .45100004 .69100007 .446 .70100006 .446 C .7160001 .446 .71800008 .455 .72 .47100003 L .74700006 .66200008 C .74700006 .67600008 .7350001 .67600008 .71700009 .67600008 L .10200001 .67600008 C .07700001 .67600008 .075 .67600008 .068 .65500006 L .004999999 .47800002 C .0040000008 .47400005 0 .46500004 0 .46 C 0 .45600004 .0020000004 .446 .017 .446 C .030000005 .446 .032 .45100004 .038 .47000004 C .096000019 .63000008 .12900001 .64000007 .281 .64000007 L .323 .64000007 C .35300002 .64000007 .354 .63900008 .354 .63000008 C .354 .629 .354 .624 .35 .609 L .21800001 .083000008 C .209 .046000005 .20600002 .036000004 .10100001 .036000004 C .065 .036000004 .056000007 .036000004 .056000007 .014 C .056000007 .011000001 .058000003 0 .073 0 C .10100001 0 .13100001 .003 .15900001 .003 C .187 .003 .21700002 .004 .24500002 .004 C .273 .004 .307 .004 .335 .003 C .36200003 .002 .39200003 0 .419 0 C .42700003 0 .442 0 .442 .022000002 C .442 .036000004 .432 .036000004 .40100003 .036000004 C .382 .036000004 .36200003 .037 .343 .038000004 C .30900003 .041 .307 .045 .307 .057000005 C .307 .064 .307 .066 .311 .080000009 L .44300003 .605 Z "/>
</symbol>
<symbol id="font_3_3">
<path d="M .11800001 .078 C .109000008 .044000005 .107 .036000004 .030000002 .036000004 C .012999997 .036000004 0 .036000004 0 .015000001 C 0 0 .012000002 0 .030000002 0 L .41700004 0 C .585 0 .714 .115 .714 .21400002 C .714 .28500004 .649 .34600003 .543 .35700003 C .66400006 .379 .765 .455 .765 .541 C .765 .61700007 .688 .683 .558 .683 L .194 .683 C .17500001 .683 .162 .683 .162 .661 C .162 .647 .174 .647 .194 .647 C .19500003 .647 .21400002 .647 .23200003 .64500007 C .25300003 .643 .25500003 .64100006 .25500003 .63100007 C .25500003 .629 .25500003 .624 .25100003 .609 L .11800001 .078 M .27800004 .36900003 L .33900003 .61300006 C .34700004 .64400008 .34800003 .647 .39000003 .647 L .542 .647 C .644 .647 .667 .58000007 .667 .54200008 C .667 .46100004 .576 .36900003 .442 .36900003 L .27800004 .36900003 M .23000002 .036000004 C .19900003 .036000004 .19800002 .037 .19800002 .046000005 C .19800002 .047000003 .19800002 .052 .20200002 .067 L .27100004 .34100003 L .483 .34100003 C .577 .34100003 .61300006 .279 .61300006 .22100002 C .61300006 .12200001 .512 .036000004 .39100004 .036000004 L .23000002 .036000004 Z "/>
</symbol>
<use xlink:href="#font_3_5" transform="matrix(19.371666,0,0,-19.371666,817.58859,265.336)"/>
<use xlink:href="#font_3_3" transform="matrix(19.371666,0,0,-19.371666,834.2095,265.336)"/>
<use xlink:href="#font_3_4" transform="matrix(19.371666,0,0,-19.371666,851.83767,265.336)"/>
<use xlink:href="#font_4_1" transform="matrix(19.371666,0,0,-19.371666,871.38888,270.15956)"/>
<use xlink:href="#font_3_9" transform="matrix(19.371666,0,0,-19.371666,878.73818,265.52973)"/>
<use xlink:href="#font_3_2" transform="matrix(19.371666,0,0,-19.371666,892.53079,269.07475)"/>
<use xlink:href="#font_3_a" transform="matrix(19.371666,0,0,-19.371666,901.6161,269.2878)"/>
<symbol id="font_4_f">
<path d="M .15 .694 L 0 .683 L 0 .647 C .067 .647 .07500001 .64000007 .07500001 .591 L .07500001 .079 C .07500001 .036000004 .065000008 .036000004 0 .036000004 L 0 0 C .0020000004 0 .072000008 .004 .11200001 .004 C .15 .004 .187 .003 .22500003 0 L .22500003 .036000004 C .16 .036000004 .15 .036000004 .15 .079 L .15 .694 Z "/>
</symbol>
<use xlink:href="#font_4_2" transform="matrix(19.371666,0,0,-19.371666,914.0032,270.15956)"/>
<use xlink:href="#font_4_1" transform="matrix(19.371666,0,0,-19.371666,930.95339,270.15956)"/>
<use xlink:href="#font_4_9" transform="matrix(19.371666,0,0,-19.371666,938.2952,265.336)"/>
<use xlink:href="#font_4_12" transform="matrix(19.371666,0,0,-19.371666,952.14596,265.52973)"/>
<use xlink:href="#font_4_14" transform="matrix(19.371666,0,0,-19.371666,962.9941,265.52973)"/>
<use xlink:href="#font_4_a" transform="matrix(19.371666,0,0,-19.371666,972.1375,265.52973)"/>
<use xlink:href="#font_4_f" transform="matrix(19.371666,0,0,-19.371666,983.1988,265.336)"/>
<use xlink:href="#font_4_5" transform="matrix(19.371666,0,0,-19.371666,996.99136,265.336)"/>
<use xlink:href="#font_4_13" transform="matrix(19.371666,0,0,-19.371666,1012.2562,265.336)"/>
<use xlink:href="#font_4_c" transform="matrix(19.371666,0,0,-19.371666,1020.7023,265.52973)"/>
<use xlink:href="#font_4_d" transform="matrix(19.371666,0,0,-19.371666,1030.5431,269.3072)"/>
<use xlink:href="#font_4_10" transform="matrix(19.371666,0,0,-19.371666,1041.8755,265.336)"/>
<use xlink:href="#font_4_a" transform="matrix(19.371666,0,0,-19.371666,1060.0848,265.52973)"/>
<use xlink:href="#font_4_11" transform="matrix(19.371666,0,0,-19.371666,1071.1073,265.336)"/>
<use xlink:href="#font_4_6" transform="matrix(19.371666,0,0,-19.371666,1090.8472,265.336)"/>
<use xlink:href="#font_4_e" transform="matrix(19.371666,0,0,-19.371666,1107.4874,265.336)"/>
<use xlink:href="#font_4_15" transform="matrix(19.371666,0,0,-19.371666,1113.2601,265.52973)"/>
<use xlink:href="#font_4_c" transform="matrix(19.371666,0,0,-19.371666,1124.4376,265.52973)"/>
<use xlink:href="#font_4_13" transform="matrix(19.371666,0,0,-19.371666,1134.4722,265.336)"/>
<use xlink:href="#font_4_d" transform="matrix(19.371666,0,0,-19.371666,1142.9182,269.3072)"/>
<use xlink:href="#font_4_c" transform="matrix(19.371666,0,0,-19.371666,1153.9601,265.52973)"/>
<use xlink:href="#font_4_11" transform="matrix(19.371666,0,0,-19.371666,1164.0914,265.336)"/>
<use xlink:href="#font_4_b" transform="matrix(19.371666,0,0,-19.371666,1176.16,265.52973)"/>
<use xlink:href="#font_4_c" transform="matrix(19.371666,0,0,-19.371666,1185.8652,265.52973)"/>
<use xlink:href="#font_4_2" transform="matrix(19.371666,0,0,-19.371666,1196.3259,270.15956)"/>
<path transform="matrix(2.7777777,0,0,-2.7777777,779.72506,285.3999)" stroke-width=".996" stroke-linecap="butt" stroke-miterlimit="10" stroke-linejoin="miter" fill="none" stroke="#009900" d="M 0 0 L 11.338 0 "/>
<symbol id="font_4_8">
<path d="M .20500002 .66800007 C .194 .68200007 .19300002 .683 .17300001 .683 L 0 .683 L 0 .647 L .030000002 .647 C .07300001 .647 .09800001 .642 .10300001 .64100006 L .10300001 .108 C .10300001 .081 .10300001 .036000004 0 .036000004 L 0 0 C .041 .003 .08100001 .004 .122 .004 C .16300002 .004 .20300001 .003 .24400002 0 L .24400002 .036000004 C .141 .036000004 .141 .081 .141 .108 L .141 .61300006 L .58500006 .015000001 C .595 .001 .596 0 .60800006 0 C .62700006 0 .62700006 .009000001 .62700006 .028 L .62700006 .57500007 C .62700006 .60200008 .62700006 .647 .73 .647 L .73 .683 C .68900009 .68 .64900007 .679 .60800006 .679 C .56700006 .679 .527 .68 .48600007 .683 L .48600007 .647 C .58900007 .647 .58900007 .60200008 .58900007 .57500007 L .58900007 .15100001 L .20500002 .66800007 Z "/>
</symbol>
<use xlink:href="#font_4_8" transform="matrix(19.371666,0,0,-19.371666,817.8404,290.24159)"/>
<use xlink:href="#font_4_12" transform="matrix(19.371666,0,0,-19.371666,833.8414,290.4353)"/>
<use xlink:href="#font_4_13" transform="matrix(19.371666,0,0,-19.371666,845.0769,290.24159)"/>
<use xlink:href="#font_4_10" transform="matrix(19.371666,0,0,-19.371666,853.8136,290.24159)"/>
<use xlink:href="#font_4_a" transform="matrix(19.371666,0,0,-19.371666,872.02297,290.4353)"/>
<use xlink:href="#font_4_f" transform="matrix(19.371666,0,0,-19.371666,883.08419,290.24159)"/>
<use xlink:href="#font_4_6" transform="matrix(19.371666,0,0,-19.371666,896.838,290.24159)"/>
<use xlink:href="#font_4_e" transform="matrix(19.371666,0,0,-19.371666,913.4589,290.24159)"/>
<use xlink:href="#font_4_13" transform="matrix(19.371666,0,0,-19.371666,919.5803,290.24159)"/>
<use xlink:href="#font_4_c" transform="matrix(19.371666,0,0,-19.371666,928.02639,290.4353)"/>
<use xlink:href="#font_4_b" transform="matrix(19.371666,0,0,-19.371666,938.0028,290.4353)"/>
<use xlink:href="#font_4_14" transform="matrix(19.371666,0,0,-19.371666,947.5143,290.4353)"/>
<use xlink:href="#font_4_e" transform="matrix(19.371666,0,0,-19.371666,956.6771,290.24159)"/>
<use xlink:href="#font_4_12" transform="matrix(19.371666,0,0,-19.371666,962.60488,290.4353)"/>
<use xlink:href="#font_4_11" transform="matrix(19.371666,0,0,-19.371666,973.93728,290.24159)"/>
<symbol id="font_3_b">
<path d="M .37800006 .078999999 C .37000004 .07200003 .335 .04100001 .335 .024999977 C .335 .010999978 .34700004 0 .36000005 0 C .37100003 0 .377 .007000029 .38300006 .014999986 C .40800003 .04400003 .43900005 .065 .465 .07700002 C .479 .083000008 .49000005 .088 .49000005 .10400003 C .49000005 .116999987 .48000006 .123000029 .47100006 .12800002 C .43800006 .148 .42900006 .17300004 .424 .18599999 C .42200003 .19200003 .41600005 .20700002 .39900003 .20700002 C .39200006 .20700002 .37500004 .20100004 .37500004 .18199998 C .37500004 .16799999 .39000003 .13999999 .39900003 .12800002 L .040000008 .12800002 C .024000004 .12800002 0 .12800002 0 .10400003 C 0 .078999999 .023000002 .078999999 .040000008 .078999999 L .37800006 .078999999 Z "/>
</symbol>
<symbol id="font_3_6">
<path d="M .075 .073 C .07100001 .060000004 .065 .035 .065 .032 C .065 .010000001 .083000008 0 .09900001 0 C .117 0 .133 .013 .138 .022 C .143 .031000004 .15100001 .063 .156 .084 C .161 .103 .172 .14900002 .178 .17400001 C .184 .19600001 .19000001 .21800001 .19500001 .24100001 C .20600002 .282 .20800002 .29 .237 .331 C .26500003 .37100003 .31200005 .423 .38700003 .423 C .44500003 .423 .44600005 .372 .44600005 .35300002 C .44600005 .293 .40300004 .18200001 .38700003 .14000002 C .37600003 .112 .37200005 .103 .37200005 .086 C .37200005 .033000005 .41600005 0 .467 0 C .56700006 0 .61100009 .13800001 .61100009 .15300001 C .61100009 .16600001 .59800007 .16600001 .595 .16600001 C .58100005 .16600001 .58000007 .16000001 .57600006 .14900002 C .55300006 .069000009 .51000007 .028 .47000004 .028 C .44900004 .028 .44500003 .042000005 .44500003 .063 C .44500003 .086 .45000003 .099 .46800006 .14400001 C .48000003 .17500001 .521 .28100003 .521 .337 C .521 .43400003 .44400005 .451 .39100004 .451 C .30800004 .451 .25200004 .4 .22200002 .36 C .21500002 .42900003 .156 .451 .114999998 .451 C .072 .451 .049 .42000003 .036000004 .397 C .014000002 .36 0 .303 0 .298 C 0 .285 .014000002 .285 .017 .285 C .031 .285 .032 .28800003 .039 .315 C .054 .374 .073 .423 .112 .423 C .138 .423 .145 .40100003 .145 .374 C .145 .35500003 .136 .31800003 .12900001 .291 C .12200001 .264 .112 .22300002 .10700001 .20100002 L .075 .073 Z "/>
</symbol>
<use xlink:href="#font_3_b" transform="matrix(19.371666,0,0,-19.371666,996.1576,280.32328)"/>
<use xlink:href="#font_3_6" transform="matrix(19.371666,0,0,-19.371666,993.4844,290.4353)"/>
<symbol id="font_6_2">
<path d="M .73800006 .439 C .737 .451 .72400006 .451 .7 .451 C .60800006 .451 .515 .395 .45200003 .285 C .40900005 .344 .39100004 .36900003 .348 .4 C .3 .433 .247 .451 .19500001 .451 C .077999997 .451 0 .342 0 .22500001 C 0 .11 .075 0 .19200002 0 C .28400005 0 .37700004 .056000007 .44 .16600001 C .48299999 .107 .501 .082 .544 .051000004 C .592 .018000002 .64500007 0 .697 0 C .7 0 .722 0 .73800006 .0040000008 L .73800006 .052000006 C .72900006 .050000006 .721 .050000006 .712 .050000006 C .669 .050000006 .625 .067 .573 .12100001 C .558 .13700001 .558 .13900002 .47900004 .24600002 C .519 .323 .596 .41500003 .707 .41500003 C .71500006 .41500003 .726 .41500003 .73800006 .412 L .73800006 .439 M .413 .20500002 C .37300004 .128 .296 .036000004 .18500002 .036000004 C .08 .036000004 .027999998 .13900002 .027999998 .22500001 C .027999998 .314 .087 .40100003 .18100001 .40100003 C .228 .40100003 .272 .379 .319 .33 C .334 .314 .334 .312 .413 .20500002 Z "/>
</symbol>
<use xlink:href="#font_6_2" transform="matrix(19.371666,0,0,-19.371666,1014.0528,290.4353)"/>
<use xlink:href="#font_4_1" transform="matrix(19.371666,0,0,-19.371666,1038.3833,295.06513)"/>
<symbol id="font_6_1">
<path d="M .63600006 0 C .65200009 0 .67600008 0 .67600008 .023999989 C .67600008 .048999996 .65300008 .048999996 .63600006 .048999996 L .04 .048999996 C .023999997 .048999996 0 .048999996 0 .025000006 C 0 0 .02300001 0 .04 0 L .63600006 0 Z "/>
</symbol>
<symbol id="font_6_3">
<path d="M .808 .68700006 C .809 .689 .81500008 .699 .81500008 .704 C .81500008 .71300008 .80700007 .71300008 .78900006 .71300008 L .026 .71300008 C .008000001 .71300008 0 .71300008 0 .704 C 0 .699 .0059999974 .69000008 .0069999995 .68700006 L .374 .024 C .38300003 .0069999995 .38700003 0 .407 0 C .42700003 0 .431 .006000001 .439 .021000002 L .808 .68700006 M .143 .633 L .73700007 .633 L .44100005 .097 L .44 .097 L .143 .633 Z "/>
</symbol>
<use xlink:href="#font_6_1" transform="matrix(19.371666,0,0,-19.371666,1046.8978,285.8636)"/>
<use xlink:href="#font_6_3" transform="matrix(19.371666,0,0,-19.371666,1063.4412,290.82273)"/>
<use xlink:href="#font_3_1" transform="matrix(19.371666,0,0,-19.371666,1081.9448,294.1934)"/>
<use xlink:href="#font_4_1" transform="matrix(19.371666,0,0,-19.371666,1096.1223,295.06513)"/>
<use xlink:href="#font_3_a" transform="matrix(19.371666,0,0,-19.371666,1103.4551,294.1934)"/>
<use xlink:href="#font_4_2" transform="matrix(19.371666,0,0,-19.371666,1115.8366,295.06513)"/>
<use xlink:href="#font_3_2" transform="matrix(19.371666,0,0,-19.371666,1125.2809,293.98033)"/>
<symbol id="font_4_3">
<path d="M .22600001 .63600006 C .22600001 .66300007 .224 .66400006 .19600001 .66400006 C .132 .601 .041 .6 0 .6 L 0 .564 C .023999997 .564 .09000001 .564 .14500001 .592 L .14500001 .082 C .14500001 .049000004 .14500001 .036000004 .04500001 .036000004 L .0069999995 .036000004 L .0069999995 0 C .024999999 .001 .148 .004 .185 .004 C .21600002 .004 .34200005 .001 .36400003 0 L .36400003 .036000004 L .32600004 .036000004 C .22600001 .036000004 .22600001 .049000004 .22600001 .082 L .22600001 .63600006 Z "/>
</symbol>
<use xlink:href="#font_4_3" transform="matrix(19.371666,0,0,-19.371666,1135.5756,290.24159)"/>
<use xlink:href="#font_4_2" transform="matrix(19.371666,0,0,-19.371666,1145.8812,295.06513)"/>
<symbol id="font_1_5">
<path d="M .41300003 .609 C .41900004 .63100007 .42100004 .64100006 .43800003 .64400008 C .44600005 .646 .47800002 .646 .49900005 .646 C .614 .646 .648 .63900008 .648 .56100007 C .648 .54800006 .648 .53300008 .639 .47400005 L .638 .46600003 C .638 .45900003 .642 .45200003 .652 .45200003 C .66400006 .45200003 .666 .46100004 .668 .476 L .694 .64900007 C .695 .65400007 .69600006 .66 .69600006 .66300007 C .69600006 .67700007 .686 .67700007 .667 .67700007 L .098000008 .67700007 C .074 .67700007 .07300001 .67600008 .06600001 .657 L .0040000008 .48100005 C 0 .46800003 0 .46600003 0 .46500004 C 0 .46 .0030000006 .45200003 .013 .45200003 C .024 .45200003 .026 .45800004 .032 .476 C .087000008 .632 .11800001 .646 .263 .646 L .30200003 .646 C .33 .646 .33 .643 .33 .63500007 C .33 .629 .328 .62200006 .32600004 .614 L .192 .079 C .183 .043 .18 .031000002 .074 .031000002 C .042000005 .031000002 .033000005 .031000002 .033000005 .013 C .033000005 0 .046000005 0 .050000006 0 C .076000008 0 .10500001 .002 .132 .002 C .16 .002 .18900001 .003 .21700001 .003 C .261 .003 .263 .003 .3 .002 C .31300003 .002 .37900005 0 .38700003 0 C .39600004 0 .40800003 0 .40800003 .018000002 C .40800003 .031000002 .39900003 .031000002 .374 .031000002 C .34900005 .031000002 .337 .031000002 .31000004 .033 C .28700004 .036000004 .27500005 .037 .27500005 .054 C .27500005 .059000005 .277 .067 .279 .074 L .41300003 .609 Z "/>
</symbol>
<symbol id="font_1_3">
<path d="M .116 .076000008 C .10700001 .040000004 .105000007 .031000002 .030000005 .031000002 C .011 .031000002 0 .031000002 0 .013 C 0 0 .010000002 0 .028 0 L .39200003 0 C .554 0 .67300006 .11800001 .67300006 .215 C .67300006 .286 .614 .34600003 .51500007 .35700003 C .62900009 .379 .7260001 .455 .7260001 .544 C .7260001 .62200006 .65400007 .683 .535 .683 L .193 .683 C .17500001 .683 .163 .683 .163 .665 C .163 .652 .172 .652 .193 .652 C .19700001 .652 .21500002 .652 .23100002 .65000006 C .24800001 .648 .25500003 .646 .25500003 .63500007 C .25500003 .63000008 .25400005 .62600007 .25100003 .615 L .116 .076000008 M .272 .36800004 L .33300004 .61300006 C .34200005 .64900007 .34400005 .652 .38600005 .652 L .521 .652 C .62500008 .652 .63400009 .573 .63400009 .54800006 C .63400009 .45900003 .541 .36800004 .42800004 .36800004 L .272 .36800004 M .22400002 .031000002 C .21 .031000002 .20800002 .031000002 .20400001 .032 C .194 .033 .191 .034 .191 .041 C .191 .044000005 .191 .046000005 .19600001 .064 L .26500003 .34300003 L .453 .34300003 C .51500007 .34300003 .578 .316 .578 .22500001 C .578 .126 .48700006 .031000002 .36700005 .031000002 L .22400002 .031000002 Z "/>
</symbol>
<symbol id="font_1_4">
<path d="M .11600001 .076000008 C .10700001 .040000004 .105000007 .031000002 .030000002 .031000002 C .011 .031000002 0 .031000002 0 .013 C 0 0 .010000002 0 .028000005 0 L .365 0 C .579 0 .778 .21200001 .778 .42800004 C .778 .565 .69200006 .683 .536 .683 L .193 .683 C .17500001 .683 .163 .683 .163 .665 C .163 .652 .172 .652 .193 .652 C .19700001 .652 .21500002 .652 .23100002 .65000006 C .24800001 .648 .255 .646 .255 .63500007 C .255 .63000008 .254 .62600007 .251 .615 L .11600001 .076000008 M .33600004 .61300006 C .34500004 .64900007 .347 .652 .389 .652 L .50200006 .652 C .606 .652 .689 .59400007 .689 .46500004 C .689 .407 .66400006 .24700001 .586 .148 C .54 .091000009 .45700003 .031000002 .347 .031000002 L .22700002 .031000002 C .21300002 .031000002 .21100001 .031000002 .207 .032 C .19700001 .033 .194 .034 .194 .041 C .194 .044000005 .194 .046000005 .19900002 .064 L .33600004 .61300006 Z "/>
</symbol>
<use xlink:href="#font_1_5" transform="matrix(24.906666,0,0,-24.906666,848.3253,337.9333)"/>
<use xlink:href="#font_1_3" transform="matrix(24.906666,0,0,-24.906666,867.354,337.9333)"/>
<use xlink:href="#font_1_4" transform="matrix(24.906666,0,0,-24.906666,887.927,337.9333)"/>
<use xlink:href="#font_2_1" transform="matrix(24.906666,0,0,-24.906666,911.11276,344.13505)"/>
<use xlink:href="#font_1_8" transform="matrix(24.906666,0,0,-24.906666,919.3,338.20729)"/>
<use xlink:href="#font_1_2" transform="matrix(24.906666,0,0,-24.906666,935.26516,342.74028)"/>
<use xlink:href="#font_1_9" transform="matrix(24.906666,0,0,-24.906666,945.17807,343.03916)"/>
<use xlink:href="#font_2_2" transform="matrix(24.906666,0,0,-24.906666,959.3834,344.13505)"/>
<use xlink:href="#font_2_4" transform="matrix(24.906666,0,0,-24.906666,976.44448,334.77015)"/>
<symbol id="font_7_1">
<path d="M .043000014 .96400007 C .043000014 .97900006 .043000014 .9990001 .022 .9990001 C 0 .9990001 0 .9760001 0 .95900008 L 0 .040000008 C 0 .023000002 0 0 .022 0 C .043000014 0 .043000014 .019999996 .043000014 .034999998 L .043000014 .96400007 M .24700003 .95900008 C .24700003 .9760001 .24700003 .9990001 .22500001 .9990001 C .20400001 .9990001 .20400001 .97900006 .20400001 .96400007 L .20400001 .034999998 C .20400001 .019999996 .20400001 0 .22500001 0 C .24700003 0 .24700003 .023000002 .24700003 .040000008 L .24700003 .95900008 Z "/>
</symbol>
<use xlink:href="#font_7_1" transform="matrix(24.906666,0,0,-24.906666,1005.3375,344.13505)"/>
<symbol id="font_2_9">
<path d="M .15100001 .53000006 C .185 .58800008 .24000001 .60800006 .282 .60800006 C .36 .60800006 .42000003 .518 .42000003 .41000004 C .42000003 .296 .35200004 .208 .27100004 .208 C .22600001 .208 .18800001 .23400001 .164 .269 C .15100001 .289 .15100001 .291 .15100001 .31 L .15100001 .53000006 M .15100001 .24200002 C .17700002 .216 .21100001 .183 .277 .183 C .39600004 .183 .50600007 .279 .50600007 .41000004 C .50600007 .536 .40800003 .63600006 .29000003 .63600006 C .236 .63600006 .186 .614 .148 .573 L .148 .63600006 L 0 .625 L 0 .594 C .071 .594 .07700001 .58800008 .07700001 .545 L .07700001 .077 C .07700001 .031000004 .066 .031000004 0 .031000004 L 0 0 C .047000007 .002000004 .066 .0029999912 .11400001 .0029999912 C .162 .0029999912 .17500001 .002000004 .22800002 0 L .22800002 .031000004 C .162 .031000004 .15100001 .031000004 .15100001 .077 L .15100001 .24200002 Z "/>
</symbol>
<symbol id="font_2_a">
<path d="M .148 .22900002 C .148 .27 .15900001 .41700004 .273 .41700004 L .273 .416 C .27100004 .41500003 .25500003 .40300004 .25500003 .379 C .25500003 .35200004 .27600003 .335 .29900003 .335 C .32000003 .335 .34300003 .35000003 .34300003 .38000003 C .34300003 .41200004 .31300003 .44200004 .268 .44200004 C .208 .44200004 .16600001 .4 .143 .33800004 L .142 .33800004 L .142 .44200004 L 0 .43100003 L 0 .4 C .068 .4 .07700001 .393 .07700001 .344 L .07700001 .07700001 C .07700001 .031000002 .066 .031000002 0 .031000002 L 0 0 C .053000004 .002 .066 .003 .117 .003 C .157 .003 .18100001 .002 .24400002 0 L .24400002 .031000002 L .224 .031000002 C .15100001 .031000002 .148 .042000005 .148 .079 L .148 .22900002 Z "/>
</symbol>
<symbol id="font_2_8">
<path d="M .455 .22400002 C .455 .35500003 .351 .45900003 .228 .45900003 C .10100001 .45900003 0 .35200004 0 .22400002 C 0 .09900001 .104 0 .22700002 0 C .354 0 .455 .101 .455 .22400002 M .228 .028 C .17800002 .028 .136 .053000004 .113000009 .092 C .087000008 .134 .086 .18700002 .086 .23300003 C .086 .27 .086 .32700003 .111 .36800004 C .141 .41900004 .19100002 .43400003 .22700002 .43400003 C .284 .43400003 .325 .40200005 .345 .36800004 C .368 .32600004 .36900003 .275 .36900003 .23300003 C .36900003 .19600001 .36900003 .13800001 .344 .094000007 C .316 .048 .27 .028 .228 .028 Z "/>
</symbol>
<symbol id="font_2_7">
<path d="M .257 .6470001 L .101 .63600006 L .101 .605 C .17700002 .605 .186 .59800007 .186 .549 L .186 .15400002 C .186 .125 .18200001 .025000006 .11400001 .025000006 C .111 .025000006 .08500001 .025000006 .061000006 .037 C .093 .047000007 .093 .075 .093 .08100001 C .093 .10700001 .074 .127 .047000003 .127 C .018 .127 0 .10700001 0 .08000001 C 0 .028000012 .058000003 0 .11500001 0 C .194 0 .257 .06500001 .257 .157 L .257 .6470001 M .257 .8210001 C .257 .8510001 .23300001 .875 .20300001 .875 C .17300001 .875 .149 .8510001 .149 .8210001 C .149 .791 .17300001 .7670001 .20300001 .7670001 C .23300001 .7670001 .257 .791 .257 .8210001 Z "/>
</symbol>
<use xlink:href="#font_2_9" transform="matrix(24.906666,0,0,-24.906666,1015.57217,342.76518)"/>
<use xlink:href="#font_2_a" transform="matrix(24.906666,0,0,-24.906666,1029.7938,337.9333)"/>
<use xlink:href="#font_2_8" transform="matrix(24.906666,0,0,-24.906666,1039.7815,338.20729)"/>
<use xlink:href="#font_2_7" transform="matrix(24.906666,0,0,-24.906666,1052.3096,343.03916)"/>
<symbol id="font_8_5">
<path d="M .39699999 .078999999 C .38500003 .06799996 .355 .042999984 .355 .025999964 C .355 .011999965 .367 0 .381 0 C .392 0 .39800004 .0059999825 .406 .015999973 C .441 .054999949 .479 .07199997 .5 .08099997 C .51600006 .088 .518 .10099995 .518 .10499996 C .518 .120000008 .50600007 .12599999 .497 .13099998 C .461 .15099997 .45000003 .17799998 .44500003 .19099999 C .43900005 .208 .42500005 .20999998 .42100004 .20999998 C .406 .20999998 .395 .19599998 .395 .18399996 C .395 .17299998 .40700004 .14699996 .419 .13099998 L .04100001 .13099998 C .024999991 .13099998 0 .13099998 0 .10499996 C 0 .078999999 .024999991 .078999999 .04100001 .078999999 L .39699999 .078999999 Z "/>
</symbol>
<symbol id="font_8_4">
<path d="M .23200001 .356 C .22700002 .432 .157 .451 .119 .451 C .081 .451 .055 .428 .037 .396 C .012000002 .35500003 0 .30200003 0 .298 C 0 .287 .008999996 .283 .018 .283 C .034 .283 .034999998 .29 .04 .306 C .060000004 .386 .08400001 .418 .116 .418 C .15200001 .418 .15200001 .377 .15200001 .367 C .15200001 .351 .142 .31100003 .135 .283 C .128 .256 .118 .21500002 .113000009 .19300002 C .106000009 .16800002 .10000001 .142 .09300001 .117000009 C .085999999 .089 .074 .039 .074 .033000005 C .074 .011000001 .091000009 0 .109 0 C .127 0 .14400001 .012000001 .15200001 .027000003 C .154 .033000005 .163 .068 .16800002 .088 L .19000001 .17800002 C .19700001 .20400001 .20100002 .22200002 .207 .24500002 C .216 .279 .251 .33200003 .288 .36900003 C .30800004 .388 .351 .418 .40500004 .418 C .46900005 .418 .46900005 .367 .46900005 .34800003 C .46900005 .289 .426 .18200001 .408 .13700001 C .402 .120000008 .39500005 .104 .39500005 .087000008 C .39500005 .036000004 .44100005 0 .49600006 0 C .59700009 0 .647 .13200002 .647 .15400002 C .647 .15600002 .646 .16800002 .628 .16800002 C .614 .16800002 .61300006 .16300002 .60700008 .14400001 C .591 .091 .55 .033000005 .499 .033000005 C .48000003 .033000005 .47200007 .048000006 .47200007 .069000009 C .47200007 .089 .47900004 .106 .48800005 .127 C .503 .16600001 .54800006 .279 .54800006 .335 C .54800006 .417 .48600007 .451 .41000004 .451 C .36 .451 .296 .435 .23200001 .356 Z "/>
</symbol>
<use xlink:href="#font_8_5" transform="matrix(16.604445,0,0,-16.604445,1064.4645,335.69)"/>
<use xlink:href="#font_8_4" transform="matrix(16.604445,0,0,-16.604445,1062.1232,344.3243)"/>
<symbol id="font_1_a">
<path d="M .35900004 .078999999 C .357 .07699996 .31300003 .037999989 .31300003 .021999956 C .31300003 .00999999 .323 0 .33499999 0 C .34499998 0 .35000003 .0069999697 .35399998 .011999965 C .365 .025999964 .388 .05399996 .43300004 .07699996 C .445 .08199996 .45499999 .08700001 .45499999 .10100001 C .45499999 .11199999 .445 .11799997 .44 .12199998 C .425 .13099998 .408 .14599997 .397 .17699999 C .393 .18900001 .389 .20099998 .374 .20099998 C .365 .20099998 .353 .194 .353 .17899996 C .353 .16100002 .37300004 .12799996 .37699998 .12199998 L .037 .12199998 C .019999996 .12199998 0 .12199998 0 .10100001 C 0 .078999999 .018999994 .078999999 .037 .078999999 L .35900004 .078999999 Z "/>
</symbol>
<use xlink:href="#font_1_a" transform="matrix(24.906666,0,0,-24.906666,1078.8828,325.10636)"/>
<use xlink:href="#font_1_7" transform="matrix(24.906666,0,0,-24.906666,1075.9938,338.20729)"/>
<symbol id="font_8_2">
<path d="M .123 .083000008 C .114 .047000003 .11200001 .040000004 .037 .040000004 C .015000001 .040000004 .012999997 .040000004 .008999996 .037 C .0040000008 .033 0 .020000002 0 .014 C .0029999987 0 .012000002 0 .031999999 0 L .439 0 C .61200007 0 .748 .113000009 .748 .21300002 C .748 .275 .694 .34100003 .569 .358 C .684 .37600003 .79800006 .44900004 .79800006 .54 C .79800006 .61200007 .71900007 .683 .578 .683 L .195 .683 C .176 .683 .16100002 .683 .16100002 .65800008 C .16100002 .643 .176 .643 .194 .643 C .21200001 .643 .23699999 .643 .25800003 .63600006 C .25800003 .62600007 .25800003 .62 .254 .60400006 L .123 .083000008 M .287 .372 L .34600003 .609 C .354 .64100006 .35500003 .643 .397 .643 L .56200006 .643 C .666 .643 .69600006 .58000007 .69600006 .53800007 C .69600006 .45600004 .592 .372 .46900005 .372 L .287 .372 M .239 .040000004 C .22 .040000004 .218 .040000004 .206 .043 L .278 .33900003 L .496 .33900003 C .62200006 .33900003 .643 .25800003 .643 .21800001 C .643 .12200001 .537 .040000004 .413 .040000004 L .239 .040000004 Z "/>
</symbol>
<symbol id="font_8_3">
<path d="M .123 .083000008 C .114 .047000003 .11200001 .040000004 .037 .040000004 C .015000001 .040000004 .013000004 .040000004 .009000003 .037 C .0040000008 .033 0 .020000002 0 .014 C .0029999987 0 .012000002 0 .032000007 0 L .40800003 0 C .634 0 .85800006 .19700001 .85800006 .41700004 C .85800006 .57600006 .74200007 .683 .578 .683 L .19500003 .683 C .17500001 .683 .16100002 .683 .16100002 .65800008 C .16100002 .643 .17600003 .643 .194 .643 C .21200001 .643 .23700002 .643 .25800003 .63600006 C .25800003 .62600007 .25800003 .62 .254 .60400006 L .123 .083000008 M .34900005 .609 C .35700003 .64100006 .35700003 .643 .40000005 .643 L .54 .643 C .657 .643 .759 .587 .759 .44900004 C .759 .416 .746 .256 .65000006 .15 C .598 .09200001 .507 .040000004 .39000003 .040000004 L .24200002 .040000004 C .22300002 .040000004 .22100002 .040000004 .20900002 .043 L .34900005 .609 Z "/>
</symbol>
<use xlink:href="#font_8_2" transform="matrix(16.604445,0,0,-16.604445,1089.1445,340.69996)"/>
<use xlink:href="#font_8_3" transform="matrix(16.604445,0,0,-16.604445,1105.3173,340.69996)"/>
<use xlink:href="#font_7_1" transform="matrix(24.906666,0,0,-24.906666,1125.6876,344.13505)"/>
<symbol id="font_2_b">
<path d="M .61700007 .34500004 C .63900008 .40600003 .68000009 .41000004 .70100006 .411 L .70100006 .44200004 C .6610001 .43900005 .65900006 .43900005 .62600007 .43900005 C .58800008 .43900005 .57400009 .43900005 .53400006 .44200004 L .53400006 .411 C .577 .41000004 .591 .38300003 .591 .36300005 C .591 .35300002 .58900007 .34700004 .586 .34000004 L .494 .09 L .393 .36400003 C .388 .37700004 .388 .38000003 .388 .38300003 C .388 .40900005 .419 .411 .44500003 .411 L .44500003 .44200004 C .39900003 .43900005 .358 .43900005 .342 .43900005 C .31100003 .43900005 .282 .43900005 .25 .44200004 L .25 .411 C .282 .411 .30200003 .41000004 .313 .39600004 C .322 .38500003 .335 .34500004 .335 .34200005 C .335 .34000004 .33 .32900004 .33 .328 L .24800001 .10300001 L .15300001 .36300005 C .14700002 .37800003 .14700002 .38000003 .14700002 .38400004 C .14700002 .411 .18600002 .411 .20500002 .411 L .20500002 .44200004 C .15900001 .44000004 .136 .43900005 .096 .43900005 C .063 .43900005 .034 .43900005 0 .44200004 L 0 .411 C .048 .411 .060999998 .40900005 .073 .37500004 L .20200002 .022000002 C .20700002 .010000001 .21000001 0 .22500001 0 C .24000003 0 .244 .011000001 .24800001 .021000002 L .35 .30100004 L .453 .021000002 C .45700003 .011000001 .46100004 0 .476 0 C .49100004 0 .494 .010000001 .498 .020000002 L .61700007 .34500004 Z "/>
</symbol>
<symbol id="font_2_6">
<path d="M .14800002 .694 L 0 .683 L 0 .652 C .068 .652 .07700001 .64500007 .07700001 .596 L .07700001 .07700001 C .07700001 .031000002 .066 .031000002 0 .031000002 L 0 0 C .047000003 .002 .066 .003 .11400001 .003 C .16200002 .003 .17500001 .002 .22800002 0 L .22800002 .031000002 C .16200002 .031000002 .15100001 .031000002 .15100001 .07700001 L .15100001 .259 C .15100001 .365 .22600001 .41700004 .289 .41700004 C .34800003 .41700004 .36100004 .36800004 .36100004 .30800004 L .36100004 .07700001 C .36100004 .031000002 .35000003 .031000002 .284 .031000002 L .284 0 C .33100004 .002 .35000003 .003 .39800004 .003 C .44600005 .003 .45900003 .002 .512 0 L .512 .031000002 C .46100004 .031000002 .43600003 .031000002 .43500004 .062000004 L .43500004 .254 C .43500004 .337 .43500004 .36600004 .40700004 .40100003 C .38400004 .42900003 .34600003 .44200004 .29600004 .44200004 C .229 .44200004 .18 .407 .14900002 .351 L .14800002 .351 L .14800002 .694 Z "/>
</symbol>
<symbol id="font_2_5">
<path d="M .371 .24000003 C .393 .24000003 .398 .24000003 .398 .261 C .398 .36400003 .342 .45900003 .21400002 .45900003 C .094000007 .45900003 0 .35500003 0 .23100002 C 0 .1 .105000007 0 .22700002 0 C .349 0 .398 .107 .398 .13000001 C .398 .13700001 .393 .143 .384 .143 C .374 .143 .371 .136 .37 .13200002 C .336 .030000002 .24700003 .028 .23200001 .028 C .18400002 .028 .143 .055000005 .120000008 .089 C .087000008 .13800001 .086 .19800002 .086 .24000003 L .371 .24000003 M .087000008 .26400004 C .096 .418 .186 .43400003 .21400002 .43400003 C .269 .43400003 .329 .39200003 .33 .26400004 L .087000008 .26400004 Z "/>
</symbol>
<use xlink:href="#font_2_b" transform="matrix(24.906666,0,0,-24.906666,848.1759,368.64894)"/>
<use xlink:href="#font_2_6" transform="matrix(24.906666,0,0,-24.906666,867.0303,368.37495)"/>
<use xlink:href="#font_2_5" transform="matrix(24.906666,0,0,-24.906666,881.1026,368.64894)"/>
<use xlink:href="#font_2_a" transform="matrix(24.906666,0,0,-24.906666,892.5099,368.37495)"/>
<use xlink:href="#font_2_5" transform="matrix(24.906666,0,0,-24.906666,902.49746,368.64894)"/>
<use xlink:href="#font_1_a" transform="matrix(24.906666,0,0,-24.906666,925.32467,355.548)"/>
<use xlink:href="#font_1_7" transform="matrix(24.906666,0,0,-24.906666,922.4355,368.64894)"/>
<use xlink:href="#font_8_2" transform="matrix(16.604445,0,0,-16.604445,935.5863,371.14164)"/>
<use xlink:href="#font_8_3" transform="matrix(16.604445,0,0,-16.604445,951.75906,371.14164)"/>
<symbol id="font_2_3">
<path d="M .43300004 .34200005 C .43300004 .40900005 .43000005 .49500004 .39500005 .57000008 C .35100005 .66400006 .27500005 .688 .217 .688 C .157 .688 .081 .66400006 .037000006 .568 C .004999999 .49900005 0 .41800005 0 .34200005 C 0 .27700005 .0020000004 .18 .044999999 .101 C .09199999 .016000003 .17 0 .216 0 C .28100003 0 .35500003 .028 .397 .120000008 C .42700003 .187 .43300004 .26200003 .43300004 .34200005 M .217 .025000003 C .187 .025000003 .114999998 .039000006 .096 .15200001 C .085999999 .21100001 .085999999 .29700003 .085999999 .35400004 C .085999999 .42200003 .085999999 .50100007 .098000008 .55600008 C .118 .64500007 .18200001 .66300007 .216 .66300007 C .254 .66300007 .31700004 .64300009 .33600004 .55 C .34700004 .49500004 .34700004 .41700004 .34700004 .35400004 C .34700004 .29200004 .34700004 .208 .337 .149 C .316 .035000005 .242 .025000003 .217 .025000003 Z "/>
</symbol>
<use xlink:href="#font_2_4" transform="matrix(24.906666,0,0,-24.906666,977.34756,365.2118)"/>
<use xlink:href="#font_2_1" transform="matrix(24.906666,0,0,-24.906666,1005.44229,374.5767)"/>
<use xlink:href="#font_2_3" transform="matrix(24.906666,0,0,-24.906666,1013.88558,368.92289)"/>
<use xlink:href="#font_1_2" transform="matrix(24.906666,0,0,-24.906666,1027.8947,373.18193)"/>
<use xlink:href="#font_1_4" transform="matrix(24.906666,0,0,-24.906666,1038.206,368.37495)"/>
<symbol id="font_8_1">
<path d="M .435 .869 C .43800003 .88100007 .43800003 .883 .43800003 .884 C .43800003 .898 .42300005 .898 .42000003 .898 C .40500004 .898 .404 .893 .39900003 .875 L .342 .647 C .15400002 .64000007 0 .51000007 0 .381 C 0 .29700003 .067 .20400001 .22800002 .19200002 L .194 .058 C .19100002 .042999999 .18400002 .017000005 .18400002 .013999999 C .18400002 0 .199 0 .20300001 0 C .21800003 0 .22 .0069999995 .22300002 .020999998 C .224 .025000006 .26000003 .16600001 .266 .19200002 C .45200003 .19800002 .60800006 .329 .60800006 .458 C .60800006 .544 .537 .63600006 .38000003 .647 L .435 .869 M .236 .22500001 C .14500001 .231 .07800001 .27600003 .07800001 .366 C .07800001 .47900004 .17300001 .6 .333 .614 L .236 .22500001 M .37100003 .614 C .463 .609 .53000006 .563 .53000006 .47300006 C .53000006 .365 .439 .23900001 .27400003 .22500001 L .37100003 .614 Z "/>
</symbol>
<use xlink:href="#font_8_1" transform="matrix(16.604445,0,0,-16.604445,1059.5671,374.71226)"/>
<use xlink:href="#font_2_1" transform="matrix(24.906666,0,0,-24.906666,1074.4102,374.5767)"/>
<use xlink:href="#font_1_8" transform="matrix(24.906666,0,0,-24.906666,1082.5973,368.64894)"/>
<use xlink:href="#font_1_2" transform="matrix(24.906666,0,0,-24.906666,1098.5625,373.18193)"/>
<use xlink:href="#font_1_9" transform="matrix(24.906666,0,0,-24.906666,1108.4754,373.4808)"/>
<use xlink:href="#font_2_2" transform="matrix(24.906666,0,0,-24.906666,1122.6808,374.5767)"/>
<use xlink:href="#font_2_2" transform="matrix(24.906666,0,0,-24.906666,1132.6434,374.5767)"/>
</g>
</svg>
