<?xml version="1.0" encoding="UTF-8" standalone="no"?>
<!DOCTYPE svg PUBLIC "-//W3C//DTD SVG 1.1//EN" "http://www.w3.org/Graphics/SVG/1.1/DTD/svg11.dtd">
<svg xmlns="http://www.w3.org/2000/svg" xmlns:xlink="http://www.w3.org/1999/xlink" version="1.1" width="1580.8915pt" height="1497.1694pt" viewBox="0 0 1580.8915 1497.1694">
<g enable-background="new">
<path transform="matrix(2.7777777,0,0,-2.7777777,792.9361,669.8445)" d="M -283.4681 -297.6415 L -283.4681 240.94788 L 283.4681 240.94788 L 283.4681 -297.6415 Z M 283.4681 240.94788 " fill="#0b1120"/>
<path transform="matrix(2.7777777,0,0,-2.7777777,792.9361,669.8445)" stroke-width=".3985" stroke-linecap="butt" stroke-miterlimit="10" stroke-linejoin="miter" fill="none" stroke="#ffffff" stroke-opacity=".05" d="M -283.4681 -283.46818 L 283.4681 -283.46818 M -283.4681 -226.77454 L 283.4681 -226.77454 M -283.4681 -170.0809 L 283.4681 -170.0809 M -283.4681 -113.38727 L 283.4681 -113.38727 M -283.4681 -56.69363 L 283.4681 -56.69363 M -283.4681 0 L 283.4681 0 M -283.4681 56.69363 L 283.4681 56.69363 M -283.4681 113.38727 L 283.4681 113.38727 M -283.4681 170.0809 L 283.4681 170.0809 M -283.4681 226.77454 L 283.4681 226.77454 M -226.77454 -297.6415 L -226.77454 240.94788 M -170.0809 -297.6415 L -170.0809 240.94788 M -113.38727 -297.6415 L -113.38727 240.94788 M -56.69363 -297.6415 L -56.69363 240.94788 M 0 -297.6415 L 0 240.94788 M 56.69363 -297.6415 L 56.69363 240.94788 M 113.38727 -297.6415 L 113.38727 240.94788 M 170.0809 -297.6415 L 170.0809 240.94788 M 226.77454 -297.6415 L 226.77454 240.94788 M 283.4582 -297.6415 L 283.4582 240.94788 M 283.4681 240.94788 "/>
<path transform="matrix(2.7777777,0,0,-2.7777777,792.9361,669.8445)" stroke-width="1.99255" stroke-linecap="butt" stroke-dasharray="2.98883,2.98883" stroke-miterlimit="10" stroke-linejoin="miter" fill="none" stroke="#ffffff" stroke-opacity=".2" d="M 0 -283.4681 L 0 226.77448 "/>
<path transform="matrix(2.7777777,0,0,-2.7777777,792.9361,669.8445)" stroke-width="3.9851" stroke-linecap="butt" stroke-miterlimit="10" stroke-linejoin="miter" fill="none" stroke="#22d3ee" stroke-opacity=".15" d="M -283.4681 180.45658 C -283.4681 180.45658 -279.28858 178.01242 -277.68333 176.89072 C -276.0781 175.76902 -273.5038 173.72988 -271.89857 172.37201 C -270.29335 171.01413 -267.71907 168.63657 -266.1138 167.10413 C -264.50856 165.57167 -261.93428 162.96443 -260.32905 161.32715 C -258.7238 159.68987 -256.1495 156.97133 -254.54428 155.30362 C -252.93904 153.6359 -250.36475 150.92964 -248.7595 149.30735 C -247.15427 147.68506 -244.57999 145.1144 -242.97475 143.61124 C -241.3695 142.1081 -238.79523 139.78896 -237.18999 138.47357 C -235.58475 137.15819 -233.01045 135.19864 -231.40523 134.13088 C -229.79999 133.06313 -227.2257 131.54969 -225.62046 130.77785 C -224.01523 130.00601 -221.44094 129.00862 -219.8357 128.56801 C -218.23046 128.1274 -215.65618 127.69144 -214.05094 127.60214 C -212.4457 127.51285 -209.87142 127.6583 -208.26618 127.9244 C -206.66094 128.19049 -204.08664 128.91078 -202.4814 129.52004 C -200.87618 130.12928 -198.30188 131.39083 -196.69664 132.31552 C -195.0914 133.2402 -192.51712 134.98653 -190.91188 136.18457 C -189.30664 137.38263 -186.73236 139.53324 -185.12712 140.95027 C -183.52188 142.36731 -180.94759 144.82608 -179.34235 146.39766 C -177.73712 147.96924 -175.16283 150.6228 -173.55759 152.27715 C -171.95235 153.93149 -169.37807 156.65898 -167.77283 158.321 C -166.16759 159.98302 -163.5933 162.66165 -161.98807 164.25585 C -160.38283 165.85005 -157.80854 168.35724 -156.2033 169.81095 C -154.59807 171.26465 -152.02378 173.48609 -150.41854 174.73322 C -148.8133 175.98036 -146.23902 177.8157 -144.63378 178.7995 C -143.02854 179.7833 -140.45426 181.1482 -138.84902 181.82382 C -137.24378 182.49944 -134.66948 183.33217 -133.06424 183.66902 C -131.45902 184.00586 -128.88472 184.26898 -127.27948 184.25165 C -125.67424 184.23432 -123.09996 183.91468 -121.49472 183.54402 C -119.88948 183.17339 -117.3152 182.28749 -115.70996 181.58029 C -114.10472 180.87311 -111.53043 179.45858 -109.9252 178.44699 C -108.31996 177.4354 -105.74567 175.55927 -104.14043 174.28945 C -102.53519 173.01963 -99.9609 170.76532 -98.35567 169.29492 C -96.75043 167.82453 -94.17615 165.29593 -92.5709 163.69182 C -90.96567 162.08773 -88.39137 159.39827 -86.78615 157.73361 C -85.18091 156.06894 -82.60661 153.34363 -81.00137 151.69409 C -79.39613 150.04456 -76.82185 147.4045 -75.21661 145.84487 C -73.61137 144.28524 -71.0371 141.85172 -69.43185 140.4533 C -67.82661 139.05486 -65.25232 136.9395 -63.6471 135.76589 C -62.04185 134.59226 -59.46756 132.89028 -57.86232 131.99457 C -56.25708 131.09888 -53.6828 129.8872 -52.07756 129.31024 C -50.47232 128.73328 -47.89804 128.06786 -46.2928 127.83615 C -44.68756 127.60445 -42.11327 127.51616 -40.50804 127.64021 C -38.9028 127.76427 -36.3285 128.25635 -34.72327 128.73021 C -33.11803 129.20407 -30.54375 130.2534 -28.9385 131.05553 C -27.33327 131.85767 -24.75899 133.4173 -23.15375 134.51152 C -21.54851 135.60575 -18.97421 137.6055 -17.36899 138.942 C -15.76375 140.2785 -13.18945 142.62635 -11.58421 144.14414 C -9.97899 145.66193 -7.4047 148.25128 -5.79945 149.88132 C -4.19421 151.51136 -.0147 155.8923 -.0147 155.8923 "/>
<path transform="matrix(2.7777777,0,0,-2.7777777,792.9361,669.8445)" d="M 34.32446 180.45658 C 34.32446 183.75798 31.64821 186.43424 28.3468 186.43424 C 25.0454 186.43424 22.36914 183.75798 22.36914 180.45658 C 22.36914 177.15515 25.0454 174.47891 28.3468 174.47891 C 31.64821 174.47891 34.32446 177.15515 34.32446 180.45658 Z M 28.3468 180.45658 " fill="#f472b6" fill-opacity=".2"/>
<path transform="matrix(2.7777777,0,0,-2.7777777,792.9361,669.8445)" d="M 62.67128 180.45658 C 62.67128 183.75798 59.99503 186.43424 56.69362 186.43424 C 53.3922 186.43424 50.71596 183.75798 50.71596 180.45658 C 50.71596 177.15515 53.3922 174.47891 56.69362 174.47891 C 59.99503 174.47891 62.67128 177.15515 62.67128 180.45658 Z M 56.69362 180.45658 " fill="#f472b6" fill-opacity=".2"/>
<path transform="matrix(2.7777777,0,0,-2.7777777,792.9361,669.8445)" d="M 91.01808 155.90744 C 91.01808 159.20885 88.34184 161.8851 85.04042 161.8851 C 81.73901 161.8851 79.06276 159.20885 79.06276 155.90744 C 79.06276 152.60602 81.73901 149.92978 85.04042 149.92978 C 88.34184 149.92978 91.01808 152.60602 91.01808 155.90744 Z M 85.04042 155.90744 " fill="#f472b6" fill-opacity=".2"/>
<path transform="matrix(2.7777777,0,0,-2.7777777,792.9361,669.8445)" d="M 119.3649 131.3583 C 119.3649 134.65973 116.68864 137.33597 113.38724 137.33597 C 110.08582 137.33597 107.40958 134.65973 107.40958 131.3583 C 107.40958 128.0569 110.08582 125.38065 113.38724 125.38065 C 116.68864 125.38065 119.3649 128.0569 119.3649 131.3583 Z M 113.38724 131.3583 " fill="#f472b6" fill-opacity=".2"/>
<path transform="matrix(2.7777777,0,0,-2.7777777,792.9361,669.8445)" d="M 147.7117 131.3583 C 147.7117 134.65973 145.03546 137.33597 141.73404 137.33597 C 138.43264 137.33597 135.75638 134.65973 135.75638 131.3583 C 135.75638 128.0569 138.43264 125.38065 141.73404 125.38065 C 145.03546 125.38065 147.7117 128.0569 147.7117 131.3583 Z M 141.73404 131.3583 " fill="#f472b6" fill-opacity=".2"/>
<path transform="matrix(2.7777777,0,0,-2.7777777,792.9361,669.8445)" d="M 176.05852 155.90744 C 176.05852 159.20885 173.38227 161.8851 170.08086 161.8851 C 166.77944 161.8851 164.1032 159.20885 164.1032 155.90744 C 164.1032 152.60602 166.77944 149.92978 170.08086 149.92978 C 173.38227 149.92978 176.05852 152.60602 176.05852 155.90744 Z M 170.08086 155.90744 " fill="#f472b6" fill-opacity=".2"/>
<path transform="matrix(2.7777777,0,0,-2.7777777,792.9361,669.8445)" d="M 204.40532 180.45658 C 204.40532 183.75798 201.72908 186.43424 198.42766 186.43424 C 195.12625 186.43424 192.45 183.75798 192.45 180.45658 C 192.45 177.15515 195.12625 174.47891 198.42766 174.47891 C 201.72908 174.47891 204.40532 177.15515 204.40532 180.45658 Z M 198.42766 180.45658 " fill="#f472b6" fill-opacity=".2"/>
<path transform="matrix(2.7777777,0,0,-2.7777777,792.9361,669.8445)" d="M 232.75214 180.45658 C 232.75214 183.75798 230.07588 186.43424 226.77448 186.43424 C 223.47306 186.43424 220.79682 183.75798 220.79682 180.45658 C 220.79682 177.15515 223.47306 174.47891 226.77448 174.47891 C 230.07588 174.47891 232.75214 177.15515 232.75214 180.45658 Z M 226.77448 180.45658 " fill="#f472b6" fill-opacity=".2"/>
<path transform="matrix(2.7777777,0,0,-2.7777777,792.9361,669.8445)" d="M 261.09895 155.90744 C 261.09895 159.20885 258.4227 161.8851 255.12128 161.8851 C 251.81987 161.8851 249.14362 159.20885 249.14362 155.90744 C 249.14362 152.60602 251.81987 149.92978 255.12128 149.92978 C 258.4227 149.92978 261.09895 152.60602 261.09895 155.90744 Z M 255.12128 155.90744 " fill="#f472b6" fill-opacity=".2"/>
<path transform="matrix(2.7777777,0,0,-2.7777777,792.9361,669.8445)" stroke-width="3.9851" stroke-linecap="butt" stroke-miterlimit="10" stroke-linejoin="miter" fill="none" stroke="#facc15" stroke-opacity=".1" d="M -283.4681 -56.6763 C -283.4681 -56.6763 -274.9347 -69.25862 -271.6572 -73.90213 C -268.37974 -78.54564 -263.12379 -85.77318 -259.8463 -90.1435 C -256.56886 -94.51382 -251.31291 -101.30322 -248.03545 -105.40042 C -244.75797 -109.4976 -239.50203 -115.84923 -236.22455 -119.6733 C -232.94709 -123.49738 -227.69113 -129.41077 -224.41367 -132.96173 C -221.1362 -136.51268 -215.88027 -141.98831 -212.6028 -145.26615 C -209.32532 -148.54398 -204.06937 -153.58139 -200.7919 -156.58609 C -197.51444 -159.59079 -192.2585 -164.19049 -188.98104 -166.92201 C -185.70355 -169.65354 -180.44762 -173.81465 -177.17014 -176.27306 C -173.89267 -178.73146 -168.63672 -182.45522 -165.35926 -184.6405 C -162.08179 -186.82579 -156.82585 -190.11098 -153.54839 -192.02307 C -150.2709 -193.93515 -145.01497 -196.78256 -141.73749 -198.4216 C -138.46002 -200.06063 -133.20409 -202.4702 -129.92662 -203.83612 C -126.64915 -205.20203 -121.3932 -207.17345 -118.11574 -208.26618 C -114.83826 -209.35889 -109.5823 -210.89217 -106.30484 -211.71176 C -103.02737 -212.53136 -97.77144 -213.62686 -94.49397 -214.17334 C -91.21649 -214.71982 -85.96056 -215.37709 -82.68307 -215.65045 C -79.40561 -215.92382 -74.14966 -216.14331 -70.8722 -216.14354 C -67.59473 -216.14377 -62.33879 -215.92507 -59.06133 -215.65219 C -55.78384 -215.37932 -50.52791 -214.72284 -47.25043 -214.17679 C -43.97296 -213.63074 -38.71703 -212.5357 -35.43956 -211.71652 C -32.1621 -210.89733 -26.90614 -209.36496 -23.62868 -208.27265 C -20.3512 -207.18035 -15.09525 -205.20938 -11.81778 -203.8439 C -8.54031 -202.47841 -.00691 -198.4311 -.00691 -198.4311 "/>
<path transform="matrix(2.7777777,0,0,-2.7777777,792.9361,669.8445)" stroke-width="1.99255" stroke-linecap="butt" stroke-miterlimit="10" stroke-linejoin="miter" fill="none" stroke="#facc15" stroke-opacity=".1" d="M 14.17339 -283.4681 L 14.17339 -204.80587 "/>
<path transform="matrix(2.7777777,0,0,-2.7777777,792.9361,669.8445)" d="M 19.15477 -204.80587 C 19.15477 -202.05469 16.92456 -199.82448 14.17339 -199.82448 C 11.42221 -199.82448 9.192 -202.05469 9.192 -204.80587 C 9.192 -207.55704 11.42221 -209.78725 14.17339 -209.78725 C 16.92456 -209.78725 19.15477 -207.55704 19.15477 -204.80587 Z M 14.17339 -204.80587 " fill="#facc15" fill-opacity=".2"/>
<path transform="matrix(2.7777777,0,0,-2.7777777,792.9361,669.8445)" stroke-width="1.99255" stroke-linecap="butt" stroke-miterlimit="10" stroke-linejoin="miter" fill="none" stroke="#facc15" stroke-opacity=".1" d="M 42.5202 -283.4681 L 42.5202 -213.30956 "/>
<path transform="matrix(2.7777777,0,0,-2.7777777,792.9361,669.8445)" d="M 47.50159 -213.30956 C 47.50159 -210.55838 45.27138 -208.32817 42.5202 -208.32817 C 39.76903 -208.32817 37.53882 -210.55838 37.53882 -213.30956 C 37.53882 -216.06075 39.76903 -218.29094 42.5202 -218.29094 C 45.27138 -218.29094 47.50159 -216.06075 47.50159 -213.30956 Z M 42.5202 -213.30956 " fill="#facc15" fill-opacity=".2"/>
<path transform="matrix(2.7777777,0,0,-2.7777777,792.9361,669.8445)" stroke-width="1.99255" stroke-linecap="butt" stroke-miterlimit="10" stroke-linejoin="miter" fill="none" stroke="#facc15" stroke-opacity=".1" d="M 70.867 -283.4681 L 70.867 -216.14354 "/>
<path transform="matrix(2.7777777,0,0,-2.7777777,792.9361,669.8445)" d="M 75.84839 -216.14354 C 75.84839 -213.39237 73.6182 -211.16216 70.867 -211.16216 C 68.11583 -211.16216 65.88562 -213.39237 65.88562 -216.14354 C 65.88562 -218.89473 68.11583 -221.12493 70.867 -221.12493 C 73.6182 -221.12493 75.84839 -218.89473 75.84839 -216.14354 Z M 70.867 -216.14354 " fill="#facc15" fill-opacity=".2"/>
<path transform="matrix(2.7777777,0,0,-2.7777777,792.9361,669.8445)" stroke-width="1.99255" stroke-linecap="butt" stroke-miterlimit="10" stroke-linejoin="miter" fill="none" stroke="#facc15" stroke-opacity=".1" d="M 99.21382 -283.4681 L 99.21382 -213.30783 "/>
<path transform="matrix(2.7777777,0,0,-2.7777777,792.9361,669.8445)" d="M 104.1952 -213.30783 C 104.1952 -210.55666 101.965 -208.32645 99.21382 -208.32645 C 96.46265 -208.32645 94.23244 -210.55666 94.23244 -213.30783 C 94.23244 -216.059 96.46265 -218.28922 99.21382 -218.28922 C 101.965 -218.28922 104.1952 -216.059 104.1952 -213.30783 Z M 99.21382 -213.30783 " fill="#facc15" fill-opacity=".2"/>
<path transform="matrix(2.7777777,0,0,-2.7777777,792.9361,669.8445)" stroke-width="1.99255" stroke-linecap="butt" stroke-miterlimit="10" stroke-linejoin="miter" fill="none" stroke="#facc15" stroke-opacity=".1" d="M 127.56062 -283.4681 L 127.56062 -204.8024 "/>
<path transform="matrix(2.7777777,0,0,-2.7777777,792.9361,669.8445)" d="M 132.542 -204.8024 C 132.542 -202.05123 130.31182 -199.82102 127.56062 -199.82102 C 124.80945 -199.82102 122.57924 -202.05123 122.57924 -204.8024 C 122.57924 -207.55358 124.80945 -209.78379 127.56062 -209.78379 C 130.31182 -209.78379 132.542 -207.55358 132.542 -204.8024 Z M 127.56062 -204.8024 " fill="#facc15" fill-opacity=".2"/>
<path transform="matrix(2.7777777,0,0,-2.7777777,792.9361,669.8445)" stroke-width="1.99255" stroke-linecap="butt" stroke-miterlimit="10" stroke-linejoin="miter" fill="none" stroke="#facc15" stroke-opacity=".1" d="M 155.90744 -283.4681 L 155.90744 -190.62728 "/>
<path transform="matrix(2.7777777,0,0,-2.7777777,792.9361,669.8445)" d="M 160.88883 -190.62728 C 160.88883 -187.87609 158.65862 -185.64589 155.90744 -185.64589 C 153.15627 -185.64589 150.92606 -187.87609 150.92606 -190.62728 C 150.92606 -193.37845 153.15627 -195.60866 155.90744 -195.60866 C 158.65862 -195.60866 160.88883 -193.37845 160.88883 -190.62728 Z M 155.90744 -190.62728 " fill="#facc15" fill-opacity=".2"/>
<path transform="matrix(2.7777777,0,0,-2.7777777,792.9361,669.8445)" stroke-width="1.99255" stroke-linecap="butt" stroke-miterlimit="10" stroke-linejoin="miter" fill="none" stroke="#facc15" stroke-opacity=".1" d="M 184.25424 -283.4681 L 184.25424 -170.78243 "/>
<path transform="matrix(2.7777777,0,0,-2.7777777,792.9361,669.8445)" d="M 189.23563 -170.78243 C 189.23563 -168.03125 187.00543 -165.80104 184.25424 -165.80104 C 181.50307 -165.80104 179.27286 -168.03125 179.27286 -170.78243 C 179.27286 -173.5336 181.50307 -175.76381 184.25424 -175.76381 C 187.00543 -175.76381 189.23563 -173.5336 189.23563 -170.78243 Z M 184.25424 -170.78243 " fill="#facc15" fill-opacity=".2"/>
<path transform="matrix(2.7777777,0,0,-2.7777777,792.9361,669.8445)" stroke-width="1.99255" stroke-linecap="butt" stroke-miterlimit="10" stroke-linejoin="miter" fill="none" stroke="#facc15" stroke-opacity=".1" d="M 212.60106 -283.4681 L 212.60106 -145.26787 "/>
<path transform="matrix(2.7777777,0,0,-2.7777777,792.9361,669.8445)" d="M 217.58245 -145.26787 C 217.58245 -142.51668 215.35224 -140.28649 212.60106 -140.28649 C 209.84989 -140.28649 207.61968 -142.51668 207.61968 -145.26787 C 207.61968 -148.01905 209.84989 -150.24925 212.60106 -150.24925 C 215.35224 -150.24925 217.58245 -148.01905 217.58245 -145.26787 Z M 212.60106 -145.26787 " fill="#facc15" fill-opacity=".2"/>
<path transform="matrix(2.7777777,0,0,-2.7777777,792.9361,669.8445)" stroke-width="1.99255" stroke-linecap="butt" stroke-miterlimit="10" stroke-linejoin="miter" fill="none" stroke="#facc15" stroke-opacity=".1" d="M 240.94788 -283.4681 L 240.94788 -114.0836 "/>
<path transform="matrix(2.7777777,0,0,-2.7777777,792.9361,669.8445)" d="M 245.92926 -114.0836 C 245.92926 -111.33243 243.69905 -109.10222 240.94788 -109.10222 C 238.19669 -109.10222 235.96649 -111.33243 235.96649 -114.0836 C 235.96649 -116.83478 238.19669 -119.06499 240.94788 -119.06499 C 243.69905 -119.06499 245.92926 -116.83478 245.92926 -114.0836 Z M 240.94788 -114.0836 " fill="#facc15" fill-opacity=".2"/>
<path transform="matrix(2.7777777,0,0,-2.7777777,792.9361,669.8445)" stroke-width="1.99255" stroke-linecap="butt" stroke-miterlimit="10" stroke-linejoin="miter" fill="none" stroke="#facc15" stroke-opacity=".1" d="M 269.29469 -283.4681 L 269.29469 -77.22964 "/>
<path transform="matrix(2.7777777,0,0,-2.7777777,792.9361,669.8445)" d="M 274.27607 -77.22964 C 274.27607 -74.47847 272.04585 -72.24826 269.29469 -72.24826 C 266.5435 -72.24826 264.3133 -74.47847 264.3133 -77.22964 C 264.3133 -79.98082 266.5435 -82.21103 269.29469 -82.21103 C 272.04585 -82.21103 274.27607 -79.98082 274.27607 -77.22964 Z M 269.29469 -77.22964 " fill="#facc15" fill-opacity=".2"/>
<symbol id="font_0_1">
<path d="M .68700006 .6840001 C .68700006 .7070001 .68700006 .71000006 .6650001 .71000006 L .59000006 .6380001 C .53400006 .68600007 .46700005 .71000006 .393 .71000006 C .154 .71000006 0 .56500008 0 .35500003 C 0 .149 .149 0 .39400003 0 C .572 0 .68700006 .12200001 .68700006 .24000001 C .68700006 .257 .68100008 .25800003 .66600009 .25800003 C .6560001 .25800003 .646 .25800003 .64500007 .24700001 C .63600006 .095000009 .507 .043 .41700004 .043 C .35200004 .043 .264 .061000006 .208 .124000009 C .17300001 .162 .141 .21700001 .141 .35500003 C .141 .453 .156 .526 .20300001 .5820001 C .26700003 .65700009 .367 .66700008 .41500003 .66700008 C .49000005 .66700008 .61100009 .62500008 .64100006 .449 C .64300009 .44000004 .65200009 .44000004 .66400006 .44000004 C .68700006 .44000004 .68700006 .442 .68700006 .46600003 L .68700006 .6840001 Z "/>
</symbol>
<symbol id="font_0_6">
<path d="M .7200001 .352 C .7200001 .56400009 .5820001 .71000006 .36 .71000006 C .13700001 .71000006 0 .563 0 .352 C 0 .141 .14 0 .36 0 C .58000007 0 .7200001 .141 .7200001 .352 M .36 .038000004 C .29500003 .038000004 .232 .069000009 .194 .126 C .146 .199 .141 .293 .141 .366 C .141 .42700003 .14400001 .51100006 .185 .57900008 C .229 .64900007 .301 .6740001 .36 .6740001 C .441 .6740001 .50100007 .63100007 .53000006 .586 C .56700006 .52800008 .57900008 .46600003 .57900008 .366 C .57900008 .26700003 .5680001 .184 .51800009 .11500001 C .493 .08100001 .438 .038000004 .36 .038000004 Z "/>
</symbol>
<symbol id="font_0_5">
<path d="M .25200004 .674 C .242 .68500009 .24100001 .68600007 .221 .68600007 L 0 .68600007 L 0 .643 L .106000009 .643 L .106000009 .07300001 C .106000009 .051000004 .105000007 .05 .079 .046000005 C .061000006 .044000005 .041 .043 .023000002 .043 L 0 .043 L 0 0 C .023000002 .002 .10100001 .002 .12900001 .002 C .157 .002 .23600002 .002 .259 0 L .259 .043 L .23600002 .043 C .209 .043 .207 .043 .18300002 .046000005 C .154 .05 .15300001 .051000004 .15300001 .07300001 L .15300001 .609 L .64800009 .013 C .65900006 .001 .66 0 .67300006 0 C .697 0 .697 .006 .697 .029000001 L .697 .61300006 C .697 .63500007 .6980001 .63600006 .72400006 .64000007 C .74200007 .642 .762 .643 .78000006 .643 L .80300006 .643 L .80300006 .68600007 C .78000006 .684 .702 .684 .674 .684 C .646 .684 .56700006 .684 .544 .68600007 L .544 .643 L .56700006 .643 C .59400007 .643 .596 .643 .62000009 .64000007 C .64900007 .63600006 .65000006 .63500007 .65000006 .61300006 L .65000006 .19500001 L .25200004 .674 Z "/>
</symbol>
<symbol id="font_0_9">
<path d="M .679 .67700007 L .020000004 .67700007 L 0 .44000004 L .042000005 .44000004 C .051000008 .549 .059 .634 .20300001 .634 L .284 .634 L .284 .043 L .13300002 .043 L .13300002 0 C .213 .002 .316 .002 .35000003 .002 C .411 .002 .487 .002 .56700006 0 L .56700006 .043 L .416 .043 L .416 .634 L .496 .634 C .64000007 .634 .648 .55 .657 .44000004 L .699 .44000004 L .679 .67700007 Z "/>
</symbol>
<symbol id="font_0_4">
<path d="M .244 .643 L .35600005 .643 L .35600005 .68600007 C .32000003 .684 .22000002 .684 .178 .684 C .136 .684 .036 .684 0 .68600007 L 0 .643 L .112 .643 L .112 .043 L 0 .043 L 0 0 C .036 .002 .136 .002 .178 .002 C .22000002 .002 .32000003 .002 .35600005 0 L .35600005 .043 L .244 .043 L .244 .643 Z "/>
</symbol>
<symbol id="font_0_a">
<path d="M .68200007 .62500008 C .68200007 .6470001 .683 .64800009 .70900008 .65200009 C .72700008 .65400007 .74700006 .65500006 .76500007 .65500006 L .78800007 .65500006 L .78800007 .6980001 C .76500007 .69600006 .68700006 .69600006 .65900006 .69600006 C .63100007 .69600006 .55300006 .69600006 .53000006 .6980001 L .53000006 .65500006 L .55300006 .65500006 C .58000007 .65500006 .582 .65500006 .60600009 .65200009 C .63500007 .64800009 .63600006 .6470001 .63600006 .62500008 L .63600006 .244 C .63600006 .101 .535 .043 .417 .043 C .242 .043 .23800002 .177 .23800002 .235 L .23800002 .65500006 L .34400005 .65500006 L .34400005 .6980001 C .315 .69600006 .208 .69600006 .172 .69600006 C .136 .69600006 .029 .69600006 0 .6980001 L 0 .65500006 L .106000009 .65500006 L .106000009 .242 C .106000009 .11000001 .212 0 .41300006 0 C .59800007 0 .68200007 .11500001 .68200007 .24100001 L .68200007 .62500008 Z "/>
</symbol>
<symbol id="font_0_8">
<path d="M .192 .45200003 C .092999998 .474 .09 .54600009 .09 .56000009 C .09 .61100009 .122999999 .6700001 .22 .6700001 C .317 .6700001 .404 .623 .425 .492 C .428 .47100003 .428 .47000004 .447 .47000004 C .46800003 .47000004 .46800003 .47300003 .46800003 .49600003 L .46800003 .6840001 C .46800003 .70300009 .46800003 .71000006 .45300005 .71000006 C .446 .71000006 .443 .70900008 .43400003 .69900009 L .391 .65000006 C .36600004 .67100009 .316 .71000006 .21900001 .71000006 C .076000008 .71000006 0 .62000009 0 .51100006 C 0 .444 .036000004 .397 .05 .38300003 C .102 .331 .13 .32500003 .234 .30200003 C .33400003 .28 .34600003 .278 .368 .257 C .381 .244 .41000004 .216 .41000004 .165 C .41000004 .12200001 .38900004 .043 .277 .043 C .18900001 .043 .05 .07300001 .042 .21900001 C .041000006 .237 .041000006 .24000001 .021000002 .24000001 C 0 .24000001 0 .237 0 .214 L 0 .026 C 0 .0069999999 0 0 .015000004 0 C .022000004 0 .022999999 .0009999992 .033000005 .01 C .044000005 .021000002 .053 .034 .077999997 .059 C .136 .013 .218 0 .278 0 C .43400003 0 .50000008 .106000009 .50000008 .212 C .50000008 .306 .438 .396 .32900004 .421 L .192 .45200003 Z "/>
</symbol>
<use xlink:href="#font_0_1" transform="matrix(68.85305,0,0,-68.85305,134.38834,143.10956)" fill="#22d3ee"/>
<use xlink:href="#font_0_6" transform="matrix(68.85305,0,0,-68.85305,190.36588,143.10956)" fill="#22d3ee"/>
<use xlink:href="#font_0_5" transform="matrix(68.85305,0,0,-68.85305,246.89423,142.28333)" fill="#22d3ee"/>
<use xlink:href="#font_0_9" transform="matrix(68.85305,0,0,-68.85305,307.69145,142.28333)" fill="#22d3ee"/>
<use xlink:href="#font_0_4" transform="matrix(68.85305,0,0,-68.85305,360.846,142.28333)" fill="#22d3ee"/>
<use xlink:href="#font_0_5" transform="matrix(68.85305,0,0,-68.85305,390.17747,142.28333)" fill="#22d3ee"/>
<use xlink:href="#font_0_a" transform="matrix(68.85305,0,0,-68.85305,450.76817,143.10956)" fill="#22d3ee"/>
<use xlink:href="#font_0_6" transform="matrix(68.85305,0,0,-68.85305,511.97853,143.10956)" fill="#22d3ee"/>
<use xlink:href="#font_0_a" transform="matrix(68.85305,0,0,-68.85305,568.50686,143.10956)" fill="#22d3ee"/>
<use xlink:href="#font_0_8" transform="matrix(68.85305,0,0,-68.85305,629.71719,143.10956)" fill="#22d3ee"/>
<symbol id="font_0_2">
<path d="M 0 .68600007 L 0 .643 L .106000009 .643 L .106000009 .043 L 0 .043 L 0 0 L .421 0 C .61300006 0 .76100006 .123 .76100006 .337 C .76100006 .563 .609 .68600007 .421 .68600007 L 0 .68600007 M .23300003 .043 L .23300003 .643 L .38300003 .643 C .47000004 .643 .54 .609 .577 .55700007 C .60600009 .51600006 .62500008 .467 .62500008 .33800004 C .62500008 .22100002 .61 .16900002 .57500007 .12200001 C .54 .076000008 .47300006 .043 .38300003 .043 L .23300003 .043 Z "/>
</symbol>
<symbol id="font_0_7">
<path d="M .49100007 .352 C .62600007 .388 .65900006 .46 .65900006 .51400008 C .65900006 .6140001 .554 .6980001 .36900003 .6980001 L 0 .6980001 L 0 .65500006 L .106000009 .65500006 L .106000009 .055 L 0 .055 L 0 .012 C .029 .014 .133 .014 .16900002 .014 C .20500002 .014 .31 .014 .339 .012 L .339 .055 L .23300003 .055 L .23300003 .33900003 L .352 .33900003 C .39200003 .33900003 .42400003 .32700003 .44600005 .301 C .476 .26700003 .476 .245 .476 .178 C .476 .11100001 .476 .07 .527 .036 C .57900008 .0009999992 .6610001 0 .683 0 C .785 0 .79700008 .09 .79700008 .10400001 C .79700008 .12100001 .78900006 .124000009 .776 .124000009 C .757 .124000009 .75600007 .117000009 .75500008 .10400001 C .75000008 .054000006 .71900007 .033 .69100007 .033 C .62700006 .033 .62000009 .10000001 .61200007 .192 C .60600009 .245 .59900006 .319 .49100007 .352 M .35000003 .372 L .23300003 .372 L .23300003 .65500006 L .352 .65500006 C .51500007 .65500006 .51800009 .5730001 .51800009 .51400008 C .51800009 .45900003 .517 .372 .35000003 .372 Z "/>
</symbol>
<symbol id="font_0_3">
<path d="M .66800007 .27 L .62600007 .27 C .605 .12100001 .568 .043 .394 .043 L .23800002 .043 L .23800002 .33200003 L .297 .33200003 C .393 .33200003 .403 .291 .403 .215 L .445 .215 L .445 .492 L .403 .492 C .403 .41700004 .393 .37500004 .297 .37500004 L .23800002 .37500004 L .23800002 .638 L .394 .638 C .54700008 .638 .58000007 .573 .595 .44400005 L .637 .44400005 L .60800006 .68100008 L 0 .68100008 L 0 .638 L .106000009 .638 L .106000009 .043 L 0 .043 L 0 0 L .62500008 0 L .66800007 .27 Z "/>
</symbol>
<use xlink:href="#font_0_2" transform="matrix(68.85305,0,0,-68.85305,988.9886,142.28333)" fill="#f472b6"/>
<use xlink:href="#font_0_4" transform="matrix(68.85305,0,0,-68.85305,1047.8579,142.28333)" fill="#f472b6"/>
<use xlink:href="#font_0_8" transform="matrix(68.85305,0,0,-68.85305,1078.8419,143.10956)" fill="#f472b6"/>
<use xlink:href="#font_0_1" transform="matrix(68.85305,0,0,-68.85305,1121.8751,143.10956)" fill="#f472b6"/>
<use xlink:href="#font_0_7" transform="matrix(68.85305,0,0,-68.85305,1176.2002,143.10956)" fill="#f472b6"/>
<use xlink:href="#font_0_3" transform="matrix(68.85305,0,0,-68.85305,1233.9679,142.28333)" fill="#f472b6"/>
<use xlink:href="#font_0_9" transform="matrix(68.85305,0,0,-68.85305,1284.9879,142.28333)" fill="#f472b6"/>
<use xlink:href="#font_0_3" transform="matrix(68.85305,0,0,-68.85305,1338.6245,142.28333)" fill="#f472b6"/>
<path transform="matrix(2.7777777,0,0,-2.7777777,801.2384,678.1468)" d="M -102.08987 133.22992 L -181.3782 133.22992 C -186.88056 133.22992 -191.34098 128.7695 -191.34098 123.26715 L -191.34098 75.16049 C -191.34098 69.65813 -186.88056 65.19772 -181.3782 65.19772 L -102.08987 65.19772 C -96.58752 65.19772 -92.1271 69.65813 -92.1271 75.16049 L -92.1271 123.26715 C -92.1271 128.7695 -96.58752 133.22992 -102.08987 133.22992 Z M -191.34098 65.19772 " fill-opacity=".5"/>
<path transform="matrix(2.7777777,0,0,-2.7777777,792.9361,669.8445)" d="M -102.08987 133.22992 L -181.3782 133.22992 C -186.88056 133.22992 -191.34098 128.7695 -191.34098 123.26715 L -191.34098 75.16049 C -191.34098 69.65813 -186.88056 65.19772 -181.3782 65.19772 L -102.08987 65.19772 C -96.58752 65.19772 -92.1271 69.65813 -92.1271 75.16049 L -92.1271 123.26715 C -92.1271 128.7695 -96.58752 133.22992 -102.08987 133.22992 Z M -191.34098 65.19772 " fill="#1e293b"/>
<path transform="matrix(2.7777777,0,0,-2.7777777,792.9361,669.8445)" stroke-width="1.49442" stroke-linecap="butt" stroke-miterlimit="10" stroke-linejoin="miter" fill="none" stroke="#22d3ee" d="M -102.08987 133.22992 L -181.3782 133.22992 C -186.88056 133.22992 -191.34098 128.7695 -191.34098 123.26715 L -191.34098 75.16049 C -191.34098 69.65813 -186.88056 65.19772 -181.3782 65.19772 L -102.08987 65.19772 C -96.58752 65.19772 -92.1271 69.65813 -92.1271 75.16049 L -92.1271 123.26715 C -92.1271 128.7695 -96.58752 133.22992 -102.08987 133.22992 Z M -191.34098 65.19772 "/>
<symbol id="font_1_1">
<path d="M .46300004 .679 C .46400003 .683 .46600006 .689 .46600006 .694 C .46600006 .704 .45600004 .704 .45400004 .704 C .45300005 .704 .40400005 .70000007 .39900003 .699 C .38200004 .698 .367 .69600006 .34900005 .69500008 C .32400004 .693 .31700004 .69200006 .31700004 .674 C .31700004 .66400006 .32500003 .66400006 .33900003 .66400006 C .38800005 .66400006 .38900004 .65500006 .38900004 .64500007 C .38900004 .639 .38700003 .63100007 .38600005 .628 L .32500003 .38500003 C .314 .411 .28700004 .451 .235 .451 C .121999997 .451 0 .305 0 .157 C 0 .058000003 .058000003 0 .126 0 C .18100001 0 .228 .043 .256 .076 C .26600004 .017 .31300003 0 .34300003 0 C .37300004 0 .397 .018000002 .41500003 .054000006 C .43100003 .088 .44500003 .14900002 .44500003 .15300001 C .44500003 .158 .44100005 .16200002 .43500004 .16200002 C .42600004 .16200002 .42500005 .157 .42100004 .142 C .40600003 .083000008 .38700003 .020000002 .34600003 .020000002 C .31700004 .020000002 .31500004 .046000005 .31500004 .066 C .31500004 .07 .31500004 .091 .32200004 .119 L .46300004 .679 M .26100005 .12900001 C .256 .112 .256 .11 .242 .091 C .22000002 .063 .176 .020000002 .12900001 .020000002 C .088 .020000002 .065 .057000005 .065 .116000007 C .065 .17100002 .096 .283 .114999998 .32500003 C .149 .395 .19600001 .43100003 .235 .43100003 C .30100004 .43100003 .314 .349 .314 .34100003 C .314 .34 .31100003 .327 .31000004 .32500003 L .26100005 .12900001 Z "/>
</symbol>
<use xlink:href="#font_1_1" transform="matrix(68.85305,0,0,-68.85305,384.47358,371.94416)" fill="#ffffff"/>
<path transform="matrix(2.7777777,0,0,-2.7777777,362.56388,400.62229)" stroke-width=".996" stroke-linecap="butt" stroke-miterlimit="10" stroke-linejoin="miter" fill="none" stroke="#ffffff" d="M 0 0 L 26.403 0 "/>
<symbol id="font_1_5">
<path d="M .44600005 .418 C .41400004 .412 .402 .388 .402 .36900003 C .402 .345 .42100004 .337 .43500004 .337 C .46500004 .337 .486 .363 .486 .39000003 C .486 .432 .43800003 .451 .39600004 .451 C .335 .451 .30100004 .391 .29200004 .372 C .26900003 .447 .20700002 .451 .18900001 .451 C .087 .451 .033000005 .32 .033000005 .298 C .033000005 .294 .037000006 .289 .044000005 .289 C .052000006 .289 .054 .29500003 .056000007 .299 C .09 .41 .157 .43100003 .18600002 .43100003 C .231 .43100003 .24000001 .389 .24000001 .365 C .24000001 .343 .23400003 .32 .222 .272 L .18800001 .135 C .17300001 .075 .14400001 .020000002 .091000009 .020000002 C .08600001 .020000002 .061 .020000002 .040000004 .033000005 C .076000008 .040000004 .08400001 .07 .08400001 .082 C .08400001 .102000009 .069000009 .114 .05 .114 C .026 .114 0 .093 0 .061000006 C 0 .019000002 .047000003 0 .09 0 C .13800001 0 .172 .038000004 .19300002 .079 C .20900002 .020000002 .259 0 .296 0 C .39800004 0 .45200003 .13100001 .45200003 .15300001 C .45200003 .158 .448 .16200002 .44200004 .16200002 C .43300004 .16200002 .432 .157 .42900003 .14900002 C .402 .061000006 .344 .020000002 .29900003 .020000002 C .26400004 .020000002 .245 .046000005 .245 .087000008 C .245 .109000008 .24900002 .125 .26500003 .19100002 L .3 .327 C .31500004 .387 .349 .43100003 .395 .43100003 C .397 .43100003 .425 .43100003 .44600005 .418 Z "/>
</symbol>
<use xlink:href="#font_1_1" transform="matrix(68.85305,0,0,-68.85305,365.318,465.7552)" fill="#ffffff"/>
<use xlink:href="#font_1_5" transform="matrix(68.85305,0,0,-68.85305,399.53797,465.7552)" fill="#ffffff"/>
<path transform="matrix(2.7777777,0,0,-2.7777777,801.2384,678.1468)" d="M 181.3782 133.22992 L 102.08987 133.22992 C 96.58752 133.22992 92.1271 128.7695 92.1271 123.26715 L 92.1271 75.16049 C 92.1271 69.65813 96.58752 65.19772 102.08987 65.19772 L 181.3782 65.19772 C 186.88056 65.19772 191.34098 69.65813 191.34098 75.16049 L 191.34098 123.26715 C 191.34098 128.7695 186.88056 133.22992 181.3782 133.22992 Z M 92.1271 65.19772 " fill-opacity=".5"/>
<path transform="matrix(2.7777777,0,0,-2.7777777,792.9361,669.8445)" d="M 181.3782 133.22992 L 102.08987 133.22992 C 96.58752 133.22992 92.1271 128.7695 92.1271 123.26715 L 92.1271 75.16049 C 92.1271 69.65813 96.58752 65.19772 102.08987 65.19772 L 181.3782 65.19772 C 186.88056 65.19772 191.34098 69.65813 191.34098 75.16049 L 191.34098 123.26715 C 191.34098 128.7695 186.88056 133.22992 181.3782 133.22992 Z M 92.1271 65.19772 " fill="#1e293b"/>
<path transform="matrix(2.7777777,0,0,-2.7777777,792.9361,669.8445)" stroke-width="1.49442" stroke-linecap="butt" stroke-miterlimit="10" stroke-linejoin="miter" fill="none" stroke="#f472b6" d="M 181.3782 133.22992 L 102.08987 133.22992 C 96.58752 133.22992 92.1271 128.7695 92.1271 123.26715 L 92.1271 75.16049 C 92.1271 69.65813 96.58752 65.19772 102.08987 65.19772 L 181.3782 65.19772 C 186.88056 65.19772 191.34098 69.65813 191.34098 75.16049 L 191.34098 123.26715 C 191.34098 128.7695 186.88056 133.22992 181.3782 133.22992 Z M 92.1271 65.19772 "/>
<symbol id="font_2_1">
<path d="M .36900003 .69000008 C .36100004 .707 .35700003 .707 .349 .707 C .337 .707 .33600004 .70500007 .32900004 .69100007 L .0050000029 .017 C .0040000008 .015000001 0 .006 0 .0050000005 C 0 .001 .001000002 0 .019000002 0 L .67800006 0 C .69600006 0 .697 .001 .697 .0050000005 C .697 .006 .693 .015000001 .69200006 .017 L .36900003 .69000008 M .32400004 .63100007 L .601 .056 L .046000005 .056 L .32400004 .63100007 Z "/>
</symbol>
<use xlink:href="#font_2_1" transform="matrix(68.85305,0,0,-68.85305,1162.6032,417.77503)" fill="#ffffff"/>
<path transform="matrix(2.7777777,0,0,-2.7777777,792.9361,669.8445)" stroke-width="2.98883" stroke-linecap="butt" stroke-miterlimit="10" stroke-linejoin="miter" fill="none" stroke="#facc15" d="M -78.80211 99.21382 L 78.80211 99.21382 "/>
<path transform="matrix(-2.7777777,0,0,2.7777777,589.45578,394.25053)" d="M 10.95343 0 L 3.71072 2.93816 L 6.14711 0 L 3.71072 -2.93816 Z " fill="#facc15"/>
<path transform="matrix(-2.7777777,0,0,2.7777777,589.45578,394.25053)" stroke-width="2.39177" stroke-linecap="butt" stroke-linejoin="round" fill="none" stroke="#facc15" d="M 10.95343 0 L 3.71072 2.93816 L 6.14711 0 L 3.71072 -2.93816 Z "/>
<path transform="matrix(2.7777777,0,0,-2.7777777,996.41647,394.25053)" d="M 10.95343 0 L 3.71072 2.93816 L 6.14711 0 L 3.71072 -2.93816 Z " fill="#facc15"/>
<path transform="matrix(2.7777777,0,0,-2.7777777,996.41647,394.25053)" stroke-width="2.39177" stroke-linecap="butt" stroke-linejoin="round" fill="none" stroke="#facc15" d="M 10.95343 0 L 3.71072 2.93816 L 6.14711 0 L 3.71072 -2.93816 Z "/>
<path transform="matrix(2.7777777,0,0,-2.7777777,801.2384,678.1468)" d="M -102.08987 48.18948 L -181.3782 48.18948 C -186.88056 48.18948 -191.34098 43.72908 -191.34098 38.22672 L -191.34098 -9.87993 C -191.34098 -15.38228 -186.88056 -19.8427 -181.3782 -19.8427 L -102.08987 -19.8427 C -96.58752 -19.8427 -92.1271 -15.38228 -92.1271 -9.87993 L -92.1271 38.22672 C -92.1271 43.72908 -96.58752 48.18948 -102.08987 48.18948 Z M -191.34098 -19.8427 " fill-opacity=".5"/>
<path transform="matrix(2.7777777,0,0,-2.7777777,792.9361,669.8445)" d="M -102.08987 48.18948 L -181.3782 48.18948 C -186.88056 48.18948 -191.34098 43.72908 -191.34098 38.22672 L -191.34098 -9.87993 C -191.34098 -15.38228 -186.88056 -19.8427 -181.3782 -19.8427 L -102.08987 -19.8427 C -96.58752 -19.8427 -92.1271 -15.38228 -92.1271 -9.87993 L -92.1271 38.22672 C -92.1271 43.72908 -96.58752 48.18948 -102.08987 48.18948 Z M -191.34098 -19.8427 " fill="#1e293b"/>
<path transform="matrix(2.7777777,0,0,-2.7777777,792.9361,669.8445)" stroke-width="1.49442" stroke-linecap="butt" stroke-miterlimit="10" stroke-linejoin="miter" fill="none" stroke="#22d3ee" d="M -102.08987 48.18948 L -181.3782 48.18948 C -186.88056 48.18948 -191.34098 43.72908 -191.34098 38.22672 L -191.34098 -9.87993 C -191.34098 -15.38228 -186.88056 -19.8427 -181.3782 -19.8427 L -102.08987 -19.8427 C -96.58752 -19.8427 -92.1271 -15.38228 -92.1271 -9.87993 L -92.1271 38.22672 C -92.1271 43.72908 -96.58752 48.18948 -102.08987 48.18948 Z M -191.34098 -19.8427 "/>
<symbol id="font_3_2">
<path d="M .048 .045000078 C .080000009 .04699993 .09700001 .069000009 .09700001 .0940001 C .09700001 .1270001 .072000008 .14300013 .049000004 .14300013 C .024999999 .14300013 0 .12800002 0 .092999938 C 0 .042000057 .050000006 0 .11100001 0 C .263 0 .32000003 .23400009 .39100004 .52400007 C .46800006 .84000006 .53300008 1.159 .587 1.48 C .624 1.6930001 .661 1.8930001 .69500008 2.022 C .707 2.071 .74100008 2.2 .78000006 2.2 C .81100007 2.2 .836 2.1810003 .84000006 2.177 C .80700007 2.1750003 .79 2.153 .79 2.128 C .79 2.095 .81500008 2.079 .83800008 2.079 C .86200007 2.079 .887 2.094 .887 2.1290003 C .887 2.183 .83300009 2.2220002 .77800008 2.2220002 C .702 2.2220002 .646 2.1130002 .591 1.9090002 C .58800008 1.8980001 .45200003 1.3960002 .34200005 .7420001 C .316 .589 .28700004 .42200006 .254 .283 C .23600003 .21000004 .19 .022000075 .109000008 .022000075 C .07300001 .022000075 .049000004 .045000078 .048 .045000078 Z "/>
</symbol>
<use xlink:href="#font_3_2" transform="matrix(69.185,0,0,-69.185,362.77989,707.4847)" fill="#ffffff"/>
<path transform="matrix(2.7777777,0,0,-2.7777777,801.2384,678.1468)" d="M 181.3782 48.18948 L 102.08987 48.18948 C 96.58752 48.18948 92.1271 43.72908 92.1271 38.22672 L 92.1271 -9.87993 C 92.1271 -15.38228 96.58752 -19.8427 102.08987 -19.8427 L 181.3782 -19.8427 C 186.88056 -19.8427 191.34098 -15.38228 191.34098 -9.87993 L 191.34098 38.22672 C 191.34098 43.72908 186.88056 48.18948 181.3782 48.18948 Z M 92.1271 -19.8427 " fill-opacity=".5"/>
<path transform="matrix(2.7777777,0,0,-2.7777777,792.9361,669.8445)" d="M 181.3782 48.18948 L 102.08987 48.18948 C 96.58752 48.18948 92.1271 43.72908 92.1271 38.22672 L 92.1271 -9.87993 C 92.1271 -15.38228 96.58752 -19.8427 102.08987 -19.8427 L 181.3782 -19.8427 C 186.88056 -19.8427 191.34098 -15.38228 191.34098 -9.87993 L 191.34098 38.22672 C 191.34098 43.72908 186.88056 48.18948 181.3782 48.18948 Z M 92.1271 -19.8427 " fill="#1e293b"/>
<path transform="matrix(2.7777777,0,0,-2.7777777,792.9361,669.8445)" stroke-width="1.49442" stroke-linecap="butt" stroke-miterlimit="10" stroke-linejoin="miter" fill="none" stroke="#f472b6" d="M 181.3782 48.18948 L 102.08987 48.18948 C 96.58752 48.18948 92.1271 43.72908 92.1271 38.22672 L 92.1271 -9.87993 C 92.1271 -15.38228 96.58752 -19.8427 102.08987 -19.8427 L 181.3782 -19.8427 C 186.88056 -19.8427 191.34098 -15.38228 191.34098 -9.87993 L 191.34098 38.22672 C 191.34098 43.72908 186.88056 48.18948 181.3782 48.18948 Z M 92.1271 -19.8427 "/>
<symbol id="font_3_1">
<path d="M 1.21 0 L 1.3310001 .32000006 L 1.3060001 .32000006 C 1.2670001 .21600008 1.161 .148 1.046 .11800003 C 1.0250001 .113000039 .92700007 .08700001 .735 .08700001 L .132 .08700001 L .64100006 .6840001 C .64800009 .6920001 .65000006 .69500008 .65000006 .70000007 C .65000006 .7020001 .65000006 .70500007 .64300009 .71500006 L .17700002 1.3520001 L .725 1.3520001 C .859 1.3520001 .95000007 1.338 .9590001 1.3360001 C 1.013 1.3280001 1.1 1.3110001 1.179 1.261 C 1.2040001 1.2450001 1.2720001 1.2 1.3060001 1.1190001 L 1.3310001 1.1190001 L 1.21 1.4000001 L .028000005 1.4000001 C .0050000029 1.4000001 .0040000008 1.399 .001000002 1.3930001 C 0 1.3900001 0 1.371 0 1.3600001 L .52900007 .63600006 L .011 .029000044 C .001000002 .01700008 .001000002 .012000084 .001000002 .011000037 C .001000002 0 .009999998 0 .028000005 0 L 1.21 0 Z "/>
</symbol>
<use xlink:href="#font_3_1" transform="matrix(69.185,0,0,-69.185,1134.8076,685.2729)" fill="#ffffff"/>
<path transform="matrix(2.7777777,0,0,-2.7777777,792.9361,669.8445)" stroke-width="2.98883" stroke-linecap="butt" stroke-miterlimit="10" stroke-linejoin="miter" fill="none" stroke="#facc15" d="M -78.80211 14.17339 L 78.80211 14.17339 "/>
<path transform="matrix(-2.7777777,0,0,2.7777777,589.45578,630.47396)" d="M 10.95343 0 L 3.71072 2.93816 L 6.14711 0 L 3.71072 -2.93816 Z " fill="#facc15"/>
<path transform="matrix(-2.7777777,0,0,2.7777777,589.45578,630.47396)" stroke-width="2.39177" stroke-linecap="butt" stroke-linejoin="round" fill="none" stroke="#facc15" d="M 10.95343 0 L 3.71072 2.93816 L 6.14711 0 L 3.71072 -2.93816 Z "/>
<path transform="matrix(2.7777777,0,0,-2.7777777,996.41647,630.47396)" d="M 10.95343 0 L 3.71072 2.93816 L 6.14711 0 L 3.71072 -2.93816 Z " fill="#facc15"/>
<path transform="matrix(2.7777777,0,0,-2.7777777,996.41647,630.47396)" stroke-width="2.39177" stroke-linecap="butt" stroke-linejoin="round" fill="none" stroke="#facc15" d="M 10.95343 0 L 3.71072 2.93816 L 6.14711 0 L 3.71072 -2.93816 Z "/>
<path transform="matrix(2.7777777,0,0,-2.7777777,801.2384,678.1468)" d="M -102.08987 -36.8509 L -181.3782 -36.8509 C -186.88056 -36.8509 -191.34098 -41.31133 -191.34098 -46.81367 L -191.34098 -94.92033 C -191.34098 -100.4227 -186.88056 -104.8831 -181.3782 -104.8831 L -102.08987 -104.8831 C -96.58752 -104.8831 -92.1271 -100.4227 -92.1271 -94.92033 L -92.1271 -46.81367 C -92.1271 -41.31133 -96.58752 -36.8509 -102.08987 -36.8509 Z M -191.34098 -104.8831 " fill-opacity=".5"/>
<path transform="matrix(2.7777777,0,0,-2.7777777,792.9361,669.8445)" d="M -102.08987 -36.8509 L -181.3782 -36.8509 C -186.88056 -36.8509 -191.34098 -41.31133 -191.34098 -46.81367 L -191.34098 -94.92033 C -191.34098 -100.4227 -186.88056 -104.8831 -181.3782 -104.8831 L -102.08987 -104.8831 C -96.58752 -104.8831 -92.1271 -100.4227 -92.1271 -94.92033 L -92.1271 -46.81367 C -92.1271 -41.31133 -96.58752 -36.8509 -102.08987 -36.8509 Z M -191.34098 -104.8831 " fill="#1e293b"/>
<path transform="matrix(2.7777777,0,0,-2.7777777,792.9361,669.8445)" stroke-width="1.49442" stroke-linecap="butt" stroke-miterlimit="10" stroke-linejoin="miter" fill="none" stroke="#22d3ee" d="M -102.08987 -36.8509 L -181.3782 -36.8509 C -186.88056 -36.8509 -191.34098 -41.31133 -191.34098 -46.81367 L -191.34098 -94.92033 C -191.34098 -100.4227 -186.88056 -104.8831 -181.3782 -104.8831 L -102.08987 -104.8831 C -96.58752 -104.8831 -92.1271 -100.4227 -92.1271 -94.92033 L -92.1271 -46.81367 C -92.1271 -41.31133 -96.58752 -36.8509 -102.08987 -36.8509 Z M -191.34098 -104.8831 "/>
<use xlink:href="#font_1_5" transform="matrix(68.85305,0,0,-68.85305,368.3362,898.2024)" fill="#ffffff"/>
<symbol id="font_1_3">
<path d="M .22600001 .679 C .227 .683 .229 .689 .229 .694 C .229 .704 .21900001 .704 .21700001 .704 C .21600002 .704 .18 .70100006 .162 .699 C .145 .698 .13 .69600006 .112 .69500008 C .088 .693 .081 .69200006 .081 .674 C .081 .66400006 .091000009 .66400006 .100999999 .66400006 C .15200001 .66400006 .15200001 .65500006 .15200001 .64500007 C .15200001 .64100006 .15200001 .639 .147 .621 L .0040000008 .049000004 C 0 .034 0 .032 0 .026 C 0 .0040000008 .017 0 .026999999 0 C .055000005 0 .061 .022 .069000009 .053000004 L .116 .24000001 C .18800001 .23200003 .231 .202 .231 .15400002 C .231 .14800002 .231 .14400001 .22800002 .12900001 C .224 .114 .224 .102000009 .224 .097 C .224 .039 .262 0 .31300003 0 C .35900004 0 .38300003 .042000005 .391 .056000007 C .412 .093 .425 .14900002 .425 .15300001 C .425 .158 .421 .16200002 .41500003 .16200002 C .40600003 .16200002 .405 .158 .40100003 .142 C .38700003 .09 .36600004 .020000002 .315 .020000002 C .29500003 .020000002 .282 .030000002 .282 .068 C .282 .087000008 .286 .109000008 .29000003 .124000009 C .294 .142 .294 .143 .294 .15500002 C .294 .21400002 .241 .24700003 .149 .259 C .185 .28100003 .22100002 .32 .23500002 .335 C .292 .39900003 .331 .43100003 .377 .43100003 C .4 .43100003 .40600003 .425 .41300003 .419 C .37600003 .41500003 .36200003 .389 .36200003 .36900003 C .36200003 .345 .381 .337 .395 .337 C .42200003 .337 .44600005 .36 .44600005 .39200003 C .44600005 .421 .423 .451 .37800003 .451 C .323 .451 .278 .412 .20700002 .33200003 C .197 .32 .16 .282 .122999999 .268 L .22600001 .679 Z "/>
</symbol>
<use xlink:href="#font_1_3" transform="matrix(47.820558,0,0,-47.820558,407.34959,869.56436)" fill="#ffffff"/>
<path transform="matrix(2.7777777,0,0,-2.7777777,801.2384,678.1468)" d="M 181.3782 -36.8509 L 102.08987 -36.8509 C 96.58752 -36.8509 92.1271 -41.31133 92.1271 -46.81367 L 92.1271 -94.92033 C 92.1271 -100.4227 96.58752 -104.8831 102.08987 -104.8831 L 181.3782 -104.8831 C 186.88056 -104.8831 191.34098 -100.4227 191.34098 -94.92033 L 191.34098 -46.81367 C 191.34098 -41.31133 186.88056 -36.8509 181.3782 -36.8509 Z M 92.1271 -104.8831 " fill-opacity=".5"/>
<path transform="matrix(2.7777777,0,0,-2.7777777,792.9361,669.8445)" d="M 181.3782 -36.8509 L 102.08987 -36.8509 C 96.58752 -36.8509 92.1271 -41.31133 92.1271 -46.81367 L 92.1271 -94.92033 C 92.1271 -100.4227 96.58752 -104.8831 102.08987 -104.8831 L 181.3782 -104.8831 C 186.88056 -104.8831 191.34098 -100.4227 191.34098 -94.92033 L 191.34098 -46.81367 C 191.34098 -41.31133 186.88056 -36.8509 181.3782 -36.8509 Z M 92.1271 -104.8831 " fill="#1e293b"/>
<path transform="matrix(2.7777777,0,0,-2.7777777,792.9361,669.8445)" stroke-width="1.49442" stroke-linecap="butt" stroke-miterlimit="10" stroke-linejoin="miter" fill="none" stroke="#f472b6" d="M 181.3782 -36.8509 L 102.08987 -36.8509 C 96.58752 -36.8509 92.1271 -41.31133 92.1271 -46.81367 L 92.1271 -94.92033 C 92.1271 -100.4227 96.58752 -104.8831 102.08987 -104.8831 L 181.3782 -104.8831 C 186.88056 -104.8831 191.34098 -100.4227 191.34098 -94.92033 L 191.34098 -46.81367 C 191.34098 -41.31133 186.88056 -36.8509 181.3782 -36.8509 Z M 92.1271 -104.8831 "/>
<symbol id="font_1_4">
<path d="M .17900002 .303 C .18100001 .30900003 .20600002 .359 .24300002 .391 C .269 .41500003 .303 .43100003 .342 .43100003 C .382 .43100003 .396 .40100003 .396 .361 C .396 .304 .35500003 .19000001 .335 .136 C .326 .112 .321 .099 .321 .081 C .321 .036000004 .352 0 .4 0 C .49300004 0 .528 .14700002 .528 .15300001 C .528 .158 .524 .16200002 .518 .16200002 C .509 .16200002 .508 .15900001 .503 .142 C .48000003 .060000004 .442 .020000002 .403 .020000002 C .393 .020000002 .377 .021000002 .377 .053000004 C .377 .078 .388 .108 .39400003 .122 C .414 .17700002 .456 .289 .456 .34600003 C .456 .40600003 .421 .451 .345 .451 C .256 .451 .20900002 .388 .19100002 .363 C .18800001 .42000003 .14700002 .451 .10300001 .451 C .071 .451 .049000004 .432 .032000007 .398 C .014 .36200003 0 .30200003 0 .298 C 0 .294 .0040000008 .289 .011000002 .289 C .019000004 .289 .020000002 .29 .026000003 .313 C .042000005 .374 .060000004 .43100003 .1 .43100003 C .123 .43100003 .13100001 .41500003 .13100001 .38500003 C .13100001 .363 .121 .324 .114 .293 L .086 .18500002 C .082 .16600001 .071 .12100001 .066 .103 C .059 .077 .048 .030000002 .048 .025000003 C .048 .011000001 .059 0 .074 0 C .086 0 .1 .0060000007 .108 .021000002 C .11000001 .026 .11900001 .061000006 .124000009 .081 L .14600002 .17100002 L .17900002 .303 Z "/>
</symbol>
<use xlink:href="#font_1_4" transform="matrix(68.85305,0,0,-68.85305,1154.7034,898.2024)" fill="#ffffff"/>
<use xlink:href="#font_1_3" transform="matrix(47.820558,0,0,-47.820558,1195.719,869.56436)" fill="#ffffff"/>
<path transform="matrix(2.7777777,0,0,-2.7777777,1193.0889,875.86398)" stroke-width=".697" stroke-linecap="butt" stroke-miterlimit="10" stroke-linejoin="miter" fill="none" stroke="#ffffff" d="M 0 0 L 9.843 0 "/>
<path transform="matrix(2.7777777,0,0,-2.7777777,792.9361,669.8445)" stroke-width="2.98883" stroke-linecap="butt" stroke-miterlimit="10" stroke-linejoin="miter" fill="none" stroke="#facc15" d="M -78.80211 -70.867 L 78.80211 -70.867 "/>
<path transform="matrix(-2.7777777,0,0,2.7777777,589.45578,866.69729)" d="M 10.95343 0 L 3.71072 2.93816 L 6.14711 0 L 3.71072 -2.93816 Z " fill="#facc15"/>
<path transform="matrix(-2.7777777,0,0,2.7777777,589.45578,866.69729)" stroke-width="2.39177" stroke-linecap="butt" stroke-linejoin="round" fill="none" stroke="#facc15" d="M 10.95343 0 L 3.71072 2.93816 L 6.14711 0 L 3.71072 -2.93816 Z "/>
<path transform="matrix(2.7777777,0,0,-2.7777777,996.41647,866.69729)" d="M 10.95343 0 L 3.71072 2.93816 L 6.14711 0 L 3.71072 -2.93816 Z " fill="#facc15"/>
<path transform="matrix(2.7777777,0,0,-2.7777777,996.41647,866.69729)" stroke-width="2.39177" stroke-linecap="butt" stroke-linejoin="round" fill="none" stroke="#facc15" d="M 10.95343 0 L 3.71072 2.93816 L 6.14711 0 L 3.71072 -2.93816 Z "/>
<path transform="matrix(2.7777777,0,0,-2.7777777,801.2384,678.1468)" d="M -102.08987 -121.89134 L -181.3782 -121.89134 C -186.88056 -121.89134 -191.34098 -126.35175 -191.34098 -131.85411 L -191.34098 -179.96077 C -191.34098 -185.46312 -186.88056 -189.92354 -181.3782 -189.92354 L -102.08987 -189.92354 C -96.58752 -189.92354 -92.1271 -185.46312 -92.1271 -179.96077 L -92.1271 -131.85411 C -92.1271 -126.35175 -96.58752 -121.89134 -102.08987 -121.89134 Z M -191.34098 -189.92354 " fill-opacity=".5"/>
<path transform="matrix(2.7777777,0,0,-2.7777777,792.9361,669.8445)" d="M -102.08987 -121.89134 L -181.3782 -121.89134 C -186.88056 -121.89134 -191.34098 -126.35175 -191.34098 -131.85411 L -191.34098 -179.96077 C -191.34098 -185.46312 -186.88056 -189.92354 -181.3782 -189.92354 L -102.08987 -189.92354 C -96.58752 -189.92354 -92.1271 -185.46312 -92.1271 -179.96077 L -92.1271 -131.85411 C -92.1271 -126.35175 -96.58752 -121.89134 -102.08987 -121.89134 Z M -191.34098 -189.92354 " fill="#1e293b"/>
<path transform="matrix(2.7777777,0,0,-2.7777777,792.9361,669.8445)" stroke-width="1.49442" stroke-linecap="butt" stroke-miterlimit="10" stroke-linejoin="miter" fill="none" stroke="#22d3ee" d="M -102.08987 -121.89134 L -181.3782 -121.89134 C -186.88056 -121.89134 -191.34098 -126.35175 -191.34098 -131.85411 L -191.34098 -179.96077 C -191.34098 -185.46312 -186.88056 -189.92354 -181.3782 -189.92354 L -102.08987 -189.92354 C -96.58752 -189.92354 -92.1271 -185.46312 -92.1271 -179.96077 L -92.1271 -131.85411 C -92.1271 -126.35175 -96.58752 -121.89134 -102.08987 -121.89134 Z M -191.34098 -189.92354 "/>
<symbol id="font_1_2">
<path d="M .134 .24200002 C .16100002 .24200002 .22900002 .24400002 .277 .262 C .35300005 .291 .36 .349 .36 .367 C .36 .411 .32200004 .451 .25600005 .451 C .15100001 .451 0 .356 0 .17800002 C 0 .073 .060000004 0 .15100001 0 C .287 0 .37300004 .106 .37300004 .119 C .37300004 .125 .36700005 .13000001 .36300005 .13000001 C .36 .13000001 .35900004 .12900001 .35000003 .120000008 C .286 .035 .19100002 .020000002 .15300001 .020000002 C .096 .020000002 .06600001 .065000008 .06600001 .13900002 C .06600001 .15300001 .06600001 .17800002 .081 .24200002 L .134 .24200002 M .08600001 .262 C .12900001 .416 .22400002 .43100003 .25600005 .43100003 C .3 .43100003 .33000005 .405 .33000005 .367 C .33000005 .262 .17 .262 .128 .262 L .08600001 .262 Z "/>
</symbol>
<use xlink:href="#font_1_2" transform="matrix(68.85305,0,0,-68.85305,372.71504,1128.1135)" fill="#ffffff"/>
<use xlink:href="#font_1_5" transform="matrix(47.820558,0,0,-47.820558,402.20283,1099.4725)" fill="#ffffff"/>
<path transform="matrix(2.7777777,0,0,-2.7777777,801.2384,678.1468)" d="M 181.3782 -121.89134 L 102.08987 -121.89134 C 96.58752 -121.89134 92.1271 -126.35175 92.1271 -131.85411 L 92.1271 -179.96077 C 92.1271 -185.46312 96.58752 -189.92354 102.08987 -189.92354 L 181.3782 -189.92354 C 186.88056 -189.92354 191.34098 -185.46312 191.34098 -179.96077 L 191.34098 -131.85411 C 191.34098 -126.35175 186.88056 -121.89134 181.3782 -121.89134 Z M 92.1271 -189.92354 " fill-opacity=".5"/>
<path transform="matrix(2.7777777,0,0,-2.7777777,792.9361,669.8445)" d="M 181.3782 -121.89134 L 102.08987 -121.89134 C 96.58752 -121.89134 92.1271 -126.35175 92.1271 -131.85411 L 92.1271 -179.96077 C 92.1271 -185.46312 96.58752 -189.92354 102.08987 -189.92354 L 181.3782 -189.92354 C 186.88056 -189.92354 191.34098 -185.46312 191.34098 -179.96077 L 191.34098 -131.85411 C 191.34098 -126.35175 186.88056 -121.89134 181.3782 -121.89134 Z M 92.1271 -189.92354 " fill="#1e293b"/>
<path transform="matrix(2.7777777,0,0,-2.7777777,792.9361,669.8445)" stroke-width="1.49442" stroke-linecap="butt" stroke-miterlimit="10" stroke-linejoin="miter" fill="none" stroke="#f472b6" d="M 181.3782 -121.89134 L 102.08987 -121.89134 C 96.58752 -121.89134 92.1271 -126.35175 92.1271 -131.85411 L 92.1271 -179.96077 C 92.1271 -185.46312 96.58752 -189.92354 102.08987 -189.92354 L 181.3782 -189.92354 C 186.88056 -189.92354 191.34098 -185.46312 191.34098 -179.96077 L 191.34098 -131.85411 C 191.34098 -126.35175 186.88056 -121.89134 181.3782 -121.89134 Z M 92.1271 -189.92354 "/>
<symbol id="font_2_2">
<path d="M .37600003 .155 L .358 .155 C .34800003 .08400001 .34 .072000008 .336 .066 C .331 .058000003 .259 .058000003 .245 .058000003 L .053000004 .058000003 C .08900001 .097 .15900001 .16800002 .24400002 .25 C .305 .30800004 .37600003 .37600003 .37600003 .47500003 C .37600003 .59300008 .282 .661 .17700002 .661 C .067 .661 0 .564 0 .47400005 C 0 .43500004 .029 .43 .041 .43 C .051000008 .43 .08100001 .43600003 .08100001 .47100003 C .08100001 .50200006 .055 .51100006 .041 .51100006 C .035000005 .51100006 .029 .51000007 .024999999 .508 C .044 .59300008 .102000009 .63500007 .16300002 .63500007 C .25 .63500007 .307 .56600007 .307 .47500003 C .307 .388 .256 .31300003 .199 .24800001 L 0 .023000002 L 0 0 L .352 0 L .37600003 .155 Z "/>
</symbol>
<use xlink:href="#font_2_2" transform="matrix(68.85305,0,0,-68.85305,1159.0036,1127.425)" fill="#ffffff"/>
<use xlink:href="#font_1_4" transform="matrix(47.820558,0,0,-47.820558,1189.0494,1099.4725)" fill="#ffffff"/>
<path transform="matrix(2.7777777,0,0,-2.7777777,792.9361,669.8445)" stroke-width="2.98883" stroke-linecap="butt" stroke-miterlimit="10" stroke-linejoin="miter" fill="none" stroke="#facc15" d="M -78.80211 -155.90744 L 78.80211 -155.90744 "/>
<path transform="matrix(-2.7777777,0,0,2.7777777,589.45578,1102.9207)" d="M 10.95343 0 L 3.71072 2.93816 L 6.14711 0 L 3.71072 -2.93816 Z " fill="#facc15"/>
<path transform="matrix(-2.7777777,0,0,2.7777777,589.45578,1102.9207)" stroke-width="2.39177" stroke-linecap="butt" stroke-linejoin="round" fill="none" stroke="#facc15" d="M 10.95343 0 L 3.71072 2.93816 L 6.14711 0 L 3.71072 -2.93816 Z "/>
<path transform="matrix(2.7777777,0,0,-2.7777777,996.41647,1102.9207)" d="M 10.95343 0 L 3.71072 2.93816 L 6.14711 0 L 3.71072 -2.93816 Z " fill="#facc15"/>
<path transform="matrix(2.7777777,0,0,-2.7777777,996.41647,1102.9207)" stroke-width="2.39177" stroke-linecap="butt" stroke-linejoin="round" fill="none" stroke="#facc15" d="M 10.95343 0 L 3.71072 2.93816 L 6.14711 0 L 3.71072 -2.93816 Z "/>
</g>
</svg>
