<svg xmlns="http://www.w3.org/2000/svg" xmlns:xlink="http://www.w3.org/1999/xlink" width="568.872" height="319.481" viewBox="0 0 426.654 239.611"><path d="M0 239.611h426.654V0H0z" fill="#f7f7f7"/><path d="M18.264 219.688V19.925a4.981 4.981 0 0 1 4.981-4.982h383.488a4.981 4.981 0 0 1 4.981 4.982v199.763a4.981 4.981 0 0 1-4.981 4.981H23.245a4.981 4.981 0 0 1-4.981-4.981zm393.45-204.745" fill="#f7f7f7"/><symbol id="a"><path d="M.679.677H.02L0 .44h.042c.009.109.017.194.161.194h.081V.043H.133V0c.08.002.183.002.217.002.061 0 .137 0 .217-.002v.043H.416v.591h.08C.64.634.648.55.657.44h.042l-.02.237z"/></symbol><symbol id="b"><path d="M.173.225c0 .033.007.192.124.192A.057.057 0 0 1 .276.371C.276.33.309.313.334.313S.392.33.392.371C.392.422.34.45.292.45.213.45.179.381.165.339H.164V.45L0 .442V.399c.062 0 .069 0 .069-.039V.043H0V0c.023.002.098.002.126.002.029 0 .11 0 .134-.002v.043H.173v.182z"/></symbol><symbol id="c"><path d="M.426.305c0 .092-.073.154-.214.154C.156.459.038.454.038.37.038.328.07.31.097.31c.03 0 .059.021.059.059a.055.055 0 0 1-.024.048c.033.009.057.009.076.009.068 0 .109-.038.109-.12v-.04C.159.266 0 .222 0 .111 0 .02.116 0 .185 0c.077 0 .126.042.146.086 0-.037 0-.08.101-.08h.051c.021 0 .029 0 .029.022 0 .021-.009.021-.023.021C.426.05.426.066.426.089v.216M.317.145C.317.051.233.033.201.033c-.049 0-.09.033-.09.079 0 .091.108.122.206.127V.145z"/></symbol><symbol id="d"><path d="M.309.692V.649c.062 0 .069 0 .069-.039V.408a.202.202 0 0 1-.135.048C.101.456 0 .368 0 .228 0 .085.099 0 .232 0c.055 0 .102.019.141.052V0l.178.006v.043c-.062 0-.069 0-.069.039V.7L.309.692M.373.107C.331.046.28.033.244.033.12.033.12.16.12.226c0 .047 0 .097.022.135.031.056.09.062.113.062A.146.146 0 0 0 .373.361V.107z"/></symbol><symbol id="e"><path d="M.179.623a.072.072 0 0 1-.072.072.072.072 0 0 1-.072-.072c0-.038.031-.072.072-.072.039 0 .072.031.072.072M.003.442V.399c.059 0 .066 0 .066-.039V.043H0V0c.023.002.092.002.119.002.028 0 .092 0 .116-.002v.043H.173V.45L.003.442z"/></symbol><symbol id="f"><path d="M.19.407h.144V.45H.19v.191H.148C.147.542.099.443 0 .44V.407h.081V.129C.081.023.163 0 .235 0c.074 0 .118.056.118.13v.053H.311V.131C.311.065.281.036.25.036c-.06 0-.06.067-.06.09v.281z"/></symbol><symbol id="g"><path d="M.499.225C.499.36.407.459.25.459.087.459 0 .355 0 .225 0 .094.092 0 .249 0c.163 0 .25.099.25.225M.25.036C.12.036.12.153.12.235c0 .047 0 .097.019.133.022.04.067.058.11.058.057 0 .093-.027.11-.055.02-.036.02-.088.02-.136 0-.083 0-.199-.129-.199z"/></symbol><symbol id="h"><path d="M.489.306C.489.401.448.45.338.45A.176.176 0 0 1 .17.34H.169v.11L0 .442V.399c.062 0 .069 0 .069-.039V.043H0V0c.023.002.095.002.123.002.028 0 .101 0 .124-.002v.043H.178v.213c0 .108.08.161.144.161.037 0 .058-.024.058-.1V.043H.311V0c.023.002.095.002.123.002.028 0 .101 0 .124-.002v.043H.489v.263z"/></symbol><symbol id="i"><path d="M.173.694 0 .686V.643c.062 0 .069 0 .069-.039V.043H0V0c.023.002.094.002.121.002.027 0 .098 0 .121-.002v.043H.173v.651z"/></symbol><symbol id="j"><path d="M.419.677C.412.695.41.7.386.7.361.7.359.695.352.677L.104.067C.097.051.097.049.069.046.044.043.04.043.018.043H0V0c.026.002.086.002.115.002.027 0 .1 0 .123-.002v.043c-.022 0-.06 0-.088.011l.005.015.053.13h.268L.539.043H.445V0c.032.002.129.002.167.002.032 0 .134 0 .159-.002v.043H.676L.419.677M.342.53.458.242H.225L.342.53z"/></symbol><symbol id="k"><path d="M.421.227c.023 0 .029 0 .029.025 0 .03-.007.105-.053.152a.211.211 0 0 1-.156.055C.085.459 0 .357 0 .231 0 .091.103 0 .254 0 .405 0 .45.106.45.123.45.138.435.138.429.138.413.138.412.135.406.122.38.057.314.036.266.036.121.036.12.171.12.227h.301M.12.256c.002.041.003.08.024.116a.111.111 0 0 0 .097.054c.107 0 .116-.12.117-.17H.12z"/></symbol><use xlink:href="#a" transform="matrix(11.9552 0 0 -11.9552 44.845 32.815)" fill="#b30000"/><use xlink:href="#b" transform="matrix(11.9552 0 0 -11.9552 52.999 32.815)" fill="#b30000"/><use xlink:href="#c" transform="matrix(11.9552 0 0 -11.9552 58.486 32.887)" fill="#b30000"/><use xlink:href="#d" transform="matrix(11.9552 0 0 -11.9552 65.073 32.887)" fill="#b30000"/><use xlink:href="#e" transform="matrix(11.9552 0 0 -11.9552 72.617 32.815)" fill="#b30000"/><use xlink:href="#f" transform="matrix(11.9552 0 0 -11.9552 76.084 32.887)" fill="#b30000"/><use xlink:href="#e" transform="matrix(11.9552 0 0 -11.9552 81.595 32.815)" fill="#b30000"/><use xlink:href="#g" transform="matrix(11.9552 0 0 -11.9552 85.182 32.887)" fill="#b30000"/><use xlink:href="#h" transform="matrix(11.9552 0 0 -11.9552 92.044 32.815)" fill="#b30000"/><use xlink:href="#c" transform="matrix(11.9552 0 0 -11.9552 99.42 32.887)" fill="#b30000"/><use xlink:href="#i" transform="matrix(11.9552 0 0 -11.9552 106.08 32.815)" fill="#b30000"/><use xlink:href="#j" transform="matrix(11.9552 0 0 -11.9552 114.245 32.815)" fill="#b30000"/><use xlink:href="#f" transform="matrix(11.9552 0 0 -11.9552 123.821 32.887)" fill="#b30000"/><use xlink:href="#f" transform="matrix(11.9552 0 0 -11.9552 129.058 32.887)" fill="#b30000"/><use xlink:href="#k" transform="matrix(11.9552 0 0 -11.9552 134.414 32.887)" fill="#b30000"/><use xlink:href="#h" transform="matrix(11.9552 0 0 -11.9552 140.678 32.815)" fill="#b30000"/><use xlink:href="#f" transform="matrix(11.9552 0 0 -11.9552 147.528 32.887)" fill="#b30000"/><use xlink:href="#e" transform="matrix(11.9552 0 0 -11.9552 153.04 32.815)" fill="#b30000"/><use xlink:href="#g" transform="matrix(11.9552 0 0 -11.9552 156.626 32.887)" fill="#b30000"/><use xlink:href="#h" transform="matrix(11.9552 0 0 -11.9552 163.489 32.815)" fill="#b30000"/><symbol id="l"><path d="M.491.352C.626.388.659.46.659.514c0 .1-.105.184-.29.184H0V.655h.106v-.6H0V.012c.029.002.133.002.169.002.036 0 .141 0 .17-.002v.043H.233v.284h.119c.04 0 .072-.012.094-.038.03-.034.03-.056.03-.123s0-.108.051-.142A.308.308 0 0 1 .683 0c.102 0 .114.09.114.104 0 .017-.008.02-.021.02-.019 0-.02-.007-.021-.02C.75.054.719.033.691.033.627.033.62.1.612.192.606.245.599.319.491.352M.35.372H.233v.283h.119C.515.655.518.573.518.514.518.459.517.372.35.372z"/></symbol><symbol id="m"><path d="M.247.043H.178v.192A.195.195 0 0 1 .307.188c.137 0 .244.083.244.229 0 .138-.093.227-.228.227a.237.237 0 0 1-.15-.052v.052L0 .636V.593c.062 0 .069 0 .069-.039V.043H0V0c.023.002.095.002.123.002.028 0 .101 0 .124-.002v.043M.178.544c.037.048.09.064.129.064.065 0 .124-.059.124-.191C.431.272.359.221.295.221A.14.14 0 0 0 .178.29v.254z"/></symbol><symbol id="n"><path d="M.802.306C.802.398.763.45.651.45a.178.178 0 0 1-.164-.1C.471.435.403.45.339.45A.18.18 0 0 1 .17.34H.169v.11L0 .442V.399c.062 0 .069 0 .069-.039V.043H0V0c.023.002.095.002.123.002.028 0 .101 0 .124-.002v.043H.178v.213c0 .109.081.161.144.161.037 0 .059-.022.059-.1V.043H.312V0c.023.002.095.002.123.002.028 0 .101 0 .124-.002v.043H.49v.213c0 .109.081.161.144.161.037 0 .059-.022.059-.1V.043H.624V0c.023.002.095.002.123.002.028 0 .101 0 .124-.002v.043H.802v.263z"/></symbol><symbol id="o"><path d="M.409.406c.009.011.009.013.009.019 0 .019-.01.019-.029.019H.027L.016.272h.042c.006.095.028.139.139.139h.09L.009.04C0 .029 0 .027 0 .02 0 0 .009 0 .029 0h.375l.017.198H.379C.371.092.349.036.223.036H.132l.277.37z"/></symbol><use xlink:href="#l" transform="matrix(11.9552 0 0 -11.9552 234.575 31.796)" fill="#0000b3"/><use xlink:href="#k" transform="matrix(11.9552 0 0 -11.9552 244.522 31.725)" fill="#0000b3"/><use xlink:href="#m" transform="matrix(11.9552 0 0 -11.9552 250.703 33.972)" fill="#0000b3"/><use xlink:href="#c" transform="matrix(11.9552 0 0 -11.9552 258.163 31.725)" fill="#0000b3"/><use xlink:href="#b" transform="matrix(11.9552 0 0 -11.9552 264.714 31.653)" fill="#0000b3"/><use xlink:href="#c" transform="matrix(11.9552 0 0 -11.9552 270.202 31.725)" fill="#0000b3"/><use xlink:href="#n" transform="matrix(11.9552 0 0 -11.9552 276.837 31.653)" fill="#0000b3"/><use xlink:href="#k" transform="matrix(11.9552 0 0 -11.9552 287.92 31.725)" fill="#0000b3"/><use xlink:href="#f" transform="matrix(11.9552 0 0 -11.9552 293.933 31.725)" fill="#0000b3"/><use xlink:href="#k" transform="matrix(11.9552 0 0 -11.9552 299.289 31.725)" fill="#0000b3"/><use xlink:href="#b" transform="matrix(11.9552 0 0 -11.9552 305.47 31.653)" fill="#0000b3"/><use xlink:href="#e" transform="matrix(11.9552 0 0 -11.9552 311.077 31.653)" fill="#0000b3"/><use xlink:href="#o" transform="matrix(11.9552 0 0 -11.9552 314.663 31.653)" fill="#0000b3"/><use xlink:href="#k" transform="matrix(11.9552 0 0 -11.9552 320.64 31.725)" fill="#0000b3"/><use xlink:href="#d" transform="matrix(11.9552 0 0 -11.9552 326.857 31.725)" fill="#0000b3"/><use xlink:href="#j" transform="matrix(11.9552 0 0 -11.9552 338.825 31.653)" fill="#0000b3"/><use xlink:href="#f" transform="matrix(11.9552 0 0 -11.9552 348.4 31.725)" fill="#0000b3"/><use xlink:href="#f" transform="matrix(11.9552 0 0 -11.9552 353.637 31.725)" fill="#0000b3"/><use xlink:href="#k" transform="matrix(11.9552 0 0 -11.9552 358.993 31.725)" fill="#0000b3"/><use xlink:href="#h" transform="matrix(11.9552 0 0 -11.9552 365.258 31.653)" fill="#0000b3"/><use xlink:href="#f" transform="matrix(11.9552 0 0 -11.9552 372.108 31.725)" fill="#0000b3"/><use xlink:href="#e" transform="matrix(11.9552 0 0 -11.9552 377.62 31.653)" fill="#0000b3"/><use xlink:href="#g" transform="matrix(11.9552 0 0 -11.9552 381.206 31.725)" fill="#0000b3"/><use xlink:href="#h" transform="matrix(11.9552 0 0 -11.9552 388.068 31.653)" fill="#0000b3"/><path d="M125.643 56.576H89.101a2.989 2.989 0 0 0-2.99 2.989v20.257a2.989 2.989 0 0 0 2.99 2.989h36.542a2.989 2.989 0 0 0 2.99-2.99V59.566a2.989 2.989 0 0 0-2.99-2.989zM86.112 82.811" fill="#fff"/><path stroke-width=".797" stroke-miterlimit="10" fill="none" stroke="#000" d="M125.643 56.576H89.101a2.989 2.989 0 0 0-2.99 2.989v20.257a2.989 2.989 0 0 0 2.99 2.989h36.542a2.989 2.989 0 0 0 2.99-2.99V59.566a2.989 2.989 0 0 0-2.99-2.989zM86.112 82.811"/><symbol id="p"><path d="M.458.411.374.61.369.623c0 .006.017.025.059.029.01.001.02.002.02.019 0 .012-.012.012-.015.012L.307.68.195.683c-.006 0-.018 0-.018-.02C.177.652.187.652.2.652.26.652.266.642.275.62L.393.341.182.114.169.103A.202.202 0 0 0 .022.031C.009.03 0 .03 0 .011 0 .01 0 0 .013 0l.094.003L.219 0c.006 0 .018 0 .018.02 0 .01-.01.011-.012.011-.009.001-.04.003-.04.031 0 .016.015.032.027.045l.102.108.09.098.101-.239L.51.06C.51.052.491.035.452.031.441.03.432.029.432.012.432 0 .443 0 .447 0l.126.003L.684 0c.007 0 .019 0 .019.019 0 .012-.01.012-.018.012C.618.032.616.035.599.075.56.168.493.324.47.384c.068.07.173.189.205.217a.204.204 0 0 0 .127.051c.013.001.022.001.022.02 0 .001 0 .011-.013.011L.717.68.606.683C.6.683.587.683.587.663c0-.007.005-.01.012-.011.009-.001.04-.003.04-.031C.639.607.628.594.62.585L.458.411z"/></symbol><use xlink:href="#p" transform="matrix(9.9626 0 0 -9.9626 103.123 66.704)"/><symbol id="q"><path d="m.16.168.031.128a.33.33 0 0 0 .063.089.157.157 0 0 0 .106.043c.054 0 .054-.053.054-.07C.414.297.367.175.356.144.344.113.34.103.34.084.34.03.381 0 .426 0c.096 0 .135.143.135.154 0 .005-.003.012-.013.012C.537.166.536.161.532.148.507.063.465.025.429.025c-.007 0-.025 0-.025.032 0 .025.01.051.018.073.02.051.06.157.06.213 0 .089-.066.11-.119.11C.27.453.221.387.205.366a.094.094 0 0 1-.097.087C.066.453.045.422.031.395A.477.477 0 0 1 0 .299C0 .29.007.287.014.287c.011 0 .013.005.018.025.019.079.04.116.074.116.03 0 .03-.032.03-.047C.136.36.128.329.122.303L.101.222.061.058C.054.034.054.032.054.029.054.016.063 0 .085 0c.014 0 .029.009.036.021a.652.652 0 0 1 .016.058L.16.168z"/></symbol><use xlink:href="#q" transform="matrix(8.9664 0 0 -8.9664 96.833 78.758)"/><symbol id="r"><path d="M.482.452c.011.011.014.016.014.023 0 .013-.01.022-.021.022C.467.497.466.495.454.484L.248.279.033.493a.018.018 0 0 1-.011.004A.022.022 0 0 1 0 .475C0 .467.004.463.015.452L.218.249.015.046C.001.032 0 .027 0 .022 0 .01.01 0 .022 0c.001 0 .006 0 .011.003l.215.215L.457.01C.463.004.466 0 .475 0c.011 0 .021.009.021.022 0 .004-.002.01-.005.012C.489.038.312.215.278.248l.204.204z"/></symbol><use xlink:href="#r" transform="matrix(8.9664 0 0 -8.9664 105.534 78.641)"/><symbol id="s"><path d="M.482.671a.06.06 0 0 1 .004.02C.486.7.48.705.471.705.457.705.369.697.349.695.339.694.328.693.328.676c0-.013.011-.013.027-.013.047 0 .047-.007.047-.016C.402.64.393.605.388.584L.369.507A3.93 3.93 0 0 1 .34.391C.321.427.29.453.245.453.129.453 0 .315 0 .162 0 .052.07 0 .137 0c.065 0 .118.054.134.073C.282.018.332 0 .364 0 .393 0 .418.013.44.055a.416.416 0 0 1 .032.099c0 .005-.003.012-.013.012C.447.166.446.161.442.142.42.055.398.025.367.025.342.025.336.049.336.071c0 .013.005.041.006.044l.14.556M.275.132C.271.116.27.114.254.094.218.051.177.025.14.025.091.025.074.076.074.119a.68.68 0 0 0 .053.212c.032.06.078.097.118.097.067 0 .082-.081.082-.086L.324.327.275.132z"/></symbol><use xlink:href="#s" transform="matrix(8.9664 0 0 -8.9664 113.772 78.758)"/><path d="M62.483 103.45H25.941a2.989 2.989 0 0 0-2.989 2.99v20.489a2.989 2.989 0 0 0 2.989 2.988h36.542a2.989 2.989 0 0 0 2.99-2.988v-20.49a2.989 2.989 0 0 0-2.99-2.989zm-39.531 26.467" fill="#ffd9d9"/><path stroke-width=".797" stroke-miterlimit="10" fill="none" stroke="#000" d="M62.483 103.45H25.941a2.989 2.989 0 0 0-2.989 2.99v20.489a2.989 2.989 0 0 0 2.989 2.988h36.542a2.989 2.989 0 0 0 2.99-2.988v-20.49a2.989 2.989 0 0 0-2.99-2.989zm-39.531 26.467"/><symbol id="t"><path d="M.389.2a.49.49 0 0 1 .302.43c0 .161-.106.269-.255.269C.22.899 0 .672 0 .439 0 .273.112.172.256.172a.37.37 0 0 1 .098.015L.35.11C.35.078.35 0 .433 0 .552 0 .6.183.6.194c0 .007-.007.01-.011.01C.581.204.579.199.577.193.553.122.495.097.46.097.414.097.399.124.389.2M.2.208C.122.239.088.317.088.407c0 .069.026.211.102.319.073.102.167.148.24.148.1 0 .173-.078.173-.212 0-.1-.051-.334-.219-.428C.379.269.369.342.296.342A.107.107 0 0 1 .194.24C.194.22.2.209.2.208M.262.197c-.014 0-.046 0-.046.043 0 .04.038.08.08.08S.357.296.357.235C.357.22.356.219.346.215A.222.222 0 0 0 .262.197z"/></symbol><use xlink:href="#t" transform="matrix(9.9626 0 0 -9.9626 40.763 115.51)"/><use xlink:href="#q" transform="matrix(8.9664 0 0 -8.9664 31.388 125.632)"/><use xlink:href="#r" transform="matrix(8.9664 0 0 -8.9664 40.088 125.515)"/><use xlink:href="#s" transform="matrix(8.9664 0 0 -8.9664 48.327 125.632)"/><symbol id="u"><path d="m.241.674.003.015c0 .016-.02.015-.032.014L.1.694C.083.693.07.692.07.668.07.653.083.653.099.653.128.653.135.65.148.646c0-.012 0-.014-.004-.03L.004.057C0 .041 0 .036 0 .034 0 .009.02 0 .035 0a.05.05 0 0 1 .041.023C.083.036.123.202.13.234.197.229.269.213.269.154c0-.005 0-.01-.003-.021C.263.118.263.112.263.104.263.038.319 0 .376 0c.097 0 .132.146.132.154 0 .002-.001.014-.019.014C.475.168.473.162.468.145.458.109.43.033.379.033.341.033.341.076.341.087c0 .016 0 .017.005.037 0 .001.005.021.005.033 0 .077-.087.101-.164.108a.627.627 0 0 1 .085.066c.05.044.102.087.157.087.013 0 .025-.003.034-.013a.059.059 0 0 1-.05-.056C.413.317.439.31.453.31c.022 0 .058.016.058.066C.511.419.479.451.43.451.367.451.308.403.262.363a.427.427 0 0 0-.12-.085l.099.396z"/></symbol><use xlink:href="#u" transform="matrix(5.9776 0 0 -5.9776 53.269 126.656)"/><path d="M188.803 103.45h-36.542a2.989 2.989 0 0 0-2.99 2.99v20.489a2.989 2.989 0 0 0 2.99 2.988h36.542a2.989 2.989 0 0 0 2.989-2.988v-20.49a2.989 2.989 0 0 0-2.989-2.989zm-39.531 26.467" fill="#ffd9d9"/><path stroke-width=".797" stroke-miterlimit="10" fill="none" stroke="#000" d="M188.803 103.45h-36.542a2.989 2.989 0 0 0-2.99 2.99v20.489a2.989 2.989 0 0 0 2.99 2.988h36.542a2.989 2.989 0 0 0 2.989-2.988v-20.49a2.989 2.989 0 0 0-2.989-2.989zm-39.531 26.467"/><symbol id="v"><path d="M.471.404C.47.407.466.415.466.418l.029.023.175.135c.094.069.133.073.163.076.008.001.018.002.018.02C.851.676.848.683.84.683.818.683.793.68.769.68L.658.683c-.007 0-.019 0-.019-.02 0-.007.005-.01.012-.011C.673.65.682.645.682.631.682.613.652.59.646.585l-.39-.3.08.321C.345.642.347.652.42.652c.025 0 .034 0 .034.02C.454.681.446.683.44.683L.312.68.183.683c-.007 0-.02 0-.02-.019 0-.012.009-.012.029-.012A.59.59 0 0 0 .235.65C.251.648.257.645.257.634L.253.615.119.078C.109.039.107.031.028.031.011.031 0 .031 0 .012 0 0 .012 0 .015 0l.127.003.064-.001L.271 0c.007 0 .02 0 .02.02 0 .011-.009.011-.028.011-.037 0-.065 0-.065.018 0 .007.006.029.009.044l.04.157.149.116.116-.269C.524.07.524.068.524.062.524.032.481.031.472.031.461.031.45.031.45.011.45 0 .462 0 .464 0l.122.003L.684 0c.005 0 .018 0 .018.02 0 .011-.011.011-.02.011C.641.032.628.041.613.076L.471.404z"/></symbol><use xlink:href="#v" transform="matrix(9.9626 0 0 -9.9626 166.323 113.578)"/><use xlink:href="#q" transform="matrix(8.9664 0 0 -8.9664 157.706 125.632)"/><use xlink:href="#r" transform="matrix(8.9664 0 0 -8.9664 166.407 125.515)"/><use xlink:href="#s" transform="matrix(8.9664 0 0 -8.9664 174.645 125.632)"/><use xlink:href="#u" transform="matrix(5.9776 0 0 -5.9776 179.587 126.656)"/><path stroke-width=".797" stroke-miterlimit="10" fill="none" stroke="#000" d="m89.206 83.21-23.38 17.389"/><path d="m63.44 102.375 4.269-1.219-2.042-.438.167-2.082z"/><path stroke-width=".7969601500000001" stroke-miterlimit="10" fill="none" stroke="#000" d="m63.44 102.375 4.269-1.219-2.042-.438.167-2.082z"/><symbol id="w"><path d="M.73.451a.261.261 0 0 1-.274.274A.488.488 0 0 1 0 .271C0 .117.108 0 .276 0 .5 0 .73.215.73.451M.284.033C.182.033.099.106.099.249c0 .016 0 .183.115.325a.33.33 0 0 0 .235.12c.1 0 .188-.069.188-.208A.565.565 0 0 0 .513.153a.316.316 0 0 0-.229-.12z"/></symbol><use xlink:href="#w" transform="matrix(7.9701 0 0 -7.9701 40.881 95.29)" fill="#b30000"/><symbol id="x"><path d="M.23 0c.008 0 .02 0 .02.012C.25.016.249.017.236.03.099.159.065.345.065.5c0 .288.119.423.17.469C.249.982.25.983.25.988.25.993.246 1 .236 1 .22 1 .17.949.162.94A.633.633 0 0 1 0 .5C0 .276.094.096.23 0z"/></symbol><use xlink:href="#x" transform="matrix(7.9701 0 0 -7.9701 47.957 97.115)" fill="#b30000"/><symbol id="y"><path d="m.17.174.016.068C.2.296.2.297.223.33c.033.049.08.093.147.093.036 0 .057-.021.057-.068A.862.862 0 0 0 .366.137C.353.104.353.098.353.085.353.028.4 0 .443 0c.098 0 .139.14.139.153 0 .01-.008.013-.015.013C.555.166.553.159.55.149.526.067.484.028.446.028.43.028.422.038.422.061a.19.19 0 0 0 .018.07.815.815 0 0 1 .059.209c0 .075-.052.111-.124.111A.203.203 0 0 1 .213.364C.206.419.162.451.111.451.075.451.05.428.034.397A.395.395 0 0 1 0 .298C0 .289.007.285.015.285c.013 0 .014.004.021.03.012.049.03.108.072.108C.134.423.14.398.14.376.14.358.135.339.127.306A5.408 5.408 0 0 0 .106.225L.069.075a.447.447 0 0 1-.01-.044C.059.008.078 0 .091 0c.018 0 .033.012.04.024.003.006.011.04.016.061L.17.174z"/></symbol><symbol id="z"><path d="M.495.674A.124.124 0 0 1 .499.69c0 .005-.004.014-.016.014L.425.699.369.695C.347.693.337.692.337.674.337.66.351.66.363.66.411.66.411.654.411.645A.63.63 0 0 0 .398.586L.349.391a.11.11 0 0 1-.099.06C.131.451 0 .312 0 .164 0 .06.067 0 .144 0c.064 0 .119.051.137.071C.299.002.367 0 .379 0c.046 0 .069.038.077.055.02.036.034.094.034.098C.49.159.486.166.474.166S.46.16.454.135C.44.08.421.028.382.028.359.028.35.047.35.075c0 .019.003.03.006.043l.139.556M.281.118C.231.049.179.028.147.028.101.028.078.07.078.122c0 .047.027.154.049.198.029.061.078.103.124.103C.316.423.335.35.335.338L.304.21C.291.163.291.161.281.118z"/></symbol><use xlink:href="#y" transform="matrix(7.9701 0 0 -7.9701 50.668 95.202)" fill="#b30000"/><use xlink:href="#z" transform="matrix(7.9701 0 0 -7.9701 55.912 95.202)" fill="#b30000"/><use xlink:href="#z" transform="matrix(7.9701 0 0 -7.9701 60.272 95.202)" fill="#b30000"/><use xlink:href="#u" transform="matrix(5.9776 0 0 -5.9776 64.826 96.588)" fill="#b30000"/><symbol id="A"><path d="M.249.5a.691.691 0 0 1-.078.327C.122.919.031 1 .013 1 .003 1 0 .993 0 .988 0 .984 0 .982.012.97.152.837.184.654.184.5.184.213.065.077.014.031.001.018 0 .017 0 .012 0 .007.003 0 .013 0c.016 0 .066.051.074.06C.221.2.249.38.249.5z"/></symbol><use xlink:href="#A" transform="matrix(7.9701 0 0 -7.9701 69.333 97.115)" fill="#b30000"/><path stroke-width=".797" stroke-miterlimit="10" fill="none" stroke="#000" d="m125.538 83.21 23.38 17.389"/><path d="m151.305 102.375-2.395-3.74.167 2.083-2.042.438z"/><path stroke-width=".7969601500000001" stroke-miterlimit="10" fill="none" stroke="#000" d="m151.305 102.375-2.395-3.74.167 2.083-2.042.438z"/><use xlink:href="#w" transform="matrix(7.9701 0 0 -7.9701 143.001 95.29)" fill="#b30000"/><use xlink:href="#x" transform="matrix(7.9701 0 0 -7.9701 150.077 97.115)" fill="#b30000"/><use xlink:href="#y" transform="matrix(7.9701 0 0 -7.9701 152.788 95.202)" fill="#b30000"/><use xlink:href="#z" transform="matrix(7.9701 0 0 -7.9701 158.032 95.202)" fill="#b30000"/><use xlink:href="#z" transform="matrix(7.9701 0 0 -7.9701 162.392 95.202)" fill="#b30000"/><use xlink:href="#u" transform="matrix(5.9776 0 0 -5.9776 166.946 96.588)" fill="#b30000"/><use xlink:href="#A" transform="matrix(7.9701 0 0 -7.9701 171.453 97.115)" fill="#b30000"/><path d="M128.478 128.963H86.266a2.989 2.989 0 0 0-2.989 2.989v22.369a2.989 2.989 0 0 0 2.99 2.989h42.21a2.989 2.989 0 0 0 2.99-2.99v-22.368a2.989 2.989 0 0 0-2.99-2.99zm-45.2 28.347" fill="#ffbfbf"/><path stroke-width=".797" stroke-miterlimit="10" fill="none" stroke="#000" d="M128.478 128.963H86.266a2.989 2.989 0 0 0-2.989 2.989v22.369a2.989 2.989 0 0 0 2.99 2.989h42.21a2.989 2.989 0 0 0 2.99-2.99v-22.368a2.989 2.989 0 0 0-2.99-2.99zm-45.2 28.347"/><use xlink:href="#t" transform="matrix(9.9626 0 0 -9.9626 96.197 142.866)"/><use xlink:href="#v" transform="matrix(9.9626 0 0 -9.9626 103.968 140.933)"/><symbol id="B"><path d="M.443.605C.45.634.452.637.474.639l.06.001C.595.64.621.64.646.632.691.618.693.589.693.553c0-.016 0-.029-.007-.081L.684.461c0-.01.007-.015.017-.015.015 0 .017.009.019.025l.027.191c0 .014-.012.014-.03.014H.102c-.025 0-.027 0-.034-.021L.005.478C.004.474 0 .465 0 .46 0 .456.002.446.017.446.03.446.032.451.038.47c.058.16.091.17.243.17h.042C.353.64.354.639.354.63c0-.001 0-.006-.004-.021L.218.083C.209.046.206.036.101.036c-.036 0-.045 0-.045-.022C.056.011.058 0 .073 0l.086.003.086.001.09-.001L.419 0c.008 0 .023 0 .023.022 0 .014-.01.014-.041.014L.343.038C.309.041.307.045.307.057c0 .007 0 .009.004.023l.132.525z"/></symbol><use xlink:href="#B" transform="matrix(6.9738 0 0 -6.9738 113.059 137.317)"/><use xlink:href="#q" transform="matrix(8.9664 0 0 -8.9664 96.441 152.987)"/><use xlink:href="#r" transform="matrix(8.9664 0 0 -8.9664 105.142 152.87)"/><use xlink:href="#q" transform="matrix(8.9664 0 0 -8.9664 113.263 152.987)"/><path stroke-width=".797" stroke-miterlimit="10" fill="none" stroke="#000" d="m65.87 125.756 13.218 5.54"/><path d="m81.832 132.447-3.223-3.054.663 1.98-1.877.917z"/><path stroke-width=".7969601500000001" stroke-miterlimit="10" fill="none" stroke="#000" d="m81.832 132.447-3.223-3.054.663 1.98-1.877.917z"/><path stroke-width=".797" stroke-miterlimit="10" fill="none" stroke="#000" d="m148.873 125.756-13.217 5.54"/><path d="m132.912 132.447 4.437-.157-1.877-.916.663-1.981z"/><path stroke-width=".7969601500000001" stroke-miterlimit="10" fill="none" stroke="#000" d="m132.912 132.447 4.437-.157-1.877-.916.663-1.981z"/><symbol id="C"><path d="M.648.699c0 .016 0 .026-.013.026C.628.725.627.724.618.711L.567.637a.268.268 0 0 1-.198.088A.367.367 0 0 1 0 .363C0 .161.167 0 .37 0c.168 0 .278.133.278.255 0 .01 0 .019-.016.019C.621.274.618.269.617.259A.233.233 0 0 0 .379.033c-.085 0-.275.052-.275.33 0 .269.18.329.275.329.094 0 .21-.067.236-.239C.616.445.617.438.631.438c.017 0 .017.007.017.026v.235z"/></symbol><symbol id="D"><path d="M.47.223a.235.235 0 0 1-.47 0A.23.23 0 0 1 .235 0C.364 0 .47.098.47.223M.235.031a.136.136 0 0 0-.118.061.263.263 0 0 0-.028.14c0 .038 0 .098.031.141a.14.14 0 0 0 .115.055.14.14 0 0 0 .118-.06.251.251 0 0 0 .028-.136C.381.186.379.131.351.089A.137.137 0 0 0 .235.031z"/></symbol><symbol id="E"><path d="M.74.303C.74.384.705.441.596.441A.173.173 0 0 1 .442.349C.424.421.367.441.302.441A.172.172 0 0 1 .146.345H.145v.096L0 .43V.397C.068.397.076.39.076.341V.078C.076.033.064.033 0 .033V0c.043.003.087.003.114.003.029 0 .071 0 .114-.003v.033c-.064 0-.076 0-.076.045v.181c0 .105.079.154.142.154C.359.413.37.362.37.307V.078C.37.033.358.033.294.033V0c.043.003.087.003.114.003.029 0 .071 0 .114-.003v.033c-.064 0-.076 0-.076.045v.181c0 .105.079.154.142.154.065 0 .076-.051.076-.106V.078C.664.033.652.033.588.033V0c.043.003.087.003.114.003.029 0 .071 0 .114-.003v.033C.752.033.74.033.74.078v.225z"/></symbol><symbol id="F"><path d="M.228.033c-.064 0-.076 0-.076.045v.165a.171.171 0 0 1 .13-.059c.127 0 .237.098.237.226a.224.224 0 0 1-.222.225.202.202 0 0 1-.148-.062v.062L0 .624V.591C.071.591.076.585.076.543V.078C.076.033.064.033 0 .033V0c.043.003.087.003.114.003.029 0 .071 0 .114-.003v.033M.152.527c.023.04.073.077.136.077C.365.604.43.519.43.41.43.295.358.212.277.212a.133.133 0 0 0-.113.065C.152.294.152.295.152.314v.213z"/></symbol><symbol id="G"><path d="M.149.694 0 .683V.65C.068.65.076.643.076.594V.078C.076.033.064.033 0 .033V0c.039.003.095.003.112.003.02 0 .074 0 .113-.003v.033c-.064 0-.076 0-.076.045v.616z"/></symbol><symbol id="H"><path d="M.383.238c.022 0 .028 0 .028.023 0 .089-.049.195-.19.195A.224.224 0 0 1 0 .229C0 .1.108 0 .234 0c.127 0 .177.107.177.13 0 .004-.003.014-.016.014C.384.144.382.137.38.131A.146.146 0 0 0 .119.098c-.03.046-.03.11-.03.14h.294M.09.264c.009.14.094.164.131.164.117 0 .121-.141.122-.164H.09z"/></symbol><symbol id="I"><path d="M.291.234c.028.035.057.069.087.102a.168.168 0 0 0 .131.062v.033C.47.428.468.428.423.428c-.005 0-.064 0-.095.003V.398C.347.396.351.384.351.371S.346.346.334.332L.271.258.192.352C.18.366.18.373.18.375c0 .007.006.022.031.023v.033C.171.428.115.428.104.428c-.018 0-.069 0-.099.003V.398C.073.398.074.397.126.336L.229.211.138.104A.177.177 0 0 0 0 .033V0c.037.003.044.003.086.003.002 0 .063 0 .095-.003v.033C.168.035.157.042.157.06c0 .018.012.032.015.037L.25.186.332.088c.02-.023.02-.025.02-.032C.352.048.345.034.321.033V0c.043.003.088.003.107.003.018 0 .069 0 .099-.003v.033C.465.033.455.038.429.069L.291.234z"/></symbol><symbol id="J"><path d="M.153.616a.056.056 0 0 1-.056.056.056.056 0 1 1 .056-.056M.003.43V.397C.067.397.076.391.076.342V.078C.076.033.064.033 0 .033V0c.039.003.095.003.11.003.013 0 .073 0 .108-.003v.033C.153.033.149.038.149.077v.364L.003.43z"/></symbol><symbol id="K"><path d="M.166.408h.149v.033H.166v.184H.135C.134.534.093.439 0 .436V.408h.09V.135C.09.018.18 0 .226 0c.067 0 .107.06.107.135v.056H.302V.137C.302.068.271.031.233.031.166.031.166.117.166.133v.275z"/></symbol><symbol id="L"><path d="M.422.534c.025.057.062.067.095.068v.033C.482.632.48.632.438.632c-.004 0-.057 0-.086.003V.602C.381.6.395.584.395.561A.062.062 0 0 0 .389.536L.282.294.166.556C.159.571.159.573.159.577c0 .024.031.025.053.025v.033C.167.632.124.632.102.632c-.021 0-.069 0-.101.003V.602C.053.602.067.6.084.562L.242.204C.197.098.167.028.097.028A.073.073 0 0 0 .056.04c.007.002.03.013.03.042C.086.11.065.125.043.125.023.125 0 .112 0 .081 0 .037.043 0 .097 0c.089 0 .137.107.141.117l.184.417z"/></symbol><symbol id="M"><path d="M.111.375a.055.055 0 0 1-.055.056A.055.055 0 0 1 0 .376C0 .342.027.32.055.32c.034 0 .056.027.056.055m0-.32a.055.055 0 0 1-.055.056A.055.055 0 0 1 0 .056C0 .022.027 0 .055 0c.034 0 .056.027.056.055z"/></symbol><use xlink:href="#C" transform="matrix(7.9701 0 0 -7.9701 67.762 170.893)" fill="#b30000"/><use xlink:href="#D" transform="matrix(7.9701 0 0 -7.9701 73.644 170.806)" fill="#b30000"/><use xlink:href="#E" transform="matrix(7.9701 0 0 -7.9701 77.964 170.726)" fill="#b30000"/><use xlink:href="#F" transform="matrix(7.9701 0 0 -7.9701 84.97 172.272)" fill="#b30000"/><use xlink:href="#G" transform="matrix(7.9701 0 0 -7.9701 89.728 170.726)" fill="#b30000"/><use xlink:href="#H" transform="matrix(7.9701 0 0 -7.9701 91.983 170.806)" fill="#b30000"/><use xlink:href="#I" transform="matrix(7.9701 0 0 -7.9701 95.642 170.726)" fill="#b30000"/><use xlink:href="#J" transform="matrix(7.9701 0 0 -7.9701 100.312 170.726)" fill="#b30000"/><use xlink:href="#K" transform="matrix(7.9701 0 0 -7.9701 102.488 170.806)" fill="#b30000"/><use xlink:href="#L" transform="matrix(7.9701 0 0 -7.9701 105.548 172.352)" fill="#b30000"/><use xlink:href="#M" transform="matrix(7.9701 0 0 -7.9701 110.586 170.726)" fill="#b30000"/><use xlink:href="#w" transform="matrix(7.9701 0 0 -7.9701 116.391 170.893)" fill="#b30000"/><use xlink:href="#x" transform="matrix(7.9701 0 0 -7.9701 123.467 172.719)" fill="#b30000"/><use xlink:href="#y" transform="matrix(7.9701 0 0 -7.9701 126.178 170.806)" fill="#b30000"/><symbol id="N"><path d="M.466.187H.429C.427.173.417.107.402.096.395.09.314.09.3.09H.113l.128.104c.034.027.123.091.154.121.03.03.071.081.071.152 0 .125-.113.198-.247.198C.09.665 0 .58 0 .486 0 .435.043.429.054.429c.025 0 .054.018.054.054 0 .022-.013.054-.057.054.023.051.084.089.153.089A.154.154 0 0 0 .365.467C.365.396.318.323.248.259L.011.042C.001.032 0 .031 0 0h.435l.031.187z"/></symbol><use xlink:href="#N" transform="matrix(5.9776 0 0 -5.9776 131.507 167.913)" fill="#b30000"/><use xlink:href="#z" transform="matrix(7.9701 0 0 -7.9701 135.57 170.806)" fill="#b30000"/><use xlink:href="#u" transform="matrix(5.9776 0 0 -5.9776 140.129 172.192)" fill="#b30000"/><use xlink:href="#A" transform="matrix(7.9701 0 0 -7.9701 144.636 172.719)" fill="#b30000"/><path d="M339.913 57.738h-50.716a2.989 2.989 0 0 0-2.989 2.99v20.256a2.989 2.989 0 0 0 2.99 2.989h50.715a2.989 2.989 0 0 0 2.99-2.989V60.727a2.989 2.989 0 0 0-2.99-2.989zm-53.705 26.235" fill="#fff"/><path stroke-width=".797" stroke-miterlimit="10" fill="none" stroke="#000" d="M339.913 57.738h-50.716a2.989 2.989 0 0 0-2.989 2.99v20.256a2.989 2.989 0 0 0 2.99 2.989h50.715a2.989 2.989 0 0 0 2.99-2.989V60.727a2.989 2.989 0 0 0-2.99-2.989zm-53.705 26.235"/><use xlink:href="#p" transform="matrix(9.9626 0 0 -9.9626 310.304 67.866)"/><use xlink:href="#q" transform="matrix(8.9664 0 0 -8.9664 304.014 79.92)"/><use xlink:href="#r" transform="matrix(8.9664 0 0 -8.9664 312.715 79.804)"/><use xlink:href="#s" transform="matrix(8.9664 0 0 -8.9664 320.953 79.92)"/><path d="M364.992 124.455H264.118a2.989 2.989 0 0 0-2.989 2.99v35.726a2.989 2.989 0 0 0 2.99 2.989h100.873a2.989 2.989 0 0 0 2.99-2.989v-35.727a2.989 2.989 0 0 0-2.99-2.989zM261.13 166.16" fill="#ccf"/><path stroke-width=".797" stroke-miterlimit="10" fill="none" stroke="#000" d="M364.992 124.455H264.118a2.989 2.989 0 0 0-2.989 2.99v35.726a2.989 2.989 0 0 0 2.99 2.989h100.873a2.989 2.989 0 0 0 2.99-2.989v-35.727a2.989 2.989 0 0 0-2.99-2.989zM261.13 166.16"/><symbol id="O"><path d="M.103.078C.103.042.101.031.024.031H0V0h.577l.042.258H.594C.569.104.546.031.374.031H.241c-.047 0-.049.007-.049.04v.267h.09C.379.338.39.306.39.221h.025v.265H.39C.39.4.379.369.282.369h-.09v.24c0 .033.002.04.049.04H.37C.523.649.55.594.566.455h.025L.563.68H0V.649h.024C.101.649.103.638.103.602V.078z"/></symbol><symbol id="P"><path d="M.144.442.004.431V.4C.069.4.078.394.078.345V.076C.078.031.067.031 0 .031V0l.11.003C.145.003.18.001.214 0v.031c-.066 0-.07.005-.07.044v.367m.004.174a.052.052 0 0 1-.053.053.054.054 0 0 1-.053-.053c0-.027.022-.053.053-.053.028 0 .053.021.053.053z"/></symbol><symbol id="Q"><path d="M.194.378c-.087 0-.087.1-.087.123 0 .027.001.059.016.084.008.012.031.04.071.04.087 0 .087-.1.087-.123A.164.164 0 0 0 .265.418a.086.086 0 0 0-.071-.04M.078.339c0 .004 0 .027.017.047A.17.17 0 0 1 .194.355c.093 0 .162.069.162.146a.135.135 0 0 1-.041.097.131.131 0 0 0 .09.039l.01-.001C.404.632.399.621.399.609.399.592.412.58.428.58c.01 0 .029.007.029.03a.049.049 0 0 1-.051.049A.154.154 0 0 1 .3.612a.167.167 0 0 1-.106.036C.101.648.032.579.032.502.032.458.054.42.079.399A.138.138 0 0 1 .048.316c0-.031.013-.069.044-.089C.032.21 0 .167 0 .127 0 .055.099 0 .221 0c.118 0 .222.051.222.129a.128.128 0 0 1-.065.114C.325.271.267.271.206.271L.131.272C.099.276.078.307.078.339M.222.023c-.101 0-.17.051-.17.104 0 .046.038.083.082.086h.059c.086 0 .198 0 .198-.086C.391.073.32.023.222.023z"/></symbol><symbol id="R"><path d="M.084.263c.006.149.09.174.124.174.103 0 .113-.135.113-.174H.084M.083.242h.279c.022 0 .025 0 .025.021 0 .099-.054.196-.179.196C.092.459 0 .356 0 .231 0 .097.105 0 .22 0a.17.17 0 0 1 .167.13c0 .01-.008.012-.013.012C.365.142.363.136.361.128.326.025.236.025.226.025c-.05 0-.09.03-.113.067-.03.048-.03.114-.03.15z"/></symbol><symbol id="S"><path d="M.078.344V.076C.078.031.067.031 0 .031V0l.113.003L.225 0v.031c-.067 0-.078 0-.078.045V.26c0 .104.071.16.135.16C.345.42.356.366.356.309V.076C.356.031.345.031.278.031V0l.113.003L.503 0v.031c-.052 0-.077 0-.078.03v.191c0 .086 0 .117-.031.153C.38.422.347.442.289.442.216.442.169.399.141.337v.105L0 .431V.4C.07.4.078.393.078.344z"/></symbol><symbol id="T"><path d="M.265 0v.058H0V0h.265z"/></symbol><symbol id="U"><path d="M.346.066V0l.147.011v.031c-.07 0-.078.007-.078.056v.607L.271.694V.663c.07 0 .078-.007.078-.056V.391a.16.16 0 0 1-.126.062A.226.226 0 0 1 0 .226C0 .099.098 0 .212 0c.064 0 .109.034.134.066m0 .268V.129c0-.018 0-.02-.011-.037a.14.14 0 0 0-.118-.07C.172.022.136.048.112.086a.269.269 0 0 0-.029.139c0 .037.002.097.031.142a.137.137 0 0 0 .113.064.13.13 0 0 0 .108-.06C.346.354.346.352.346.334z"/></symbol><symbol id="V"><path d="M.083.229c0 .163.082.205.135.205C.227.434.29.433.325.397.284.394.278.364.278.351c0-.026.018-.046.046-.046C.35.305.37.322.37.352.37.42.294.459.217.459.092.459 0 .351 0 .227 0 .099.099 0 .215 0c.134 0 .166.12.166.13 0 .01-.01.01-.013.01C.359.14.357.136.355.13.326.037.261.025.224.025.171.025.083.068.083.229z"/></symbol><symbol id="W"><path d="M.443.225c0 .128-.1.234-.221.234C.097.459 0 .35 0 .225 0 .096.104 0 .221 0c.121 0 .222.098.222.225m-.221-.2a.13.13 0 0 0-.114.067C.083.136.083.197.083.233c0 .039 0 .093.024.137a.134.134 0 0 0 .114.067.131.131 0 0 0 .113-.065C.36.329.36.271.36.233c0-.036 0-.09-.022-.134A.129.129 0 0 0 .222.025z"/></symbol><symbol id="X"><path d="M.078.344V.076C.078.031.067.031 0 .031V0l.113.003L.225 0v.031c-.067 0-.078 0-.078.045V.26c0 .104.071.16.135.16C.345.42.356.366.356.309V.076C.356.031.345.031.278.031V0l.113.003L.503 0v.031c-.067 0-.078 0-.078.045V.26c0 .104.071.16.135.16C.623.42.634.366.634.309V.076C.634.031.623.031.556.031V0l.113.003L.781 0v.031c-.052 0-.077 0-.078.03v.191c0 .086 0 .117-.031.153C.658.422.625.442.567.442A.158.158 0 0 1 .422.344C.408.431.334.442.289.442.216.442.169.399.141.337v.105L0 .431V.4C.07.4.078.393.078.344z"/></symbol><symbol id="Y"><path d="M.144.57v.066L0 .625V.594c.071 0 .078-.006.078-.05V.076C.078.031.067.031 0 .031V0l.112.003L.225 0v.031c-.067 0-.078 0-.078.045V.253C.152.237.194.183.27.183c.119 0 .223.098.223.227 0 .127-.097.226-.209.226A.18.18 0 0 1 .144.57M.147.308v.223a.15.15 0 0 0 .129.08C.349.611.41.523.41.41.41.289.34.205.266.205c-.04 0-.078.02-.105.061C.147.287.147.288.147.308z"/></symbol><symbol id="Z"><path d="M.106.053a.053.053 0 0 1-.053.053A.053.053 0 0 1 0 .053C0 .024.024 0 .053 0c.029 0 .053.024.053.053z"/></symbol><symbol id="aa"><path d="M.142.431v.116c0 .088.048.136.092.136.003 0 .018 0 .033-.007a.044.044 0 0 1-.03-.042C.237.611.253.591.28.591c.029 0 .044.02.044.044 0 .037-.037.07-.09.07A.155.155 0 0 1 .079.546V.431H0V.4h.079V.076C.079.031.068.031.001.031V0l.114.003c.04 0 .087 0 .127-.003v.031H.221C.147.031.145.042.145.078V.4h.114v.031H.142z"/></symbol><use xlink:href="#O" transform="matrix(9.9626 0 0 -9.9626 276.76 134.693)"/><use xlink:href="#P" transform="matrix(9.9626 0 0 -9.9626 283.544 134.693)"/><use xlink:href="#Q" transform="matrix(9.9626 0 0 -9.9626 286.264 136.745)"/><use xlink:href="#R" transform="matrix(9.9626 0 0 -9.9626 291.245 134.803)"/><use xlink:href="#S" transform="matrix(9.9626 0 0 -9.9626 295.709 134.693)"/><use xlink:href="#T" transform="matrix(9.9626 0 0 -9.9626 301.039 132.83)"/><use xlink:href="#U" transform="matrix(9.9626 0 0 -9.9626 304.585 134.803)"/><use xlink:href="#R" transform="matrix(9.9626 0 0 -9.9626 310.065 134.803)"/><use xlink:href="#V" transform="matrix(9.9626 0 0 -9.9626 314.548 134.803)"/><use xlink:href="#W" transform="matrix(9.9626 0 0 -9.9626 318.912 134.803)"/><use xlink:href="#X" transform="matrix(9.9626 0 0 -9.9626 323.933 134.693)"/><use xlink:href="#Y" transform="matrix(9.9626 0 0 -9.9626 332.192 136.626)"/><use xlink:href="#Z" transform="matrix(9.9626 0 0 -9.9626 338.309 134.693)"/><use xlink:href="#W" transform="matrix(9.9626 0 0 -9.9626 344.924 134.803)"/><use xlink:href="#aa" transform="matrix(9.9626 0 0 -9.9626 349.955 134.693)"/><symbol id="ab"><path d="M.862.589c.025.044.049.08.112.085.009.001.019.001.019.02a.012.012 0 0 1-.012.011L.904.702.8.705c-.006 0-.019 0-.019-.019C.781.675.79.674.796.674.82.673.855.665.855.635.855.624.85.616.842.602L.572.131.535.627c-.001.02-.003.046.07.047.017 0 .027 0 .027.02 0 .01-.011.011-.015.011L.495.702.39.705c-.006 0-.019 0-.019-.02 0-.011.01-.011.024-.011.044 0 .051-.006.053-.025L.454.572.201.131.163.638c0 .012 0 .035.076.036.01 0 .021 0 .021.02C.26.705.248.705.246.705L.123.702.018.705C.013.705 0 .705 0 .686 0 .674.009.674.025.674c.05 0 .051-.009.053-.037L.123.026C.124.008.125 0 .139 0c.012 0 .015.006.024.021l.294.51.037-.505C.496.005.498 0 .51 0c.013 0 .019.01.024.019l.328.57z"/></symbol><use xlink:href="#ab" transform="matrix(9.9626 0 0 -9.9626 298.465 146.867)"/><symbol id="ac"><path d="M.396.134C.396.069.409 0 .491 0 .612 0 .67.172.67.194a.014.014 0 0 1-.014.014C.646.208.643.199.642.195a.134.134 0 0 0-.124-.09c-.04 0-.061.017-.079.097.178.063.321.24.321.417C.76.776.647.897.47.897.231.897 0 .673 0 .448 0 .287.119.174.291.174c.019 0 .053.001.105.014V.134M.223.219C.171.237.097.289.097.423c0 .064.021.197.112.31.063.077.16.132.253.132.109 0 .201-.073.201-.219C.663.546.614.331.431.24.415.303.389.345.33.345.274.345.219.298.219.245.219.227.22.226.223.219m.173.005A.3.3 0 0 0 .298.206c-.016 0-.051 0-.051.039 0 .038.041.072.083.072.036 0 .063-.016.066-.093z"/></symbol><use xlink:href="#ac" transform="matrix(6.9738 0 0 -6.9738 307.807 149.496)"/><use xlink:href="#ab" transform="matrix(9.9626 0 0 -9.9626 314.646 146.867)"/><symbol id="ad"><path d="M.503.402.497.414c0 .002.001.003.024.019l.101.071c.132.093.194.137.265.143C.898.648.91.649.91.669a.013.013 0 0 1-.013.013L.828.679.707.683c-.006 0-.021 0-.021-.022 0-.001 0-.013.015-.014C.713.646.726.644.726.633.726.615.695.593.682.584L.265.29l.079.315c.009.034.01.042.088.042.016 0 .03 0 .03.021 0 .009-.006.015-.016.015L.315.679.246.68.183.683c-.006 0-.021 0-.021-.022 0-.014.011-.014.033-.014.016 0 .02 0 .038-.002C.253.643.255.641.255.631c0-.002 0-.007-.004-.022L.118.078C.11.044.108.036.03.036c-.018 0-.03 0-.03-.022C0 .013 0 0 .016 0l.13.004.069-.001L.279 0C.285 0 .3 0 .3.022.3.036.288.036.268.036c-.001 0-.02 0-.038.002C.207.04.207.043.207.053c0 .008.01.045.047.192L.42.362.565.081C.572.068.572.067.572.062.572.039.544.036.526.036.514.036.5.036.5.014.5.013.501 0 .517 0l.128.004C.675.004.715 0 .743 0c.013 0 .02.007.02.021C.763.036.75.036.74.036.722.036.691.037.674.069L.503.402z"/></symbol><use xlink:href="#B" transform="matrix(6.9738 0 0 -6.9738 325.19 143.033)"/><use xlink:href="#ad" transform="matrix(6.9738 0 0 -6.9738 323.988 149.392)"/><symbol id="ae"><path d="M.58.597c.01.042.029.074.107.077.006 0 .018.001.018.018C.705.7.699.705.691.705l-.1-.003L.54.703.488.705C.484.705.47.705.47.687.47.674.482.674.488.674.526.673.555.664.555.631L.552.611.462.253C.427.115.306.031.207.031.156.031.082.058.082.164c0 .026.004.052.01.078l.097.386c.009.038.012.046.09.046.016 0 .027 0 .027.018 0 .009-.007.013-.015.013L.228.703.164.702.1.703.035.705c-.006 0-.02 0-.02-.018 0-.013.01-.013.03-.013.004 0 .022 0 .038-.002C.102.67.107.667.107.657A.572.572 0 0 0 .092.594L.07.506.009.259A.217.217 0 0 1 0 .194C0 .078.087 0 .204 0c.13 0 .256.115.288.245L.58.597z"/></symbol><use xlink:href="#ae" transform="matrix(8.9664 0 0 -8.9664 265.067 160.793)"/><symbol id="af"><path d="M.108.377c0 .03-.024.054-.054.054A.054.054 0 0 1 0 .377C0 .348.024.323.054.323s.054.025.054.054m0-.323a.054.054 0 0 1-.054.054A.054.054 0 0 1 0 .054C0 .024.024 0 .054 0s.054.024.054.054z"/></symbol><symbol id="ag"><path d="M.142 0v.043H.043v.914h.099V1H0V0h.142z"/></symbol><use xlink:href="#af" transform="matrix(8.9664 0 0 -8.9664 275.033 160.596)"/><use xlink:href="#ag" transform="matrix(8.9664 0 0 -8.9664 280.44 162.838)"/><use xlink:href="#s" transform="matrix(8.9664 0 0 -8.9664 282.3 160.695)"/><use xlink:href="#r" transform="matrix(8.9664 0 0 -8.9664 290.1 160.578)"/><use xlink:href="#s" transform="matrix(8.9664 0 0 -8.9664 298.338 160.695)"/><use xlink:href="#u" transform="matrix(5.9776 0 0 -5.9776 303.28 161.719)"/><symbol id="ah"><path d="M.142 0v1H0V.957h.099V.043H0V0h.142z"/></symbol><use xlink:href="#ah" transform="matrix(8.9664 0 0 -8.9664 307.506 162.838)"/><symbol id="ai"><path d="M.094.209c0-.033 0-.115-.074-.186C.014.017.014.016.014.012.014.005.021 0 .027 0c.011 0 .092.078.092.195 0 .062-.022.106-.065.106A.053.053 0 0 1 0 .247C0 .219.02.193.054.193c.015 0 .03.005.04.016z"/></symbol><use xlink:href="#ai" transform="matrix(8.9664 0 0 -8.9664 310.658 162.327)"/><symbol id="aj"><path d="M.292.575.458.081C.463.068.463.066.463.062.463.031.408.031.38.031V0c.045.003.096.003.142.003C.569.003.57.003.647 0v.031c-.061 0-.078 0-.092.042L.347.695C.342.708.339.716.323.716S.304.707.3.695L.101.101C.091.07.07.031 0 .031V0c.032.003.062.003.094.003C.136.003.153.002.205 0v.031C.156.032.13.055.13.083c0 .005 0 .007.005.021l.157.471z"/></symbol><use xlink:href="#aj" transform="matrix(8.9664 0 0 -8.9664 315.797 160.596)"/><use xlink:href="#af" transform="matrix(8.9664 0 0 -8.9664 325.247 160.596)"/><use xlink:href="#ag" transform="matrix(8.9664 0 0 -8.9664 330.663 162.838)"/><use xlink:href="#s" transform="matrix(8.9664 0 0 -8.9664 332.515 160.695)"/><use xlink:href="#u" transform="matrix(5.9776 0 0 -5.9776 337.457 161.719)"/><use xlink:href="#r" transform="matrix(8.9664 0 0 -8.9664 344.888 160.578)"/><use xlink:href="#s" transform="matrix(8.9664 0 0 -8.9664 353.126 160.695)"/><use xlink:href="#u" transform="matrix(5.9776 0 0 -5.9776 358.068 161.719)"/><use xlink:href="#ah" transform="matrix(8.9664 0 0 -8.9664 362.294 162.838)"/><use xlink:href="#w" transform="matrix(7.9701 0 0 -7.9701 377.971 147.34)" fill="#0000b3"/><use xlink:href="#x" transform="matrix(7.9701 0 0 -7.9701 385.047 149.166)" fill="#0000b3"/><use xlink:href="#z" transform="matrix(7.9701 0 0 -7.9701 387.862 147.253)" fill="#0000b3"/><use xlink:href="#z" transform="matrix(7.9701 0 0 -7.9701 392.221 147.253)" fill="#0000b3"/><use xlink:href="#N" transform="matrix(5.9776 0 0 -5.9776 396.664 144.36)" fill="#0000b3"/><use xlink:href="#u" transform="matrix(5.9776 0 0 -5.9776 396.778 150.165)" fill="#0000b3"/><use xlink:href="#A" transform="matrix(7.9701 0 0 -7.9701 401.285 149.166)" fill="#0000b3"/><path d="M341.468 189.634h-53.826a2.989 2.989 0 0 0-2.989 2.99v23.77a2.989 2.989 0 0 0 2.99 2.99h53.825a2.989 2.989 0 0 0 2.99-2.99v-23.77a2.989 2.989 0 0 0-2.99-2.99zm-56.815 29.75" fill="#bfbfff"/><path stroke-width=".797" stroke-miterlimit="10" fill="none" stroke="#000" d="M341.468 189.634h-53.826a2.989 2.989 0 0 0-2.989 2.99v23.77a2.989 2.989 0 0 0 2.99 2.99h53.825a2.989 2.989 0 0 0 2.99-2.99v-23.77a2.989 2.989 0 0 0-2.99-2.99zm-56.815 29.75"/><symbol id="ak"><path d="M.549.258H.524C.513.156.499.031.323.031H.241c-.047 0-.049.007-.049.04v.533c0 .034 0 .048.095.048H.32v.031C.284.68.193.68.152.68.113.68.035.68 0 .683V.652h.024C.101.652.103.641.103.605V.078C.103.042.101.031.024.031H0V0h.521l.028.258z"/></symbol><symbol id="al"><path d="M.291.087C.295.047.322.005.369.005.39.005.451.019.451.1v.056H.426V.1C.426.042.401.036.39.036c-.033 0-.037.045-.037.05v.2c0 .042 0 .081-.036.118A.191.191 0 0 1 .18.459C.098.459.029.412.029.346c0-.03.02-.047.046-.047.028 0 .046.02.046.046C.121.357.116.39.07.391c.027.035.076.046.108.046.049 0 .106-.039.106-.128V.272C.233.269.163.266.1.236.025.202 0 .15 0 .106 0 .025.097 0 .16 0c.066 0 .112.04.131.087M.284.251v-.1C.284.056.212.022.167.022c-.049 0-.09.035-.09.085 0 .055.042.138.207.144z"/></symbol><symbol id="am"><path d="M.139.332v.11L0 .431V.4C.07.4.078.393.078.344V.076C.078.031.067.031 0 .031V0l.114.003c.04 0 .087 0 .127-.003v.031H.22C.146.031.144.042.144.078v.154c0 .099.042.188.118.188L.273.419A.043.043 0 0 1 .25.38C.25.352.271.337.293.337c.018 0 .043.012.043.044S.305.442.262.442C.189.442.153.375.139.332z"/></symbol><symbol id="an"><path d="M.397.344C.406.367.423.41.489.411v.031a.94.94 0 0 0-.162 0V.411C.364.41.375.387.375.368.375.359.373.355.369.344L.267.089.155.368C.149.381.149.383.149.385c0 .026.039.026.057.026v.031L.097.439C.07.439.03.44 0 .442V.411C.063.411.067.405.08.374L.224.019C.23.005.232 0 .245 0c.013 0 .017.009.021.019l.131.325z"/></symbol><symbol id="ao"><path d="M.144.694 0 .683V.652C.07.652.078.645.078.596v-.52C.078.031.067.031 0 .031V0l.111.003L.222 0v.031c-.067 0-.078 0-.078.045v.618z"/></symbol><use xlink:href="#ak" transform="matrix(9.9626 0 0 -9.9626 288.3 199.871)"/><use xlink:href="#P" transform="matrix(9.9626 0 0 -9.9626 294.526 199.871)"/><use xlink:href="#S" transform="matrix(9.9626 0 0 -9.9626 297.286 199.871)"/><use xlink:href="#R" transform="matrix(9.9626 0 0 -9.9626 302.785 199.98)"/><use xlink:href="#al" transform="matrix(9.9626 0 0 -9.9626 307.348 199.98)"/><use xlink:href="#am" transform="matrix(9.9626 0 0 -9.9626 312.19 199.871)"/><use xlink:href="#O" transform="matrix(9.9626 0 0 -9.9626 319.463 199.871)"/><use xlink:href="#an" transform="matrix(9.9626 0 0 -9.9626 326.108 199.98)"/><use xlink:href="#al" transform="matrix(9.9626 0 0 -9.9626 331.05 199.98)"/><use xlink:href="#ao" transform="matrix(9.9626 0 0 -9.9626 335.94 199.871)"/><use xlink:href="#Z" transform="matrix(9.9626 0 0 -9.9626 339.239 199.871)"/><symbol id="ap"><path d="M.708.455c0 .158-.106.272-.263.272C.221.727 0 .497 0 .269 0 .105.113 0 .264 0c.223 0 .444.223.444.455M.271.03C.175.03.096.103.096.244c0 .052.017.2.1.314a.317.317 0 0 0 .242.141C.536.699.617.628.617.493a.606.606 0 0 0-.11-.324C.432.069.34.03.271.03z"/></symbol><use xlink:href="#ap" transform="matrix(8.9664 0 0 -8.9664 299.561 214.016)"/><symbol id="aq"><path d="M.24.011C.24.016.237.019.231.026.102.144.063.324.063.499c0 .155.03.343.171.477C.238.98.24.983.24.988.24.995.235.999.228.999A.435.435 0 0 1 .072.818.692.692 0 0 1 0 .5.72.72 0 0 1 .064.196.45.45 0 0 1 .228 0C.235 0 .24.004.24.011z"/></symbol><use xlink:href="#aq" transform="matrix(8.9664 0 0 -8.9664 307.287 216.052)"/><use xlink:href="#q" transform="matrix(8.9664 0 0 -8.9664 310.225 213.918)"/><use xlink:href="#s" transform="matrix(8.9664 0 0 -8.9664 317.434 213.918)"/><use xlink:href="#u" transform="matrix(5.9776 0 0 -5.9776 322.379 214.942)"/><symbol id="ar"><path d="M.24.5a.714.714 0 0 1-.064.303.45.45 0 0 1-.164.196A.011.011 0 0 1 0 .988C0 .983.002.98.009.973.067.921.177.785.177.5.177.357.151.158.006.023.004.02 0 .016 0 .011 0 .008.002 0 .012 0c.012 0 .102.072.156.181A.693.693 0 0 1 .24.5z"/></symbol><use xlink:href="#ar" transform="matrix(8.9664 0 0 -8.9664 326.928 216.052)"/><path stroke-width=".797" stroke-miterlimit="10" fill="none" stroke="#000" d="M314.555 84.371v35.576"/><path d="m314.555 122.922 1.57-4.154-1.57 1.378-1.57-1.378z"/><path stroke-width=".797" stroke-miterlimit="10" fill="none" stroke="#000" d="m314.555 122.922 1.57-4.154-1.57 1.378-1.57-1.378z"/><path stroke-width=".797" stroke-dasharray="2.98883,2.98883" stroke-miterlimit="10" fill="none" stroke="#000" d="M314.555 166.558v18.568"/><path d="m314.555 188.101 1.57-4.154-1.57 1.378-1.57-1.378z"/><path stroke-width=".797" stroke-miterlimit="10" fill="none" stroke="#000" d="m314.555 188.101 1.57-4.154-1.57 1.378-1.57-1.378z"/><path stroke-width=".797" stroke-miterlimit="10" fill="none" stroke="#929292" d="M210.53 19.631v200.35"/></svg>