<?xml version="1.0" encoding="UTF-8" standalone="no"?>
<!DOCTYPE svg PUBLIC "-//W3C//DTD SVG 1.1//EN" "http://www.w3.org/Graphics/SVG/1.1/DTD/svg11.dtd">
<svg xmlns="http://www.w3.org/2000/svg" xmlns:xlink="http://www.w3.org/1999/xlink" version="1.1" width="424.46665pt" height="346.3639pt" viewBox="0 0 424.46665 346.3639" style="background-color:white">
<g enable-background="new">
<path transform="matrix(2.7777777,0,0,-2.7777777,30.516667,320.1889)" stroke-width=".3985" stroke-linecap="butt" stroke-miterlimit="10" stroke-linejoin="miter" fill="none" stroke="#000000" d="M 0 0 L 98.75554 0 "/>
<path transform="matrix(2.7777777,0,0,-2.7777777,304.8376,320.1889)" stroke-width=".31879" stroke-linecap="round" stroke-linejoin="round" fill="none" stroke="#000000" d="M -1.19551 1.59401 C -1.09587 .99626 0 .09961 .29886 0 C 0 -.09961 -1.09587 -.99626 -1.19551 -1.59401 "/>
<symbol id="font_0_2">
<path d="M .45700003 .586 C .461 .6 .461 .602 .461 .609 C .461 .62700006 .447 .63600006 .432 .63600006 C .42200003 .63600006 .40600003 .63 .397 .615 C .395 .61 .387 .579 .38300003 .561 C .37600003 .535 .36900003 .508 .363 .48100005 L .318 .301 C .314 .286 .271 .21600002 .20500002 .21600002 C .15400002 .21600002 .143 .26000003 .143 .29700003 C .143 .34300003 .16000001 .40500004 .194 .49300004 C .21000001 .53400006 .21400002 .545 .21400002 .56500008 C .21400002 .61 .18200001 .6470001 .13200002 .6470001 C .037 .6470001 0 .50200006 0 .49300004 C 0 .48300005 .01 .48300005 .012 .48300005 C .022000002 .48300005 .023 .485 .028000003 .50100007 C .055000009 .595 .095000009 .625 .12900001 .625 C .13700001 .625 .15400002 .625 .15400002 .59300008 C .15400002 .568 .14400001 .54200008 .13700001 .523 C .097 .41700004 .079 .36 .079 .31300003 C .079 .224 .142 .194 .201 .194 C .24000003 .194 .274 .21100001 .30200003 .23900002 C .289 .187 .277 .13800001 .237 .08500001 C .21100001 .051 .17300001 .022 .127 .022 C .113000009 .022 .068 .025000006 .051000008 .06400001 C .067 .06400001 .080000009 .06400001 .094000007 .076000008 C .104 .08500001 .11400001 .098000008 .11400001 .117000009 C .11400001 .148 .087000008 .15200001 .07700001 .15200001 C .054000006 .15200001 .021 .136 .021 .087000008 C .021 .037 .065000008 0 .127 0 C .23 0 .333 .091000009 .361 .20400001 L .45700003 .586 Z "/>
</symbol>
<use xlink:href="#font_0_2" transform="matrix(27.673888,0,0,-27.673888,316.68867,329.12873)"/>
<symbol id="font_1_1">
<path d="M .22600001 .63600006 C .22600001 .66300007 .224 .66400006 .19600001 .66400006 C .132 .601 .041 .6 0 .6 L 0 .564 C .023999997 .564 .09000001 .564 .14500001 .592 L .14500001 .082 C .14500001 .049000004 .14500001 .036000004 .04500001 .036000004 L .0069999995 .036000004 L .0069999995 0 C .024999999 .001 .148 .004 .185 .004 C .21600002 .004 .34200005 .001 .36400003 0 L .36400003 .036000004 L .32600004 .036000004 C .22600001 .036000004 .22600001 .049000004 .22600001 .082 L .22600001 .63600006 Z "/>
</symbol>
<use xlink:href="#font_1_1" transform="matrix(19.371666,0,0,-19.371666,331.5643,327.60835)"/>
<path transform="matrix(2.7777777,0,0,-2.7777777,30.516667,320.1889)" stroke-width=".3985" stroke-linecap="butt" stroke-miterlimit="10" stroke-linejoin="miter" fill="none" stroke="#000000" d="M 0 0 L 0 98.75554 "/>
<path transform="matrix(0,-2.7777777,-2.7777777,-0,30.516667,45.86796)" stroke-width=".31879" stroke-linecap="round" stroke-linejoin="round" fill="none" stroke="#000000" d="M -1.19551 1.59401 C -1.09587 .99626 0 .09961 .29886 0 C 0 -.09961 -1.09587 -.99626 -1.19551 -1.59401 "/>
<use xlink:href="#font_0_2" transform="matrix(27.673888,0,0,-27.673888,18.327544,35.11483)"/>
<symbol id="font_1_2">
<path d="M .442 .18200001 L .40800003 .18200001 C .40500004 .16000001 .39500005 .101 .38200004 .091000009 C .374 .085 .29700003 .085 .28300003 .085 L .099 .085 C .20400003 .178 .23900002 .20600002 .29900003 .25300003 C .37300004 .312 .442 .374 .442 .469 C .442 .59000006 .33600004 .66400006 .20800004 .66400006 C .084 .66400006 0 .577 0 .485 C 0 .43400003 .043000007 .42900003 .053000004 .42900003 C .077 .42900003 .10600001 .446 .10600001 .48200003 C .10600001 .5 .099 .535 .047000007 .535 C .078 .606 .146 .628 .19300002 .628 C .293 .628 .34500004 .55 .34500004 .469 C .34500004 .38200004 .28300003 .31300003 .25100003 .277 L .010000005 .039 C 0 .030000002 0 .028 0 0 L .41200004 0 L .442 .18200001 Z "/>
</symbol>
<use xlink:href="#font_1_2" transform="matrix(19.371666,0,0,-19.371666,32.314859,33.591676)"/>
<path transform="matrix(2.7777777,0,0,-2.7777777,30.516667,320.1889)" stroke-width=".79701" stroke-linecap="butt" stroke-miterlimit="10" stroke-linejoin="miter" fill="none" stroke="#000000" d="M 0 0 L 85.04042 85.04042 "/>
<path transform="matrix(2.7777777,0,0,-2.7777777,30.516667,320.1889)" stroke-width=".79701" stroke-linecap="butt" stroke-miterlimit="10" stroke-linejoin="miter" fill="none" stroke="#000000" d="M 0 0 L 84.40779 42.20389 "/>
<path transform="matrix(2.4843333,-1.2421389,-1.2421389,-2.4843333,264.98274,202.95592)" stroke-width=".6376" stroke-linecap="round" stroke-linejoin="round" fill="none" stroke="#000000" d="M -1.55415 2.0722 C -1.42464 1.29512 0 .1295 .38852 0 C 0 -.1295 -1.42464 -1.29512 -1.55415 -2.0722 "/>
<use xlink:href="#font_0_2" transform="matrix(27.673888,0,0,-27.673888,274.1831,214.67038)"/>
<symbol id="font_2_4">
<path d="M .63100007 .19400002 C .646 .19400002 .665 .19400002 .665 .214 C .665 .23400001 .646 .23400001 .632 .23400001 L .033 .23400001 C .019000002 .23400001 0 .23400001 0 .214 C 0 .19400002 .019000002 .19400002 .034 .19400002 L .63100007 .19400002 M .632 0 C .646 0 .665 0 .665 .02000001 C .665 .040000008 .646 .040000008 .63100007 .040000008 L .034 .040000008 C .019000002 .040000008 0 .040000008 0 .02000001 C 0 0 .019000002 0 .033 0 L .632 0 Z "/>
</symbol>
<symbol id="font_2_2">
<path d="M .23200003 .00999999 C .23200003 .012999982 .23200003 .014999986 .215 .03199999 C .09 .15799999 .058 .347 .058 .5 C .058 .674 .096 .84800007 .21900001 .97300007 C .23200003 .985 .23200003 .98700007 .23200003 .99 C .23200003 .99700006 .22800002 1 .222 1 C .21200001 1 .12200001 .93200007 .06299999 .805 C .012000002 .69500008 0 .584 0 .5 C 0 .422 .011 .301 .066 .188 C .126 .065 .21200001 0 .222 0 C .22800002 0 .23200003 .0029999912 .23200003 .00999999 Z "/>
</symbol>
<use xlink:href="#font_2_4" transform="matrix(27.673888,0,0,-27.673888,297.17753,205.3166)"/>
<use xlink:href="#font_2_2" transform="matrix(27.673888,0,0,-27.673888,327.5911,215.91571)"/>
<use xlink:href="#font_0_2" transform="matrix(27.673888,0,0,-27.673888,336.40257,214.67038)"/>
<use xlink:href="#font_1_1" transform="matrix(19.371666,0,0,-19.371666,351.28096,213.15001)"/>
<symbol id="font_0_1">
<path d="M .117000009 .194 C .117000009 .26 .092 .29900003 .05300001 .29900003 C .020000004 .29900003 0 .274 0 .246 C 0 .21900001 .020000004 .193 .05300001 .193 C .065000008 .193 .078 .197 .08800001 .206 C .091 .208 .092 .209 .093 .209 C .094000007 .209 .095000009 .208 .095000009 .194 C .095000009 .12 .06000001 .060000004 .027000003 .026999996 C .016000003 .016000003 .016000003 .013999999 .016000003 .0109999929 C .016000003 .003999993 .021000006 0 .026 0 C .037 0 .117000009 .077 .117000009 .194 Z "/>
</symbol>
<use xlink:href="#font_0_1" transform="matrix(27.673888,0,0,-27.673888,363.96327,214.3383)"/>
<use xlink:href="#font_0_2" transform="matrix(27.673888,0,0,-27.673888,374.70079,214.67038)"/>
<use xlink:href="#font_1_2" transform="matrix(19.371666,0,0,-19.371666,388.6704,213.15001)"/>
<symbol id="font_2_3">
<path d="M .232 .5 C .232 .578 .22100002 .699 .16600001 .81200006 C .106 .93500009 .020000004 1 .009999998 1 C .0040000008 1 0 .99600008 0 .99 C 0 .98700007 0 .985 .019000002 .967 C .117000009 .86800006 .174 .709 .174 .5 C .174 .329 .137 .153 .012999997 .026999996 C 0 .014999986 0 .012999982 0 .00999999 C 0 .003999993 .0040000008 0 .009999998 0 C .020000004 0 .11000001 .06799999 .169 .195 C .22 .305 .232 .416 .232 .5 Z "/>
</symbol>
<use xlink:href="#font_2_3" transform="matrix(27.673888,0,0,-27.673888,401.44407,215.91571)"/>
<path transform="matrix(2.7777777,0,0,-2.7777777,30.516667,320.1889)" stroke-width=".3985" stroke-linecap="butt" stroke-dasharray="2.98883,2.98883" stroke-miterlimit="10" stroke-linejoin="miter" fill="none" stroke="#000000" d="M 85.04042 42.5202 L 63.7803 63.7803 "/>
<path transform="matrix(2.7777777,0,0,-2.7777777,30.516667,320.1889)" stroke-width=".79701" stroke-linecap="butt" stroke-miterlimit="10" stroke-linejoin="miter" fill="none" stroke="#000000" d="M 0 0 L 63.28012 63.28012 "/>
<path transform="matrix(1.9641665,-1.9641665,-1.9641665,-1.9641665,206.29471,144.41085)" stroke-width=".6376" stroke-linecap="round" stroke-linejoin="round" fill="none" stroke="#000000" d="M -1.55415 2.0722 C -1.42464 1.29512 0 .1295 .38852 0 C 0 -.1295 -1.42464 -1.29512 -1.55415 -2.0722 "/>
<symbol id="font_2_5">
<path d="M .134 .15399999 L 0 .018000007 L .018 0 L .134 .102 L .24900002 0 L .26700003 .018000007 L .134 .15399999 Z "/>
</symbol>
<use xlink:href="#font_2_5" transform="matrix(27.673888,0,0,-27.673888,91.74628,114.52)"/>
<use xlink:href="#font_0_2" transform="matrix(27.673888,0,0,-27.673888,87.43865,135.13704)"/>
<symbol id="font_2_1">
<path d="M .361 0 L .361 .031000019 L 0 .031000019 L 0 0 L .361 0 Z "/>
</symbol>
<use xlink:href="#font_2_4" transform="matrix(27.673888,0,0,-27.673888,110.43306,125.78327)"/>
<use xlink:href="#font_2_2" transform="matrix(27.673888,0,0,-27.673888,140.84667,136.38237)"/>
<use xlink:href="#font_2_1" transform="matrix(27.673888,0,0,-27.673888,152.66342,113.994197)"/>
<use xlink:href="#font_0_2" transform="matrix(27.673888,0,0,-27.673888,149.66086,135.13704)"/>
<use xlink:href="#font_0_1" transform="matrix(27.673888,0,0,-27.673888,165.79476,134.80496)"/>
<use xlink:href="#font_2_1" transform="matrix(27.673888,0,0,-27.673888,179.52616,113.994197)"/>
<use xlink:href="#font_0_2" transform="matrix(27.673888,0,0,-27.673888,176.51918,135.13704)"/>
<use xlink:href="#font_2_3" transform="matrix(27.673888,0,0,-27.673888,191.85517,136.38237)"/>
<path transform="matrix(2.7777777,0,0,-2.7777777,30.516667,320.1889)" stroke-width=".79701" stroke-linecap="butt" stroke-miterlimit="10" stroke-linejoin="miter" fill="none" stroke="#ff0000" d="M 63.7803 63.7803 L 84.54025 43.02037 "/>
<path transform="matrix(1.9641665,1.9641665,1.9641665,-1.9641665,265.35066,200.68782)" stroke-width=".6376" stroke-linecap="round" stroke-linejoin="round" fill="none" stroke="#ff0000" d="M -1.55415 2.0722 C -1.42464 1.29512 0 .1295 .38852 0 C 0 -.1295 -1.42464 -1.29512 -1.55415 -2.0722 "/>
<use xlink:href="#font_0_2" transform="matrix(27.673888,0,0,-27.673888,244.65532,166.2037)" fill="#ff0000"/>
<symbol id="font_3_1">
<path d="M .57600006 0 C .59300008 0 .611 0 .611 .019999996 C .611 .040000008 .59300008 .040000008 .57600006 .040000008 L .035000005 .040000008 C .018 .040000008 0 .040000008 0 .019999996 C 0 0 .018 0 .035000005 0 L .57600006 0 Z "/>
</symbol>
<use xlink:href="#font_3_1" transform="matrix(27.673888,0,0,-27.673888,266.85807,154.16558)" fill="#ff0000"/>
<use xlink:href="#font_2_5" transform="matrix(27.673888,0,0,-27.673888,297.34629,145.58667)" fill="#ff0000"/>
<use xlink:href="#font_0_2" transform="matrix(27.673888,0,0,-27.673888,293.03868,166.2037)" fill="#ff0000"/>
<path transform="matrix(2.7777777,0,0,-2.7777777,30.516667,320.1889)" stroke-width=".3985" stroke-linecap="butt" stroke-miterlimit="10" stroke-linejoin="miter" fill="none" stroke="#000000" d="M 69.79356 57.76704 L 63.7803 51.75377 L 57.76704 57.76704 "/>
</g>
</svg>
